<?xml version="1.0" encoding="utf-8"?>
<!-- Generator: Adobe Illustrator 17.0.0, SVG Export Plug-In . SVG Version: 6.00 Build 0)  -->
<!DOCTYPE svg PUBLIC "-//W3C//DTD SVG 1.1//EN" "http://www.w3.org/Graphics/SVG/1.1/DTD/svg11.dtd">
<svg version="1.1" xmlns="http://www.w3.org/2000/svg" xmlns:xlink="http://www.w3.org/1999/xlink" x="0px" y="0px" width="1600px"
	 height="900px" viewBox="0 0 1600 900" enable-background="new 0 0 1600 900" xml:space="preserve">
<g id="Layer_6" display="none">
	<g display="inline">
		<rect x="-1.544" y="0.001" fill="#FBE4A8" width="1603.089" height="899.998"/>
		<radialGradient id="SVGID_1_" cx="801.5443" cy="342.8386" r="316.6649" gradientUnits="userSpaceOnUse">
			<stop  offset="0" style="stop-color:#FBE4CE"/>
			<stop  offset="0.5397" style="stop-color:#F2E7CE"/>
			<stop  offset="1" style="stop-color:#FFFFFF"/>
		</radialGradient>
		<circle fill="url(#SVGID_1_)" cx="801.544" cy="342.839" r="316.665"/>
		<g>
			<defs>
				<rect id="SVGID_2_" x="-1.545" y="0.001" width="1603.089" height="899.998"/>
			</defs>
			<clipPath id="SVGID_3_">
				<use xlink:href="#SVGID_2_"  overflow="visible"/>
			</clipPath>
			<g clip-path="url(#SVGID_3_)">
				<g>
					<g>
						<polygon fill="#D19853" points="-1603.227,91.094 -1374.202,200.334 -1095.487,159.419 -727.75,283.391 -391.527,207.719 
							-19.49,285.727 499.562,180.716 1037.773,307.616 1441.773,187.616 2013.773,299.616 2333.773,183.616 2729.773,283.616 
							3196.773,91.094 3196.773,899.999 -1603.227,899.999 						"/>
						<polygon fill="#C18749" points="1037.773,307.616 1474.525,392.708 1094.118,290.88 						"/>
					</g>
				</g>
				<g>
					<g>
						<polygon fill="#C78032" points="-1603.227,327.616 -1317.442,267.397 -642.227,395.616 -242.227,267.397 125.773,367.616 
							655.578,267.397 1321.773,415.616 1666.679,285.727 2038.716,405.739 2245.773,303.048 2632.094,385.415 3001.812,267.397 
							3196.644,327.616 3196.773,899.999 -1603.227,899.999 						"/>
						<polygon fill="#B77430" points="125.773,367.616 -72.227,397.118 69.773,354.791 						"/>
						<polygon fill="#B77430" points="1321.773,415.616 1497.344,451.714 1370.891,397.118 						"/>
					</g>
				</g>
				<g>
					<g>
						<polygon fill="#BF672B" points="-1603.227,495.546 -1386.227,402.999 -1098.227,544.706 -878.227,449.999 -498.227,603.616 
							-266.227,495.616 125.773,551.616 393.773,383.616 761.773,515.616 1041.773,423.616 1701.773,567.616 1965.773,449.999 
							2245.773,527.616 2453.773,419.616 2825.773,491.616 3069.773,327.616 3196.542,495.546 3196.773,899.999 -1603.227,899.999 
													"/>
						<polygon fill="#A85C22" points="125.773,551.616 -37.227,619.616 76.633,544.596 						"/>
						<polygon fill="#A85C22" points="741.403,508.309 763.106,550.949 784.01,508.309 761.773,515.616 						"/>
					</g>
					<g id="peter_16_">
						<g>
							<path fill="#5E8C57" d="M1520.662,294.876c-13.808,0-25,11.192-25,25c0,0.191-0.424,19.946-9.86,38.819
								c-8.636,17.271-21.875,28.239-40.14,33.159V303.06c0-13.807-11.193-25-25-25s-25,11.193-25,25v148.978
								c-18.265-4.92-31.504-15.887-40.14-33.159c-9.437-18.873-9.86-38.628-9.86-38.819c0-13.808-11.192-25-25-25s-25,11.192-25,25
								c0,3.163,0.425,31.751,15.14,61.181c9.228,18.455,22.073,33.258,38.181,43.995c13.561,9.041,29.193,15.018,46.68,17.873
								v100.126h50v-160.31c17.486-2.854,33.119-8.832,46.68-17.873c16.107-10.737,28.953-25.54,38.181-43.995
								c14.715-29.43,15.14-58.018,15.14-61.181C1545.662,306.068,1534.469,294.876,1520.662,294.876z"/>
							<g>
								<path fill="#475E38" d="M1335.662,380.06c0,0.191,0.424,19.946,9.86,38.819c8.636,17.271,21.875,28.239,40.14,33.159v-3.526
									c-13.193-5.861-23.168-15.69-30.14-29.633c-9.437-18.873-9.86-38.628-9.86-38.819c0-13.808-11.192-25-25-25
									c-1.712,0-3.384,0.173-5,0.501C1327.073,357.877,1335.662,367.964,1335.662,380.06z"/>
								<path fill="#475E38" d="M1435.662,303.06v88.795c3.521-0.948,6.85-2.127,10-3.526V303.06c0-13.807-11.193-25-25-25
									c-1.712,0-3.384,0.173-5,0.501C1427.073,280.877,1435.662,290.965,1435.662,303.06z"/>
								<path fill="#475E38" d="M1520.662,294.876c-1.712,0-3.384,0.173-5,0.501c11.411,2.316,20,12.404,20,24.499
									c0,3.163-0.425,31.751-15.14,61.181c-9.228,18.455-22.073,33.258-38.181,43.995c-13.561,9.041-29.193,15.018-46.68,17.873
									v160.31h10v-160.31c17.486-2.854,33.119-8.832,46.68-17.873c16.107-10.737,28.953-25.54,38.181-43.995
									c14.715-29.43,15.14-58.018,15.14-61.181C1545.662,306.068,1534.469,294.876,1520.662,294.876z"/>
							</g>
						</g>
						<polygon fill="#BCD4E8" points="1439.813,412.503 1429.813,395.182 1439.813,377.862 1459.813,377.862 1469.813,395.182 
							1459.813,412.503 						"/>
						<polygon fill="#BCD4E8" points="1374.838,463.824 1364.838,446.503 1374.838,429.183 1394.838,429.183 1404.838,446.503 
							1394.838,463.824 						"/>
						<polygon fill="#A6AEE8" points="1460.192,401.174 1449.813,407.166 1439.435,401.174 1439.435,389.19 1449.813,383.198 
							1460.192,389.19 						"/>
						<polygon fill="#A6AEE8" points="1395.216,452.495 1384.838,458.487 1374.459,452.495 1374.459,440.511 1384.838,434.519 
							1395.216,440.511 						"/>
					</g>
					<g id="peter_9_">
						<g>
							<path fill="#5E8C57" d="M1613.302,603.772c2.07-6.734,3.189-13.883,3.189-21.296c0-39.978-32.409-72.386-72.386-72.386
								s-72.386,32.408-72.386,72.386c0,7.412,1.119,14.562,3.189,21.296H1613.302z"/>
							<path fill="#475E38" d="M1484.463,567.641c-3.583,0-7.071,0.401-10.433,1.14c-0.85,4.437-1.311,9.011-1.311,13.696
								c0,7.412,1.119,14.562,3.189,21.296h55.372C1525.853,582.984,1506.952,567.641,1484.463,567.641z"/>
							<path fill="#5E8C57" d="M1519.434,621.938c0.434-2.606,0.671-5.278,0.671-8.007c0-26.723-21.663-48.386-48.386-48.386
								c-26.723,0-48.386,21.663-48.386,48.386c0,2.729,0.237,5.401,0.671,8.007H1519.434z"/>
						</g>
						<polygon fill="#BCD4E8" points="1586.491,556.932 1576.491,539.611 1586.491,522.291 1606.491,522.291 1616.491,539.611 
							1606.491,556.932 						"/>
						<polygon fill="#A6AEE8" points="1606.87,545.603 1596.491,551.595 1586.113,545.603 1586.113,533.619 1596.491,527.627 
							1606.87,533.619 						"/>
					</g>
				</g>
			</g>
		</g>
	</g>
	<g display="inline">
		<g>
			<defs>
				<rect id="SVGID_41_" x="2310.876" y="0.001" width="1600" height="899.998"/>
			</defs>
			<clipPath id="SVGID_4_">
				<use xlink:href="#SVGID_41_"  overflow="visible"/>
			</clipPath>
			<g clip-path="url(#SVGID_4_)">
				<g>
					<g>
						<polygon fill="#394E5B" points="-520.245,91.095 -291.22,200.335 -12.504,159.42 355.232,283.392 691.456,207.72 
							1063.493,285.728 1582.545,180.717 2120.755,307.617 2524.755,187.617 3096.755,299.617 3416.755,183.617 3812.755,283.617 
							4279.755,91.095 4279.755,900 -520.245,900 						"/>
						<polygon fill="#2A3B44" points="355.232,283.392 26.755,354.792 313.519,269.33 						"/>
						<polygon fill="#2A3B44" points="1063.493,285.728 889.475,308.283 998.528,272.106 						"/>
					</g>
				</g>
				<g>
					<g>
						<polygon fill="#3F5C63" points="-520.245,327.617 -234.46,267.398 440.755,395.617 840.755,267.398 1208.755,367.617 
							1738.56,267.398 2404.755,415.617 2749.661,285.728 3121.698,405.74 3328.755,303.049 3715.076,385.416 4084.795,267.398 
							4279.626,327.617 4279.755,900 -520.245,900 						"/>
						<polygon fill="#364D51" points="440.755,395.617 84.755,475.617 370.815,382.336 						"/>
						<polygon fill="#364D51" points="1208.755,367.617 1010.755,397.119 1152.755,354.792 						"/>
					</g>
				</g>
				<g>
					<g>
						<polygon fill="#538896" points="-520.245,495.548 -303.245,403 -15.245,544.707 204.755,450 584.755,603.617 816.755,495.617 
							1208.755,551.617 1476.755,383.617 1844.755,515.617 2124.755,423.617 2784.755,567.617 3048.755,450 3328.755,527.617 
							3536.755,419.617 3908.755,491.617 4152.755,327.617 4279.525,495.548 4279.755,900 -520.245,900 						"/>
						<polygon fill="#426972" points="1208.755,551.617 1045.755,619.617 1159.615,544.597 						"/>
						<polygon fill="#426972" points="584.755,603.617 330.755,718.617 540.864,585.874 						"/>
					</g>
					<g id="peter_22_">
						<g>
							<path fill="#3F5C63" d="M721.685,404.895c-13.807,0-25,11.147-25,24.955c-0.002,0.331-0.433,33.471-16.807,65.28
								c-8.991,17.47-21.13,31.283-36.078,41.057c-13.245,8.66-29.03,14.34-47.115,16.999V329.866c0-13.807-11.193-25-25-25
								s-25,11.193-25,25v122.573c-19.33-4.637-33.237-15.768-42.193-33.68c-9.437-18.873-9.86-38.628-9.86-38.819
								c0-13.808-11.192-25-25-25s-25,11.192-25,25c0,3.163,0.425,31.751,15.14,61.181c9.228,18.455,22.073,33.258,38.181,43.995
								c14.086,9.391,30.42,15.459,48.733,18.172v199.827h50v-99.498c73.413-7.999,110.321-50.917,128.61-87.496
								c21.146-42.293,21.39-84.408,21.39-86.181C746.685,416.133,735.493,404.895,721.685,404.895z"/>
							<g>
								<path fill="#364D51" d="M584.755,329.866v223.321c4.098-0.603,8.071-1.368,11.93-2.281v-221.04c0-13.807-11.193-25-25-25
									c-2.056,0-4.053,0.254-5.965,0.722C576.646,308.263,584.755,318.115,584.755,329.866z"/>
								<path fill="#364D51" d="M721.685,404.895c-2.061,0-4.061,0.253-5.977,0.722c10.932,2.681,19.046,12.569,19.046,24.323
									c0,1.772-0.243,43.888-21.39,86.181c-18.29,36.58-55.198,79.497-128.61,87.496v99.498h11.93v-99.498
									c73.413-7.999,110.321-50.917,128.61-87.496c21.146-42.293,21.39-84.408,21.39-86.181
									C746.685,416.133,735.493,404.895,721.685,404.895z"/>
								<path fill="#364D51" d="M482.702,379.94c0,0.191,0.424,19.946,9.86,38.819c8.956,17.912,22.864,29.043,42.193,33.68v-4.013
									c-13.249-5.855-23.272-15.686-30.263-29.667c-9.437-18.873-9.86-38.628-9.86-38.819c0-13.808-11.192-25-25-25
									c-2.056,0-4.053,0.254-5.965,0.722C474.593,358.337,482.702,368.189,482.702,379.94z"/>
							</g>
						</g>
						<g>
							<polygon fill="#538896" points="531.288,468.797 521.288,451.476 531.288,434.156 551.288,434.156 561.288,451.476 
								551.288,468.797 							"/>
							<polygon fill="#426972" points="551.666,457.469 541.288,463.461 530.909,457.469 530.909,445.484 541.288,439.492 
								551.666,445.484 							"/>
						</g>
						<g>
							<polygon fill="#538896" points="590.72,571.325 580.72,554.005 590.72,536.684 610.72,536.684 620.72,554.005 
								610.72,571.325 							"/>
							<polygon fill="#426972" points="611.098,559.997 600.72,565.989 590.341,559.997 590.341,548.013 600.72,542.021 
								611.098,548.013 							"/>
						</g>
					</g>
				</g>
			</g>
		</g>
	</g>
</g>
<g id="measurement_x5F_tools">
	<polygon fill="#1D252B" points="1117.876,581.101 753.208,568.502 737.699,760.9 920.999,674.699 	"/>
	<polygon fill="#1D252B" points="617.174,258.632 617.174,139.1 430.476,279.949 541.456,297.1 	"/>
	<linearGradient id="SVGID_6_" gradientUnits="userSpaceOnUse" x1="801.7811" y1="583.3693" x2="981.1326" y2="866.3667">
		<stop  offset="0" style="stop-color:#2A3B44"/>
		<stop  offset="0.3493" style="stop-color:#30424C"/>
		<stop  offset="0.7191" style="stop-color:#394E5B"/>
		<stop  offset="0.7604" style="stop-color:#394E5B"/>
		<stop  offset="1" style="stop-color:#394E5B"/>
	</linearGradient>
	<polygon fill="url(#SVGID_6_)" points="753.208,568.502 1063.841,718.227 737.699,760.9 	"/>
	<linearGradient id="SVGID_7_" gradientUnits="userSpaceOnUse" x1="458.0125" y1="242.3051" x2="1142.4843" y2="499.1554">
		<stop  offset="0" style="stop-color:#3F5C63"/>
		<stop  offset="0.5773" style="stop-color:#3E5A61"/>
		<stop  offset="0.8507" style="stop-color:#3A5459"/>
		<stop  offset="1" style="stop-color:#364D51"/>
	</linearGradient>
	<polygon fill="url(#SVGID_7_)" points="430.476,279.949 1143.586,198.527 1117.876,581.101 501.911,559.819 	"/>
	<rect x="555.256" y="356.239" fill="none" width="526.892" height="171.487"/>
	<text transform="matrix(1 0 0 1 555.2545 400.9888)"><tspan x="0" y="0" fill="#82B3BF" font-family="'HoltwoodOneSC'" font-size="65" letter-spacing="1">We are in </tspan><tspan x="0" y="65" fill="#82B3BF" font-family="'HoltwoodOneSC'" font-size="65" letter-spacing="1">the desert.</tspan></text>
</g>
</svg>
