<?xml version="1.0" encoding="utf-8"?>
<!-- Generator: Adobe Illustrator 17.0.0, SVG Export Plug-In . SVG Version: 6.00 Build 0)  -->
<!DOCTYPE svg PUBLIC "-//W3C//DTD SVG 1.1//EN" "http://www.w3.org/Graphics/SVG/1.1/DTD/svg11.dtd">
<svg version="1.1" xmlns="http://www.w3.org/2000/svg" xmlns:xlink="http://www.w3.org/1999/xlink" x="0px" y="0px" width="1600px"
	 height="900px" viewBox="0 0 1600 900" enable-background="new 0 0 1600 900" xml:space="preserve">
<g id="Layer_3" display="none">
</g>
<g id="outlune">
	<polygon fill="#1D252B" points="646.946,618.774 426.475,655.857 664.2,776.034 664.2,652.446 	"/>
	<polygon fill="#1D252B" points="1088.566,193.683 1143.586,149.149 927.787,40.732 914.073,204.454 	"/>
	<linearGradient id="SVGID_1_" gradientUnits="userSpaceOnUse" x1="622.0936" y1="749.7307" x2="548.7392" y2="818.3079">
		<stop  offset="0" style="stop-color:#2A3B44"/>
		<stop  offset="0.3493" style="stop-color:#30424C"/>
		<stop  offset="0.7191" style="stop-color:#394E5B"/>
		<stop  offset="0.7604" style="stop-color:#394E5B"/>
		<stop  offset="1" style="stop-color:#394E5B"/>
	</linearGradient>
	<polygon fill="url(#SVGID_1_)" points="664.2,776.034 511.229,804.039 573.021,729.94 	"/>
	<linearGradient id="SVGID_3_" gradientUnits="userSpaceOnUse" x1="370.4804" y1="246.9418" x2="1229.7303" y2="569.3781">
		<stop  offset="0" style="stop-color:#3F5C63"/>
		<stop  offset="0.5773" style="stop-color:#3E5A61"/>
		<stop  offset="0.8507" style="stop-color:#3A5459"/>
		<stop  offset="1" style="stop-color:#364D51"/>
	</linearGradient>
	<polygon fill="url(#SVGID_3_)" points="360.432,228.856 1143.586,149.149 1209.204,644.625 426.475,655.857 	"/>
	<g>
		<path fill="#82B3BF" d="M530.263,359.1c-2.582,0-5.073-0.159-7.475-0.476c-2.402-0.317-4.655-0.91-6.761-1.777
			c-2.105-0.867-4.025-1.984-5.761-3.348c-1.734-1.365-3.227-3.004-4.475-4.92c-1.249-1.915-2.217-4.115-2.904-6.602
			c-0.688-2.486-1.031-5.284-1.031-8.395c0-2.92,0.338-5.554,1.016-7.903c0.677-2.349,1.629-4.433,2.856-6.252
			c1.227-1.819,2.703-3.385,4.428-4.697c1.724-1.312,3.639-2.385,5.744-3.222c2.105-0.835,4.369-1.454,6.792-1.856
			c2.423-0.402,4.946-0.603,7.57-0.603c2.623,0,5.151,0.201,7.585,0.603c2.433,0.402,4.708,1.026,6.823,1.873
			c2.116,0.847,4.036,1.926,5.761,3.237c1.725,1.312,3.2,2.878,4.428,4.697c1.227,1.82,2.179,3.899,2.856,6.237
			c0.677,2.338,1.016,4.967,1.016,7.887c0,4.57-0.746,8.49-2.237,11.759c-1.492,3.27-3.528,5.941-6.11,8.014
			c-2.581,2.074-5.597,3.55-9.045,4.427C537.89,358.661,534.199,359.1,530.263,359.1z M530.263,323.553
			c-1.354,0-2.492,0.175-3.412,0.523c-0.921,0.35-1.683,0.81-2.285,1.381c-0.604,0.571-1.063,1.217-1.381,1.936
			c-0.317,0.72-0.556,1.45-0.714,2.19c-0.159,0.741-0.249,1.46-0.271,2.158c-0.021,0.698-0.031,1.312-0.031,1.841
			c0,0.529,0.011,1.143,0.031,1.841c0.021,0.698,0.111,1.423,0.271,2.174c0.158,0.751,0.396,1.498,0.714,2.238
			c0.317,0.741,0.777,1.402,1.381,1.984c0.603,0.582,1.364,1.053,2.285,1.412c0.92,0.36,2.058,0.54,3.412,0.54
			c1.354,0,2.491-0.18,3.411-0.54c0.921-0.359,1.688-0.83,2.302-1.412c0.613-0.582,1.084-1.243,1.412-1.984
			c0.327-0.74,0.565-1.486,0.714-2.238c0.147-0.75,0.238-1.476,0.27-2.174c0.032-0.698,0.048-1.312,0.048-1.841
			c0-0.529-0.016-1.143-0.048-1.841c-0.031-0.698-0.122-1.417-0.27-2.158c-0.148-0.74-0.387-1.47-0.714-2.19
			c-0.328-0.719-0.799-1.365-1.412-1.936c-0.614-0.571-1.381-1.031-2.302-1.381C532.754,323.728,531.617,323.553,530.263,323.553z"
			/>
		<path fill="#82B3BF" d="M564.896,313.841h26.724v12.568l-3.809,0.73v5.237h15.267v-5.237l-3.809-0.73v-12.727h26.723v12.727
			l-3.809,0.73v17.996l3.809,0.73v12.664h-26.723v-12.664l3.809-0.73v-5.3h-15.267v5.3l3.809,0.73v12.664h-26.724v-12.664
			l3.809-0.73V327.14l-3.809-0.73V313.841z"/>
		<path fill="#82B3BF" d="M670.469,335.074v10.061l3.841,0.698v12.695h-19.107v-12.664l3.809-0.73v-18.059l-3.809-0.73v-12.505
			h22.916l15.266,24.089V327.14l-3.809-0.793v-12.505h19.074v12.505l-3.809,0.73v18.059l3.809,0.73v12.664h-22.914L670.469,335.074z
			"/>
		<path fill="#82B3BF" d="M741.505,359.1c-3.724,0-7.21-0.396-10.457-1.19c-3.248-0.793-6.073-2.158-8.475-4.094
			c-2.401-1.937-4.295-4.406-5.681-7.411c-1.387-3.004-2.079-6.612-2.079-10.823c0-4.126,0.692-7.644,2.079-10.553
			c1.386-2.909,3.284-5.279,5.696-7.109c2.412-1.83,5.237-3.168,8.475-4.015c3.237-0.846,6.718-1.27,10.441-1.27
			c3.703,0,7.179,0.423,10.427,1.27c3.247,0.847,6.083,2.185,8.506,4.015c2.422,1.831,4.332,4.201,5.729,7.109
			c1.396,2.91,2.095,6.427,2.095,10.553c0,2.793-0.317,5.327-0.952,7.601c-0.635,2.275-1.529,4.296-2.682,6.062
			c-1.153,1.767-2.539,3.29-4.158,4.57c-1.618,1.28-3.423,2.338-5.411,3.174c-1.989,0.836-4.126,1.396-6.411,1.682
			C746.362,358.958,743.982,359.1,741.505,359.1z M741.505,326.156c-1.248,0-2.301,0.159-3.157,0.476
			c-0.857,0.317-1.566,0.73-2.127,1.238s-0.999,1.09-1.317,1.746c-0.316,0.656-0.545,1.328-0.682,2.015
			c-0.138,0.688-0.223,1.365-0.254,2.031c-0.032,0.667-0.048,1.254-0.048,1.762c0,0.487,0.011,1.063,0.032,1.729
			c0.021,0.667,0.095,1.365,0.222,2.095c0.127,0.73,0.338,1.455,0.635,2.174c0.296,0.72,0.725,1.365,1.285,1.936
			s1.28,1.031,2.158,1.381c0.878,0.349,1.963,0.523,3.253,0.523c1.27,0,2.344-0.169,3.222-0.508
			c0.878-0.338,1.598-0.788,2.158-1.349s1-1.19,1.317-1.889s0.545-1.401,0.683-2.11c0.137-0.709,0.222-1.402,0.254-2.079
			c0.031-0.677,0.048-1.259,0.048-1.746c0-0.508-0.017-1.095-0.048-1.761c-0.032-0.667-0.117-1.349-0.254-2.047
			c-0.138-0.698-0.365-1.38-0.683-2.047c-0.317-0.666-0.757-1.264-1.317-1.793c-0.561-0.529-1.28-0.957-2.158-1.285
			S742.775,326.156,741.505,326.156z"/>
		<path fill="#82B3BF" d="M774.677,322.442v-12.664h24.406v12.664l-4.062,19.836h-16.25L774.677,322.442z M776.74,346.341h20.312
			v12.188H776.74V346.341z"/>
		<path fill="#82B3BF" d="M870.953,309.779v16.25h-5.332c-0.36-0.465-0.772-0.941-1.238-1.428c-0.465-0.486-0.983-0.925-1.555-1.317
			s-1.195-0.709-1.873-0.952c-0.677-0.243-1.407-0.365-2.189-0.365v21.995l4.062,0.793v13.774H834.39v-13.774l4.062-0.793v-21.995
			c-0.783,0-1.513,0.122-2.189,0.365c-0.678,0.243-1.302,0.561-1.873,0.952s-1.09,0.831-1.555,1.317
			c-0.466,0.487-0.879,0.963-1.238,1.428h-5.332v-16.25H870.953z"/>
		<path fill="#82B3BF" d="M876.767,313.841h26.724v12.568l-3.809,0.73v5.237h15.267v-5.237l-3.809-0.73v-12.727h26.723v12.727
			l-3.809,0.73v17.996l3.809,0.73v12.664H911.14v-12.664l3.809-0.73v-5.3h-15.267v5.3l3.809,0.73v12.664h-26.724v-12.664l3.809-0.73
			V327.14l-3.809-0.73V313.841z"/>
		<path fill="#82B3BF" d="M968.497,333.487l8.792-1.873v9.045l-8.792-1.904v7.014c1.27,0,2.496-0.09,3.682-0.27
			c1.185-0.18,2.285-0.429,3.301-0.746s1.946-0.688,2.793-1.111c0.846-0.423,1.576-0.878,2.19-1.365h4.348v16.25h-39.229v-12.664
			l3.809-0.73V327.14l-3.809-0.73v-12.568h39.229v16.25h-4.348c-0.614-0.465-1.345-0.91-2.19-1.333
			c-0.847-0.423-1.777-0.793-2.793-1.111s-2.116-0.571-3.301-0.762c-1.186-0.19-2.412-0.286-3.682-0.286V333.487z"/>
		<path fill="#82B3BF" d="M1041.121,358.529h-18.98c-0.593-1.1-1.206-2.27-1.841-3.507c-0.635-1.238-1.249-2.534-1.841-3.888
			c-0.593-1.354-1.148-2.75-1.666-4.189c-0.519-1.438-0.958-2.92-1.317-4.443h-1.047v16.028h-22.916v-12.664l3.809-0.73v-18.059
			l-3.809-0.73v-12.505h25.994c3.448,0,6.427,0.148,8.935,0.444c2.507,0.296,4.634,0.73,6.379,1.301
			c1.746,0.571,3.158,1.265,4.237,2.079c1.079,0.815,1.92,1.735,2.523,2.762c0.603,1.026,1.01,2.153,1.222,3.38
			c0.211,1.228,0.317,2.529,0.317,3.904c0,1.396-0.133,2.666-0.396,3.809c-0.265,1.143-0.735,2.19-1.412,3.142
			c-0.678,0.952-1.604,1.825-2.777,2.618c-1.175,0.794-2.672,1.54-4.491,2.238c0.381,0.762,0.946,1.667,1.698,2.713
			c0.751,1.048,1.57,2.116,2.459,3.206s1.772,2.142,2.65,3.158s1.635,1.883,2.27,2.603V358.529z M1014.429,333.9
			c1.163,0,2.216-0.058,3.157-0.175c0.941-0.116,1.746-0.37,2.412-0.762c0.667-0.391,1.18-0.968,1.54-1.729
			c0.359-0.762,0.539-1.788,0.539-3.079c0-1.27-0.18-2.285-0.539-3.047c-0.36-0.762-0.873-1.349-1.54-1.761
			c-0.666-0.413-1.471-0.683-2.412-0.81s-1.994-0.19-3.157-0.19V333.9z"/>
		<path fill="#82B3BF" d="M1070.993,333.487l8.792-1.873v9.045l-8.792-1.904v7.014c1.27,0,2.496-0.09,3.682-0.27
			c1.185-0.18,2.285-0.429,3.301-0.746s1.946-0.688,2.793-1.111c0.846-0.423,1.576-0.878,2.19-1.365h4.348v16.25h-39.229v-12.664
			l3.809-0.73V327.14l-3.809-0.73v-12.568h39.229v16.25h-4.348c-0.614-0.465-1.345-0.91-2.19-1.333
			c-0.847-0.423-1.777-0.793-2.793-1.111s-2.116-0.571-3.301-0.762c-1.186-0.19-2.412-0.286-3.682-0.286V333.487z"/>
		<path fill="#82B3BF" d="M502.904,378.841h26.725v12.505l-3.809,0.73v18.059l3.809,0.73v12.664h-26.725v-12.664l3.809-0.73v-18.059
			l-3.809-0.73V378.841z"/>
		<path fill="#82B3BF" d="M576.29,409.469c0,1.968-0.28,3.708-0.841,5.221c-0.562,1.513-1.323,2.824-2.285,3.936
			c-0.963,1.11-2.105,2.036-3.428,2.776c-1.323,0.741-2.746,1.339-4.27,1.794c-1.523,0.454-3.115,0.719-4.776,0.793
			s-3.316,0.111-4.967,0.111c-2.285,0-4.349-0.053-6.188-0.159c-1.842-0.105-3.486-0.338-4.936-0.697
			c-1.45-0.36-2.729-0.757-3.841-1.19c-1.11-0.434-2.09-0.862-2.936-1.286v-11.013h8.981c0.889,1.396,1.904,2.423,3.047,3.079
			c1.143,0.656,2.317,0.984,3.523,0.984c0.359,0,0.762-0.032,1.206-0.095s0.856-0.264,1.237-0.603
			c0.381-0.338,0.704-0.862,0.969-1.571c0.264-0.708,0.396-1.708,0.396-2.999c-1.714-0.148-3.412-0.365-5.094-0.65
			c-1.683-0.286-3.291-0.672-4.824-1.159c-1.534-0.486-2.957-1.105-4.27-1.857c-1.312-0.75-2.449-1.661-3.411-2.729
			c-0.963-1.068-1.72-2.327-2.27-3.776c-0.551-1.449-0.825-3.116-0.825-4.999c0-2.158,0.274-4.047,0.825-5.665
			c0.55-1.619,1.302-3.01,2.253-4.174c0.953-1.164,2.079-2.126,3.381-2.888c1.301-0.762,2.702-1.365,4.205-1.809
			c1.502-0.444,3.067-0.756,4.697-0.937c1.629-0.179,3.258-0.27,4.888-0.27c2.306,0,4.374,0.117,6.205,0.349
			c1.83,0.233,3.47,0.529,4.919,0.889c1.449,0.36,2.729,0.757,3.841,1.19c1.11,0.434,2.1,0.852,2.968,1.254v11.108h-9.617
			c-0.805-1.523-1.725-2.634-2.762-3.333c-1.036-0.698-2.094-1.047-3.174-1.047c-0.359,0-0.772,0.059-1.237,0.175
			c-0.466,0.116-0.899,0.375-1.302,0.777c-0.401,0.402-0.74,0.995-1.016,1.777c-0.274,0.783-0.412,1.841-0.412,3.174
			c3.491,0.127,6.554,0.498,9.188,1.111c2.634,0.614,4.84,1.529,6.617,2.746s3.11,2.782,3.999,4.697S576.29,406.739,576.29,409.469z
			"/>
		<path fill="#82B3BF" d="M635.716,423.529l-1.587-7.522h-12.474l-1.586,7.522h-16.98v-14.727l3.682-0.73l8.791-29.231h24.629
			l8.855,29.231l3.65,0.73v14.727H635.716z M623.592,405.978h8.601l-4.316-17.551L623.592,405.978z"/>
		<path fill="#82B3BF" d="M719.391,409.469c0,1.968-0.28,3.708-0.841,5.221c-0.562,1.513-1.323,2.824-2.285,3.936
			c-0.963,1.11-2.105,2.036-3.428,2.776c-1.323,0.741-2.746,1.339-4.27,1.794c-1.523,0.454-3.115,0.719-4.776,0.793
			s-3.316,0.111-4.967,0.111c-2.285,0-4.349-0.053-6.188-0.159c-1.842-0.105-3.486-0.338-4.936-0.697
			c-1.45-0.36-2.729-0.757-3.841-1.19c-1.11-0.434-2.09-0.862-2.936-1.286v-11.013h8.981c0.889,1.396,1.904,2.423,3.047,3.079
			c1.143,0.656,2.317,0.984,3.523,0.984c0.359,0,0.762-0.032,1.206-0.095s0.856-0.264,1.237-0.603
			c0.381-0.338,0.704-0.862,0.969-1.571c0.264-0.708,0.396-1.708,0.396-2.999c-1.714-0.148-3.412-0.365-5.094-0.65
			c-1.683-0.286-3.291-0.672-4.824-1.159c-1.534-0.486-2.957-1.105-4.27-1.857c-1.312-0.75-2.449-1.661-3.411-2.729
			c-0.963-1.068-1.72-2.327-2.27-3.776c-0.551-1.449-0.825-3.116-0.825-4.999c0-2.158,0.274-4.047,0.825-5.665
			c0.55-1.619,1.302-3.01,2.253-4.174c0.953-1.164,2.079-2.126,3.381-2.888c1.301-0.762,2.702-1.365,4.205-1.809
			c1.502-0.444,3.067-0.756,4.697-0.937c1.629-0.179,3.258-0.27,4.888-0.27c2.306,0,4.374,0.117,6.205,0.349
			c1.83,0.233,3.47,0.529,4.919,0.889c1.449,0.36,2.729,0.757,3.841,1.19c1.11,0.434,2.1,0.852,2.968,1.254v11.108h-9.617
			c-0.805-1.523-1.725-2.634-2.762-3.333c-1.036-0.698-2.094-1.047-3.174-1.047c-0.359,0-0.772,0.059-1.237,0.175
			c-0.466,0.116-0.899,0.375-1.302,0.777c-0.401,0.402-0.74,0.995-1.016,1.777c-0.274,0.783-0.412,1.841-0.412,3.174
			c3.491,0.127,6.554,0.498,9.188,1.111c2.634,0.614,4.84,1.529,6.617,2.746s3.11,2.782,3.999,4.697
			S719.391,406.739,719.391,409.469z"/>
		<path fill="#82B3BF" d="M741.424,400.074v10.061l3.841,0.698v12.695h-19.107v-12.664l3.809-0.73v-18.059l-3.809-0.73v-12.505
			h22.916l15.266,24.089V392.14l-3.809-0.793v-12.505h19.074v12.505l-3.809,0.73v18.059l3.809,0.73v12.664h-22.914L741.424,400.074z
			"/>
		<path fill="#82B3BF" d="M818.586,423.529L817,416.007h-12.474l-1.586,7.522h-16.98v-14.727l3.682-0.73l8.791-29.231h24.629
			l8.855,29.231l3.65,0.73v14.727H818.586z M806.462,405.978h8.601l-4.316-17.551L806.462,405.978z"/>
		<path fill="#82B3BF" d="M894.701,423.529h-21.424l-8.441-18.726v18.726h-22.916v-12.664l3.809-0.73v-18.059l-3.809-0.73v-12.505
			h22.916v17.837l8.441-17.837h20.566v8.062c-1.248,1.058-2.406,2.169-3.475,3.333c-1.069,1.164-2.068,2.338-3,3.523
			c-0.931,1.185-1.788,2.349-2.57,3.491c-0.783,1.143-1.492,2.232-2.127,3.269c0.826,1.312,1.703,2.682,2.635,4.11
			c0.931,1.429,1.898,2.862,2.904,4.301c1.005,1.439,2.052,2.852,3.142,4.237s2.206,2.682,3.349,3.888V423.529z"/>
		<path fill="#82B3BF" d="M922.542,398.487l8.792-1.873v9.045l-8.792-1.904v7.014c1.27,0,2.496-0.09,3.682-0.27
			c1.185-0.18,2.285-0.429,3.301-0.746s1.946-0.688,2.793-1.111c0.846-0.423,1.576-0.878,2.19-1.365h4.348v16.25h-39.229v-12.664
			l3.809-0.73V392.14l-3.809-0.73v-12.568h39.229v16.25h-4.348c-0.614-0.465-1.345-0.91-2.19-1.333
			c-0.847-0.423-1.777-0.793-2.793-1.111s-2.116-0.571-3.301-0.762c-1.186-0.19-2.412-0.286-3.682-0.286V398.487z"/>
		<path fill="#82B3BF" d="M967.019,378.841h26.725v12.505l-3.809,0.73v18.059l3.809,0.73v12.664h-26.725v-12.664l3.809-0.73v-18.059
			l-3.809-0.73V378.841z"/>
		<path fill="#82B3BF" d="M1016.792,400.074v10.061l3.841,0.698v12.695h-19.107v-12.664l3.809-0.73v-18.059l-3.809-0.73v-12.505
			h22.916l15.266,24.089V392.14l-3.809-0.793v-12.505h19.074v12.505l-3.809,0.73v18.059l3.809,0.73v12.664h-22.914L1016.792,400.074
			z"/>
		<path fill="#82B3BF" d="M525.788,464.439l8.125-1.872v9.681l-8.125-1.904v4.792l3.809,0.825v12.568h-26.724v-12.664l3.809-0.729
			V457.14l-3.809-0.73v-12.568h36.912v16.25h-5.301c-0.91-0.952-2.105-1.771-3.586-2.46c-1.481-0.688-3.186-1.031-5.11-1.031
			V464.439z"/>
		<path fill="#82B3BF" d="M595.396,488.529h-18.979c-0.593-1.1-1.206-2.27-1.841-3.507c-0.635-1.238-1.249-2.534-1.841-3.888
			c-0.593-1.354-1.148-2.751-1.666-4.189c-0.519-1.439-0.958-2.92-1.317-4.443h-1.047v16.027h-22.916v-12.664l3.809-0.729v-18.06
			l-3.809-0.729v-12.505h25.994c3.448,0,6.427,0.148,8.935,0.444c2.507,0.297,4.634,0.729,6.379,1.302
			c1.746,0.57,3.158,1.264,4.237,2.078c1.079,0.815,1.92,1.735,2.523,2.762c0.603,1.026,1.01,2.153,1.222,3.38
			c0.211,1.228,0.317,2.528,0.317,3.903c0,1.396-0.133,2.666-0.396,3.809c-0.265,1.143-0.735,2.19-1.412,3.143
			c-0.678,0.952-1.604,1.825-2.777,2.618c-1.175,0.794-2.672,1.54-4.491,2.237c0.381,0.762,0.946,1.667,1.698,2.714
			c0.751,1.048,1.57,2.116,2.459,3.206s1.772,2.143,2.65,3.158s1.635,1.883,2.27,2.602V488.529z M568.705,463.9
			c1.163,0,2.216-0.058,3.157-0.175c0.941-0.116,1.746-0.37,2.412-0.762c0.667-0.391,1.18-0.968,1.54-1.729
			c0.359-0.762,0.539-1.788,0.539-3.078c0-1.27-0.18-2.285-0.539-3.047c-0.36-0.762-0.873-1.35-1.54-1.762
			c-0.666-0.413-1.471-0.683-2.412-0.81s-1.994-0.19-3.157-0.19V463.9z"/>
		<path fill="#82B3BF" d="M627.617,489.1c-3.724,0-7.21-0.396-10.457-1.19c-3.248-0.793-6.073-2.158-8.475-4.094
			c-2.401-1.937-4.295-4.406-5.681-7.411c-1.387-3.004-2.079-6.612-2.079-10.823c0-4.125,0.692-7.643,2.079-10.553
			c1.386-2.909,3.284-5.278,5.696-7.109c2.412-1.83,5.237-3.168,8.475-4.015c3.237-0.846,6.718-1.27,10.441-1.27
			c3.703,0,7.179,0.424,10.427,1.27c3.247,0.847,6.083,2.185,8.506,4.015c2.422,1.831,4.332,4.2,5.729,7.109
			c1.396,2.91,2.095,6.428,2.095,10.553c0,2.793-0.317,5.327-0.952,7.602c-0.635,2.275-1.529,4.296-2.682,6.062
			c-1.153,1.767-2.539,3.29-4.158,4.57c-1.618,1.28-3.423,2.338-5.411,3.174c-1.989,0.836-4.126,1.396-6.411,1.682
			C632.473,488.958,630.093,489.1,627.617,489.1z M627.617,456.156c-1.248,0-2.301,0.158-3.157,0.477
			c-0.857,0.316-1.566,0.729-2.127,1.237s-0.999,1.09-1.317,1.745c-0.316,0.656-0.545,1.328-0.682,2.016
			c-0.138,0.688-0.223,1.365-0.254,2.031c-0.032,0.667-0.048,1.254-0.048,1.762c0,0.487,0.011,1.063,0.032,1.729
			c0.021,0.667,0.095,1.365,0.222,2.095c0.127,0.73,0.338,1.455,0.635,2.174c0.296,0.72,0.725,1.365,1.285,1.937
			s1.28,1.031,2.158,1.381c0.878,0.349,1.963,0.523,3.253,0.523c1.27,0,2.344-0.169,3.222-0.508
			c0.878-0.338,1.598-0.788,2.158-1.349s1-1.19,1.317-1.889s0.545-1.401,0.683-2.11c0.137-0.709,0.222-1.401,0.254-2.079
			c0.031-0.677,0.048-1.259,0.048-1.746c0-0.508-0.017-1.095-0.048-1.761c-0.032-0.667-0.117-1.349-0.254-2.048
			c-0.138-0.697-0.365-1.38-0.683-2.047c-0.317-0.666-0.757-1.264-1.317-1.793c-0.561-0.528-1.28-0.957-2.158-1.285
			S628.886,456.156,627.617,456.156z"/>
		<path fill="#82B3BF" d="M675.77,465.074v10.062l3.841,0.698v12.695h-19.107v-12.664l3.809-0.729v-18.06l-3.809-0.729v-12.505
			h22.916l15.266,24.09V457.14l-3.809-0.794v-12.505h19.074v12.505l-3.809,0.729v18.06l3.809,0.729v12.664h-22.914L675.77,465.074z"
			/>
		<path fill="#82B3BF" d="M732.017,455.648c-1.1,0-2.073,0.148-2.92,0.444c-0.846,0.297-1.555,0.667-2.126,1.11
			c-0.571,0.445-1.005,0.927-1.302,1.444c-0.296,0.519-0.443,1-0.443,1.444h-5.301v-16.25h43.291v16.25h-5.301
			c0-0.444-0.147-0.926-0.443-1.444c-0.297-0.518-0.73-0.999-1.302-1.444c-0.571-0.443-1.28-0.813-2.126-1.11
			c-0.847-0.296-1.82-0.444-2.92-0.444v19.487l3.809,0.729v12.664h-26.725v-12.664l3.809-0.729V455.648z"/>
		<path fill="#82B3BF" d="M816.168,489.1c-3.724,0-7.21-0.396-10.457-1.19c-3.248-0.793-6.073-2.158-8.475-4.094
			c-2.401-1.937-4.295-4.406-5.681-7.411c-1.387-3.004-2.079-6.612-2.079-10.823c0-4.125,0.692-7.643,2.079-10.553
			c1.386-2.909,3.284-5.278,5.696-7.109c2.412-1.83,5.237-3.168,8.475-4.015c3.237-0.846,6.718-1.27,10.441-1.27
			c3.703,0,7.179,0.424,10.427,1.27c3.247,0.847,6.083,2.185,8.506,4.015c2.422,1.831,4.332,4.2,5.729,7.109
			c1.396,2.91,2.095,6.428,2.095,10.553c0,2.793-0.317,5.327-0.952,7.602c-0.635,2.275-1.529,4.296-2.682,6.062
			c-1.153,1.767-2.539,3.29-4.158,4.57c-1.618,1.28-3.423,2.338-5.411,3.174c-1.989,0.836-4.126,1.396-6.411,1.682
			C821.024,488.958,818.644,489.1,816.168,489.1z M816.168,456.156c-1.248,0-2.301,0.158-3.157,0.477
			c-0.857,0.316-1.566,0.729-2.127,1.237s-0.999,1.09-1.317,1.745c-0.316,0.656-0.545,1.328-0.682,2.016
			c-0.138,0.688-0.223,1.365-0.254,2.031c-0.032,0.667-0.048,1.254-0.048,1.762c0,0.487,0.011,1.063,0.032,1.729
			c0.021,0.667,0.095,1.365,0.222,2.095c0.127,0.73,0.338,1.455,0.635,2.174c0.296,0.72,0.725,1.365,1.285,1.937
			s1.28,1.031,2.158,1.381c0.878,0.349,1.963,0.523,3.253,0.523c1.27,0,2.344-0.169,3.222-0.508
			c0.878-0.338,1.598-0.788,2.158-1.349s1-1.19,1.317-1.889s0.545-1.401,0.683-2.11c0.137-0.709,0.222-1.401,0.254-2.079
			c0.031-0.677,0.048-1.259,0.048-1.746c0-0.508-0.017-1.095-0.048-1.761c-0.032-0.667-0.117-1.349-0.254-2.048
			c-0.138-0.697-0.365-1.38-0.683-2.047c-0.317-0.666-0.757-1.264-1.317-1.793c-0.561-0.528-1.28-0.957-2.158-1.285
			S817.437,456.156,816.168,456.156z"/>
		<path fill="#82B3BF" d="M871.876,464.439l8.125-1.872v9.681l-8.125-1.904v4.792l3.809,0.825v12.568h-26.724v-12.664l3.809-0.729
			V457.14l-3.809-0.73v-12.568h36.912v16.25h-5.301c-0.91-0.952-2.105-1.771-3.586-2.46c-1.481-0.688-3.186-1.031-5.11-1.031
			V464.439z"/>
		<path fill="#82B3BF" d="M923.621,455.648c-1.1,0-2.073,0.148-2.92,0.444c-0.846,0.297-1.555,0.667-2.126,1.11
			c-0.571,0.445-1.005,0.927-1.302,1.444c-0.296,0.519-0.443,1-0.443,1.444h-5.301v-16.25h43.291v16.25h-5.301
			c0-0.444-0.147-0.926-0.443-1.444c-0.297-0.518-0.73-0.999-1.302-1.444c-0.571-0.443-1.28-0.813-2.126-1.11
			c-0.847-0.296-1.82-0.444-2.92-0.444v19.487l3.809,0.729v12.664h-26.725v-12.664l3.809-0.729V455.648z"/>
		<path fill="#82B3BF" d="M960.761,443.841h26.724v12.568l-3.809,0.73v5.236h15.267v-5.236l-3.809-0.73v-12.727h26.723v12.727
			l-3.809,0.73v17.995l3.809,0.729v12.664h-26.723v-12.664l3.809-0.729v-5.3h-15.267v5.3l3.809,0.729v12.664h-26.724v-12.664
			l3.809-0.729V457.14l-3.809-0.73V443.841z"/>
		<path fill="#82B3BF" d="M1052.491,463.488l8.792-1.873v9.045l-8.792-1.904v7.015c1.27,0,2.496-0.09,3.682-0.27
			c1.185-0.18,2.285-0.429,3.301-0.746s1.946-0.688,2.793-1.11c0.846-0.424,1.576-0.878,2.19-1.365h4.348v16.25h-39.229v-12.664
			l3.809-0.729V457.14l-3.809-0.73v-12.568h39.229v16.25h-4.348c-0.614-0.465-1.345-0.909-2.19-1.333
			c-0.847-0.423-1.777-0.794-2.793-1.11c-1.016-0.318-2.116-0.572-3.301-0.762c-1.186-0.191-2.412-0.286-3.682-0.286V463.488z"/>
		<path fill="#82B3BF" d="M513.187,520.648c-1.1,0-2.073,0.148-2.92,0.444c-0.846,0.297-1.555,0.667-2.126,1.11
			c-0.571,0.445-1.005,0.927-1.302,1.444c-0.296,0.519-0.443,1-0.443,1.444h-5.301v-16.25h43.291v16.25h-5.301
			c0-0.444-0.147-0.926-0.443-1.444c-0.297-0.518-0.73-0.999-1.302-1.444c-0.571-0.443-1.28-0.813-2.126-1.11
			c-0.847-0.296-1.82-0.444-2.92-0.444v19.487l3.809,0.729v12.664h-26.725v-12.664l3.809-0.729V520.648z"/>
		<path fill="#82B3BF" d="M573.243,528.488l8.792-1.873v9.045l-8.792-1.904v7.015c1.27,0,2.496-0.09,3.682-0.27
			c1.185-0.18,2.285-0.429,3.301-0.746s1.946-0.688,2.793-1.11c0.846-0.424,1.576-0.878,2.19-1.365h4.348v16.25h-39.229v-12.664
			l3.809-0.729V522.14l-3.809-0.73v-12.568h39.229v16.25h-4.348c-0.614-0.465-1.345-0.909-2.19-1.333
			c-0.847-0.423-1.777-0.794-2.793-1.11c-1.016-0.318-2.116-0.572-3.301-0.762c-1.186-0.191-2.412-0.286-3.682-0.286V528.488z"/>
		<path fill="#82B3BF" d="M611.526,530.074v10.062l3.841,0.698v12.695h-19.107v-12.664l3.809-0.729v-18.06l-3.809-0.729v-12.505
			h22.916l15.266,24.09V522.14l-3.809-0.794v-12.505h19.074v12.505l-3.809,0.729v18.06l3.809,0.729v12.664h-22.914L611.526,530.074z
			"/>
		<path fill="#82B3BF" d="M667.772,520.648c-1.1,0-2.073,0.148-2.92,0.444c-0.846,0.297-1.555,0.667-2.126,1.11
			c-0.571,0.445-1.005,0.927-1.302,1.444c-0.296,0.519-0.443,1-0.443,1.444h-5.301v-16.25h43.291v16.25h-5.301
			c0-0.444-0.147-0.926-0.443-1.444c-0.297-0.518-0.73-0.999-1.302-1.444c-0.571-0.443-1.28-0.813-2.126-1.11
			c-0.847-0.296-1.82-0.444-2.92-0.444v19.487l3.809,0.729v12.664h-26.725v-12.664l3.809-0.729V520.648z"/>
		<path fill="#82B3BF" d="M704.786,517.443v-12.664h24.406v12.664l-4.062,19.836h-16.25L704.786,517.443z M706.848,541.341h20.312
			v12.188h-20.312V541.341z"/>
	</g>
</g>
<g id="fonts" display="none">
	<polygon display="inline" fill="#1D252B" points="646.946,618.774 426.475,655.857 664.2,776.034 664.2,652.446 	"/>
	<polygon display="inline" fill="#1D252B" points="1088.566,193.683 1143.586,149.149 927.787,40.732 914.073,204.454 	"/>
	<linearGradient id="SVGID_4_" gradientUnits="userSpaceOnUse" x1="622.0936" y1="749.7307" x2="548.7392" y2="818.3079">
		<stop  offset="0" style="stop-color:#2A3B44"/>
		<stop  offset="0.3493" style="stop-color:#30424C"/>
		<stop  offset="0.7191" style="stop-color:#394E5B"/>
		<stop  offset="0.7604" style="stop-color:#394E5B"/>
		<stop  offset="1" style="stop-color:#394E5B"/>
	</linearGradient>
	<polygon display="inline" fill="url(#SVGID_4_)" points="664.2,776.034 511.229,804.039 573.021,729.94 	"/>
	<linearGradient id="SVGID_6_" gradientUnits="userSpaceOnUse" x1="370.4804" y1="246.9418" x2="1229.7303" y2="569.3781">
		<stop  offset="0" style="stop-color:#3F5C63"/>
		<stop  offset="0.5773" style="stop-color:#3E5A61"/>
		<stop  offset="0.8507" style="stop-color:#3A5459"/>
		<stop  offset="1" style="stop-color:#364D51"/>
	</linearGradient>
	<polygon display="inline" fill="url(#SVGID_6_)" points="360.432,228.856 1143.586,149.149 1209.204,644.625 426.475,655.857 	"/>
	<rect x="499.825" y="313.777" display="inline" fill="none" width="654.804" height="312.446"/>
	<text transform="matrix(1 0 0 1 499.8257 358.5289)" display="inline"><tspan x="0" y="0" fill="#82B3BF" font-family="'HoltwoodOneSC'" font-size="65" letter-spacing="1">Oh no! There </tspan><tspan x="0" y="65" fill="#82B3BF" font-family="'HoltwoodOneSC'" font-size="65" letter-spacing="1">is a snake in </tspan><tspan x="0" y="130" fill="#82B3BF" font-family="'HoltwoodOneSC'" font-size="65" letter-spacing="1">front of the </tspan><tspan x="0" y="195" fill="#82B3BF" font-family="'HoltwoodOneSC'" font-size="65" letter-spacing="1">tent!</tspan></text>
</g>
</svg>
