<?xml version="1.0" encoding="utf-8"?>
<!-- Generator: Adobe Illustrator 17.0.0, SVG Export Plug-In . SVG Version: 6.00 Build 0)  -->
<!DOCTYPE svg PUBLIC "-//W3C//DTD SVG 1.1//EN" "http://www.w3.org/Graphics/SVG/1.1/DTD/svg11.dtd">
<svg version="1.1" xmlns="http://www.w3.org/2000/svg" xmlns:xlink="http://www.w3.org/1999/xlink" x="0px" y="0px" width="1600px"
	 height="900px" viewBox="0 0 1600 900" enable-background="new 0 0 1600 900" xml:space="preserve">
<g id="Layer_3" display="none">
</g>
<g id="outlune">
	<polygon fill="#1D252B" points="1117.876,581.975 753.208,569.375 737.699,761.773 920.999,675.572 	"/>
	<polygon fill="#1D252B" points="617.174,259.506 617.174,139.974 430.476,280.823 541.456,297.974 	"/>
	<linearGradient id="SVGID_1_" gradientUnits="userSpaceOnUse" x1="801.7811" y1="584.2428" x2="981.1327" y2="867.2402">
		<stop  offset="0" style="stop-color:#2A3B44"/>
		<stop  offset="0.3493" style="stop-color:#30424C"/>
		<stop  offset="0.7191" style="stop-color:#394E5B"/>
		<stop  offset="0.7604" style="stop-color:#394E5B"/>
		<stop  offset="1" style="stop-color:#394E5B"/>
	</linearGradient>
	<polygon fill="url(#SVGID_1_)" points="753.208,569.375 1063.841,719.101 737.699,761.773 	"/>
	<linearGradient id="SVGID_3_" gradientUnits="userSpaceOnUse" x1="458.0126" y1="243.1786" x2="1142.4844" y2="500.0289">
		<stop  offset="0" style="stop-color:#3F5C63"/>
		<stop  offset="0.5773" style="stop-color:#3E5A61"/>
		<stop  offset="0.8507" style="stop-color:#3A5459"/>
		<stop  offset="1" style="stop-color:#364D51"/>
	</linearGradient>
	<polygon fill="url(#SVGID_3_)" points="430.476,280.823 1143.586,199.401 1117.876,581.975 501.911,560.693 	"/>
	<g>
		<path fill="#82B3BF" d="M602.606,328.863h28.438V342.7l-4.062,0.794v5.998h16.25v-5.998l-4.062-0.794v-13.838h28.438V342.7
			l-4.062,0.794v19.551l4.062,0.793v13.774h-28.438v-13.774l4.062-0.793v-6.38h-16.25v6.38l4.062,0.793v13.774h-28.438v-13.774
			l4.062-0.793v-19.551l-4.062-0.794V328.863z"/>
		<path fill="#82B3BF" d="M706.746,377.613l-1.587-7.521h-12.474l-1.586,7.521h-16.98v-14.727l3.682-0.729l8.791-29.231h24.629
			l8.855,29.231l3.65,0.729v14.727H706.746z M694.622,360.062h8.601l-4.316-17.552L694.622,360.062z"/>
		<path fill="#82B3BF" d="M730.048,332.925h26.724v12.568l-3.809,0.73v5.236h15.267v-5.236l-3.809-0.73v-12.727h26.723v12.727
			l-3.809,0.73v17.995l3.809,0.73v12.663h-26.723v-12.663l3.809-0.73v-5.3h-15.267v5.3l3.809,0.73v12.663h-26.724v-12.663
			l3.809-0.73v-17.995l-3.809-0.73V332.925z"/>
		<path fill="#82B3BF" d="M798.736,341.527v-12.664h24.406v12.664l-4.062,19.836h-16.25L798.736,341.527z M800.798,365.425h20.312
			v12.188h-20.312V365.425z"/>
		<path fill="#82B3BF" d="M895.011,328.863v16.25h-5.332c-0.36-0.465-0.772-0.941-1.238-1.428c-0.465-0.486-0.983-0.926-1.555-1.317
			s-1.195-0.709-1.873-0.952c-0.677-0.243-1.407-0.365-2.189-0.365v21.995l4.062,0.793v13.774h-28.438v-13.774l4.062-0.793V341.05
			c-0.783,0-1.513,0.122-2.189,0.365c-0.678,0.243-1.302,0.561-1.873,0.952s-1.09,0.831-1.555,1.317
			c-0.466,0.486-0.879,0.963-1.238,1.428h-5.332v-16.25H895.011z"/>
		<path fill="#82B3BF" d="M900.826,332.925h26.724v12.568l-3.809,0.73v5.236h15.267v-5.236l-3.809-0.73v-12.727h26.723v12.727
			l-3.809,0.73v17.995l3.809,0.73v12.663h-26.723v-12.663l3.809-0.73v-5.3h-15.267v5.3l3.809,0.73v12.663h-26.724v-12.663
			l3.809-0.73v-17.995l-3.809-0.73V332.925z"/>
		<path fill="#82B3BF" d="M992.555,352.572l8.792-1.873v9.046l-8.792-1.904v7.014c1.27,0,2.496-0.09,3.682-0.27
			c1.185-0.18,2.285-0.429,3.301-0.746s1.946-0.688,2.793-1.11c0.846-0.423,1.576-0.878,2.19-1.365h4.348v16.25H969.64v-12.663
			l3.809-0.73v-17.995l-3.809-0.73v-12.568h39.229v16.25h-4.348c-0.614-0.465-1.345-0.909-2.19-1.333
			c-0.847-0.423-1.777-0.793-2.793-1.11s-2.116-0.571-3.301-0.762c-1.186-0.19-2.412-0.286-3.682-0.286V352.572z"/>
		<path fill="#82B3BF" d="M641.327,428.553c0,1.968-0.28,3.708-0.841,5.221c-0.562,1.513-1.323,2.824-2.285,3.936
			c-0.963,1.11-2.105,2.036-3.428,2.776c-1.323,0.741-2.746,1.339-4.27,1.794c-1.523,0.454-3.115,0.719-4.776,0.793
			s-3.316,0.111-4.967,0.111c-2.285,0-4.349-0.053-6.188-0.159c-1.842-0.105-3.486-0.338-4.936-0.697
			c-1.45-0.36-2.729-0.757-3.841-1.19c-1.11-0.434-2.09-0.862-2.936-1.286v-11.013h8.981c0.889,1.396,1.904,2.423,3.047,3.079
			s2.317,0.983,3.523,0.983c0.359,0,0.762-0.031,1.206-0.095s0.856-0.265,1.237-0.604c0.381-0.338,0.704-0.861,0.969-1.571
			c0.264-0.708,0.396-1.708,0.396-2.999c-1.714-0.147-3.412-0.365-5.094-0.65c-1.683-0.286-3.291-0.672-4.824-1.158
			c-1.534-0.486-2.957-1.105-4.27-1.857c-1.312-0.75-2.449-1.66-3.411-2.729c-0.963-1.067-1.72-2.327-2.27-3.776
			c-0.551-1.449-0.825-3.115-0.825-4.999c0-2.158,0.274-4.047,0.825-5.665c0.55-1.619,1.302-3.01,2.253-4.174
			c0.953-1.163,2.079-2.126,3.381-2.888c1.301-0.762,2.702-1.365,4.205-1.81c1.502-0.444,3.067-0.756,4.697-0.937
			c1.629-0.179,3.258-0.27,4.888-0.27c2.306,0,4.374,0.117,6.205,0.35c1.83,0.232,3.47,0.529,4.919,0.889s2.729,0.757,3.841,1.189
			c1.11,0.435,2.1,0.853,2.968,1.254v11.108h-9.617c-0.805-1.523-1.725-2.634-2.762-3.332c-1.036-0.698-2.094-1.048-3.174-1.048
			c-0.359,0-0.772,0.059-1.237,0.175c-0.466,0.116-0.899,0.376-1.302,0.777c-0.401,0.402-0.74,0.995-1.016,1.777
			c-0.274,0.783-0.412,1.841-0.412,3.174c3.491,0.127,6.554,0.498,9.188,1.111c2.634,0.613,4.84,1.528,6.617,2.745
			s3.11,2.782,3.999,4.697S641.327,425.823,641.327,428.553z"/>
		<path fill="#82B3BF" d="M663.36,419.158v10.061l3.841,0.698v12.695h-19.107v-12.663l3.809-0.73V411.16l-3.809-0.73v-12.505h22.916
			l15.266,24.09v-10.791l-3.809-0.794v-12.505h19.074v12.505l-3.809,0.73v18.059l3.809,0.73v12.663h-22.914L663.36,419.158z"/>
		<path fill="#82B3BF" d="M740.522,442.613l-1.587-7.521h-12.474l-1.586,7.521h-16.98v-14.727l3.682-0.729l8.791-29.231h24.629
			l8.855,29.231l3.65,0.729v14.727H740.522z M728.398,425.062h8.601l-4.316-17.552L728.398,425.062z"/>
		<path fill="#82B3BF" d="M816.636,442.613h-21.424l-8.441-18.726v18.726h-22.916v-12.663l3.809-0.73V411.16l-3.809-0.73v-12.505
			h22.916v17.837l8.441-17.837h20.566v8.062c-1.248,1.059-2.406,2.169-3.475,3.333c-1.069,1.164-2.068,2.338-3,3.522
			c-0.931,1.186-1.788,2.349-2.57,3.491c-0.783,1.143-1.492,2.232-2.127,3.27c0.826,1.312,1.703,2.682,2.635,4.109
			c0.931,1.429,1.898,2.862,2.904,4.301c1.005,1.439,2.052,2.852,3.142,4.237s2.206,2.682,3.349,3.888V442.613z"/>
		<path fill="#82B3BF" d="M844.477,417.572l8.792-1.873v9.046l-8.792-1.904v7.014c1.27,0,2.496-0.09,3.682-0.27
			c1.185-0.18,2.285-0.429,3.301-0.746s1.946-0.688,2.793-1.11c0.846-0.423,1.576-0.878,2.19-1.365h4.348v16.25h-39.229v-12.663
			l3.809-0.73v-17.995l-3.809-0.73v-12.568h39.229v16.25h-4.348c-0.614-0.465-1.345-0.909-2.19-1.333
			c-0.847-0.423-1.777-0.793-2.793-1.11s-2.116-0.571-3.301-0.762c-1.186-0.19-2.412-0.286-3.682-0.286V417.572z"/>
		<path fill="#82B3BF" d="M888.955,397.925h26.725v12.505l-3.809,0.73v18.059l3.809,0.73v12.663h-26.725v-12.663l3.809-0.73V411.16
			l-3.809-0.73V397.925z"/>
		<path fill="#82B3BF" d="M962.34,428.553c0,1.968-0.28,3.708-0.841,5.221c-0.562,1.513-1.323,2.824-2.285,3.936
			c-0.963,1.11-2.105,2.036-3.428,2.776c-1.323,0.741-2.746,1.339-4.27,1.794c-1.523,0.454-3.115,0.719-4.776,0.793
			s-3.316,0.111-4.967,0.111c-2.285,0-4.349-0.053-6.188-0.159c-1.842-0.105-3.486-0.338-4.936-0.697
			c-1.45-0.36-2.729-0.757-3.841-1.19c-1.11-0.434-2.09-0.862-2.936-1.286v-11.013h8.981c0.889,1.396,1.904,2.423,3.047,3.079
			s2.317,0.983,3.523,0.983c0.359,0,0.762-0.031,1.206-0.095s0.856-0.265,1.237-0.604c0.381-0.338,0.704-0.861,0.969-1.571
			c0.264-0.708,0.396-1.708,0.396-2.999c-1.714-0.147-3.412-0.365-5.094-0.65c-1.683-0.286-3.291-0.672-4.824-1.158
			c-1.534-0.486-2.957-1.105-4.27-1.857c-1.312-0.75-2.449-1.66-3.411-2.729c-0.963-1.067-1.72-2.327-2.27-3.776
			c-0.551-1.449-0.825-3.115-0.825-4.999c0-2.158,0.274-4.047,0.825-5.665c0.55-1.619,1.302-3.01,2.253-4.174
			c0.953-1.163,2.079-2.126,3.381-2.888c1.301-0.762,2.702-1.365,4.205-1.81c1.502-0.444,3.067-0.756,4.697-0.937
			c1.629-0.179,3.258-0.27,4.888-0.27c2.306,0,4.374,0.117,6.205,0.35c1.83,0.232,3.47,0.529,4.919,0.889s2.729,0.757,3.841,1.189
			c1.11,0.435,2.1,0.853,2.968,1.254v11.108h-9.617c-0.805-1.523-1.725-2.634-2.762-3.332c-1.036-0.698-2.094-1.048-3.174-1.048
			c-0.359,0-0.772,0.059-1.237,0.175c-0.466,0.116-0.899,0.376-1.302,0.777c-0.401,0.402-0.74,0.995-1.016,1.777
			c-0.274,0.783-0.412,1.841-0.412,3.174c3.491,0.127,6.554,0.498,9.188,1.111c2.634,0.613,4.84,1.528,6.617,2.745
			s3.11,2.782,3.999,4.697S962.34,425.823,962.34,428.553z"/>
		<path fill="#82B3BF" d="M617.713,484.157v10.062l3.841,0.698v12.695h-19.107v-12.664l3.809-0.729v-18.06l-3.809-0.729v-12.505
			h22.916l15.266,24.09v-10.791l-3.809-0.794v-12.505h19.074v12.505l-3.809,0.729v18.06l3.809,0.729v12.664H632.98L617.713,484.157z
			"/>
		<path fill="#82B3BF" d="M688.75,508.184c-3.724,0-7.21-0.396-10.457-1.19c-3.248-0.793-6.073-2.158-8.475-4.094
			c-2.401-1.937-4.295-4.406-5.681-7.411c-1.387-3.004-2.079-6.612-2.079-10.823c0-4.125,0.692-7.643,2.079-10.553
			c1.386-2.909,3.284-5.278,5.696-7.109c2.412-1.83,5.237-3.168,8.475-4.015c3.237-0.846,6.718-1.27,10.441-1.27
			c3.703,0,7.179,0.424,10.427,1.27c3.247,0.847,6.083,2.185,8.506,4.015c2.422,1.831,4.332,4.2,5.729,7.109
			c1.396,2.91,2.095,6.428,2.095,10.553c0,2.793-0.317,5.327-0.952,7.602c-0.635,2.275-1.529,4.296-2.682,6.062
			c-1.153,1.767-2.539,3.29-4.158,4.57c-1.618,1.28-3.423,2.338-5.411,3.174c-1.989,0.836-4.126,1.396-6.411,1.682
			C693.606,508.041,691.226,508.184,688.75,508.184z M688.75,475.239c-1.248,0-2.301,0.158-3.157,0.477
			c-0.857,0.316-1.566,0.729-2.127,1.237s-0.999,1.09-1.317,1.745c-0.316,0.656-0.545,1.328-0.682,2.016
			c-0.138,0.688-0.223,1.365-0.254,2.031c-0.032,0.667-0.048,1.254-0.048,1.762c0,0.487,0.011,1.063,0.032,1.729
			c0.021,0.667,0.095,1.365,0.222,2.095c0.127,0.73,0.338,1.455,0.635,2.174c0.296,0.72,0.725,1.365,1.285,1.937
			s1.28,1.031,2.158,1.381c0.878,0.349,1.963,0.523,3.253,0.523c1.27,0,2.344-0.169,3.222-0.508
			c0.878-0.338,1.598-0.788,2.158-1.349s1-1.19,1.317-1.889s0.545-1.401,0.683-2.11c0.137-0.709,0.222-1.401,0.254-2.079
			c0.031-0.677,0.048-1.259,0.048-1.746c0-0.508-0.017-1.095-0.048-1.761c-0.032-0.667-0.117-1.349-0.254-2.048
			c-0.138-0.697-0.365-1.38-0.683-2.047c-0.317-0.666-0.757-1.264-1.317-1.793c-0.561-0.528-1.28-0.957-2.158-1.285
			S690.019,475.239,688.75,475.239z"/>
		<path fill="#82B3BF" d="M766.425,485.745v21.867h-22.884v-12.664l3.809-0.729v-18.06l-3.809-0.729v-12.505h22.884L776.042,480
			l9.521-17.075h22.884v12.505l-3.809,0.729v18.06l3.809,0.729v12.664h-22.884v-21.867l-9.521,16.123L766.425,485.745z"/>
		<path fill="#82B3BF" d="M841.302,508.184c-3.724,0-7.21-0.396-10.457-1.19c-3.248-0.793-6.073-2.158-8.475-4.094
			c-2.401-1.937-4.295-4.406-5.681-7.411c-1.387-3.004-2.079-6.612-2.079-10.823c0-4.125,0.692-7.643,2.079-10.553
			c1.386-2.909,3.284-5.278,5.696-7.109c2.412-1.83,5.237-3.168,8.475-4.015c3.237-0.846,6.718-1.27,10.441-1.27
			c3.703,0,7.179,0.424,10.427,1.27c3.247,0.847,6.083,2.185,8.506,4.015c2.422,1.831,4.332,4.2,5.729,7.109
			c1.396,2.91,2.095,6.428,2.095,10.553c0,2.793-0.317,5.327-0.952,7.602c-0.635,2.275-1.529,4.296-2.682,6.062
			c-1.153,1.767-2.539,3.29-4.158,4.57c-1.618,1.28-3.423,2.338-5.411,3.174c-1.989,0.836-4.126,1.396-6.411,1.682
			C846.159,508.041,843.779,508.184,841.302,508.184z M841.302,475.239c-1.248,0-2.301,0.158-3.157,0.477
			c-0.857,0.316-1.566,0.729-2.127,1.237s-0.999,1.09-1.317,1.745c-0.316,0.656-0.545,1.328-0.682,2.016
			c-0.138,0.688-0.223,1.365-0.254,2.031c-0.032,0.667-0.048,1.254-0.048,1.762c0,0.487,0.011,1.063,0.032,1.729
			c0.021,0.667,0.095,1.365,0.222,2.095c0.127,0.73,0.338,1.455,0.635,2.174c0.296,0.72,0.725,1.365,1.285,1.937
			s1.28,1.031,2.158,1.381c0.878,0.349,1.963,0.523,3.253,0.523c1.27,0,2.344-0.169,3.222-0.508
			c0.878-0.338,1.598-0.788,2.158-1.349s1-1.19,1.317-1.889s0.545-1.401,0.683-2.11c0.137-0.709,0.222-1.401,0.254-2.079
			c0.031-0.677,0.048-1.259,0.048-1.746c0-0.508-0.017-1.095-0.048-1.761c-0.032-0.667-0.117-1.349-0.254-2.048
			c-0.138-0.697-0.365-1.38-0.683-2.047c-0.317-0.666-0.757-1.264-1.317-1.793c-0.561-0.528-1.28-0.957-2.158-1.285
			S842.572,475.239,841.302,475.239z"/>
		<path fill="#82B3BF" d="M923.797,507.613h-18.979c-0.593-1.1-1.206-2.27-1.841-3.507c-0.635-1.238-1.249-2.534-1.841-3.888
			c-0.593-1.354-1.148-2.751-1.666-4.189c-0.519-1.439-0.958-2.92-1.317-4.443h-1.047v16.027H874.19v-12.664l3.809-0.729v-18.06
			l-3.809-0.729v-12.505h25.994c3.448,0,6.427,0.148,8.935,0.444c2.507,0.297,4.634,0.729,6.379,1.302
			c1.746,0.57,3.158,1.264,4.237,2.078c1.079,0.815,1.92,1.735,2.523,2.762c0.603,1.026,1.01,2.153,1.222,3.38
			c0.211,1.228,0.317,2.528,0.317,3.903c0,1.396-0.133,2.666-0.396,3.809c-0.265,1.143-0.735,2.19-1.412,3.143
			c-0.678,0.952-1.604,1.825-2.777,2.618c-1.175,0.794-2.672,1.54-4.491,2.237c0.381,0.762,0.946,1.667,1.698,2.714
			c0.751,1.048,1.57,2.116,2.459,3.206s1.772,2.143,2.65,3.158s1.635,1.883,2.27,2.602V507.613z M897.106,482.984
			c1.163,0,2.216-0.058,3.157-0.175c0.941-0.116,1.746-0.37,2.412-0.762c0.667-0.391,1.18-0.968,1.54-1.729
			c0.359-0.762,0.539-1.788,0.539-3.078c0-1.27-0.18-2.285-0.539-3.047c-0.36-0.762-0.873-1.35-1.54-1.762
			c-0.666-0.413-1.471-0.683-2.412-0.81s-1.994-0.19-3.157-0.19V482.984z"/>
		<path fill="#82B3BF" d="M953.669,482.572l8.792-1.873v9.045l-8.792-1.904v7.015c1.27,0,2.496-0.09,3.682-0.27
			c1.185-0.18,2.285-0.429,3.301-0.746s1.946-0.688,2.793-1.11c0.846-0.424,1.576-0.878,2.19-1.365h4.348v16.25h-39.229v-12.664
			l3.809-0.729v-17.995l-3.809-0.73v-12.568h39.229v16.25h-4.348c-0.614-0.465-1.345-0.909-2.19-1.333
			c-0.847-0.423-1.777-0.794-2.793-1.11c-1.016-0.318-2.116-0.572-3.301-0.762c-1.186-0.191-2.412-0.286-3.682-0.286V482.572z"/>
		<path fill="#82B3BF" d="M976.528,471.527v-12.664h24.406v12.664l-4.062,19.836h-16.25L976.528,471.527z M978.59,495.425h20.312
			v12.188H978.59V495.425z"/>
	</g>
</g>
<g id="fonts" display="none">
	<polygon display="inline" fill="#1D252B" points="1117.876,581.975 753.208,569.375 737.699,761.773 920.999,675.572 	"/>
	<polygon display="inline" fill="#1D252B" points="617.174,259.506 617.174,139.974 430.476,280.823 541.456,297.974 	"/>
	<linearGradient id="SVGID_4_" gradientUnits="userSpaceOnUse" x1="801.7811" y1="584.2428" x2="981.1327" y2="867.2402">
		<stop  offset="0" style="stop-color:#2A3B44"/>
		<stop  offset="0.3493" style="stop-color:#30424C"/>
		<stop  offset="0.7191" style="stop-color:#394E5B"/>
		<stop  offset="0.7604" style="stop-color:#394E5B"/>
		<stop  offset="1" style="stop-color:#394E5B"/>
	</linearGradient>
	<polygon display="inline" fill="url(#SVGID_4_)" points="753.208,569.375 1063.841,719.101 737.699,761.773 	"/>
	<linearGradient id="SVGID_6_" gradientUnits="userSpaceOnUse" x1="458.0126" y1="243.1786" x2="1142.4844" y2="500.0289">
		<stop  offset="0" style="stop-color:#3F5C63"/>
		<stop  offset="0.5773" style="stop-color:#3E5A61"/>
		<stop  offset="0.8507" style="stop-color:#3A5459"/>
		<stop  offset="1" style="stop-color:#364D51"/>
	</linearGradient>
	<polygon display="inline" fill="url(#SVGID_6_)" points="430.476,280.823 1143.586,199.401 1117.876,581.975 501.911,560.693 	"/>
	<rect x="599.368" y="332.861" display="inline" fill="none" width="446.667" height="312.446"/>
	<text transform="matrix(1 0 0 1 599.3687 377.6129)" display="inline"><tspan x="0" y="0" fill="#82B3BF" font-family="'HoltwoodOneSC'" font-size="65" letter-spacing="1">Hah! The </tspan><tspan x="0" y="65" fill="#82B3BF" font-family="'HoltwoodOneSC'" font-size="65" letter-spacing="1">snake is </tspan><tspan x="0" y="130" fill="#82B3BF" font-family="'HoltwoodOneSC'" font-size="65" letter-spacing="1">no more!</tspan></text>
</g>
</svg>
