<?xml version="1.0" encoding="utf-8"?>
<!-- Generator: Adobe Illustrator 17.0.0, SVG Export Plug-In . SVG Version: 6.00 Build 0)  -->
<!DOCTYPE svg PUBLIC "-//W3C//DTD SVG 1.1//EN" "http://www.w3.org/Graphics/SVG/1.1/DTD/svg11.dtd">
<svg version="1.1" xmlns="http://www.w3.org/2000/svg" xmlns:xlink="http://www.w3.org/1999/xlink" x="0px" y="0px" width="1600px"
	 height="900px" viewBox="0 0 1600 900" enable-background="new 0 0 1600 900" xml:space="preserve">
<g id="Layer_3" display="none">
</g>
<g id="outlune">
	<polygon fill="#1D252B" points="1117.876,581.975 753.208,569.375 737.699,761.773 920.999,675.572 	"/>
	<polygon fill="#1D252B" points="617.174,259.506 617.174,139.974 430.476,280.823 541.456,297.974 	"/>
	<linearGradient id="SVGID_1_" gradientUnits="userSpaceOnUse" x1="801.7811" y1="584.2427" x2="981.1327" y2="867.2401">
		<stop  offset="0" style="stop-color:#2A3B44"/>
		<stop  offset="0.3493" style="stop-color:#30424C"/>
		<stop  offset="0.7191" style="stop-color:#394E5B"/>
		<stop  offset="0.7604" style="stop-color:#394E5B"/>
		<stop  offset="1" style="stop-color:#394E5B"/>
	</linearGradient>
	<polygon fill="url(#SVGID_1_)" points="753.208,569.375 1063.841,719.1 737.699,761.773 	"/>
	<linearGradient id="SVGID_3_" gradientUnits="userSpaceOnUse" x1="458.0126" y1="243.1786" x2="1142.4844" y2="500.0288">
		<stop  offset="0" style="stop-color:#3F5C63"/>
		<stop  offset="0.5773" style="stop-color:#3E5A61"/>
		<stop  offset="0.8507" style="stop-color:#3A5459"/>
		<stop  offset="1" style="stop-color:#364D51"/>
	</linearGradient>
	<polygon fill="url(#SVGID_3_)" points="430.476,280.823 1143.586,199.401 1117.876,581.975 501.911,560.693 	"/>
	<g>
		<path fill="#82B3BF" d="M644.785,385.694c1.016,0,1.968-0.121,2.856-0.365c0.889-0.242,1.714-0.555,2.476-0.936
			s1.454-0.814,2.079-1.301c0.624-0.486,1.169-0.974,1.635-1.461h5.3v16.25H620.41v-13.773l4.062-0.794V363.7l-4.062-0.793v-13.775
			h28.438v13.775l-4.062,0.793V385.694z"/>
		<path fill="#82B3BF" d="M687.796,372.84l8.792-1.873v9.046l-8.792-1.904v7.015c1.27,0,2.496-0.09,3.682-0.27
			c1.185-0.18,2.285-0.43,3.301-0.746c1.016-0.318,1.946-0.688,2.793-1.111c0.846-0.423,1.576-0.878,2.19-1.365h4.348v16.25h-39.229
			v-12.663l3.809-0.729v-17.996l-3.809-0.73v-12.568h39.229v16.25h-4.348c-0.614-0.465-1.345-0.909-2.19-1.332
			c-0.847-0.424-1.777-0.794-2.793-1.111s-2.116-0.571-3.301-0.762c-1.186-0.19-2.412-0.285-3.682-0.285V372.84z"/>
		<path fill="#82B3BF" d="M721.096,365c-1.1,0-2.073,0.148-2.92,0.445c-0.846,0.296-1.555,0.666-2.126,1.11
			s-1.005,0.926-1.302,1.444c-0.296,0.519-0.443,1-0.443,1.443h-5.301v-16.25h43.291v16.25h-5.301c0-0.443-0.147-0.925-0.443-1.443
			c-0.297-0.519-0.73-1-1.302-1.444s-1.28-0.814-2.126-1.11c-0.847-0.297-1.82-0.445-2.92-0.445v19.488l3.809,0.729v12.663h-26.725
			v-12.663l3.809-0.729V365z"/>
		<path fill="#82B3BF" d="M757.379,349.131h20.312v16.219c0,2.688-0.465,4.946-1.396,6.775c-0.931,1.831-2.158,3.312-3.682,4.443
			c-1.523,1.133-3.258,1.942-5.205,2.429c-1.946,0.487-3.936,0.729-5.967,0.729v-10.283c0.402-0.021,0.836-0.095,1.302-0.222
			c0.465-0.127,0.899-0.339,1.302-0.635c0.401-0.296,0.74-0.703,1.016-1.222c0.274-0.519,0.412-1.18,0.412-1.984h-8.094V349.131z"/>
		<path fill="#82B3BF" d="M823.656,383.822c0,1.968-0.28,3.708-0.841,5.222c-0.562,1.512-1.323,2.824-2.285,3.936
			c-0.963,1.109-2.105,2.036-3.428,2.776c-1.323,0.741-2.746,1.339-4.27,1.794c-1.523,0.454-3.115,0.719-4.776,0.793
			s-3.316,0.111-4.967,0.111c-2.285,0-4.349-0.054-6.188-0.159c-1.842-0.106-3.486-0.339-4.936-0.698
			c-1.45-0.359-2.729-0.756-3.841-1.189c-1.11-0.434-2.09-0.863-2.936-1.286v-11.013h8.981c0.889,1.396,1.904,2.422,3.047,3.078
			s2.317,0.984,3.523,0.984c0.359,0,0.762-0.032,1.206-0.096s0.856-0.264,1.237-0.604c0.381-0.338,0.704-0.861,0.969-1.57
			c0.264-0.709,0.396-1.709,0.396-3c-1.714-0.147-3.412-0.365-5.094-0.65c-1.683-0.285-3.291-0.672-4.824-1.158
			c-1.534-0.486-2.957-1.105-4.27-1.857c-1.312-0.75-2.449-1.66-3.411-2.729c-0.963-1.068-1.72-2.328-2.27-3.777
			c-0.551-1.449-0.825-3.115-0.825-4.998c0-2.158,0.274-4.047,0.825-5.666c0.55-1.619,1.302-3.01,2.253-4.174
			c0.953-1.163,2.079-2.126,3.381-2.888c1.301-0.762,2.702-1.364,4.205-1.81c1.502-0.443,3.067-0.756,4.697-0.936
			c1.629-0.18,3.258-0.27,4.888-0.27c2.306,0,4.374,0.116,6.205,0.349c1.83,0.233,3.47,0.529,4.919,0.889
			c1.449,0.36,2.729,0.757,3.841,1.19c1.11,0.434,2.1,0.852,2.968,1.254v11.107h-9.617c-0.805-1.523-1.725-2.634-2.762-3.332
			c-1.036-0.698-2.094-1.047-3.174-1.047c-0.359,0-0.772,0.059-1.237,0.174c-0.466,0.117-0.899,0.376-1.302,0.777
			c-0.401,0.402-0.74,0.995-1.016,1.777c-0.274,0.783-0.412,1.842-0.412,3.174c3.491,0.127,6.554,0.498,9.188,1.111
			c2.634,0.613,4.84,1.529,6.617,2.746s3.11,2.781,3.999,4.697C823.211,378.77,823.656,381.092,823.656,383.822z"/>
		<path fill="#82B3BF" d="M850.741,374.935c0-3.978,0.604-7.411,1.81-10.3c1.206-2.887,2.92-5.268,5.142-7.141
			s4.903-3.258,8.046-4.158c3.142-0.898,6.649-1.348,10.521-1.348c2.35,0,4.47,0.116,6.364,0.349
			c1.894,0.233,3.597,0.529,5.109,0.889c1.513,0.36,2.846,0.757,3.999,1.19s2.174,0.852,3.062,1.254v13.806h-8.981
			c-0.487-0.698-0.968-1.306-1.444-1.825c-0.476-0.518-0.989-0.941-1.539-1.27c-0.551-0.328-1.164-0.576-1.841-0.746
			c-0.678-0.168-1.471-0.254-2.38-0.254c-1.101,0-2.175,0.164-3.222,0.492c-1.048,0.328-1.979,0.868-2.793,1.619
			c-0.815,0.751-1.471,1.734-1.968,2.951c-0.498,1.217-0.746,2.714-0.746,4.491c0,2.073,0.201,3.772,0.604,5.095
			c0.401,1.322,0.983,2.369,1.745,3.141c0.762,0.773,1.698,1.308,2.809,1.604c1.111,0.297,2.386,0.444,3.825,0.444
			c0.762,0,1.549-0.053,2.364-0.159c0.814-0.105,1.698-0.307,2.649-0.603v-3.618h-6.379v-7.808h18.566v21.074
			c-1.565,0.656-3.227,1.27-4.982,1.841c-1.757,0.571-3.518,1.068-5.284,1.492c-1.768,0.423-3.497,0.697-5.189,0.824
			c-1.693,0.127-3.259,0.191-4.697,0.191c-3.534,0-6.835-0.424-9.902-1.27c-3.068-0.847-5.734-2.254-7.998-4.222
			c-2.265-1.968-4.042-4.448-5.332-7.442C851.386,382.526,850.741,378.998,850.741,374.935z"/>
		<path fill="#82B3BF" d="M927.872,398.454c-3.724,0-7.21-0.396-10.457-1.191c-3.248-0.793-6.073-2.158-8.475-4.094
			s-4.295-4.406-5.681-7.41c-1.387-3.005-2.079-6.612-2.079-10.823c0-4.126,0.692-7.644,2.079-10.554
			c1.386-2.908,3.284-5.278,5.696-7.109c2.412-1.829,5.237-3.168,8.475-4.014c3.237-0.847,6.718-1.27,10.441-1.27
			c3.703,0,7.179,0.423,10.427,1.27c3.247,0.846,6.083,2.185,8.506,4.014c2.422,1.831,4.332,4.201,5.729,7.109
			c1.396,2.91,2.095,6.428,2.095,10.554c0,2.793-0.317,5.327-0.952,7.601c-0.635,2.275-1.529,4.297-2.682,6.062
			c-1.153,1.768-2.539,3.291-4.158,4.57c-1.618,1.281-3.423,2.338-5.411,3.174c-1.989,0.836-4.126,1.396-6.411,1.682
			C932.728,398.311,930.348,398.454,927.872,398.454z M927.872,365.508c-1.248,0-2.301,0.159-3.157,0.477
			c-0.857,0.317-1.566,0.73-2.127,1.238s-0.999,1.09-1.317,1.745c-0.316,0.656-0.545,1.328-0.682,2.015
			c-0.138,0.688-0.223,1.365-0.254,2.031c-0.032,0.668-0.048,1.254-0.048,1.762c0,0.487,0.011,1.064,0.032,1.73
			c0.021,0.666,0.095,1.365,0.222,2.094c0.127,0.73,0.338,1.455,0.635,2.175c0.296,0.72,0.725,1.364,1.285,1.937
			c0.561,0.57,1.28,1.031,2.158,1.381c0.878,0.348,1.963,0.523,3.253,0.523c1.27,0,2.344-0.17,3.222-0.508
			c0.878-0.339,1.598-0.789,2.158-1.35s1-1.189,1.317-1.889c0.317-0.697,0.545-1.4,0.683-2.109c0.137-0.709,0.222-1.402,0.254-2.08
			c0.031-0.676,0.048-1.258,0.048-1.745c0-0.508-0.017-1.095-0.048-1.761c-0.032-0.668-0.117-1.35-0.254-2.048
			c-0.138-0.698-0.365-1.38-0.683-2.048c-0.317-0.666-0.757-1.264-1.317-1.793c-0.561-0.528-1.28-0.957-2.158-1.285
			S929.141,365.508,927.872,365.508z"/>
		<path fill="#82B3BF" d="M658.686,418.194c3.131,0.741,5.475,1.937,7.03,3.587c1.555,1.65,2.333,3.894,2.333,6.729
			c0,1.904-0.212,3.513-0.635,4.824c-0.424,1.312-0.958,2.392-1.604,3.237c-0.646,0.847-1.344,1.497-2.095,1.951
			c-0.751,0.456-1.449,0.789-2.095,1c-0.646,0.213-1.401,0.35-2.27,0.413c0.762,0.042,1.588,0.132,2.477,0.271
			c0.889,0.137,1.766,0.348,2.634,0.635c0.867,0.285,1.703,0.655,2.507,1.109c0.805,0.456,1.508,1.032,2.111,1.73
			c0.603,0.698,1.089,1.523,1.46,2.476c0.37,0.952,0.556,2.063,0.556,3.333c0,1.904-0.244,3.676-0.73,5.316
			c-0.487,1.639-1.349,3.057-2.587,4.252c-1.237,1.195-2.903,2.133-4.999,2.809c-2.094,0.678-4.76,1.016-7.998,1.016h-34.626
			v-12.663l3.809-0.729V430.35l-3.809-0.73v-11.426H658.686z M651.989,432.096c0-1.08-0.174-1.91-0.523-2.492
			c-0.349-0.582-0.814-1.01-1.396-1.285s-1.237-0.434-1.968-0.477c-0.729-0.041-1.476-0.062-2.237-0.062h-2.793v9.014h2.793
			c0.762,0,1.508-0.027,2.237-0.08c0.73-0.053,1.386-0.223,1.968-0.508s1.048-0.746,1.396-1.381
			C651.815,434.19,651.989,433.281,651.989,432.096z M651.989,447.298c0-1.079-0.174-1.904-0.523-2.476
			c-0.349-0.571-0.814-0.994-1.396-1.27s-1.237-0.434-1.968-0.477c-0.729-0.041-1.476-0.062-2.237-0.062h-2.793v9.014h2.793
			c0.762,0,1.508-0.027,2.237-0.08c0.73-0.053,1.386-0.227,1.968-0.523c0.582-0.296,1.048-0.762,1.396-1.396
			C651.815,449.393,651.989,448.483,651.989,447.298z"/>
		<path fill="#82B3BF" d="M708.363,462.881l-1.587-7.521h-12.474l-1.586,7.521h-16.98v-14.727l3.682-0.729l8.791-29.231h24.629
			l8.855,29.231l3.65,0.729v14.727H708.363z M696.239,445.331h8.601l-4.316-17.551L696.239,445.331z"/>
		<path fill="#82B3BF" d="M749.121,439.935c0,3.364,0.857,5.813,2.57,7.347c1.715,1.535,4.147,2.302,7.301,2.302
			c1.861,0,4.046-0.232,6.554-0.698c2.507-0.465,5.337-1.174,8.489-2.127v13.807c-6.348,1.926-12.452,2.889-18.312,2.889
			c-3.64,0-7.025-0.43-10.156-1.285c-3.132-0.857-5.851-2.27-8.156-4.238c-2.307-1.967-4.121-4.447-5.443-7.441
			c-1.323-2.994-1.984-6.512-1.984-10.554c0-3.999,0.608-7.442,1.825-10.331s2.941-5.268,5.174-7.141
			c2.231-1.873,4.914-3.254,8.046-4.143c3.131-0.889,6.622-1.332,10.473-1.332c2.35,0,4.47,0.116,6.364,0.349
			c1.894,0.233,3.597,0.529,5.109,0.889c1.513,0.36,2.846,0.757,3.999,1.19s2.174,0.852,3.062,1.254v13.806h-8.981
			c-1.016-1.396-2.138-2.429-3.364-3.095c-1.228-0.666-2.508-1-3.84-1c-1.101,0-2.175,0.213-3.222,0.635
			c-1.048,0.424-1.979,1.043-2.793,1.857c-0.815,0.814-1.471,1.814-1.968,2.999C749.369,437.057,749.121,438.412,749.121,439.935z"
			/>
		<path fill="#82B3BF" d="M834.312,462.881h-21.424l-8.441-18.725v18.725h-22.916v-12.663l3.809-0.729v-18.06l-3.809-0.729v-12.506
			h22.916v17.838l8.441-17.838h20.566v8.062c-1.248,1.058-2.406,2.168-3.475,3.332c-1.069,1.164-2.068,2.338-3,3.523
			c-0.931,1.185-1.788,2.348-2.57,3.49c-0.783,1.143-1.492,2.232-2.127,3.27c0.826,1.312,1.703,2.682,2.635,4.109
			c0.931,1.43,1.898,2.863,2.904,4.301c1.005,1.439,2.052,2.852,3.142,4.238c1.09,1.385,2.206,2.682,3.349,3.887V462.881z"/>
		<path fill="#82B3BF" d="M839.111,426.795v-12.664h24.406v12.664l-4.062,19.836h-16.25L839.111,426.795z M841.173,450.694h20.312
			v12.188h-20.312V450.694z"/>
	</g>
</g>
<g id="fonts" display="none">
	<polygon display="inline" fill="#1D252B" points="1117.876,581.975 753.208,569.375 737.699,761.773 920.999,675.572 	"/>
	<polygon display="inline" fill="#1D252B" points="617.174,259.506 617.174,139.974 430.476,280.823 541.456,297.974 	"/>
	<linearGradient id="SVGID_4_" gradientUnits="userSpaceOnUse" x1="801.7811" y1="584.2427" x2="981.1327" y2="867.2401">
		<stop  offset="0" style="stop-color:#2A3B44"/>
		<stop  offset="0.3493" style="stop-color:#30424C"/>
		<stop  offset="0.7191" style="stop-color:#394E5B"/>
		<stop  offset="0.7604" style="stop-color:#394E5B"/>
		<stop  offset="1" style="stop-color:#394E5B"/>
	</linearGradient>
	<polygon display="inline" fill="url(#SVGID_4_)" points="753.208,569.375 1063.841,719.1 737.699,761.773 	"/>
	<linearGradient id="SVGID_6_" gradientUnits="userSpaceOnUse" x1="458.0126" y1="243.1786" x2="1142.4844" y2="500.0288">
		<stop  offset="0" style="stop-color:#3F5C63"/>
		<stop  offset="0.5773" style="stop-color:#3E5A61"/>
		<stop  offset="0.8507" style="stop-color:#3A5459"/>
		<stop  offset="1" style="stop-color:#364D51"/>
	</linearGradient>
	<polygon display="inline" fill="url(#SVGID_6_)" points="430.476,280.823 1143.586,199.401 1117.876,581.975 501.911,560.693 	"/>
	<rect x="617.174" y="353.128" display="inline" fill="none" width="546.392" height="312.446"/>
	<text transform="matrix(1 0 0 1 617.1724 397.8818)" display="inline"><tspan x="0" y="0" fill="#82B3BF" font-family="'HoltwoodOneSC'" font-size="65" letter-spacing="1">Let’s go </tspan><tspan x="0" y="65" fill="#82B3BF" font-family="'HoltwoodOneSC'" font-size="65" letter-spacing="1">back!</tspan></text>
</g>
</svg>
