<?xml version="1.0" encoding="utf-8"?>
<!-- Generator: Adobe Illustrator 17.0.0, SVG Export Plug-In . SVG Version: 6.00 Build 0)  -->
<!DOCTYPE svg PUBLIC "-//W3C//DTD SVG 1.1//EN" "http://www.w3.org/Graphics/SVG/1.1/DTD/svg11.dtd">
<svg version="1.1" xmlns="http://www.w3.org/2000/svg" xmlns:xlink="http://www.w3.org/1999/xlink" x="0px" y="0px" width="1600px"
	 height="900px" viewBox="0 0 1600 900" enable-background="new 0 0 1600 900" xml:space="preserve">
<g id="Layer_6" display="none">
	<g display="inline">
		<rect x="-1.545" y="0.001" fill="#FBE4A8" width="1603.089" height="899.998"/>
		<radialGradient id="SVGID_1_" cx="801.5444" cy="342.8386" r="316.6649" gradientUnits="userSpaceOnUse">
			<stop  offset="0" style="stop-color:#FBE4CE"/>
			<stop  offset="0.5397" style="stop-color:#F2E7CE"/>
			<stop  offset="1" style="stop-color:#FFFFFF"/>
		</radialGradient>
		<circle fill="url(#SVGID_1_)" cx="801.544" cy="342.839" r="316.665"/>
		<g>
			<defs>
				<rect id="SVGID_8_" x="-1.545" y="0.001" width="1603.089" height="899.998"/>
			</defs>
			<clipPath id="SVGID_3_">
				<use xlink:href="#SVGID_8_"  overflow="visible"/>
			</clipPath>
			<g clip-path="url(#SVGID_3_)">
				<g>
					<g>
						<polygon fill="#D19853" points="-1603.227,91.094 -1374.202,200.334 -1095.487,159.419 -727.75,283.391 -391.527,207.719 
							-19.49,285.727 499.562,180.716 1037.773,307.616 1441.773,187.616 2013.773,299.616 2333.773,183.616 2729.773,283.616 
							3196.773,91.094 3196.773,899.999 -1603.227,899.999 						"/>
						<polygon fill="#C18749" points="1037.773,307.616 1474.525,392.708 1094.118,290.88 						"/>
					</g>
				</g>
				<g>
					<g>
						<polygon fill="#C78032" points="-1603.227,327.616 -1317.442,267.397 -642.227,395.616 -242.227,267.397 125.773,367.616 
							655.578,267.397 1321.773,415.616 1666.679,285.727 2038.716,405.739 2245.773,303.048 2632.094,385.415 3001.813,267.397 
							3196.644,327.616 3196.773,899.999 -1603.227,899.999 						"/>
						<polygon fill="#B77430" points="125.773,367.616 -72.227,397.118 69.773,354.791 						"/>
						<polygon fill="#B77430" points="1321.773,415.616 1497.344,451.714 1370.891,397.118 						"/>
					</g>
				</g>
				<g>
					<g>
						<polygon fill="#BF672B" points="-1603.227,495.546 -1386.227,402.999 -1098.227,544.706 -878.227,449.999 -498.227,603.616 
							-266.227,495.616 125.773,551.616 393.773,383.616 761.773,515.616 1041.773,423.616 1701.773,567.616 1965.773,449.999 
							2245.773,527.616 2453.773,419.616 2825.773,491.616 3069.773,327.616 3196.542,495.546 3196.773,899.999 -1603.227,899.999 
													"/>
						<polygon fill="#A85C22" points="125.773,551.616 -37.227,619.616 76.633,544.596 						"/>
						<polygon fill="#A85C22" points="741.403,508.309 763.106,550.949 784.01,508.309 761.773,515.616 						"/>
					</g>
					<g id="peter_73_">
						<g>
							<path fill="#5E8C57" d="M1520.662,294.876c-13.808,0-25,11.192-25,25c0,0.191-0.424,19.946-9.86,38.819
								c-8.636,17.271-21.875,28.239-40.14,33.159V303.06c0-13.807-11.193-25-25-25s-25,11.193-25,25v148.978
								c-18.265-4.92-31.504-15.887-40.14-33.159c-9.437-18.873-9.86-38.628-9.86-38.819c0-13.808-11.192-25-25-25s-25,11.192-25,25
								c0,3.163,0.425,31.751,15.14,61.181c9.228,18.455,22.073,33.258,38.181,43.995c13.561,9.041,29.193,15.018,46.68,17.873
								v100.126h50v-160.31c17.486-2.854,33.119-8.832,46.68-17.873c16.107-10.737,28.953-25.54,38.181-43.995
								c14.715-29.43,15.14-58.018,15.14-61.181C1545.662,306.068,1534.469,294.876,1520.662,294.876z"/>
							<g>
								<path fill="#475E38" d="M1335.662,380.06c0,0.191,0.424,19.946,9.86,38.819c8.636,17.271,21.875,28.239,40.14,33.159v-3.526
									c-13.193-5.861-23.168-15.69-30.14-29.633c-9.437-18.873-9.86-38.628-9.86-38.819c0-13.808-11.192-25-25-25
									c-1.712,0-3.384,0.173-5,0.501C1327.073,357.877,1335.662,367.964,1335.662,380.06z"/>
								<path fill="#475E38" d="M1435.662,303.06v88.795c3.521-0.948,6.85-2.127,10-3.526V303.06c0-13.807-11.193-25-25-25
									c-1.712,0-3.384,0.173-5,0.501C1427.073,280.877,1435.662,290.965,1435.662,303.06z"/>
								<path fill="#475E38" d="M1520.662,294.876c-1.712,0-3.384,0.173-5,0.501c11.411,2.316,20,12.404,20,24.499
									c0,3.163-0.425,31.751-15.14,61.181c-9.228,18.455-22.073,33.258-38.181,43.995c-13.561,9.041-29.193,15.018-46.68,17.873
									v160.31h10v-160.31c17.486-2.854,33.119-8.832,46.68-17.873c16.107-10.737,28.953-25.54,38.181-43.995
									c14.715-29.43,15.14-58.018,15.14-61.181C1545.662,306.068,1534.469,294.876,1520.662,294.876z"/>
							</g>
						</g>
						<polygon fill="#BCD4E8" points="1439.813,412.503 1429.813,395.182 1439.813,377.862 1459.813,377.862 1469.813,395.182 
							1459.813,412.503 						"/>
						<polygon fill="#BCD4E8" points="1374.838,463.824 1364.838,446.503 1374.838,429.183 1394.838,429.183 1404.838,446.503 
							1394.838,463.824 						"/>
						<polygon fill="#A6AEE8" points="1460.192,401.174 1449.813,407.166 1439.435,401.174 1439.435,389.19 1449.813,383.198 
							1460.192,389.19 						"/>
						<polygon fill="#A6AEE8" points="1395.216,452.495 1384.838,458.487 1374.459,452.495 1374.459,440.511 1384.838,434.519 
							1395.216,440.511 						"/>
					</g>
					<g id="peter_72_">
						<g>
							<path fill="#5E8C57" d="M1613.302,603.772c2.07-6.734,3.189-13.883,3.189-21.296c0-39.978-32.409-72.386-72.386-72.386
								s-72.386,32.408-72.386,72.386c0,7.412,1.119,14.562,3.189,21.296H1613.302z"/>
							<path fill="#475E38" d="M1484.463,567.641c-3.583,0-7.071,0.401-10.433,1.14c-0.85,4.437-1.311,9.011-1.311,13.696
								c0,7.412,1.119,14.562,3.189,21.296h55.372C1525.853,582.984,1506.952,567.641,1484.463,567.641z"/>
							<path fill="#5E8C57" d="M1519.434,621.938c0.434-2.606,0.671-5.278,0.671-8.007c0-26.723-21.663-48.386-48.386-48.386
								c-26.723,0-48.386,21.663-48.386,48.386c0,2.729,0.237,5.401,0.671,8.007H1519.434z"/>
						</g>
						<polygon fill="#BCD4E8" points="1586.491,556.932 1576.491,539.611 1586.491,522.291 1606.491,522.291 1616.491,539.611 
							1606.491,556.932 						"/>
						<polygon fill="#A6AEE8" points="1606.87,545.603 1596.491,551.595 1586.113,545.603 1586.113,533.619 1596.491,527.627 
							1606.87,533.619 						"/>
					</g>
				</g>
			</g>
		</g>
	</g>
	<g display="inline">
		<g>
			<defs>
				<rect id="SVGID_65_" x="-1887.586" y="-53.615" width="1600" height="899.998"/>
			</defs>
			<clipPath id="SVGID_4_">
				<use xlink:href="#SVGID_65_"  overflow="visible"/>
			</clipPath>
			<g clip-path="url(#SVGID_4_)">
				<g>
					<g>
						<polygon fill="#394E5B" points="-4718.707,37.479 -4489.682,146.719 -4210.966,105.804 -3843.23,229.776 -3507.006,154.104 
							-3134.969,232.112 -2615.917,127.101 -2077.707,254.001 -1673.707,134.001 -1101.707,246.001 -781.707,130.001 
							-385.707,230.001 81.293,37.479 81.293,846.384 -4718.707,846.384 						"/>
					</g>
				</g>
				<g>
					<g>
						<polygon fill="#3F5C63" points="-4718.707,274.001 -4432.922,213.782 -3757.707,342.001 -3357.707,213.782 -2989.707,314.001 
							-2459.902,213.782 -1793.707,362.001 -1448.801,232.112 -1076.763,352.124 -869.707,249.433 -483.386,331.8 -113.667,213.782 
							81.164,274 81.293,846.384 -4718.707,846.384 						"/>
					</g>
				</g>
				<g>
					<g>
						<polygon fill="#538896" points="-4718.707,441.931 -4501.707,349.384 -4213.707,491.091 -3993.707,396.384 -3613.707,550.001 
							-3381.707,442.001 -2989.707,498.001 -2721.707,330.001 -2353.707,462.001 -2073.707,370.001 -1413.707,514.001 
							-1149.707,396.384 -869.707,474.001 -661.707,366.001 -289.707,438.001 -45.707,274.001 81.063,441.931 81.293,846.384 
							-4718.707,846.384 						"/>
					</g>
				</g>
			</g>
		</g>
	</g>
</g>
<g id="measurement_x5F_tools">
	<g>
		<g>
			<rect x="247.888" y="456.653" fill="none" width="1121.556" height="225.167"/>
			<text transform="matrix(1 0 0 1 762.7397 489.7008)"><tspan x="0" y="0" fill="#82B3BF" font-family="'HoltwoodOneSC'" font-size="21"> </tspan><tspan x="6.935" y="0" fill="#82B3BF" font-family="'HoltwoodOneSC'" font-size="48" letter-spacing="1">by</tspan><tspan x="-143.72" y="45" fill="#82B3BF" font-family="'HoltwoodOneSC'" font-size="30">bjÖrn SÖderqvist</tspan><tspan x="-118.251" y="77" fill="#82B3BF" font-family="'HoltwoodOneSC'" font-size="30">Emil Andersson</tspan><tspan x="-103.704" y="109" fill="#82B3BF" font-family="'HoltwoodOneSC'" font-size="30">Viktoria Papp</tspan></text>
			<rect x="247.888" y="456.653" fill="none" width="1121.556" height="225.167"/>
			<text transform="matrix(1 0 0 1 762.7397 489.7008)"><tspan x="0" y="0" fill="#538896" font-family="'HoltwoodOneSC'" font-size="21"> </tspan><tspan x="6.935" y="0" fill="#538896" font-family="'HoltwoodOneSC'" font-size="48" letter-spacing="1">by</tspan><tspan x="-143.72" y="45" fill="#538896" font-family="'HoltwoodOneSC'" font-size="30">bjÖrn SÖderqvist</tspan><tspan x="-118.251" y="77" fill="#538896" font-family="'HoltwoodOneSC'" font-size="30">Emil Andersson</tspan><tspan x="-103.704" y="109" fill="#538896" font-family="'HoltwoodOneSC'" font-size="30">Viktoria Papp</tspan></text>
		</g>
		<g>
			<polygon fill="#82B3BF" points="945.48,489.529 955.48,472.209 965.48,489.529 			"/>
			<polygon fill="#82B3BF" points="965.48,489.529 975.48,472.209 985.48,489.529 			"/>
			<polygon fill="#82B3BF" points="925.48,489.529 935.48,472.209 945.48,489.529 			"/>
			<polygon fill="#82B3BF" points="905.48,489.529 915.48,472.209 925.48,489.529 			"/>
			<polygon fill="#82B3BF" points="885.48,489.529 895.48,472.209 905.48,489.529 			"/>
			<polygon fill="#82B3BF" points="865.48,489.529 875.48,472.209 885.48,489.529 			"/>
		</g>
		<g>
			<polygon fill="#82B3BF" points="709.816,489.529 719.816,472.209 729.816,489.529 			"/>
			<polygon fill="#82B3BF" points="729.816,489.529 739.816,472.209 749.816,489.529 			"/>
			<polygon fill="#82B3BF" points="689.816,489.529 699.816,472.209 709.816,489.529 			"/>
			<polygon fill="#82B3BF" points="669.816,489.529 679.816,472.209 689.816,489.529 			"/>
			<polygon fill="#82B3BF" points="649.816,489.529 659.816,472.209 669.816,489.529 			"/>
			<polygon fill="#82B3BF" points="629.816,489.529 639.816,472.209 649.816,489.529 			"/>
		</g>
	</g>
	<polygon fill="#1D252B" points="1364.906,656.168 1000.239,643.568 984.729,835.966 1168.03,749.765 	"/>
	<polygon fill="#1D252B" points="1310.872,793.294 1130.255,717.241 1056.324,871.533 1310.872,793.294 	"/>
	<polygon fill="#1D252B" points="297.725,167.579 435.944,26.145 104.861,148.293 258.588,191.025 	"/>
	<linearGradient id="SVGID_6_" gradientUnits="userSpaceOnUse" x1="1027.6151" y1="624.9902" x2="1234.9052" y2="952.0715">
		<stop  offset="0" style="stop-color:#2A3B44"/>
		<stop  offset="0.3493" style="stop-color:#30424C"/>
		<stop  offset="0.7191" style="stop-color:#394E5B"/>
		<stop  offset="0.7604" style="stop-color:#394E5B"/>
		<stop  offset="1" style="stop-color:#394E5B"/>
	</linearGradient>
	<polygon fill="url(#SVGID_6_)" points="1001.679,588.665 1310.872,793.294 984.729,835.966 	"/>
	<linearGradient id="SVGID_7_" gradientUnits="userSpaceOnUse" x1="143.5436" y1="109.9795" x2="1384.0516" y2="575.4841">
		<stop  offset="0" style="stop-color:#3F5C63"/>
		<stop  offset="0.5773" style="stop-color:#3E5A61"/>
		<stop  offset="0.8507" style="stop-color:#3A5459"/>
		<stop  offset="1" style="stop-color:#364D51"/>
	</linearGradient>
	<polygon fill="url(#SVGID_7_)" points="104.861,148.293 1467.767,119.363 1364.906,656.168 265.581,643.31 	"/>
	<rect x="111.133" y="230.024" fill="none" width="1410.852" height="169.314"/>
	<text transform="matrix(1 0 0 1 257.8696 319.528)"><tspan x="0" y="0" fill="#2B3238" font-family="'HoltwoodOneSC'" font-size="130" letter-spacing="3">SAND grains</tspan><tspan x="249.944" y="50" fill="#2B3238" font-family="'HoltwoodOneSC'" font-size="48" letter-spacing="1">The survival game </tspan></text>
	<g>
		<g>
			<rect x="249.888" y="458.653" fill="none" width="1121.556" height="225.167"/>
			<text transform="matrix(1 0 0 1 764.7397 491.7008)"><tspan x="0" y="0" fill="#2B3238" font-family="'HoltwoodOneSC'" font-size="21"> </tspan><tspan x="6.935" y="0" fill="#2B3238" font-family="'HoltwoodOneSC'" font-size="48" letter-spacing="1">by</tspan><tspan x="-143.72" y="45" fill="#2B3238" font-family="'HoltwoodOneSC'" font-size="30">bjÖrn SÖderqvist</tspan><tspan x="-118.251" y="77" fill="#2B3238" font-family="'HoltwoodOneSC'" font-size="30">Emil Andersson</tspan><tspan x="-103.704" y="109" fill="#2B3238" font-family="'HoltwoodOneSC'" font-size="30">Viktoria Papp</tspan></text>
			<rect x="249.888" y="458.653" fill="none" width="1121.556" height="225.167"/>
			<text transform="matrix(1 0 0 1 764.7397 491.7008)"><tspan x="0" y="0" fill="#2B3238" font-family="'HoltwoodOneSC'" font-size="21"> </tspan><tspan x="6.935" y="0" fill="#2B3238" font-family="'HoltwoodOneSC'" font-size="48" letter-spacing="1">by</tspan><tspan x="-143.72" y="45" fill="#2B3238" font-family="'HoltwoodOneSC'" font-size="30">bjÖrn SÖderqvist</tspan><tspan x="-118.251" y="77" fill="#2B3238" font-family="'HoltwoodOneSC'" font-size="30">Emil Andersson</tspan><tspan x="-103.704" y="109" fill="#2B3238" font-family="'HoltwoodOneSC'" font-size="30">Viktoria Papp</tspan></text>
		</g>
		<g>
			<polygon fill="#2B3238" points="947.48,491.529 957.48,474.209 967.48,491.529 			"/>
			<polygon fill="#2B3238" points="967.48,491.529 977.48,474.209 987.48,491.529 			"/>
			<polygon fill="#2B3238" points="927.48,491.529 937.48,474.209 947.48,491.529 			"/>
			<polygon fill="#2B3238" points="907.48,491.529 917.48,474.209 927.48,491.529 			"/>
			<polygon fill="#2B3238" points="887.48,491.529 897.48,474.209 907.48,491.529 			"/>
			<polygon fill="#2B3238" points="867.48,491.529 877.48,474.209 887.48,491.529 			"/>
		</g>
		<g>
			<polygon fill="#2B3238" points="711.816,491.529 721.816,474.209 731.816,491.529 			"/>
			<polygon fill="#2B3238" points="731.816,491.529 741.816,474.209 751.816,491.529 			"/>
			<polygon fill="#2B3238" points="691.816,491.529 701.816,474.209 711.816,491.529 			"/>
			<polygon fill="#2B3238" points="671.816,491.529 681.816,474.209 691.816,491.529 			"/>
			<polygon fill="#2B3238" points="651.816,491.529 661.816,474.209 671.816,491.529 			"/>
			<polygon fill="#2B3238" points="631.816,491.529 641.816,474.209 651.816,491.529 			"/>
		</g>
	</g>
	<g>
		<g>
			<rect x="246.888" y="454.653" fill="none" width="1121.556" height="225.167"/>
			<text transform="matrix(1 0 0 1 761.7397 487.7008)"><tspan x="0" y="0" fill="#426972" font-family="'HoltwoodOneSC'" font-size="21"> </tspan><tspan x="6.935" y="0" fill="#426972" font-family="'HoltwoodOneSC'" font-size="48" letter-spacing="1">by</tspan><tspan x="-143.72" y="45" fill="#426972" font-family="'HoltwoodOneSC'" font-size="30">bjÖrn SÖderqvist</tspan><tspan x="-118.251" y="77" fill="#426972" font-family="'HoltwoodOneSC'" font-size="30">Emil Andersson</tspan><tspan x="-103.704" y="109" fill="#426972" font-family="'HoltwoodOneSC'" font-size="30">Viktoria Papp</tspan></text>
			<rect x="246.888" y="454.653" fill="none" width="1121.556" height="225.167"/>
			<text transform="matrix(1 0 0 1 761.7397 487.7008)"><tspan x="0" y="0" fill="#538896" font-family="'HoltwoodOneSC'" font-size="21"> </tspan><tspan x="6.935" y="0" fill="#538896" font-family="'HoltwoodOneSC'" font-size="48" letter-spacing="1">by</tspan><tspan x="-143.72" y="45" fill="#538896" font-family="'HoltwoodOneSC'" font-size="30">bjÖrn SÖderqvist</tspan><tspan x="-118.251" y="77" fill="#538896" font-family="'HoltwoodOneSC'" font-size="30">Emil Andersson</tspan><tspan x="-103.704" y="109" fill="#538896" font-family="'HoltwoodOneSC'" font-size="30">Viktoria Papp</tspan></text>
		</g>
		<g>
			<polygon fill="#538896" points="944.48,487.529 954.48,470.209 964.48,487.529 			"/>
			<polygon fill="#538896" points="964.48,487.529 974.48,470.209 984.48,487.529 			"/>
			<polygon fill="#538896" points="924.48,487.529 934.48,470.209 944.48,487.529 			"/>
			<polygon fill="#538896" points="904.48,487.529 914.48,470.209 924.48,487.529 			"/>
			<polygon fill="#538896" points="884.48,487.529 894.48,470.209 904.48,487.529 			"/>
			<polygon fill="#538896" points="864.48,487.529 874.48,470.209 884.48,487.529 			"/>
		</g>
		<g>
			<polygon fill="#538896" points="708.816,487.529 718.816,470.209 728.816,487.529 			"/>
			<polygon fill="#538896" points="728.816,487.529 738.816,470.209 748.816,487.529 			"/>
			<polygon fill="#538896" points="688.816,487.529 698.816,470.209 708.816,487.529 			"/>
			<polygon fill="#538896" points="668.816,487.529 678.816,470.209 688.816,487.529 			"/>
			<polygon fill="#538896" points="648.816,487.529 658.816,470.209 668.816,487.529 			"/>
			<polygon fill="#538896" points="628.816,487.529 638.816,470.209 648.816,487.529 			"/>
		</g>
	</g>
	<rect x="104.24" y="224.376" fill="none" width="1410.852" height="169.314"/>
	<text transform="matrix(1 0 0 1 250.9765 313.8795)"><tspan x="0" y="0" fill="#82B3BF" font-family="'HoltwoodOneSC'" font-size="130" letter-spacing="3">SAND grains</tspan><tspan x="249.944" y="50" fill="#82B3BF" font-family="'HoltwoodOneSC'" font-size="48" letter-spacing="1">The survival game </tspan></text>
</g>
</svg>
