<?xml version="1.0" encoding="utf-8"?>
<!-- Generator: Adobe Illustrator 17.0.0, SVG Export Plug-In . SVG Version: 6.00 Build 0)  -->
<!DOCTYPE svg PUBLIC "-//W3C//DTD SVG 1.1//EN" "http://www.w3.org/Graphics/SVG/1.1/DTD/svg11.dtd">
<svg version="1.1" xmlns="http://www.w3.org/2000/svg" xmlns:xlink="http://www.w3.org/1999/xlink" x="0px" y="0px" width="1600px"
	 height="900px" viewBox="0 0 1600 900" enable-background="new 0 0 1600 900" xml:space="preserve">
<g id="Layer_3" display="none">
	<g display="inline">
		<rect x="-1.544" y="0.001" fill="#FBE4A8" width="1603.089" height="899.998"/>
		<radialGradient id="SVGID_1_" cx="801.5444" cy="342.8386" r="316.6649" gradientUnits="userSpaceOnUse">
			<stop  offset="0" style="stop-color:#FBE4CE"/>
			<stop  offset="0.5397" style="stop-color:#F2E7CE"/>
			<stop  offset="1" style="stop-color:#FFFFFF"/>
		</radialGradient>
		<circle fill="url(#SVGID_1_)" cx="801.544" cy="342.839" r="316.665"/>
		<g>
			<defs>
				<rect id="SVGID_17_" x="-1.544" y="0.001" width="1603.089" height="899.998"/>
			</defs>
			<clipPath id="SVGID_3_">
				<use xlink:href="#SVGID_17_"  overflow="visible"/>
			</clipPath>
			<g clip-path="url(#SVGID_3_)">
				<g>
					<g>
						<polygon fill="#D19853" points="-1603.227,91.094 -1374.202,200.334 -1095.487,159.419 -727.75,283.391 -391.527,207.719 
							-19.489,285.727 499.562,180.716 1037.773,307.616 1441.773,187.616 2013.773,299.616 2333.773,183.616 2729.773,283.616 
							3196.773,91.094 3196.773,899.999 -1603.227,899.999 						"/>
						<polygon fill="#C18749" points="1037.773,307.616 1474.525,392.708 1094.118,290.88 						"/>
					</g>
				</g>
				<g>
					<g>
						<polygon fill="#C78032" points="-1603.227,327.616 -1317.442,267.397 -642.227,395.616 -242.227,267.397 125.773,367.616 
							655.578,267.397 1321.773,415.616 1666.679,285.727 2038.716,405.739 2245.773,303.048 2632.094,385.415 3001.813,267.397 
							3196.644,327.616 3196.773,899.999 -1603.227,899.999 						"/>
						<polygon fill="#B77430" points="125.773,367.616 -72.227,397.118 69.773,354.791 						"/>
						<polygon fill="#B77430" points="1321.773,415.616 1497.344,451.714 1370.891,397.118 						"/>
					</g>
				</g>
				<g>
					<g>
						<polygon fill="#BF672B" points="-1603.227,495.546 -1386.227,402.999 -1098.227,544.706 -878.227,449.999 -498.227,603.616 
							-266.227,495.616 125.773,551.616 393.773,383.616 761.773,515.616 1041.773,423.616 1701.773,567.616 1965.773,449.999 
							2245.773,527.616 2453.773,419.616 2825.773,491.616 3069.773,327.616 3196.542,495.546 3196.773,899.999 -1603.227,899.999 
													"/>
						<polygon fill="#A85C22" points="125.773,551.616 -37.227,619.616 76.633,544.596 						"/>
						<polygon fill="#A85C22" points="741.403,508.309 763.106,550.949 784.01,508.309 761.773,515.616 						"/>
					</g>
					<g id="peter_31_">
						<g>
							<path fill="#5E8C57" d="M1520.662,294.876c-13.808,0-25,11.192-25,25c0,0.191-0.424,19.946-9.86,38.819
								c-8.636,17.271-21.875,28.239-40.14,33.159V303.06c0-13.807-11.193-25-25-25s-25,11.193-25,25v148.978
								c-18.265-4.92-31.504-15.887-40.14-33.159c-9.437-18.873-9.86-38.628-9.86-38.819c0-13.808-11.192-25-25-25s-25,11.192-25,25
								c0,3.163,0.425,31.751,15.14,61.181c9.228,18.455,22.073,33.258,38.181,43.995c13.561,9.041,29.193,15.018,46.68,17.873
								v100.126h50v-160.31c17.486-2.854,33.119-8.832,46.68-17.873c16.107-10.737,28.953-25.54,38.181-43.995
								c14.715-29.43,15.14-58.018,15.14-61.181C1545.662,306.068,1534.47,294.876,1520.662,294.876z"/>
							<g>
								<path fill="#475E38" d="M1335.662,380.06c0,0.191,0.424,19.946,9.86,38.819c8.636,17.271,21.875,28.239,40.14,33.159v-3.526
									c-13.193-5.861-23.168-15.69-30.14-29.633c-9.437-18.873-9.86-38.628-9.86-38.819c0-13.808-11.192-25-25-25
									c-1.712,0-3.384,0.173-5,0.501C1327.073,357.877,1335.662,367.964,1335.662,380.06z"/>
								<path fill="#475E38" d="M1435.662,303.06v88.795c3.521-0.948,6.85-2.127,10-3.526V303.06c0-13.807-11.193-25-25-25
									c-1.712,0-3.384,0.173-5,0.501C1427.073,280.877,1435.662,290.965,1435.662,303.06z"/>
								<path fill="#475E38" d="M1520.662,294.876c-1.712,0-3.384,0.173-5,0.501c11.411,2.316,20,12.404,20,24.499
									c0,3.163-0.425,31.751-15.14,61.181c-9.228,18.455-22.073,33.258-38.181,43.995c-13.561,9.041-29.193,15.018-46.68,17.873
									v160.31h10v-160.31c17.486-2.854,33.119-8.832,46.68-17.873c16.107-10.737,28.953-25.54,38.181-43.995
									c14.715-29.43,15.14-58.018,15.14-61.181C1545.662,306.068,1534.47,294.876,1520.662,294.876z"/>
							</g>
						</g>
						<polygon fill="#BCD4E8" points="1439.813,412.503 1429.813,395.182 1439.813,377.862 1459.813,377.862 1469.813,395.182 
							1459.813,412.503 						"/>
						<polygon fill="#BCD4E8" points="1374.838,463.824 1364.838,446.503 1374.838,429.183 1394.838,429.183 1404.838,446.503 
							1394.838,463.824 						"/>
						<polygon fill="#A6AEE8" points="1460.192,401.174 1449.813,407.166 1439.435,401.174 1439.435,389.19 1449.813,383.198 
							1460.192,389.19 						"/>
						<polygon fill="#A6AEE8" points="1395.216,452.495 1384.838,458.487 1374.459,452.495 1374.459,440.511 1384.838,434.519 
							1395.216,440.511 						"/>
					</g>
					<g id="peter_30_">
						<g>
							<path fill="#5E8C57" d="M1613.302,603.772c2.07-6.734,3.189-13.883,3.189-21.296c0-39.978-32.409-72.386-72.386-72.386
								s-72.386,32.408-72.386,72.386c0,7.412,1.119,14.562,3.189,21.296H1613.302z"/>
							<path fill="#475E38" d="M1484.463,567.641c-3.583,0-7.071,0.401-10.433,1.14c-0.85,4.437-1.311,9.011-1.311,13.696
								c0,7.412,1.119,14.562,3.189,21.296h55.372C1525.854,582.984,1506.952,567.641,1484.463,567.641z"/>
							<path fill="#5E8C57" d="M1519.434,621.938c0.434-2.606,0.671-5.278,0.671-8.007c0-26.723-21.663-48.386-48.386-48.386
								c-26.723,0-48.386,21.663-48.386,48.386c0,2.729,0.237,5.401,0.671,8.007H1519.434z"/>
						</g>
						<polygon fill="#BCD4E8" points="1586.491,556.932 1576.491,539.611 1586.491,522.291 1606.491,522.291 1616.491,539.611 
							1606.491,556.932 						"/>
						<polygon fill="#A6AEE8" points="1606.87,545.603 1596.491,551.595 1586.113,545.603 1586.113,533.619 1596.491,527.627 
							1606.87,533.619 						"/>
					</g>
				</g>
			</g>
		</g>
	</g>
	<g display="inline">
		<g>
			<defs>
				<rect id="SVGID_89_" x="2310.876" y="-874.558" width="1600" height="899.998"/>
			</defs>
			<clipPath id="SVGID_4_">
				<use xlink:href="#SVGID_89_"  overflow="visible"/>
			</clipPath>
			<g clip-path="url(#SVGID_4_)">
				<g>
					<g>
						<polygon fill="#394E5B" points="-520.245,-783.464 -291.22,-674.224 -12.504,-715.139 355.232,-591.167 691.456,-666.839 
							1063.493,-588.831 1582.545,-693.842 2120.755,-566.942 2524.755,-686.942 3096.755,-574.942 3416.755,-690.942 
							3812.755,-590.942 4279.755,-783.464 4279.755,25.441 -520.245,25.441 						"/>
					</g>
				</g>
				<g>
					<g>
						<polygon fill="#3F5C63" points="-520.245,-546.943 -234.46,-607.161 440.755,-478.942 840.755,-607.161 1208.755,-506.942 
							1738.56,-607.161 2404.755,-458.942 2749.661,-588.831 3121.698,-468.819 3328.755,-571.51 3715.076,-489.143 
							4084.795,-607.161 4279.626,-546.943 4279.755,25.441 -520.245,25.441 						"/>
					</g>
				</g>
				<g>
					<g>
						<polygon fill="#538896" points="-520.245,-379.012 -303.245,-471.559 -15.245,-329.852 204.755,-424.559 584.755,-270.942 
							816.755,-378.942 1208.755,-322.942 1476.755,-490.942 1844.755,-358.942 2124.755,-450.942 2784.755,-306.942 
							3048.755,-424.559 3328.755,-346.942 3536.755,-454.942 3908.755,-382.942 4152.755,-546.943 4279.525,-379.012 
							4279.755,25.441 -520.245,25.441 						"/>
					</g>
				</g>
			</g>
		</g>
	</g>
	<g display="inline">
		<g>
			<defs>
				<rect id="SVGID_113_" x="2310.876" y="99.985" width="1600" height="899.998"/>
			</defs>
			<clipPath id="SVGID_6_">
				<use xlink:href="#SVGID_113_"  overflow="visible"/>
			</clipPath>
			<g clip-path="url(#SVGID_6_)">
				<g>
					<g>
						<polygon fill="#394E5B" points="-520.245,191.079 -291.22,300.319 -12.504,259.403 355.232,383.375 691.456,307.703 
							1063.493,385.711 1582.545,280.701 2120.755,407.6 2524.755,287.6 3096.755,399.6 3416.755,283.6 3812.755,383.6 
							4279.755,191.079 4279.755,999.983 -520.245,999.983 						"/>
						<polygon fill="#2A3B44" points="355.232,383.375 26.755,454.776 313.519,369.313 						"/>
						<polygon fill="#2A3B44" points="1063.493,385.711 889.475,408.266 998.528,372.09 						"/>
					</g>
				</g>
				<g>
					<g>
						<polygon fill="#3F5C63" points="-520.245,427.6 -234.46,367.382 440.755,495.6 840.755,367.382 1208.755,467.6 
							1738.56,367.382 2404.755,515.6 2749.661,385.711 3121.698,505.723 3328.755,403.032 3715.076,485.4 4084.795,367.382 
							4279.626,427.6 4279.755,999.983 -520.245,999.983 						"/>
						<polygon fill="#364D51" points="440.755,495.6 84.755,575.6 370.815,482.319 						"/>
						<polygon fill="#364D51" points="1208.755,467.6 1010.755,497.103 1152.755,454.775 						"/>
					</g>
				</g>
				<g>
					<g>
						<polygon fill="#538896" points="-520.245,595.531 -303.245,502.983 -15.245,644.69 204.755,549.983 584.755,703.6 
							816.755,595.6 1208.755,651.6 1476.755,483.6 1844.755,615.6 2124.755,523.6 2784.755,667.6 3048.755,549.983 3328.755,627.6 
							3536.755,519.6 3908.755,591.6 4152.755,427.6 4279.525,595.531 4279.755,999.983 -520.245,999.983 						"/>
						<polygon fill="#426972" points="1208.755,651.6 1045.755,719.6 1159.615,644.58 						"/>
						<polygon fill="#426972" points="584.755,703.6 330.755,818.6 540.864,685.857 						"/>
					</g>
					<g id="peter_50_">
						<g>
							<path fill="#3F5C63" d="M721.685,504.878c-13.807,0-25,11.147-25,24.955c-0.002,0.331-0.433,33.471-16.807,65.28
								c-8.991,17.47-21.13,31.283-36.078,41.057c-13.245,8.66-29.03,14.34-47.115,16.999V429.849c0-13.807-11.193-25-25-25
								s-25,11.193-25,25v122.573c-19.33-4.637-33.237-15.768-42.193-33.68c-9.437-18.873-9.86-38.628-9.86-38.819
								c0-13.808-11.192-25-25-25s-25,11.192-25,25c0,3.163,0.425,31.751,15.14,61.181c9.228,18.455,22.073,33.258,38.181,43.995
								c14.086,9.391,30.42,15.459,48.733,18.172v199.827h50V703.6c73.413-7.999,110.321-50.917,128.61-87.496
								c21.146-42.293,21.39-84.408,21.39-86.181C746.685,516.116,735.493,504.878,721.685,504.878z"/>
							<g>
								<path fill="#364D51" d="M584.755,429.849v223.321c4.098-0.603,8.071-1.368,11.93-2.281v-221.04c0-13.807-11.193-25-25-25
									c-2.056,0-4.053,0.254-5.965,0.722C576.646,408.247,584.755,418.099,584.755,429.849z"/>
								<path fill="#364D51" d="M721.685,504.878c-2.061,0-4.061,0.253-5.977,0.722c10.932,2.681,19.046,12.569,19.046,24.323
									c0,1.772-0.243,43.888-21.39,86.181c-18.29,36.58-55.198,79.497-128.61,87.496v99.498h11.93V703.6
									c73.413-7.999,110.321-50.917,128.61-87.496c21.146-42.293,21.39-84.408,21.39-86.181
									C746.685,516.116,735.493,504.878,721.685,504.878z"/>
								<path fill="#364D51" d="M482.702,479.923c0,0.191,0.424,19.946,9.86,38.819c8.956,17.912,22.864,29.043,42.193,33.68v-4.013
									c-13.249-5.855-23.272-15.686-30.263-29.667c-9.437-18.873-9.86-38.628-9.86-38.819c0-13.808-11.192-25-25-25
									c-2.056,0-4.053,0.254-5.965,0.722C474.593,458.32,482.702,468.172,482.702,479.923z"/>
							</g>
						</g>
						<g>
							<polygon fill="#538896" points="531.288,568.78 521.288,551.46 531.288,534.139 551.288,534.139 561.288,551.46 
								551.288,568.78 							"/>
							<polygon fill="#426972" points="551.666,557.452 541.288,563.444 530.909,557.452 530.909,545.468 541.288,539.476 
								551.666,545.468 							"/>
						</g>
						<g>
							<polygon fill="#538896" points="590.72,671.309 580.72,653.988 590.72,636.668 610.72,636.668 620.72,653.988 
								610.72,671.309 							"/>
							<polygon fill="#426972" points="611.098,659.98 600.72,665.972 590.341,659.98 590.341,647.996 600.72,642.004 
								611.098,647.996 							"/>
						</g>
					</g>
				</g>
			</g>
		</g>
	</g>
</g>
<g id="outlune">
	<polygon fill="#1D252B" points="1117.876,581.974 753.208,569.375 737.699,761.773 920.999,675.572 	"/>
	<polygon fill="#1D252B" points="617.174,259.505 617.174,139.974 430.476,280.822 541.456,297.974 	"/>
	<linearGradient id="SVGID_7_" gradientUnits="userSpaceOnUse" x1="801.7811" y1="584.2426" x2="981.1327" y2="867.2399">
		<stop  offset="0" style="stop-color:#2A3B44"/>
		<stop  offset="0.3493" style="stop-color:#30424C"/>
		<stop  offset="0.7191" style="stop-color:#394E5B"/>
		<stop  offset="0.7604" style="stop-color:#394E5B"/>
		<stop  offset="1" style="stop-color:#394E5B"/>
	</linearGradient>
	<polygon fill="url(#SVGID_7_)" points="753.208,569.375 1063.841,719.1 737.699,761.773 	"/>
	<linearGradient id="SVGID_9_" gradientUnits="userSpaceOnUse" x1="458.0126" y1="243.1784" x2="1142.4844" y2="500.0287">
		<stop  offset="0" style="stop-color:#3F5C63"/>
		<stop  offset="0.5773" style="stop-color:#3E5A61"/>
		<stop  offset="0.8507" style="stop-color:#3A5459"/>
		<stop  offset="1" style="stop-color:#364D51"/>
	</linearGradient>
	<polygon fill="url(#SVGID_9_)" points="430.476,280.822 1143.586,199.401 1117.876,581.974 501.911,560.693 	"/>
	<g>
		<path fill="#82B3BF" d="M644.785,385.692c1.016,0,1.968-0.122,2.856-0.365c0.889-0.243,1.714-0.555,2.476-0.936
			s1.454-0.814,2.079-1.301c0.624-0.486,1.169-0.973,1.635-1.46h5.3v16.25H620.41v-13.774l4.062-0.793v-19.614l-4.062-0.793V349.13
			h28.438v13.774l-4.062,0.793V385.692z"/>
		<path fill="#82B3BF" d="M687.796,372.838l8.792-1.873v9.045l-8.792-1.904v7.014c1.27,0,2.496-0.09,3.682-0.27
			c1.185-0.18,2.285-0.429,3.301-0.746s1.946-0.688,2.793-1.111c0.846-0.423,1.576-0.878,2.19-1.365h4.348v16.25h-39.229v-12.664
			l3.809-0.73v-17.996l-3.809-0.73v-12.568h39.229v16.25h-4.348c-0.614-0.465-1.345-0.91-2.19-1.333
			c-0.847-0.423-1.777-0.793-2.793-1.111s-2.116-0.571-3.301-0.762c-1.186-0.19-2.412-0.286-3.682-0.286V372.838z"/>
		<path fill="#82B3BF" d="M721.096,364.999c-1.1,0-2.073,0.148-2.92,0.444c-0.846,0.296-1.555,0.667-2.126,1.111
			s-1.005,0.926-1.302,1.444c-0.296,0.519-0.443,1-0.443,1.444h-5.301v-16.25h43.291v16.25h-5.301c0-0.444-0.147-0.925-0.443-1.444
			c-0.297-0.518-0.73-1-1.302-1.444s-1.28-0.814-2.126-1.111c-0.847-0.296-1.82-0.444-2.92-0.444v19.487l3.809,0.73v12.664h-26.725
			v-12.664l3.809-0.73V364.999z"/>
		<path fill="#82B3BF" d="M757.379,349.13h20.312v16.218c0,2.688-0.465,4.946-1.396,6.776c-0.931,1.831-2.158,3.312-3.682,4.443
			c-1.523,1.132-3.258,1.942-5.205,2.428c-1.946,0.487-3.936,0.73-5.967,0.73v-10.283c0.402-0.021,0.836-0.095,1.302-0.222
			c0.465-0.127,0.899-0.338,1.302-0.635c0.401-0.296,0.74-0.703,1.016-1.222c0.274-0.518,0.412-1.179,0.412-1.983h-8.094V349.13z"/>
		<path fill="#82B3BF" d="M823.656,383.82c0,1.968-0.28,3.708-0.841,5.221c-0.562,1.513-1.323,2.824-2.285,3.936
			c-0.963,1.11-2.105,2.037-3.428,2.777c-1.323,0.741-2.746,1.338-4.27,1.793c-1.523,0.455-3.115,0.719-4.776,0.793
			s-3.316,0.111-4.967,0.111c-2.285,0-4.349-0.053-6.188-0.159c-1.842-0.106-3.486-0.339-4.936-0.698
			c-1.45-0.359-2.729-0.756-3.841-1.19c-1.11-0.434-2.09-0.862-2.936-1.286v-11.013h8.981c0.889,1.396,1.904,2.423,3.047,3.079
			c1.143,0.656,2.317,0.984,3.523,0.984c0.359,0,0.762-0.032,1.206-0.095s0.856-0.264,1.237-0.603
			c0.381-0.338,0.704-0.862,0.969-1.571c0.264-0.708,0.396-1.708,0.396-2.999c-1.714-0.148-3.412-0.365-5.094-0.65
			c-1.683-0.286-3.291-0.672-4.824-1.159c-1.534-0.486-2.957-1.105-4.27-1.857c-1.312-0.75-2.449-1.661-3.411-2.729
			c-0.963-1.068-1.72-2.327-2.27-3.776c-0.551-1.449-0.825-3.116-0.825-4.999c0-2.158,0.274-4.047,0.825-5.665
			c0.55-1.619,1.302-3.01,2.253-4.174c0.953-1.164,2.079-2.126,3.381-2.888c1.301-0.762,2.702-1.365,4.205-1.809
			c1.502-0.444,3.067-0.756,4.697-0.937c1.629-0.179,3.258-0.27,4.888-0.27c2.306,0,4.374,0.117,6.205,0.349
			c1.83,0.233,3.47,0.529,4.919,0.889c1.449,0.36,2.729,0.757,3.841,1.19c1.11,0.434,2.1,0.852,2.968,1.254v11.108h-9.617
			c-0.805-1.523-1.725-2.634-2.762-3.333c-1.036-0.698-2.094-1.047-3.174-1.047c-0.359,0-0.772,0.059-1.237,0.175
			c-0.466,0.116-0.899,0.375-1.302,0.777c-0.401,0.402-0.74,0.995-1.016,1.777c-0.274,0.783-0.412,1.841-0.412,3.174
			c3.491,0.127,6.554,0.498,9.188,1.111c2.634,0.614,4.84,1.529,6.617,2.746s3.11,2.782,3.999,4.697S823.656,381.09,823.656,383.82z
			"/>
		<path fill="#82B3BF" d="M643.134,437.838l8.792-1.873v9.045l-8.792-1.904v7.014c1.27,0,2.496-0.09,3.682-0.27
			c1.185-0.18,2.285-0.429,3.301-0.746s1.946-0.688,2.793-1.111c0.846-0.423,1.576-0.878,2.19-1.365h4.348v16.25h-39.229v-12.664
			l3.809-0.73v-17.996l-3.809-0.73v-12.568h39.229v16.25H655.1c-0.614-0.465-1.345-0.91-2.19-1.333
			c-0.847-0.423-1.777-0.793-2.793-1.111s-2.116-0.571-3.301-0.762c-1.186-0.19-2.412-0.286-3.682-0.286V437.838z"/>
		<path fill="#82B3BF" d="M717.599,449.518l4.538,0.698v12.664h-30.246v-12.664l3.27-0.698l-6.951-5.205l-5.744,5.205l5.648,0.698
			v12.664h-23.041v-12.664l4.506-0.698l11.014-9.648l-10.728-8.474l-5.427-0.698v-12.505h29.357v12.505l-3.27,0.698l7.522,5.491
			l5.173-5.491l-5.681-0.698v-12.505h23.073v12.505l-5.395,0.698l-8.919,9.045L717.599,449.518z"/>
		<path fill="#82B3BF" d="M727.888,418.192h25.994c3.385,0,6.321,0.148,8.808,0.444c2.485,0.296,4.602,0.72,6.348,1.27
			c1.745,0.55,3.174,1.228,4.284,2.031c1.111,0.804,1.979,1.709,2.603,2.714s1.048,2.105,1.27,3.301
			c0.223,1.195,0.333,2.47,0.333,3.824c0,1.396-0.132,2.708-0.396,3.936c-0.265,1.228-0.757,2.354-1.476,3.38
			c-0.72,1.027-1.709,1.947-2.968,2.762s-2.878,1.502-4.855,2.062c-1.979,0.561-4.364,0.99-7.157,1.286
			c-2.793,0.296-6.083,0.444-9.87,0.444v3.84l3.809,0.73v12.664h-26.725v-12.664l3.809-0.73v-18.059l-3.809-0.73V418.192z
			 M750.804,437.616c1.163,0,2.216-0.063,3.157-0.19s1.746-0.402,2.412-0.825c0.667-0.423,1.18-1.037,1.54-1.841
			c0.359-0.804,0.539-1.894,0.539-3.269c0-1.27-0.18-2.274-0.539-3.015c-0.36-0.74-0.873-1.312-1.54-1.714
			c-0.666-0.402-1.471-0.661-2.412-0.777s-1.994-0.175-3.157-0.175V437.616z"/>
		<path fill="#82B3BF" d="M806.035,450.692c0.889,0,1.734-0.122,2.539-0.365c0.804-0.243,1.55-0.56,2.237-0.952
			c0.688-0.391,1.312-0.825,1.873-1.301c0.561-0.477,1.052-0.958,1.476-1.444h5.3v16.25h-36.309v-12.664l3.809-0.73v-18.059
			l-3.809-0.73v-12.505h26.725v12.505l-3.841,0.73V450.692z"/>
		<path fill="#82B3BF" d="M850.57,463.451c-3.724,0-7.21-0.396-10.457-1.19c-3.248-0.793-6.073-2.158-8.475-4.094
			c-2.401-1.937-4.295-4.406-5.681-7.411c-1.387-3.004-2.079-6.612-2.079-10.823c0-4.126,0.692-7.644,2.079-10.553
			c1.386-2.909,3.284-5.279,5.696-7.109c2.412-1.83,5.237-3.168,8.475-4.015c3.237-0.846,6.718-1.27,10.441-1.27
			c3.703,0,7.179,0.423,10.427,1.27c3.247,0.847,6.083,2.185,8.506,4.015c2.422,1.831,4.332,4.201,5.729,7.109
			c1.396,2.91,2.095,6.427,2.095,10.553c0,2.793-0.317,5.327-0.952,7.601c-0.635,2.275-1.529,4.296-2.682,6.062
			c-1.153,1.767-2.539,3.29-4.158,4.57c-1.618,1.28-3.423,2.338-5.411,3.174c-1.989,0.836-4.126,1.396-6.411,1.682
			C855.426,463.309,853.046,463.451,850.57,463.451z M850.57,430.507c-1.248,0-2.301,0.159-3.157,0.476
			c-0.857,0.317-1.566,0.73-2.127,1.238s-0.999,1.09-1.317,1.746c-0.316,0.656-0.545,1.328-0.682,2.015
			c-0.138,0.688-0.223,1.365-0.254,2.031c-0.032,0.667-0.048,1.254-0.048,1.762c0,0.487,0.011,1.063,0.032,1.729
			c0.021,0.667,0.095,1.365,0.222,2.095c0.127,0.73,0.338,1.455,0.635,2.174c0.296,0.72,0.725,1.365,1.285,1.936
			s1.28,1.031,2.158,1.381c0.878,0.349,1.963,0.523,3.253,0.523c1.27,0,2.344-0.169,3.222-0.508
			c0.878-0.338,1.598-0.788,2.158-1.349s1-1.19,1.317-1.889s0.545-1.401,0.683-2.11c0.137-0.709,0.222-1.402,0.254-2.079
			c0.031-0.677,0.048-1.259,0.048-1.746c0-0.508-0.017-1.095-0.048-1.761c-0.032-0.667-0.117-1.349-0.254-2.047
			c-0.138-0.698-0.365-1.38-0.683-2.047c-0.317-0.666-0.757-1.264-1.317-1.793c-0.561-0.529-1.28-0.957-2.158-1.285
			S851.839,430.507,850.57,430.507z"/>
		<path fill="#82B3BF" d="M933.065,462.88h-18.979c-0.593-1.1-1.206-2.27-1.841-3.507c-0.635-1.238-1.249-2.534-1.841-3.888
			c-0.593-1.354-1.148-2.75-1.666-4.189c-0.519-1.438-0.958-2.92-1.317-4.443h-1.047v16.028h-22.916v-12.664l3.809-0.73v-18.059
			l-3.809-0.73v-12.505h25.994c3.448,0,6.427,0.148,8.935,0.444c2.507,0.296,4.634,0.73,6.379,1.301
			c1.746,0.571,3.158,1.265,4.237,2.079c1.079,0.815,1.92,1.735,2.523,2.762c0.603,1.026,1.01,2.153,1.222,3.38
			c0.211,1.228,0.317,2.529,0.317,3.904c0,1.396-0.133,2.666-0.396,3.809c-0.265,1.143-0.735,2.19-1.412,3.142
			c-0.678,0.952-1.604,1.825-2.777,2.618c-1.175,0.794-2.672,1.54-4.491,2.238c0.381,0.762,0.946,1.667,1.698,2.713
			c0.751,1.048,1.57,2.116,2.459,3.206s1.772,2.142,2.65,3.158s1.635,1.883,2.27,2.603V462.88z M906.374,438.251
			c1.163,0,2.216-0.058,3.157-0.175c0.941-0.116,1.746-0.37,2.412-0.762c0.667-0.391,1.18-0.968,1.54-1.729
			c0.359-0.762,0.539-1.788,0.539-3.079c0-1.27-0.18-2.285-0.539-3.047c-0.36-0.762-0.873-1.349-1.54-1.761
			c-0.666-0.413-1.471-0.683-2.412-0.81s-1.994-0.19-3.157-0.19V438.251z"/>
		<path fill="#82B3BF" d="M962.937,437.838l8.792-1.873v9.045l-8.792-1.904v7.014c1.27,0,2.496-0.09,3.682-0.27
			c1.185-0.18,2.285-0.429,3.301-0.746s1.946-0.688,2.793-1.111c0.846-0.423,1.576-0.878,2.19-1.365h4.348v16.25h-39.229v-12.664
			l3.809-0.73v-17.996l-3.809-0.73v-12.568h39.229v16.25h-4.348c-0.614-0.465-1.345-0.91-2.19-1.333
			c-0.847-0.423-1.777-0.793-2.793-1.111s-2.116-0.571-3.301-0.762c-1.186-0.19-2.412-0.286-3.682-0.286V437.838z"/>
		<path fill="#82B3BF" d="M986.145,446.63h20.312v16.25h-20.312V446.63z"/>
	</g>
</g>
<g id="fonts" display="none">
	<polygon display="inline" fill="#1D252B" points="1117.876,581.974 753.208,569.375 737.699,761.773 920.999,675.572 	"/>
	<polygon display="inline" fill="#1D252B" points="617.174,259.505 617.174,139.974 430.476,280.822 541.456,297.974 	"/>
	<linearGradient id="SVGID_10_" gradientUnits="userSpaceOnUse" x1="801.7811" y1="584.2426" x2="981.1327" y2="867.2399">
		<stop  offset="0" style="stop-color:#2A3B44"/>
		<stop  offset="0.3493" style="stop-color:#30424C"/>
		<stop  offset="0.7191" style="stop-color:#394E5B"/>
		<stop  offset="0.7604" style="stop-color:#394E5B"/>
		<stop  offset="1" style="stop-color:#394E5B"/>
	</linearGradient>
	<polygon display="inline" fill="url(#SVGID_10_)" points="753.208,569.375 1063.841,719.1 737.699,761.773 	"/>
	<linearGradient id="SVGID_12_" gradientUnits="userSpaceOnUse" x1="458.0126" y1="243.1784" x2="1142.4844" y2="500.0287">
		<stop  offset="0" style="stop-color:#3F5C63"/>
		<stop  offset="0.5773" style="stop-color:#3E5A61"/>
		<stop  offset="0.8507" style="stop-color:#3A5459"/>
		<stop  offset="1" style="stop-color:#364D51"/>
	</linearGradient>
	<polygon display="inline" fill="url(#SVGID_12_)" points="430.476,280.822 1143.586,199.401 1117.876,581.974 501.911,560.693 	"/>
	<rect x="617.174" y="353.128" display="inline" fill="none" width="546.392" height="312.446"/>
	<text transform="matrix(1 0 0 1 617.1724 397.8799)" display="inline"><tspan x="0" y="0" fill="#82B3BF" font-family="'HoltwoodOneSC'" font-size="65" letter-spacing="1">Let’s  </tspan><tspan x="0" y="65" fill="#82B3BF" font-family="'HoltwoodOneSC'" font-size="65" letter-spacing="1">explore.</tspan></text>
</g>
</svg>
