<?xml version="1.0" encoding="utf-8"?>
<!-- Generator: Adobe Illustrator 17.0.0, SVG Export Plug-In . SVG Version: 6.00 Build 0)  -->
<!DOCTYPE svg PUBLIC "-//W3C//DTD SVG 1.1//EN" "http://www.w3.org/Graphics/SVG/1.1/DTD/svg11.dtd">
<svg version="1.1" xmlns="http://www.w3.org/2000/svg" xmlns:xlink="http://www.w3.org/1999/xlink" x="0px" y="0px" width="1600px"
	 height="900px" viewBox="0 0 1600 900" enable-background="new 0 0 1600 900" xml:space="preserve">
<g id="Layer_3" display="none">
</g>
<g id="outlune">
	<polygon fill="#1D252B" points="1117.876,581.975 753.208,569.375 737.699,761.773 920.999,675.572 	"/>
	<polygon fill="#1D252B" points="617.174,259.506 617.174,139.974 430.476,280.823 541.456,297.974 	"/>
	<linearGradient id="SVGID_1_" gradientUnits="userSpaceOnUse" x1="801.7811" y1="584.2427" x2="981.1327" y2="867.2401">
		<stop  offset="0" style="stop-color:#2A3B44"/>
		<stop  offset="0.3493" style="stop-color:#30424C"/>
		<stop  offset="0.7191" style="stop-color:#394E5B"/>
		<stop  offset="0.7604" style="stop-color:#394E5B"/>
		<stop  offset="1" style="stop-color:#394E5B"/>
	</linearGradient>
	<polygon fill="url(#SVGID_1_)" points="753.208,569.375 1063.841,719.1 737.699,761.773 	"/>
	<linearGradient id="SVGID_3_" gradientUnits="userSpaceOnUse" x1="458.0126" y1="243.1786" x2="1142.4844" y2="500.0288">
		<stop  offset="0" style="stop-color:#3F5C63"/>
		<stop  offset="0.5773" style="stop-color:#3E5A61"/>
		<stop  offset="0.8507" style="stop-color:#3A5459"/>
		<stop  offset="1" style="stop-color:#364D51"/>
	</linearGradient>
	<polygon fill="url(#SVGID_3_)" points="430.476,280.823 1143.586,199.401 1117.876,581.975 501.911,560.693 	"/>
	<g>
		<path fill="#82B3BF" d="M595.003,313.132v16.25h-5.332c-0.36-0.466-0.772-0.941-1.238-1.429c-0.465-0.486-0.983-0.925-1.555-1.317
			c-0.571-0.391-1.195-0.709-1.873-0.951c-0.677-0.244-1.407-0.365-2.189-0.365v21.994l4.062,0.793v13.775H558.44v-13.775
			l4.062-0.793V325.32c-0.783,0-1.513,0.121-2.189,0.365c-0.678,0.242-1.302,0.561-1.873,0.951c-0.571,0.393-1.09,0.831-1.555,1.317
			c-0.466,0.487-0.879,0.963-1.238,1.429h-5.332v-16.25H595.003z"/>
		<path fill="#82B3BF" d="M600.817,317.195h26.724v12.568l-3.809,0.729v5.237h15.267v-5.237l-3.809-0.729v-12.728h26.723v12.728
			l-3.809,0.729v17.995l3.809,0.73v12.664H635.19v-12.664l3.809-0.73v-5.3h-15.267v5.3l3.809,0.73v12.664h-26.724v-12.664
			l3.809-0.73v-17.995l-3.809-0.729V317.195z"/>
		<path fill="#82B3BF" d="M692.546,336.84l8.792-1.872v9.045l-8.792-1.904v7.014c1.27,0,2.496-0.09,3.682-0.27
			c1.185-0.18,2.285-0.428,3.301-0.746c1.016-0.316,1.946-0.688,2.793-1.11c0.846-0.423,1.576-0.878,2.19-1.364h4.348v16.25h-39.229
			v-12.664l3.809-0.73v-17.995l-3.809-0.729v-12.568h39.229v16.25h-4.348c-0.614-0.466-1.345-0.91-2.19-1.334
			c-0.847-0.422-1.777-0.793-2.793-1.11s-2.116-0.571-3.301-0.762c-1.186-0.19-2.412-0.286-3.682-0.286V336.84z"/>
		<path fill="#82B3BF" d="M765.17,361.882h-18.979c-0.593-1.101-1.206-2.27-1.841-3.508s-1.249-2.533-1.841-3.888
			c-0.593-1.354-1.148-2.751-1.666-4.189c-0.519-1.438-0.958-2.92-1.317-4.443h-1.047v16.028h-22.916v-12.664l3.809-0.73v-18.059
			l-3.809-0.73v-12.504h25.994c3.448,0,6.427,0.148,8.935,0.443c2.507,0.297,4.634,0.73,6.379,1.302
			c1.746,0.571,3.158,1.265,4.237,2.079s1.92,1.734,2.523,2.762c0.603,1.025,1.01,2.152,1.222,3.379
			c0.211,1.229,0.317,2.529,0.317,3.904c0,1.396-0.133,2.666-0.396,3.809c-0.265,1.143-0.735,2.189-1.412,3.143
			c-0.678,0.951-1.604,1.824-2.777,2.617c-1.175,0.795-2.672,1.54-4.491,2.238c0.381,0.762,0.946,1.666,1.698,2.713
			c0.751,1.049,1.57,2.117,2.459,3.207s1.772,2.142,2.65,3.157s1.635,1.884,2.27,2.603V361.882z M738.479,337.253
			c1.163,0,2.216-0.059,3.157-0.176c0.941-0.115,1.746-0.369,2.412-0.762c0.667-0.391,1.18-0.967,1.54-1.729
			c0.359-0.762,0.539-1.788,0.539-3.079c0-1.27-0.18-2.285-0.539-3.047c-0.36-0.762-0.873-1.349-1.54-1.761
			c-0.666-0.414-1.471-0.684-2.412-0.811s-1.994-0.189-3.157-0.189V337.253z"/>
		<path fill="#82B3BF" d="M795.043,336.84l8.792-1.872v9.045l-8.792-1.904v7.014c1.27,0,2.496-0.09,3.682-0.27
			c1.185-0.18,2.285-0.428,3.301-0.746c1.016-0.316,1.946-0.688,2.793-1.11c0.846-0.423,1.576-0.878,2.19-1.364h4.348v16.25h-39.229
			v-12.664l3.809-0.73v-17.995l-3.809-0.729v-12.568h39.229v16.25h-4.348c-0.614-0.466-1.345-0.91-2.19-1.334
			c-0.847-0.422-1.777-0.793-2.793-1.11s-2.116-0.571-3.301-0.762c-1.186-0.19-2.412-0.286-3.682-0.286V336.84z"/>
		<path fill="#82B3BF" d="M839.52,317.195h26.725v12.504l-3.809,0.73v18.059l3.809,0.73v12.664H839.52v-12.664l3.809-0.73v-18.059
			l-3.809-0.73V317.195z"/>
		<path fill="#82B3BF" d="M912.906,347.822c0,1.968-0.28,3.709-0.841,5.221c-0.562,1.514-1.323,2.824-2.285,3.936
			c-0.963,1.111-2.105,2.037-3.428,2.777c-1.323,0.74-2.746,1.338-4.27,1.793s-3.115,0.719-4.776,0.793s-3.316,0.111-4.967,0.111
			c-2.285,0-4.349-0.053-6.188-0.158c-1.842-0.105-3.486-0.339-4.936-0.698c-1.45-0.359-2.729-0.757-3.841-1.19
			c-1.11-0.434-2.09-0.861-2.936-1.285v-11.014h8.981c0.889,1.396,1.904,2.424,3.047,3.079c1.143,0.656,2.317,0.983,3.523,0.983
			c0.359,0,0.762-0.031,1.206-0.095s0.856-0.265,1.237-0.603c0.381-0.339,0.704-0.862,0.969-1.572
			c0.264-0.708,0.396-1.707,0.396-2.998c-1.714-0.148-3.412-0.365-5.094-0.65c-1.683-0.287-3.291-0.672-4.824-1.159
			c-1.534-0.486-2.957-1.105-4.27-1.856c-1.312-0.751-2.449-1.661-3.411-2.73c-0.963-1.067-1.72-2.326-2.27-3.775
			c-0.551-1.449-0.825-3.116-0.825-5c0-2.158,0.274-4.047,0.825-5.664c0.55-1.619,1.302-3.01,2.253-4.174
			c0.953-1.164,2.079-2.127,3.381-2.889c1.301-0.762,2.702-1.365,4.205-1.809c1.502-0.445,3.067-0.757,4.697-0.938
			c1.629-0.179,3.258-0.27,4.888-0.27c2.306,0,4.374,0.117,6.205,0.35c1.83,0.232,3.47,0.529,4.919,0.889s2.729,0.757,3.841,1.189
			c1.11,0.435,2.1,0.853,2.968,1.254v11.109h-9.617c-0.805-1.523-1.725-2.635-2.762-3.333c-1.036-0.698-2.094-1.048-3.174-1.048
			c-0.359,0-0.772,0.059-1.237,0.176c-0.466,0.115-0.899,0.375-1.302,0.777c-0.401,0.402-0.74,0.994-1.016,1.777
			c-0.274,0.783-0.412,1.84-0.412,3.174c3.491,0.127,6.554,0.497,9.188,1.11c2.634,0.614,4.84,1.528,6.617,2.745
			s3.11,2.783,3.999,4.697C912.461,342.771,912.906,345.092,912.906,347.822z"/>
		<path fill="#82B3BF" d="M972.333,361.882l-1.587-7.522h-12.474l-1.586,7.522h-16.98v-14.727l3.682-0.73l8.791-29.23h24.629
			l8.855,29.23l3.65,0.73v14.727H972.333z M960.209,344.33h8.601l-4.316-17.552L960.209,344.33z"/>
		<path fill="#82B3BF" d="M591.13,412.822c0,1.968-0.28,3.709-0.841,5.221c-0.562,1.514-1.323,2.824-2.285,3.936
			c-0.963,1.111-2.105,2.037-3.428,2.777c-1.323,0.74-2.746,1.338-4.27,1.793s-3.115,0.719-4.776,0.793s-3.316,0.111-4.967,0.111
			c-2.285,0-4.349-0.053-6.188-0.158c-1.842-0.105-3.486-0.338-4.936-0.697c-1.45-0.361-2.729-0.758-3.841-1.191
			c-1.11-0.434-2.09-0.861-2.936-1.285v-11.014h8.981c0.889,1.396,1.904,2.424,3.047,3.079c1.143,0.656,2.317,0.983,3.523,0.983
			c0.359,0,0.762-0.031,1.206-0.095s0.856-0.265,1.237-0.603c0.381-0.339,0.704-0.862,0.969-1.572
			c0.264-0.708,0.396-1.707,0.396-2.998c-1.714-0.148-3.412-0.365-5.094-0.65c-1.683-0.287-3.291-0.672-4.824-1.159
			c-1.534-0.486-2.957-1.105-4.27-1.856c-1.312-0.751-2.449-1.661-3.411-2.73c-0.963-1.067-1.72-2.326-2.27-3.775
			c-0.551-1.449-0.825-3.116-0.825-5c0-2.158,0.274-4.047,0.825-5.664c0.55-1.619,1.302-3.01,2.253-4.174
			c0.953-1.164,2.079-2.127,3.381-2.889c1.301-0.762,2.702-1.365,4.205-1.809c1.502-0.445,3.067-0.757,4.697-0.938
			c1.629-0.179,3.258-0.27,4.888-0.27c2.306,0,4.374,0.117,6.205,0.35c1.83,0.232,3.47,0.529,4.919,0.889s2.729,0.757,3.841,1.189
			c1.11,0.435,2.1,0.853,2.968,1.254v11.109h-9.617c-0.805-1.523-1.725-2.635-2.762-3.333c-1.036-0.698-2.094-1.048-3.174-1.048
			c-0.359,0-0.772,0.059-1.237,0.176c-0.466,0.115-0.899,0.375-1.302,0.777c-0.401,0.402-0.74,0.994-1.016,1.777
			c-0.274,0.783-0.412,1.84-0.412,3.174c3.491,0.127,6.554,0.497,9.188,1.11c2.634,0.614,4.84,1.528,6.617,2.745
			s3.11,2.783,3.999,4.697C590.686,407.771,591.13,410.092,591.13,412.822z"/>
		<path fill="#82B3BF" d="M615.893,403.935c0,3.364,0.857,5.813,2.57,7.348c1.715,1.534,4.147,2.301,7.301,2.301
			c1.861,0,4.046-0.232,6.554-0.698c2.507-0.466,5.337-1.175,8.489-2.126v13.807c-6.348,1.924-12.452,2.887-18.312,2.887
			c-3.64,0-7.025-0.428-10.156-1.285c-3.132-0.857-5.851-2.27-8.156-4.236c-2.307-1.969-4.121-4.449-5.443-7.443
			c-1.323-2.994-1.984-6.512-1.984-10.553c0-3.999,0.608-7.443,1.825-10.33c1.217-2.889,2.941-5.27,5.174-7.143
			c2.231-1.871,4.914-3.252,8.046-4.141c3.131-0.889,6.622-1.334,10.473-1.334c2.35,0,4.47,0.117,6.364,0.35
			c1.894,0.232,3.597,0.529,5.109,0.889s2.846,0.757,3.999,1.189c1.153,0.435,2.174,0.853,3.062,1.254v13.807h-8.981
			c-1.016-1.396-2.138-2.428-3.364-3.094c-1.228-0.668-2.508-1-3.84-1c-1.101,0-2.175,0.211-3.222,0.635
			c-1.048,0.423-1.979,1.042-2.793,1.855c-0.815,0.815-1.471,1.815-1.968,3C616.141,401.058,615.893,402.411,615.893,403.935z"/>
		<path fill="#82B3BF" d="M679.503,426.882l-1.587-7.522h-12.474l-1.586,7.522h-16.98v-14.727l3.682-0.73l8.791-29.23h24.629
			l8.855,29.23l3.65,0.73v14.727H679.503z M667.378,409.33h8.601l-4.316-17.552L667.378,409.33z"/>
		<path fill="#82B3BF" d="M752.444,426.882h-18.979c-0.593-1.1-1.206-2.27-1.841-3.508s-1.249-2.533-1.841-3.888
			c-0.593-1.354-1.148-2.751-1.666-4.189c-0.519-1.438-0.958-2.92-1.317-4.443h-1.047v16.028h-22.916v-12.664l3.809-0.73v-18.059
			l-3.809-0.73v-12.504h25.994c3.448,0,6.427,0.148,8.935,0.443c2.507,0.297,4.634,0.73,6.379,1.302
			c1.746,0.571,3.158,1.265,4.237,2.079s1.92,1.734,2.523,2.762c0.603,1.025,1.01,2.152,1.222,3.379
			c0.211,1.229,0.317,2.529,0.317,3.904c0,1.396-0.133,2.666-0.396,3.809c-0.265,1.143-0.735,2.189-1.412,3.143
			c-0.678,0.951-1.604,1.824-2.777,2.617c-1.175,0.795-2.672,1.54-4.491,2.238c0.381,0.762,0.946,1.666,1.698,2.713
			c0.751,1.049,1.57,2.117,2.459,3.207s1.772,2.142,2.65,3.157s1.635,1.884,2.27,2.603V426.882z M725.753,402.253
			c1.163,0,2.216-0.059,3.157-0.176c0.941-0.115,1.746-0.369,2.412-0.762c0.667-0.391,1.18-0.967,1.54-1.729
			c0.359-0.762,0.539-1.788,0.539-3.079c0-1.27-0.18-2.285-0.539-3.047c-0.36-0.762-0.873-1.349-1.54-1.761
			c-0.666-0.414-1.471-0.684-2.412-0.811s-1.994-0.189-3.157-0.189V402.253z"/>
		<path fill="#82B3BF" d="M770.985,426.882v-12.601l3.809-0.952l-13.107-17.932l-4.824-0.699v-12.504h25.486v12.504l-2.984,0.699
			l6.062,9.172l6.03-9.172l-2.983-0.699v-12.504h25.454v12.504l-4.792,0.699l-13.108,17.932l3.841,0.952v12.601H770.985z"/>
		<path fill="#82B3BF" d="M854.788,426.913L842.6,395.398l-4.539-0.699v-12.504h28.978v12.504l-3.301,0.699l5.173,16.631
			l5.174-16.631l-3.301-0.699v-12.504h28.977v12.504l-3.269,0.699l5.142,16.631l5.174-16.631l-3.301-0.699v-12.663h21.963v12.663
			l-4.508,0.699l-12.188,31.516h-21.232l-5.776-17.17l-5.713,17.17H854.788z"/>
		<path fill="#82B3BF" d="M955.785,427.453c-3.724,0-7.21-0.396-10.457-1.189c-3.248-0.793-6.073-2.158-8.475-4.094
			c-2.401-1.938-4.295-4.406-5.681-7.412c-1.387-3.004-2.079-6.611-2.079-10.822c0-4.126,0.692-7.644,2.079-10.553
			c1.386-2.909,3.284-5.279,5.696-7.109s5.237-3.168,8.475-4.016c3.237-0.846,6.718-1.27,10.441-1.27
			c3.703,0,7.179,0.424,10.427,1.27c3.247,0.848,6.083,2.186,8.506,4.016c2.422,1.83,4.332,4.2,5.729,7.109
			s2.095,6.427,2.095,10.553c0,2.793-0.317,5.327-0.952,7.602s-1.529,4.295-2.682,6.062c-1.153,1.766-2.539,3.289-4.158,4.57
			c-1.618,1.279-3.423,2.338-5.411,3.174c-1.989,0.836-4.126,1.396-6.411,1.682S958.261,427.453,955.785,427.453z M955.785,394.509
			c-1.248,0-2.301,0.158-3.157,0.476c-0.857,0.317-1.566,0.729-2.127,1.237s-0.999,1.09-1.317,1.746
			c-0.316,0.656-0.545,1.328-0.682,2.016c-0.138,0.688-0.223,1.365-0.254,2.031c-0.032,0.666-0.048,1.254-0.048,1.762
			c0,0.486,0.011,1.062,0.032,1.729c0.021,0.668,0.095,1.365,0.222,2.096s0.338,1.455,0.635,2.174
			c0.296,0.72,0.725,1.365,1.285,1.936c0.561,0.572,1.28,1.031,2.158,1.381s1.963,0.523,3.253,0.523c1.27,0,2.344-0.168,3.222-0.508
			c0.878-0.338,1.598-0.787,2.158-1.348s1-1.191,1.317-1.889c0.317-0.699,0.545-1.402,0.683-2.111
			c0.137-0.709,0.222-1.401,0.254-2.078c0.031-0.678,0.048-1.26,0.048-1.746c0-0.508-0.017-1.096-0.048-1.762
			c-0.032-0.666-0.117-1.349-0.254-2.047c-0.138-0.698-0.365-1.381-0.683-2.047s-0.757-1.264-1.317-1.793s-1.28-0.957-2.158-1.285
			S957.054,394.509,955.785,394.509z"/>
		<path fill="#82B3BF" d="M1011.556,414.695c0.889,0,1.734-0.122,2.539-0.365c0.804-0.243,1.55-0.561,2.237-0.953
			c0.688-0.391,1.312-0.824,1.873-1.301c0.561-0.477,1.052-0.957,1.476-1.443h5.3v16.25h-36.309v-12.664l3.809-0.73v-18.059
			l-3.809-0.73v-12.504h26.725v12.504l-3.841,0.73V414.695z"/>
		<path fill="#82B3BF" d="M1053.775,402.792l8.125-1.873v9.681l-8.125-1.904v4.792l3.809,0.826v12.568h-26.724v-12.664l3.809-0.73
			v-17.995l-3.809-0.729v-12.568h36.912v16.25h-5.301c-0.91-0.953-2.105-1.772-3.586-2.461c-1.481-0.687-3.186-1.031-5.11-1.031
			V402.792z"/>
		<path fill="#82B3BF" d="M552.219,447.195h26.724v12.568l-3.809,0.73v5.236h15.267v-5.236l-3.809-0.73v-12.727h26.723v12.727
			l-3.809,0.73v17.994l3.809,0.73v12.664h-26.723v-12.664l3.809-0.73v-5.299h-15.267v5.299l3.809,0.73v12.664h-26.724v-12.664
			l3.809-0.73v-17.994l-3.809-0.73V447.195z"/>
		<path fill="#82B3BF" d="M643.949,466.841l8.792-1.873v9.045l-8.792-1.904v7.014c1.27,0,2.496-0.09,3.682-0.27
			c1.185-0.18,2.285-0.428,3.301-0.746c1.016-0.316,1.946-0.688,2.793-1.109c0.846-0.424,1.576-0.879,2.19-1.365h4.348v16.25
			h-39.229v-12.664l3.809-0.73v-17.994l-3.809-0.73v-12.568h39.229v16.25h-4.348c-0.614-0.465-1.345-0.91-2.19-1.334
			c-0.847-0.422-1.777-0.793-2.793-1.109c-1.016-0.318-2.116-0.572-3.301-0.762c-1.186-0.191-2.412-0.287-3.682-0.287V466.841z"/>
		<path fill="#82B3BF" d="M716.573,491.882h-18.979c-0.593-1.1-1.206-2.27-1.841-3.508s-1.249-2.533-1.841-3.887
			c-0.593-1.355-1.148-2.752-1.666-4.189c-0.519-1.439-0.958-2.92-1.317-4.443h-1.047v16.027h-22.916v-12.664l3.809-0.73v-18.059
			l-3.809-0.73v-12.504h25.994c3.448,0,6.427,0.148,8.935,0.443c2.507,0.297,4.634,0.73,6.379,1.303
			c1.746,0.57,3.158,1.264,4.237,2.078s1.92,1.734,2.523,2.762c0.603,1.025,1.01,2.152,1.222,3.379
			c0.211,1.229,0.317,2.529,0.317,3.904c0,1.396-0.133,2.666-0.396,3.809c-0.265,1.143-0.735,2.189-1.412,3.143
			c-0.678,0.951-1.604,1.824-2.777,2.617c-1.175,0.795-2.672,1.541-4.491,2.238c0.381,0.762,0.946,1.666,1.698,2.713
			c0.751,1.049,1.57,2.117,2.459,3.207s1.772,2.143,2.65,3.158s1.635,1.883,2.27,2.602V491.882z M689.881,467.253
			c1.163,0,2.216-0.059,3.157-0.176c0.941-0.115,1.746-0.369,2.412-0.762c0.667-0.391,1.18-0.967,1.54-1.729
			c0.359-0.762,0.539-1.789,0.539-3.078c0-1.27-0.18-2.285-0.539-3.047c-0.36-0.762-0.873-1.35-1.54-1.762
			c-0.666-0.414-1.471-0.684-2.412-0.811s-1.994-0.189-3.157-0.189V467.253z"/>
		<path fill="#82B3BF" d="M746.445,466.841l8.792-1.873v9.045l-8.792-1.904v7.014c1.27,0,2.496-0.09,3.682-0.27
			c1.185-0.18,2.285-0.428,3.301-0.746c1.016-0.316,1.946-0.688,2.793-1.109c0.846-0.424,1.576-0.879,2.19-1.365h4.348v16.25H723.53
			v-12.664l3.809-0.73v-17.994l-3.809-0.73v-12.568h39.229v16.25h-4.348c-0.614-0.465-1.345-0.91-2.19-1.334
			c-0.847-0.422-1.777-0.793-2.793-1.109c-1.016-0.318-2.116-0.572-3.301-0.762c-1.186-0.191-2.412-0.287-3.682-0.287V466.841z"/>
		<path fill="#82B3BF" d="M769.303,455.796v-12.664h24.406v12.664l-4.062,19.836h-16.25L769.303,455.796z M771.366,479.695h20.312
			v12.188h-20.312V479.695z"/>
	</g>
</g>
<g id="fonts" display="none">
	<polygon display="inline" fill="#1D252B" points="1117.876,581.975 753.208,569.375 737.699,761.773 920.999,675.572 	"/>
	<polygon display="inline" fill="#1D252B" points="617.174,259.506 617.174,139.974 430.476,280.823 541.456,297.974 	"/>
	<linearGradient id="SVGID_4_" gradientUnits="userSpaceOnUse" x1="801.7811" y1="584.2427" x2="981.1327" y2="867.2401">
		<stop  offset="0" style="stop-color:#2A3B44"/>
		<stop  offset="0.3493" style="stop-color:#30424C"/>
		<stop  offset="0.7191" style="stop-color:#394E5B"/>
		<stop  offset="0.7604" style="stop-color:#394E5B"/>
		<stop  offset="1" style="stop-color:#394E5B"/>
	</linearGradient>
	<polygon display="inline" fill="url(#SVGID_4_)" points="753.208,569.375 1063.841,719.1 737.699,761.773 	"/>
	<linearGradient id="SVGID_6_" gradientUnits="userSpaceOnUse" x1="458.0126" y1="243.1786" x2="1142.4844" y2="500.0288">
		<stop  offset="0" style="stop-color:#3F5C63"/>
		<stop  offset="0.5773" style="stop-color:#3E5A61"/>
		<stop  offset="0.8507" style="stop-color:#3A5459"/>
		<stop  offset="1" style="stop-color:#364D51"/>
	</linearGradient>
	<polygon display="inline" fill="url(#SVGID_6_)" points="430.476,280.823 1143.586,199.401 1117.876,581.975 501.911,560.693 	"/>
	<rect x="549.174" y="317.128" display="inline" fill="none" width="546.392" height="312.446"/>
	<text transform="matrix(1 0 0 1 549.1724 361.8817)" display="inline"><tspan x="0" y="0" fill="#82B3BF" font-family="'HoltwoodOneSC'" font-size="65" letter-spacing="1">There is a </tspan><tspan x="0" y="65" fill="#82B3BF" font-family="'HoltwoodOneSC'" font-size="65" letter-spacing="1">scary wolf </tspan><tspan x="0" y="130" fill="#82B3BF" font-family="'HoltwoodOneSC'" font-size="65" letter-spacing="1">here!</tspan></text>
</g>
</svg>
