<?xml version="1.0" encoding="utf-8"?>
<!-- Generator: Adobe Illustrator 17.0.0, SVG Export Plug-In . SVG Version: 6.00 Build 0)  -->
<!DOCTYPE svg PUBLIC "-//W3C//DTD SVG 1.1//EN" "http://www.w3.org/Graphics/SVG/1.1/DTD/svg11.dtd">
<svg version="1.1" xmlns="http://www.w3.org/2000/svg" xmlns:xlink="http://www.w3.org/1999/xlink" x="0px" y="0px" width="1600px"
	 height="900px" viewBox="0 0 1600 900" enable-background="new 0 0 1600 900" xml:space="preserve">
<g id="Layer_6" display="none">
	<g display="inline">
		<g>
			<defs>
				<rect id="SVGID_137_" x="2310.876" y="-227.682" width="1600" height="899.998"/>
			</defs>
			<clipPath id="SVGID_1_">
				<use xlink:href="#SVGID_137_"  overflow="visible"/>
			</clipPath>
			<g clip-path="url(#SVGID_1_)">
				<g>
					<g>
						<polygon fill="#394E5B" points="-520.245,-136.588 -291.22,-27.348 -12.504,-68.263 355.232,55.709 691.456,-19.963 
							1063.493,58.045 1582.545,-46.966 2120.755,79.934 2524.755,-40.066 3096.755,71.934 3416.755,-44.066 3812.755,55.934 
							4279.755,-136.588 4279.755,672.317 -520.245,672.317 						"/>
						<polygon fill="#2A3B44" points="355.232,55.709 26.755,127.109 313.519,41.647 						"/>
						<polygon fill="#2A3B44" points="1063.493,58.045 889.475,80.6 998.528,44.423 						"/>
					</g>
				</g>
				<g>
					<g>
						<polygon fill="#3F5C63" points="-520.245,99.934 -234.46,39.715 440.755,167.934 840.755,39.715 1208.755,139.934 
							1738.56,39.715 2404.755,187.934 2749.661,58.045 3121.698,178.057 3328.755,75.366 3715.076,157.733 4084.795,39.715 
							4279.626,99.934 4279.755,672.317 -520.245,672.317 						"/>
						<polygon fill="#364D51" points="440.755,167.934 84.755,247.934 370.815,154.653 						"/>
						<polygon fill="#364D51" points="1208.755,139.934 1010.755,169.436 1152.755,127.109 						"/>
					</g>
				</g>
				<g>
					<g>
						<polygon fill="#538896" points="-520.245,267.865 -303.245,175.317 -15.245,317.024 204.755,222.317 584.755,375.934 
							816.755,267.934 1208.755,323.934 1476.755,155.934 1844.755,287.934 2124.755,195.934 2784.755,339.934 3048.755,222.317 
							3328.755,299.934 3536.755,191.934 3908.755,263.934 4152.755,99.934 4279.525,267.865 4279.755,672.317 -520.245,672.317 
													"/>
						<polygon fill="#426972" points="1208.755,323.934 1045.755,391.934 1159.615,316.914 						"/>
						<polygon fill="#426972" points="584.755,375.934 330.755,490.934 540.864,358.191 						"/>
					</g>
					<g id="peter_57_">
						<g>
							<path fill="#3F5C63" d="M721.685,177.212c-13.807,0-25,11.147-25,24.955c-0.002,0.331-0.433,33.471-16.807,65.28
								c-8.991,17.47-21.13,31.283-36.078,41.057c-13.245,8.66-29.03,14.34-47.115,16.999V102.183c0-13.807-11.193-25-25-25
								s-25,11.193-25,25v122.573c-19.33-4.637-33.237-15.768-42.193-33.68c-9.437-18.873-9.86-38.628-9.86-38.819
								c0-13.808-11.192-25-25-25s-25,11.192-25,25c0,3.163,0.425,31.751,15.14,61.181c9.228,18.455,22.073,33.258,38.181,43.995
								c14.086,9.391,30.42,15.459,48.733,18.172v199.827h50v-99.498c73.413-7.999,110.321-50.917,128.61-87.496
								c21.146-42.293,21.39-84.408,21.39-86.181C746.685,188.45,735.493,177.212,721.685,177.212z"/>
							<g>
								<path fill="#364D51" d="M584.755,102.183v223.321c4.098-0.603,8.071-1.368,11.93-2.281v-221.04c0-13.807-11.193-25-25-25
									c-2.056,0-4.053,0.254-5.965,0.722C576.646,80.58,584.755,90.433,584.755,102.183z"/>
								<path fill="#364D51" d="M721.685,177.212c-2.061,0-4.061,0.253-5.977,0.722c10.932,2.681,19.046,12.569,19.046,24.323
									c0,1.772-0.243,43.888-21.39,86.181c-18.29,36.58-55.198,79.497-128.61,87.496v99.498h11.93v-99.498
									c73.413-7.999,110.321-50.917,128.61-87.496c21.146-42.293,21.39-84.408,21.39-86.181
									C746.685,188.45,735.493,177.212,721.685,177.212z"/>
								<path fill="#364D51" d="M482.702,152.257c0,0.191,0.424,19.946,9.86,38.819c8.956,17.912,22.864,29.043,42.193,33.68v-4.013
									c-13.249-5.855-23.272-15.686-30.263-29.667c-9.437-18.873-9.86-38.628-9.86-38.819c0-13.808-11.192-25-25-25
									c-2.056,0-4.053,0.254-5.965,0.722C474.593,130.654,482.702,140.506,482.702,152.257z"/>
							</g>
						</g>
						<g>
							<polygon fill="#538896" points="531.288,241.114 521.288,223.794 531.288,206.473 551.288,206.473 561.288,223.794 
								551.288,241.114 							"/>
							<polygon fill="#426972" points="551.666,229.786 541.288,235.778 530.909,229.786 530.909,217.801 541.288,211.809 
								551.666,217.801 							"/>
						</g>
						<g>
							<polygon fill="#538896" points="590.72,343.642 580.72,326.322 590.72,309.001 610.72,309.001 620.72,326.322 
								610.72,343.642 							"/>
							<polygon fill="#426972" points="611.098,332.314 600.72,338.306 590.341,332.314 590.341,320.33 600.72,314.338 
								611.098,320.33 							"/>
						</g>
					</g>
				</g>
			</g>
		</g>
	</g>
</g>
<g id="measurement_x5F_tools">
	<polygon fill="#1D252B" points="646.946,618.774 426.475,655.857 664.2,776.034 664.2,652.446 	"/>
	<polygon fill="#1D252B" points="1088.566,193.683 1143.586,149.149 927.787,40.732 914.073,204.454 	"/>
	<linearGradient id="SVGID_3_" gradientUnits="userSpaceOnUse" x1="622.0936" y1="749.7307" x2="548.7391" y2="818.3079">
		<stop  offset="0" style="stop-color:#2A3B44"/>
		<stop  offset="0.3493" style="stop-color:#30424C"/>
		<stop  offset="0.7191" style="stop-color:#394E5B"/>
		<stop  offset="0.7604" style="stop-color:#394E5B"/>
		<stop  offset="1" style="stop-color:#394E5B"/>
	</linearGradient>
	<polygon fill="url(#SVGID_3_)" points="664.2,776.034 511.229,804.039 573.021,729.94 	"/>
	<linearGradient id="SVGID_4_" gradientUnits="userSpaceOnUse" x1="370.4804" y1="246.9418" x2="1229.7303" y2="569.3781">
		<stop  offset="0" style="stop-color:#3F5C63"/>
		<stop  offset="0.5773" style="stop-color:#3E5A61"/>
		<stop  offset="0.8507" style="stop-color:#3A5459"/>
		<stop  offset="1" style="stop-color:#364D51"/>
	</linearGradient>
	<polygon fill="url(#SVGID_4_)" points="360.432,228.856 1143.586,149.149 1209.204,644.625 426.475,655.857 	"/>
	<rect x="499.825" y="309.777" fill="none" width="654.804" height="312.446"/>
	<text transform="matrix(1 0 0 1 499.8267 354.5289)"><tspan x="0" y="0" fill="#82B3BF" font-family="'HoltwoodOneSC'" font-size="65" letter-spacing="1">Look, a tent! </tspan><tspan x="0" y="65" fill="#82B3BF" font-family="'HoltwoodOneSC'" font-size="65" letter-spacing="1">Let’s set up </tspan><tspan x="0" y="130" fill="#82B3BF" font-family="'HoltwoodOneSC'" font-size="65" letter-spacing="1">camp before </tspan><tspan x="0" y="195" fill="#82B3BF" font-family="'HoltwoodOneSC'" font-size="65" letter-spacing="1">night falls.</tspan></text>
</g>
</svg>
