<?xml version="1.0" encoding="utf-8"?>
<!-- Generator: Adobe Illustrator 17.0.0, SVG Export Plug-In . SVG Version: 6.00 Build 0)  -->
<!DOCTYPE svg PUBLIC "-//W3C//DTD SVG 1.1//EN" "http://www.w3.org/Graphics/SVG/1.1/DTD/svg11.dtd">
<svg version="1.1" xmlns="http://www.w3.org/2000/svg" xmlns:xlink="http://www.w3.org/1999/xlink" x="0px" y="0px" width="1600px"
	 height="900px" viewBox="0 0 1600 900" enable-background="new 0 0 1600 900" xml:space="preserve">
<g id="Layer_6" display="none">
	<g display="inline">
		<rect x="-1.544" y="0.001" fill="#FBE4A8" width="1603.089" height="899.998"/>
		<radialGradient id="SVGID_1_" cx="801.5444" cy="342.8386" r="316.6649" gradientUnits="userSpaceOnUse">
			<stop  offset="0" style="stop-color:#FBE4CE"/>
			<stop  offset="0.5397" style="stop-color:#F2E7CE"/>
			<stop  offset="1" style="stop-color:#FFFFFF"/>
		</radialGradient>
		<circle fill="url(#SVGID_1_)" cx="801.544" cy="342.839" r="316.665"/>
		<g>
			<defs>
				<rect id="SVGID_11_" x="-1.544" y="0.001" width="1603.089" height="899.998"/>
			</defs>
			<clipPath id="SVGID_3_">
				<use xlink:href="#SVGID_11_"  overflow="visible"/>
			</clipPath>
			<g clip-path="url(#SVGID_3_)">
				<g>
					<g>
						<polygon fill="#D19853" points="-1603.227,91.094 -1374.202,200.334 -1095.487,159.419 -727.75,283.391 -391.527,207.719 
							-19.49,285.727 499.562,180.716 1037.773,307.616 1441.773,187.616 2013.773,299.616 2333.773,183.616 2729.773,283.616 
							3196.773,91.094 3196.773,899.999 -1603.227,899.999 						"/>
						<polygon fill="#C18749" points="1037.773,307.616 1474.525,392.708 1094.118,290.88 						"/>
					</g>
				</g>
				<g>
					<g>
						<polygon fill="#C78032" points="-1603.227,327.616 -1317.442,267.397 -642.227,395.616 -242.227,267.397 125.773,367.616 
							655.578,267.397 1321.773,415.616 1666.679,285.727 2038.716,405.739 2245.773,303.048 2632.094,385.415 3001.812,267.397 
							3196.644,327.616 3196.773,899.999 -1603.227,899.999 						"/>
						<polygon fill="#B77430" points="125.773,367.616 -72.227,397.118 69.773,354.791 						"/>
						<polygon fill="#B77430" points="1321.773,415.616 1497.344,451.714 1370.891,397.118 						"/>
					</g>
				</g>
				<g>
					<g>
						<polygon fill="#BF672B" points="-1603.227,495.546 -1386.227,402.999 -1098.227,544.706 -878.227,449.999 -498.227,603.616 
							-266.227,495.616 125.773,551.616 393.773,383.616 761.773,515.616 1041.773,423.616 1701.773,567.616 1965.773,449.999 
							2245.773,527.616 2453.773,419.616 2825.773,491.616 3069.773,327.616 3196.542,495.546 3196.773,899.999 -1603.227,899.999 
													"/>
						<polygon fill="#A85C22" points="125.773,551.616 -37.227,619.616 76.633,544.596 						"/>
						<polygon fill="#A85C22" points="741.403,508.309 763.106,550.949 784.01,508.309 761.773,515.616 						"/>
					</g>
					<g id="peter_8_">
						<g>
							<path fill="#5E8C57" d="M1520.662,294.876c-13.808,0-25,11.192-25,25c0,0.191-0.424,19.946-9.86,38.819
								c-8.636,17.271-21.875,28.239-40.14,33.159V303.06c0-13.807-11.193-25-25-25s-25,11.193-25,25v148.978
								c-18.265-4.92-31.504-15.887-40.14-33.159c-9.437-18.873-9.86-38.628-9.86-38.819c0-13.808-11.192-25-25-25s-25,11.192-25,25
								c0,3.163,0.425,31.751,15.14,61.181c9.228,18.455,22.073,33.258,38.181,43.995c13.561,9.041,29.193,15.018,46.68,17.873
								v100.126h50v-160.31c17.486-2.854,33.119-8.832,46.68-17.873c16.107-10.737,28.953-25.54,38.181-43.995
								c14.715-29.43,15.14-58.018,15.14-61.181C1545.662,306.068,1534.469,294.876,1520.662,294.876z"/>
							<g>
								<path fill="#475E38" d="M1335.662,380.06c0,0.191,0.424,19.946,9.86,38.819c8.636,17.271,21.875,28.239,40.14,33.159v-3.526
									c-13.193-5.861-23.168-15.69-30.14-29.633c-9.437-18.873-9.86-38.628-9.86-38.819c0-13.808-11.192-25-25-25
									c-1.712,0-3.384,0.173-5,0.501C1327.073,357.877,1335.662,367.964,1335.662,380.06z"/>
								<path fill="#475E38" d="M1435.662,303.06v88.795c3.521-0.948,6.85-2.127,10-3.526V303.06c0-13.807-11.193-25-25-25
									c-1.712,0-3.384,0.173-5,0.501C1427.073,280.877,1435.662,290.965,1435.662,303.06z"/>
								<path fill="#475E38" d="M1520.662,294.876c-1.712,0-3.384,0.173-5,0.501c11.411,2.316,20,12.404,20,24.499
									c0,3.163-0.425,31.751-15.14,61.181c-9.228,18.455-22.073,33.258-38.181,43.995c-13.561,9.041-29.193,15.018-46.68,17.873
									v160.31h10v-160.31c17.486-2.854,33.119-8.832,46.68-17.873c16.107-10.737,28.953-25.54,38.181-43.995
									c14.715-29.43,15.14-58.018,15.14-61.181C1545.662,306.068,1534.469,294.876,1520.662,294.876z"/>
							</g>
						</g>
						<polygon fill="#BCD4E8" points="1439.813,412.503 1429.813,395.182 1439.813,377.862 1459.813,377.862 1469.813,395.182 
							1459.813,412.503 						"/>
						<polygon fill="#BCD4E8" points="1374.838,463.824 1364.838,446.503 1374.838,429.183 1394.838,429.183 1404.838,446.503 
							1394.838,463.824 						"/>
						<polygon fill="#A6AEE8" points="1460.192,401.174 1449.813,407.166 1439.435,401.174 1439.435,389.19 1449.813,383.198 
							1460.192,389.19 						"/>
						<polygon fill="#A6AEE8" points="1395.216,452.495 1384.838,458.487 1374.459,452.495 1374.459,440.511 1384.838,434.519 
							1395.216,440.511 						"/>
					</g>
					<g id="peter_7_">
						<g>
							<path fill="#5E8C57" d="M1613.302,603.772c2.07-6.734,3.189-13.883,3.189-21.296c0-39.978-32.409-72.386-72.386-72.386
								s-72.386,32.408-72.386,72.386c0,7.412,1.119,14.562,3.189,21.296H1613.302z"/>
							<path fill="#475E38" d="M1484.463,567.641c-3.583,0-7.071,0.401-10.433,1.14c-0.85,4.437-1.311,9.011-1.311,13.696
								c0,7.412,1.119,14.562,3.189,21.296h55.372C1525.853,582.984,1506.952,567.641,1484.463,567.641z"/>
							<path fill="#5E8C57" d="M1519.434,621.938c0.434-2.606,0.671-5.278,0.671-8.007c0-26.723-21.663-48.386-48.386-48.386
								c-26.723,0-48.386,21.663-48.386,48.386c0,2.729,0.237,5.401,0.671,8.007H1519.434z"/>
						</g>
						<polygon fill="#BCD4E8" points="1586.491,556.932 1576.491,539.611 1586.491,522.291 1606.491,522.291 1616.491,539.611 
							1606.491,556.932 						"/>
						<polygon fill="#A6AEE8" points="1606.87,545.603 1596.491,551.595 1586.113,545.603 1586.113,533.619 1596.491,527.627 
							1606.87,533.619 						"/>
					</g>
				</g>
			</g>
		</g>
	</g>
	<g display="inline">
		<g>
			<defs>
				<rect id="SVGID_65_" x="2310.876" y="-22.593" width="1600" height="899.998"/>
			</defs>
			<clipPath id="SVGID_4_">
				<use xlink:href="#SVGID_65_"  overflow="visible"/>
			</clipPath>
			<g clip-path="url(#SVGID_4_)">
				<g>
					<g>
						<polygon fill="#394E5B" points="-520.245,68.501 -291.22,177.741 -12.504,136.825 355.232,260.797 691.456,185.125 
							1063.493,263.133 1582.545,158.123 2120.755,285.022 2524.755,165.022 3096.755,277.022 3416.755,161.022 3812.755,261.022 
							4279.755,68.501 4279.755,877.405 -520.245,877.405 						"/>
						<polygon fill="#2A3B44" points="355.232,260.797 26.755,332.198 313.519,246.735 						"/>
						<polygon fill="#2A3B44" points="1063.493,263.133 889.475,285.688 998.528,249.512 						"/>
					</g>
				</g>
				<g>
					<g>
						<polygon fill="#3F5C63" points="-520.245,305.022 -234.46,244.804 440.755,373.022 840.755,244.804 1208.755,345.022 
							1738.56,244.804 2404.755,393.022 2749.661,263.133 3121.698,383.145 3328.755,280.454 3715.076,362.822 4084.795,244.804 
							4279.626,305.022 4279.755,877.405 -520.245,877.405 						"/>
						<polygon fill="#364D51" points="440.755,373.022 84.755,453.022 370.815,359.741 						"/>
						<polygon fill="#364D51" points="1208.755,345.022 1010.755,374.525 1152.755,332.197 						"/>
					</g>
				</g>
				<g>
					<g>
						<polygon fill="#538896" points="-520.245,472.953 -303.245,380.405 -15.245,522.112 204.755,427.405 584.755,581.022 
							816.755,473.022 1208.755,529.022 1476.755,361.022 1844.755,493.022 2124.755,401.022 2784.755,545.022 3048.755,427.405 
							3328.755,505.022 3536.755,397.022 3908.755,469.022 4152.755,305.022 4279.525,472.953 4279.755,877.405 -520.245,877.405 
													"/>
						<polygon fill="#426972" points="1208.755,529.022 1045.755,597.022 1159.615,522.002 						"/>
						<polygon fill="#426972" points="584.755,581.022 330.755,696.022 540.864,563.279 						"/>
					</g>
					<g id="peter_36_">
						<g>
							<path fill="#3F5C63" d="M721.685,382.3c-13.807,0-25,11.147-25,24.955c-0.002,0.331-0.433,33.471-16.807,65.28
								c-8.991,17.47-21.13,31.283-36.078,41.057c-13.245,8.66-29.03,14.34-47.115,16.999V307.271c0-13.807-11.193-25-25-25
								s-25,11.193-25,25v122.573c-19.33-4.637-33.237-15.768-42.193-33.68c-9.437-18.873-9.86-38.628-9.86-38.819
								c0-13.808-11.192-25-25-25s-25,11.192-25,25c0,3.163,0.425,31.751,15.14,61.181c9.228,18.455,22.073,33.258,38.181,43.995
								c14.086,9.391,30.42,15.459,48.733,18.172V680.52h50v-99.498c73.413-7.999,110.321-50.917,128.61-87.496
								c21.146-42.293,21.39-84.408,21.39-86.181C746.685,393.539,735.493,382.3,721.685,382.3z"/>
							<g>
								<path fill="#364D51" d="M584.755,307.271v223.321c4.098-0.603,8.071-1.368,11.93-2.281v-221.04c0-13.807-11.193-25-25-25
									c-2.056,0-4.053,0.254-5.965,0.722C576.646,285.669,584.755,295.521,584.755,307.271z"/>
								<path fill="#364D51" d="M721.685,382.3c-2.061,0-4.061,0.253-5.977,0.722c10.932,2.681,19.046,12.569,19.046,24.323
									c0,1.772-0.243,43.888-21.39,86.181c-18.29,36.58-55.198,79.497-128.61,87.496v99.498h11.93v-99.498
									c73.413-7.999,110.321-50.917,128.61-87.496c21.146-42.293,21.39-84.408,21.39-86.181
									C746.685,393.539,735.493,382.3,721.685,382.3z"/>
								<path fill="#364D51" d="M482.702,357.345c0,0.191,0.424,19.946,9.86,38.819c8.956,17.912,22.864,29.043,42.193,33.68v-4.013
									c-13.249-5.855-23.272-15.686-30.263-29.667c-9.437-18.873-9.86-38.628-9.86-38.819c0-13.808-11.192-25-25-25
									c-2.056,0-4.053,0.254-5.965,0.722C474.593,335.742,482.702,345.594,482.702,357.345z"/>
							</g>
						</g>
						<g>
							<polygon fill="#538896" points="531.288,446.202 521.288,428.882 531.288,411.561 551.288,411.561 561.288,428.882 
								551.288,446.202 							"/>
							<polygon fill="#426972" points="551.666,434.874 541.288,440.866 530.909,434.874 530.909,422.89 541.288,416.898 
								551.666,422.89 							"/>
						</g>
						<g>
							<polygon fill="#538896" points="590.72,548.731 580.72,531.41 590.72,514.09 610.72,514.09 620.72,531.41 610.72,548.731 
															"/>
							<polygon fill="#426972" points="611.098,537.402 600.72,543.394 590.341,537.402 590.341,525.418 600.72,519.426 
								611.098,525.418 							"/>
						</g>
					</g>
				</g>
			</g>
		</g>
	</g>
</g>
<g id="measurement_x5F_tools">
	<polygon fill="#1D252B" points="1117.876,581.101 753.208,568.502 737.699,760.9 920.999,674.699 	"/>
	<polygon fill="#1D252B" points="617.174,258.632 617.174,139.1 430.476,279.949 541.456,297.1 	"/>
	<linearGradient id="SVGID_6_" gradientUnits="userSpaceOnUse" x1="801.7811" y1="583.3693" x2="981.1327" y2="866.3666">
		<stop  offset="0" style="stop-color:#2A3B44"/>
		<stop  offset="0.3493" style="stop-color:#30424C"/>
		<stop  offset="0.7191" style="stop-color:#394E5B"/>
		<stop  offset="0.7604" style="stop-color:#394E5B"/>
		<stop  offset="1" style="stop-color:#394E5B"/>
	</linearGradient>
	<polygon fill="url(#SVGID_6_)" points="753.208,568.502 1063.841,718.227 737.699,760.9 	"/>
	<linearGradient id="SVGID_7_" gradientUnits="userSpaceOnUse" x1="458.0126" y1="242.3051" x2="1142.4844" y2="499.1553">
		<stop  offset="0" style="stop-color:#3F5C63"/>
		<stop  offset="0.5773" style="stop-color:#3E5A61"/>
		<stop  offset="0.8507" style="stop-color:#3A5459"/>
		<stop  offset="1" style="stop-color:#364D51"/>
	</linearGradient>
	<polygon fill="url(#SVGID_7_)" points="430.476,279.949 1143.586,198.527 1117.876,581.101 501.911,559.819 	"/>
	<rect x="586.501" y="315.45" fill="none" width="526.892" height="312.446"/>
	<text transform="matrix(1 0 0 1 586.5005 360.2019)"><tspan x="0" y="0" fill="#82B3BF" font-family="'HoltwoodOneSC'" font-size="65" letter-spacing="1">Why are </tspan><tspan x="0" y="65" fill="#82B3BF" font-family="'HoltwoodOneSC'" font-size="65" letter-spacing="1">we in the </tspan><tspan x="0" y="130" fill="#82B3BF" font-family="'HoltwoodOneSC'" font-size="65" letter-spacing="1">desert?</tspan></text>
</g>
</svg>
