<?xml version="1.0" encoding="utf-8"?>
<!-- Generator: Adobe Illustrator 17.0.0, SVG Export Plug-In . SVG Version: 6.00 Build 0)  -->
<!DOCTYPE svg PUBLIC "-//W3C//DTD SVG 1.1//EN" "http://www.w3.org/Graphics/SVG/1.1/DTD/svg11.dtd">
<svg version="1.1" xmlns="http://www.w3.org/2000/svg" xmlns:xlink="http://www.w3.org/1999/xlink" x="0px" y="0px" width="1600px"
	 height="900px" viewBox="0 0 1600 900" enable-background="new 0 0 1600 900" xml:space="preserve">
<g id="Layer_3" display="none">
</g>
<g id="outlune">
	<polygon fill="#A85C22" points="646.946,618.774 426.475,655.857 664.2,776.034 664.2,652.446 	"/>
	<polygon fill="#A85C22" points="1088.566,193.683 1143.586,149.149 927.787,40.732 914.073,204.454 	"/>
	<linearGradient id="SVGID_1_" gradientUnits="userSpaceOnUse" x1="622.0936" y1="749.7307" x2="548.7391" y2="818.3079">
		<stop  offset="0" style="stop-color:#B77430"/>
		<stop  offset="0.358" style="stop-color:#BF7A31"/>
		<stop  offset="0.567" style="stop-color:#C78032"/>
		<stop  offset="1" style="stop-color:#D19853"/>
	</linearGradient>
	<polygon fill="url(#SVGID_1_)" points="664.2,776.034 511.229,804.039 573.021,729.94 	"/>
	<linearGradient id="SVGID_3_" gradientUnits="userSpaceOnUse" x1="360.432" y1="402.503" x2="1209.2041" y2="402.503">
		<stop  offset="0" style="stop-color:#B77430"/>
		<stop  offset="0.358" style="stop-color:#BF7A31"/>
		<stop  offset="0.567" style="stop-color:#C78032"/>
		<stop  offset="1" style="stop-color:#D19853"/>
	</linearGradient>
	<polygon fill="url(#SVGID_3_)" points="360.432,228.856 1143.586,149.149 1209.204,644.625 426.475,655.857 	"/>
	<g>
		<g>
			<path fill="#FBE4A8" d="M457.801,309.779h28.438v13.773l-4.062,0.794v19.614l4.062,0.793v13.775h-28.438v-13.775l4.062-0.793
				v-19.614l-4.062-0.794V309.779z"/>
			<path fill="#FBE4A8" d="M554.077,313.842c3.131,0.74,5.475,1.936,7.03,3.586c1.555,1.65,2.333,3.894,2.333,6.729
				c0,1.904-0.212,3.513-0.635,4.824c-0.424,1.312-0.958,2.391-1.604,3.237s-1.344,1.497-2.095,1.952s-1.449,0.788-2.095,1
				c-0.646,0.211-1.401,0.349-2.27,0.412c0.762,0.043,1.588,0.133,2.477,0.27c0.889,0.139,1.766,0.35,2.634,0.635
				c0.867,0.285,1.703,0.656,2.507,1.111c0.805,0.455,1.508,1.031,2.111,1.729c0.603,0.698,1.089,1.523,1.46,2.476
				c0.37,0.952,0.556,2.062,0.556,3.332c0,1.904-0.244,3.678-0.73,5.316c-0.487,1.641-1.349,3.059-2.587,4.254
				c-1.237,1.195-2.903,2.131-4.999,2.809c-2.094,0.677-4.76,1.016-7.998,1.016h-34.626v-12.664l3.809-0.73v-19.138l-3.809-0.729
				v-11.426H554.077z M547.379,327.742c0-1.078-0.174-1.908-0.523-2.49c-0.349-0.582-0.814-1.011-1.396-1.286
				c-0.582-0.274-1.237-0.434-1.968-0.476c-0.729-0.043-1.476-0.064-2.237-0.064h-2.793v9.014h2.793
				c0.762,0,1.508-0.025,2.237-0.078c0.73-0.053,1.386-0.223,1.968-0.508c0.582-0.287,1.048-0.746,1.396-1.381
				C547.206,329.838,547.379,328.928,547.379,327.742z M547.379,342.945c0-1.079-0.174-1.904-0.523-2.476
				c-0.349-0.571-0.814-0.994-1.396-1.27c-0.582-0.274-1.237-0.434-1.968-0.476c-0.729-0.043-1.476-0.064-2.237-0.064h-2.793v9.014
				h2.793c0.762,0,1.508-0.025,2.237-0.078c0.73-0.053,1.386-0.229,1.968-0.524s1.048-0.762,1.396-1.396
				C547.206,345.04,547.379,344.131,547.379,342.945z"/>
			<path fill="#FBE4A8" d="M595.438,333.487l8.792-1.872v9.045l-8.792-1.904v7.014c1.27,0,2.496-0.09,3.682-0.27
				c1.185-0.18,2.285-0.428,3.301-0.746c1.016-0.316,1.946-0.688,2.793-1.11c0.846-0.423,1.576-0.878,2.19-1.364h4.348v16.25
				h-39.229v-12.664l3.809-0.73V327.14l-3.809-0.729v-12.568h39.229v16.25h-4.348c-0.614-0.466-1.345-0.91-2.19-1.334
				c-0.847-0.422-1.777-0.793-2.793-1.11s-2.116-0.571-3.301-0.762c-1.186-0.19-2.412-0.286-3.682-0.286V333.487z"/>
			<path fill="#FBE4A8" d="M628.737,325.649c-1.1,0-2.073,0.148-2.92,0.443c-0.846,0.297-1.555,0.667-2.126,1.111
				s-1.005,0.926-1.302,1.443c-0.296,0.52-0.443,1-0.443,1.445h-5.301v-16.25h43.291v16.25h-5.301c0-0.445-0.147-0.926-0.443-1.445
				c-0.297-0.518-0.73-0.999-1.302-1.443s-1.28-0.814-2.126-1.111c-0.847-0.295-1.82-0.443-2.92-0.443v19.486l3.809,0.73v12.664
				h-26.725v-12.664l3.809-0.73V325.649z"/>
			<path fill="#FBE4A8" d="M701.557,358.561l-12.188-31.516l-4.539-0.699v-12.504h28.978v12.504l-3.301,0.699l5.173,16.631
				l5.174-16.631l-3.301-0.699v-12.504h28.977v12.504l-3.269,0.699l5.142,16.631l5.174-16.631l-3.301-0.699v-12.663h21.963v12.663
				l-4.508,0.699l-12.188,31.516h-21.232l-5.776-17.17l-5.713,17.17H701.557z"/>
			<path fill="#FBE4A8" d="M800.365,333.487l8.792-1.872v9.045l-8.792-1.904v7.014c1.27,0,2.496-0.09,3.682-0.27
				c1.185-0.18,2.285-0.428,3.301-0.746c1.016-0.316,1.946-0.688,2.793-1.11c0.846-0.423,1.576-0.878,2.19-1.364h4.348v16.25H777.45
				v-12.664l3.809-0.73V327.14l-3.809-0.729v-12.568h39.229v16.25h-4.348c-0.614-0.466-1.345-0.91-2.19-1.334
				c-0.847-0.422-1.777-0.793-2.793-1.11s-2.116-0.571-3.301-0.762c-1.186-0.19-2.412-0.286-3.682-0.286V333.487z"/>
			<path fill="#FBE4A8" d="M862.838,335.582c0,3.364,0.857,5.813,2.57,7.348c1.715,1.534,4.147,2.301,7.301,2.301
				c1.861,0,4.046-0.232,6.554-0.698c2.507-0.466,5.337-1.175,8.489-2.126v13.806c-6.348,1.926-12.452,2.888-18.312,2.888
				c-3.64,0-7.025-0.428-10.156-1.285c-3.132-0.857-5.851-2.27-8.156-4.236c-2.307-1.969-4.121-4.449-5.443-7.443
				c-1.323-2.994-1.984-6.512-1.984-10.553c0-3.999,0.608-7.443,1.825-10.33c1.217-2.889,2.941-5.27,5.174-7.143
				c2.231-1.871,4.914-3.252,8.046-4.141c3.131-0.889,6.622-1.334,10.473-1.334c2.35,0,4.47,0.117,6.364,0.35
				c1.894,0.232,3.597,0.529,5.109,0.889s2.846,0.757,3.999,1.189c1.153,0.435,2.174,0.853,3.062,1.254v13.807h-8.981
				c-1.016-1.396-2.138-2.428-3.364-3.094c-1.228-0.668-2.508-1-3.84-1c-1.101,0-2.175,0.211-3.222,0.635
				c-1.048,0.423-1.979,1.042-2.793,1.855c-0.815,0.815-1.471,1.815-1.968,3C863.086,332.705,862.838,334.059,862.838,335.582z"/>
			<path fill="#FBE4A8" d="M926.448,358.529l-1.587-7.522h-12.474l-1.586,7.522h-16.98v-14.727l3.682-0.73l8.791-29.23h24.629
				l8.855,29.23l3.65,0.73v14.727H926.448z M914.324,340.978h8.601l-4.316-17.552L914.324,340.978z"/>
			<path fill="#FBE4A8" d="M965.048,335.074v10.061l3.841,0.699v12.695h-19.107v-12.664l3.809-0.73v-18.059l-3.809-0.73v-12.504
				h22.916l15.266,24.089V327.14l-3.809-0.794v-12.504h19.074v12.504l-3.809,0.73v18.059l3.809,0.73v12.664h-22.914L965.048,335.074
				z"/>
			<path fill="#FBE4A8" d="M496.522,409.469c0,1.968-0.28,3.709-0.841,5.221c-0.562,1.514-1.323,2.824-2.285,3.936
				c-0.963,1.111-2.105,2.037-3.428,2.777c-1.323,0.74-2.746,1.338-4.27,1.793s-3.115,0.719-4.776,0.793s-3.316,0.111-4.967,0.111
				c-2.285,0-4.349-0.053-6.188-0.158c-1.842-0.105-3.486-0.338-4.936-0.697c-1.45-0.361-2.729-0.758-3.841-1.191
				c-1.11-0.434-2.09-0.861-2.936-1.285v-11.014h8.981c0.889,1.396,1.904,2.424,3.047,3.079c1.143,0.656,2.317,0.983,3.523,0.983
				c0.359,0,0.762-0.031,1.206-0.095s0.856-0.265,1.237-0.603c0.381-0.339,0.704-0.862,0.969-1.572
				c0.264-0.708,0.396-1.707,0.396-2.998c-1.714-0.148-3.412-0.365-5.094-0.65c-1.683-0.287-3.291-0.672-4.824-1.159
				c-1.534-0.486-2.957-1.105-4.27-1.856c-1.312-0.751-2.449-1.661-3.411-2.73c-0.963-1.067-1.72-2.326-2.27-3.775
				c-0.551-1.449-0.825-3.116-0.825-5c0-2.158,0.274-4.047,0.825-5.664c0.55-1.619,1.302-3.01,2.253-4.174
				c0.953-1.164,2.079-2.127,3.381-2.889c1.301-0.762,2.702-1.365,4.205-1.809c1.502-0.445,3.067-0.757,4.697-0.938
				c1.629-0.179,3.258-0.27,4.888-0.27c2.306,0,4.374,0.117,6.205,0.35c1.83,0.232,3.47,0.529,4.919,0.889s2.729,0.757,3.841,1.189
				c1.11,0.435,2.1,0.853,2.968,1.254v11.109h-9.617c-0.805-1.523-1.725-2.635-2.762-3.333c-1.036-0.698-2.094-1.048-3.174-1.048
				c-0.359,0-0.772,0.059-1.237,0.176c-0.466,0.115-0.899,0.375-1.302,0.777c-0.401,0.402-0.74,0.994-1.016,1.777
				c-0.274,0.783-0.412,1.84-0.412,3.174c3.491,0.127,6.554,0.497,9.188,1.11c2.634,0.614,4.84,1.528,6.617,2.745
				s3.11,2.783,3.999,4.697C496.078,404.418,496.522,406.739,496.522,409.469z"/>
			<path fill="#FBE4A8" d="M521.284,400.582c0,3.364,0.857,5.813,2.57,7.348c1.715,1.534,4.147,2.301,7.301,2.301
				c1.861,0,4.046-0.232,6.554-0.698c2.507-0.466,5.337-1.175,8.489-2.126v13.807c-6.348,1.924-12.452,2.887-18.312,2.887
				c-3.64,0-7.025-0.428-10.156-1.285c-3.132-0.857-5.851-2.27-8.156-4.236c-2.307-1.969-4.121-4.449-5.443-7.443
				c-1.323-2.994-1.984-6.512-1.984-10.553c0-3.999,0.608-7.443,1.825-10.33c1.217-2.889,2.941-5.27,5.174-7.143
				c2.231-1.871,4.914-3.252,8.046-4.141c3.131-0.889,6.622-1.334,10.473-1.334c2.35,0,4.47,0.117,6.364,0.35
				c1.894,0.232,3.597,0.529,5.109,0.889s2.846,0.757,3.999,1.189c1.153,0.435,2.174,0.853,3.062,1.254v13.807h-8.981
				c-1.016-1.396-2.138-2.428-3.364-3.094c-1.228-0.668-2.508-1-3.84-1c-1.101,0-2.175,0.211-3.222,0.635
				c-1.048,0.423-1.979,1.042-2.793,1.855c-0.815,0.815-1.471,1.815-1.968,3C521.532,397.705,521.284,399.059,521.284,400.582z"/>
			<path fill="#FBE4A8" d="M584.893,423.529l-1.587-7.522h-12.474l-1.586,7.522h-16.98v-14.727l3.682-0.73l8.791-29.23h24.629
				l8.855,29.23l3.65,0.73v14.727H584.893z M572.769,405.978h8.601l-4.316-17.552L572.769,405.978z"/>
			<path fill="#FBE4A8" d="M657.835,423.529h-18.979c-0.593-1.1-1.206-2.27-1.841-3.508s-1.249-2.533-1.841-3.888
				c-0.593-1.354-1.148-2.751-1.666-4.189c-0.519-1.438-0.958-2.92-1.317-4.443h-1.047v16.028h-22.916v-12.664l3.809-0.73v-18.059
				l-3.809-0.73v-12.504h25.994c3.448,0,6.427,0.148,8.935,0.443c2.507,0.297,4.634,0.73,6.379,1.302
				c1.746,0.571,3.158,1.265,4.237,2.079s1.92,1.734,2.523,2.762c0.603,1.025,1.01,2.152,1.222,3.379
				c0.211,1.229,0.317,2.529,0.317,3.904c0,1.396-0.133,2.666-0.396,3.809c-0.265,1.143-0.735,2.189-1.412,3.143
				c-0.678,0.951-1.604,1.824-2.777,2.617c-1.175,0.795-2.672,1.54-4.491,2.238c0.381,0.762,0.946,1.666,1.698,2.713
				c0.751,1.049,1.57,2.117,2.459,3.207s1.772,2.142,2.65,3.157s1.635,1.884,2.27,2.603V423.529z M631.143,398.9
				c1.163,0,2.216-0.059,3.157-0.176c0.941-0.115,1.746-0.369,2.412-0.762c0.667-0.391,1.18-0.967,1.54-1.729
				c0.359-0.762,0.539-1.788,0.539-3.079c0-1.27-0.18-2.285-0.539-3.047c-0.36-0.762-0.873-1.349-1.54-1.761
				c-0.666-0.414-1.471-0.684-2.412-0.811s-1.994-0.189-3.157-0.189V398.9z"/>
			<path fill="#FBE4A8" d="M687.707,398.487l8.792-1.872v9.045l-8.792-1.904v7.014c1.27,0,2.496-0.09,3.682-0.27
				c1.185-0.18,2.285-0.428,3.301-0.746c1.016-0.316,1.946-0.688,2.793-1.11c0.846-0.423,1.576-0.878,2.19-1.364h4.348v16.25
				h-39.229v-12.664l3.809-0.73V392.14l-3.809-0.729v-12.568h39.229v16.25h-4.348c-0.614-0.466-1.345-0.91-2.19-1.334
				c-0.847-0.422-1.777-0.793-2.793-1.11s-2.116-0.571-3.301-0.762c-1.186-0.19-2.412-0.286-3.682-0.286V398.487z"/>
			<path fill="#FBE4A8" d="M763.383,423.529l-1.587-7.522h-12.474l-1.586,7.522h-16.98v-14.727l3.682-0.73l8.791-29.23h24.629
				l8.855,29.23l3.65,0.73v14.727H763.383z M751.259,405.978h8.601l-4.316-17.552L751.259,405.978z"/>
			<path fill="#FBE4A8" d="M797.508,423.561l-12.188-31.516l-4.539-0.699v-12.504h28.978v12.504l-3.301,0.699l5.173,16.631
				l5.174-16.631l-3.301-0.699v-12.504h28.977v12.504l-3.269,0.699l5.142,16.631l5.174-16.631l-3.301-0.699v-12.663h21.963v12.663
				l-4.508,0.699l-12.188,31.516h-21.232l-5.776-17.17l-5.713,17.17H797.508z"/>
			<path fill="#FBE4A8" d="M901.236,423.529l-1.587-7.522h-12.474l-1.586,7.522h-16.98v-14.727l3.682-0.73l8.791-29.23h24.629
				l8.855,29.23l3.65,0.73v14.727H901.236z M889.112,405.978h8.601l-4.316-17.552L889.112,405.978z"/>
			<path fill="#FBE4A8" d="M932.092,423.529v-12.601l3.809-0.952l-13.107-17.932l-4.824-0.699v-12.504h25.486v12.504l-2.984,0.699
				l6.062,9.172l6.03-9.172l-2.983-0.699v-12.504h25.454v12.504l-4.792,0.699l-13.108,17.932l3.841,0.952v12.601H932.092z"/>
			<path fill="#FBE4A8" d="M467.925,455.649c-1.1,0-2.073,0.148-2.92,0.443c-0.846,0.297-1.555,0.668-2.126,1.111
				c-0.571,0.445-1.005,0.926-1.302,1.443c-0.296,0.52-0.443,1-0.443,1.445h-5.301v-16.25h43.291v16.25h-5.301
				c0-0.445-0.147-0.926-0.443-1.445c-0.297-0.518-0.73-0.998-1.302-1.443c-0.571-0.443-1.28-0.814-2.126-1.111
				c-0.847-0.295-1.82-0.443-2.92-0.443v19.486l3.809,0.73v12.664h-26.725v-12.664l3.809-0.73V455.649z"/>
			<path fill="#FBE4A8" d="M505.066,443.842h26.724v12.568l-3.809,0.73v5.236h15.267v-5.236l-3.809-0.73v-12.727h26.723v12.727
				l-3.809,0.73v17.994l3.809,0.73v12.664h-26.723v-12.664l3.809-0.73v-5.299h-15.267v5.299l3.809,0.73v12.664h-26.724v-12.664
				l3.809-0.73v-17.994l-3.809-0.73V443.842z"/>
			<path fill="#FBE4A8" d="M596.796,463.488l8.792-1.873v9.045l-8.792-1.904v7.014c1.27,0,2.496-0.09,3.682-0.27
				c1.185-0.18,2.285-0.428,3.301-0.746c1.016-0.316,1.946-0.688,2.793-1.109c0.846-0.424,1.576-0.879,2.19-1.365h4.348v16.25
				h-39.229v-12.664l3.809-0.73v-17.994l-3.809-0.73v-12.568h39.229v16.25h-4.348c-0.614-0.465-1.345-0.91-2.19-1.334
				c-0.847-0.422-1.777-0.793-2.793-1.109c-1.016-0.318-2.116-0.572-3.301-0.762c-1.186-0.191-2.412-0.287-3.682-0.287V463.488z"/>
			<path fill="#FBE4A8" d="M655.461,488.561l-12.188-31.516l-4.539-0.699v-12.504h28.978v12.504l-3.301,0.699l5.173,16.631
				l5.174-16.631l-3.301-0.699v-12.504h28.977v12.504l-3.269,0.699l5.142,16.631l5.174-16.631l-3.301-0.699v-12.662h21.963v12.662
				l-4.508,0.699l-12.188,31.516h-21.232l-5.776-17.17l-5.713,17.17H655.461z"/>
			<path fill="#FBE4A8" d="M756.459,489.1c-3.724,0-7.21-0.396-10.457-1.189c-3.248-0.793-6.073-2.158-8.475-4.094
				c-2.401-1.938-4.295-4.406-5.681-7.412c-1.387-3.004-2.079-6.611-2.079-10.822c0-4.125,0.692-7.643,2.079-10.553
				c1.386-2.91,3.284-5.279,5.696-7.109s5.237-3.168,8.475-4.016c3.237-0.846,6.718-1.27,10.441-1.27
				c3.703,0,7.179,0.424,10.427,1.27c3.247,0.848,6.083,2.186,8.506,4.016c2.422,1.83,4.332,4.199,5.729,7.109
				s2.095,6.428,2.095,10.553c0,2.793-0.317,5.326-0.952,7.602s-1.529,4.295-2.682,6.062c-1.153,1.766-2.539,3.289-4.158,4.57
				c-1.618,1.279-3.423,2.338-5.411,3.174c-1.989,0.836-4.126,1.396-6.411,1.682S758.935,489.1,756.459,489.1z M756.459,456.156
				c-1.248,0-2.301,0.158-3.157,0.477c-0.857,0.316-1.566,0.729-2.127,1.236s-0.999,1.09-1.317,1.746
				c-0.316,0.656-0.545,1.328-0.682,2.016c-0.138,0.688-0.223,1.365-0.254,2.031c-0.032,0.666-0.048,1.254-0.048,1.762
				c0,0.486,0.011,1.062,0.032,1.729c0.021,0.668,0.095,1.365,0.222,2.096s0.338,1.455,0.635,2.174
				c0.296,0.719,0.725,1.365,1.285,1.936c0.561,0.572,1.28,1.031,2.158,1.381s1.963,0.523,3.253,0.523
				c1.27,0,2.344-0.168,3.222-0.508c0.878-0.338,1.598-0.787,2.158-1.348s1-1.191,1.317-1.889c0.317-0.699,0.545-1.402,0.683-2.111
				c0.137-0.709,0.222-1.4,0.254-2.078c0.031-0.678,0.048-1.26,0.048-1.746c0-0.508-0.017-1.096-0.048-1.762
				c-0.032-0.666-0.117-1.348-0.254-2.047c-0.138-0.697-0.365-1.381-0.683-2.047s-0.757-1.264-1.317-1.793s-1.28-0.957-2.158-1.285
				S757.728,456.156,756.459,456.156z"/>
			<path fill="#FBE4A8" d="M812.23,476.342c0.889,0,1.734-0.121,2.539-0.365c0.804-0.244,1.55-0.561,2.237-0.953
				c0.688-0.391,1.312-0.824,1.873-1.301c0.561-0.477,1.052-0.957,1.476-1.443h5.3v16.25h-36.309v-12.664l3.809-0.73v-18.059
				l-3.809-0.73v-12.504h26.725v12.504l-3.841,0.73V476.342z"/>
			<path fill="#FBE4A8" d="M854.449,464.44l8.125-1.873v9.682l-8.125-1.904v4.791l3.809,0.826v12.568h-26.724v-12.664l3.809-0.73
				v-17.994l-3.809-0.73v-12.568h36.912v16.25h-5.301c-0.91-0.953-2.105-1.771-3.586-2.461c-1.481-0.688-3.186-1.031-5.11-1.031
				V464.44z"/>
			<path fill="#FBE4A8" d="M910.098,488.561l-12.188-31.516l-4.539-0.699v-12.504h28.978v12.504l-3.301,0.699l5.173,16.631
				l5.174-16.631l-3.301-0.699v-12.504h28.977v12.504l-3.269,0.699l5.142,16.631l5.174-16.631l-3.301-0.699v-12.662h21.963v12.662
				l-4.508,0.699l-12.188,31.516h-21.232l-5.776-17.17l-5.713,17.17H910.098z"/>
			<path fill="#FBE4A8" d="M986.022,443.842h26.725v12.504l-3.809,0.73v18.059l3.809,0.73v12.664h-26.725v-12.664l3.809-0.73
				v-18.059l-3.809-0.73V443.842z"/>
			<path fill="#FBE4A8" d="M1030.811,455.649c-1.1,0-2.073,0.148-2.92,0.443c-0.846,0.297-1.555,0.668-2.126,1.111
				c-0.571,0.445-1.005,0.926-1.302,1.443c-0.296,0.52-0.443,1-0.443,1.445h-5.301v-16.25h43.291v16.25h-5.301
				c0-0.445-0.147-0.926-0.443-1.445c-0.297-0.518-0.73-0.998-1.302-1.443c-0.571-0.443-1.28-0.814-2.126-1.111
				c-0.847-0.295-1.82-0.443-2.92-0.443v19.486l3.809,0.73v12.664h-26.725v-12.664l3.809-0.73V455.649z"/>
			<path fill="#FBE4A8" d="M1067.952,443.842h26.724v12.568l-3.809,0.73v5.236h15.267v-5.236l-3.809-0.73v-12.727h26.723v12.727
				l-3.809,0.73v17.994l3.809,0.73v12.664h-26.723v-12.664l3.809-0.73v-5.299h-15.267v5.299l3.809,0.73v12.664h-26.724v-12.664
				l3.809-0.73v-17.994l-3.809-0.73V443.842z"/>
			<path fill="#FBE4A8" d="M467.925,520.648c-1.1,0-2.073,0.148-2.92,0.443c-0.846,0.297-1.555,0.668-2.126,1.111
				c-0.571,0.445-1.005,0.926-1.302,1.443c-0.296,0.52-0.443,1-0.443,1.445h-5.301v-16.25h43.291v16.25h-5.301
				c0-0.445-0.147-0.926-0.443-1.445c-0.297-0.518-0.73-0.998-1.302-1.443c-0.571-0.443-1.28-0.814-2.126-1.111
				c-0.847-0.295-1.82-0.443-2.92-0.443v19.486l3.809,0.73v12.664h-26.725v-12.664l3.809-0.73V520.648z"/>
			<path fill="#FBE4A8" d="M505.066,508.842h26.724v12.568l-3.809,0.73v5.236h15.267v-5.236l-3.809-0.73v-12.727h26.723v12.727
				l-3.809,0.73v17.994l3.809,0.73v12.664h-26.723v-12.664l3.809-0.73v-5.299h-15.267v5.299l3.809,0.73v12.664h-26.724v-12.664
				l3.809-0.73v-17.994l-3.809-0.73V508.842z"/>
			<path fill="#FBE4A8" d="M573.913,508.842h26.725v12.504l-3.809,0.73v18.059l3.809,0.73v12.664h-26.725v-12.664l3.809-0.73
				v-18.059l-3.809-0.73V508.842z"/>
			<path fill="#FBE4A8" d="M647.298,539.469c0,1.969-0.28,3.709-0.841,5.221c-0.562,1.514-1.323,2.824-2.285,3.936
				c-0.963,1.111-2.105,2.037-3.428,2.777c-1.323,0.74-2.746,1.338-4.27,1.793s-3.115,0.719-4.776,0.793s-3.316,0.111-4.967,0.111
				c-2.285,0-4.349-0.053-6.188-0.158c-1.842-0.105-3.486-0.338-4.936-0.697c-1.45-0.361-2.729-0.758-3.841-1.191
				c-1.11-0.434-2.09-0.861-2.936-1.285v-11.014h8.981c0.889,1.396,1.904,2.424,3.047,3.08c1.143,0.654,2.317,0.982,3.523,0.982
				c0.359,0,0.762-0.031,1.206-0.094c0.444-0.064,0.856-0.266,1.237-0.604s0.704-0.863,0.969-1.572
				c0.264-0.707,0.396-1.707,0.396-2.998c-1.714-0.148-3.412-0.365-5.094-0.65c-1.683-0.287-3.291-0.672-4.824-1.158
				c-1.534-0.488-2.957-1.105-4.27-1.857c-1.312-0.752-2.449-1.66-3.411-2.73c-0.963-1.068-1.72-2.326-2.27-3.775
				c-0.551-1.449-0.825-3.115-0.825-5c0-2.158,0.274-4.047,0.825-5.664c0.55-1.619,1.302-3.01,2.253-4.174
				c0.953-1.164,2.079-2.127,3.381-2.889c1.301-0.762,2.702-1.365,4.205-1.809c1.502-0.445,3.067-0.756,4.697-0.938
				c1.629-0.18,3.258-0.27,4.888-0.27c2.306,0,4.374,0.117,6.205,0.35c1.83,0.232,3.47,0.529,4.919,0.889s2.729,0.756,3.841,1.189
				c1.11,0.436,2.1,0.854,2.968,1.254v11.109h-9.617c-0.805-1.523-1.725-2.635-2.762-3.332c-1.036-0.699-2.094-1.049-3.174-1.049
				c-0.359,0-0.772,0.059-1.237,0.176c-0.466,0.115-0.899,0.375-1.302,0.777c-0.401,0.402-0.74,0.994-1.016,1.777
				c-0.274,0.783-0.412,1.84-0.412,3.174c3.491,0.127,6.554,0.496,9.188,1.111c2.634,0.613,4.84,1.527,6.617,2.744
				s3.11,2.783,3.999,4.697C646.854,534.418,647.298,536.74,647.298,539.469z"/>
			<path fill="#FBE4A8" d="M685.809,520.648c-1.1,0-2.073,0.148-2.92,0.443c-0.846,0.297-1.555,0.668-2.126,1.111
				c-0.571,0.445-1.005,0.926-1.302,1.443c-0.296,0.52-0.443,1-0.443,1.445h-5.301v-16.25h43.291v16.25h-5.301
				c0-0.445-0.147-0.926-0.443-1.445c-0.297-0.518-0.73-0.998-1.302-1.443c-0.571-0.443-1.28-0.814-2.126-1.111
				c-0.847-0.295-1.82-0.443-2.92-0.443v19.486l3.809,0.73v12.664h-26.725v-12.664l3.809-0.73V520.648z"/>
			<path fill="#FBE4A8" d="M748.499,554.1c-3.724,0-7.21-0.396-10.457-1.189c-3.248-0.793-6.073-2.158-8.475-4.094
				c-2.401-1.938-4.295-4.406-5.681-7.412c-1.387-3.004-2.079-6.611-2.079-10.822c0-4.125,0.692-7.643,2.079-10.553
				c1.386-2.91,3.284-5.279,5.696-7.109c2.412-1.83,5.237-3.168,8.475-4.016c3.237-0.846,6.718-1.27,10.441-1.27
				c3.703,0,7.179,0.424,10.427,1.27c3.247,0.848,6.083,2.186,8.506,4.016c2.422,1.83,4.332,4.199,5.729,7.109
				s2.095,6.428,2.095,10.553c0,2.793-0.317,5.326-0.952,7.602s-1.529,4.295-2.682,6.062c-1.153,1.766-2.539,3.289-4.158,4.57
				c-1.618,1.279-3.423,2.338-5.411,3.174c-1.989,0.836-4.126,1.396-6.411,1.682S750.975,554.1,748.499,554.1z M748.499,521.156
				c-1.248,0-2.301,0.158-3.157,0.477c-0.857,0.316-1.566,0.729-2.127,1.236s-0.999,1.09-1.317,1.746
				c-0.316,0.656-0.545,1.328-0.682,2.016c-0.138,0.688-0.223,1.365-0.254,2.031c-0.032,0.666-0.048,1.254-0.048,1.762
				c0,0.486,0.011,1.062,0.032,1.729c0.021,0.668,0.095,1.365,0.222,2.096s0.338,1.455,0.635,2.174
				c0.296,0.719,0.725,1.365,1.285,1.936c0.561,0.572,1.28,1.031,2.158,1.381s1.963,0.523,3.253,0.523
				c1.27,0,2.344-0.168,3.222-0.508c0.878-0.338,1.598-0.787,2.158-1.348s1-1.191,1.317-1.889c0.317-0.699,0.545-1.402,0.683-2.111
				c0.137-0.709,0.222-1.4,0.254-2.078c0.031-0.678,0.048-1.26,0.048-1.746c0-0.508-0.017-1.096-0.048-1.762
				c-0.032-0.666-0.117-1.348-0.254-2.047c-0.138-0.697-0.365-1.381-0.683-2.047s-0.757-1.264-1.317-1.793s-1.28-0.957-2.158-1.285
				S749.768,521.156,748.499,521.156z"/>
			<path fill="#FBE4A8" d="M830.994,553.529h-18.979c-0.593-1.1-1.206-2.27-1.841-3.508s-1.249-2.533-1.841-3.887
				c-0.593-1.355-1.148-2.752-1.666-4.189c-0.519-1.439-0.958-2.92-1.317-4.443h-1.047v16.027h-22.916v-12.664l3.809-0.73v-18.059
				l-3.809-0.73v-12.504h25.994c3.448,0,6.427,0.148,8.935,0.443c2.507,0.297,4.634,0.73,6.379,1.303
				c1.746,0.57,3.158,1.264,4.237,2.078c1.079,0.814,1.92,1.734,2.523,2.762c0.603,1.025,1.01,2.152,1.222,3.379
				c0.211,1.229,0.317,2.529,0.317,3.904c0,1.396-0.133,2.666-0.396,3.809c-0.265,1.143-0.735,2.189-1.412,3.143
				c-0.678,0.951-1.604,1.824-2.777,2.617c-1.175,0.795-2.672,1.541-4.491,2.238c0.381,0.762,0.946,1.666,1.698,2.713
				c0.751,1.049,1.57,2.117,2.459,3.207s1.772,2.143,2.65,3.158s1.635,1.883,2.27,2.602V553.529z M804.302,528.9
				c1.163,0,2.216-0.059,3.157-0.176c0.941-0.115,1.746-0.369,2.412-0.762c0.667-0.391,1.18-0.967,1.54-1.729
				c0.359-0.762,0.539-1.789,0.539-3.078c0-1.27-0.18-2.285-0.539-3.047c-0.36-0.762-0.873-1.35-1.54-1.762
				c-0.666-0.414-1.471-0.684-2.412-0.811s-1.994-0.189-3.157-0.189V528.9z"/>
			<path fill="#FBE4A8" d="M855.692,530.582c0,3.365,0.857,5.814,2.57,7.348c1.715,1.533,4.147,2.301,7.301,2.301
				c1.861,0,4.046-0.232,6.554-0.697c2.507-0.467,5.337-1.176,8.489-2.127v13.807c-6.348,1.924-12.452,2.887-18.312,2.887
				c-3.64,0-7.025-0.428-10.156-1.285c-3.132-0.857-5.851-2.27-8.156-4.236c-2.307-1.969-4.121-4.449-5.443-7.443
				c-1.323-2.994-1.984-6.512-1.984-10.553c0-3.998,0.608-7.443,1.825-10.33c1.217-2.889,2.941-5.27,5.174-7.143
				c2.231-1.871,4.914-3.252,8.046-4.141c3.131-0.889,6.622-1.334,10.473-1.334c2.35,0,4.47,0.117,6.364,0.35
				c1.894,0.232,3.597,0.529,5.109,0.889s2.846,0.756,3.999,1.189c1.153,0.436,2.174,0.854,3.062,1.254v13.807h-8.981
				c-1.016-1.396-2.138-2.428-3.364-3.094c-1.228-0.668-2.508-1-3.84-1c-1.101,0-2.175,0.211-3.222,0.635
				c-1.048,0.424-1.979,1.041-2.793,1.855c-0.815,0.816-1.471,1.814-1.968,3C855.94,527.705,855.692,529.059,855.692,530.582z"/>
			<path fill="#FBE4A8" d="M888.071,508.842h26.724v12.568l-3.809,0.73v5.236h15.267v-5.236l-3.809-0.73v-12.727h26.723v12.727
				l-3.809,0.73v17.994l3.809,0.73v12.664h-26.723v-12.664l3.809-0.73v-5.299h-15.267v5.299l3.809,0.73v12.664h-26.724v-12.664
				l3.809-0.73v-17.994l-3.809-0.73V508.842z"/>
			<path fill="#FBE4A8" d="M956.758,517.443v-12.664h24.406v12.664l-4.062,19.836h-16.25L956.758,517.443z M958.821,541.342h20.312
				v12.188h-20.312V541.342z"/>
		</g>
	</g>
</g>
<g id="fonts" display="none">
	<polygon display="inline" fill="#A85C22" points="646.946,618.774 426.475,655.857 664.2,776.034 664.2,652.446 	"/>
	<polygon display="inline" fill="#A85C22" points="1088.566,193.683 1143.586,149.149 927.787,40.732 914.073,204.454 	"/>
	<linearGradient id="SVGID_4_" gradientUnits="userSpaceOnUse" x1="622.0936" y1="749.7307" x2="548.7391" y2="818.3079">
		<stop  offset="0" style="stop-color:#B77430"/>
		<stop  offset="0.358" style="stop-color:#BF7A31"/>
		<stop  offset="0.567" style="stop-color:#C78032"/>
		<stop  offset="1" style="stop-color:#D19853"/>
	</linearGradient>
	<polygon display="inline" fill="url(#SVGID_4_)" points="664.2,776.034 511.229,804.039 573.021,729.94 	"/>
	<linearGradient id="SVGID_6_" gradientUnits="userSpaceOnUse" x1="360.432" y1="402.503" x2="1209.2041" y2="402.503">
		<stop  offset="0" style="stop-color:#B77430"/>
		<stop  offset="0.358" style="stop-color:#BF7A31"/>
		<stop  offset="0.567" style="stop-color:#C78032"/>
		<stop  offset="1" style="stop-color:#D19853"/>
	</linearGradient>
	<polygon display="inline" fill="url(#SVGID_6_)" points="360.432,228.856 1143.586,149.149 1209.204,644.625 426.475,655.857 	"/>
	<g display="inline">
		<rect x="454.564" y="313.777" fill="none" width="700.065" height="312.446"/>
		<text transform="matrix(1 0 0 1 454.564 358.5289)"><tspan x="0" y="0" fill="#FBE4A8" font-family="'HoltwoodOneSC'" font-size="65" letter-spacing="1">I bet we can </tspan><tspan x="0" y="65" fill="#FBE4A8" font-family="'HoltwoodOneSC'" font-size="65" letter-spacing="1">scare away </tspan><tspan x="0" y="130" fill="#FBE4A8" font-family="'HoltwoodOneSC'" font-size="65" letter-spacing="1">the wolf with </tspan><tspan x="0" y="195" fill="#FBE4A8" font-family="'HoltwoodOneSC'" font-size="65" letter-spacing="1">this torch!</tspan></text>
	</g>
</g>
</svg>
