<?xml version="1.0" encoding="utf-8"?>
<!-- Generator: Adobe Illustrator 17.0.0, SVG Export Plug-In . SVG Version: 6.00 Build 0)  -->
<!DOCTYPE svg PUBLIC "-//W3C//DTD SVG 1.1//EN" "http://www.w3.org/Graphics/SVG/1.1/DTD/svg11.dtd">
<svg version="1.1" xmlns="http://www.w3.org/2000/svg" xmlns:xlink="http://www.w3.org/1999/xlink" x="0px" y="0px" width="1600px"
	 height="900px" viewBox="0 0 1600 900" enable-background="new 0 0 1600 900" xml:space="preserve">
<g id="Layer_6" display="none">
</g>
<g id="measurement_x5F_tools">
	<polygon fill="#A85C22" points="646.946,618.774 426.475,655.857 664.2,776.034 664.2,652.446 	"/>
	<polygon fill="#A85C22" points="1088.566,193.683 1143.586,149.149 927.787,40.732 914.073,204.454 	"/>
	<linearGradient id="SVGID_1_" gradientUnits="userSpaceOnUse" x1="622.0936" y1="749.7307" x2="548.7391" y2="818.3079">
		<stop  offset="0" style="stop-color:#B77430"/>
		<stop  offset="0.358" style="stop-color:#BF7A31"/>
		<stop  offset="0.567" style="stop-color:#C78032"/>
		<stop  offset="1" style="stop-color:#D19853"/>
	</linearGradient>
	<polygon fill="url(#SVGID_1_)" points="664.2,776.034 511.229,804.039 573.021,729.94 	"/>
	<linearGradient id="SVGID_3_" gradientUnits="userSpaceOnUse" x1="360.432" y1="402.503" x2="1209.2041" y2="402.503">
		<stop  offset="0" style="stop-color:#B77430"/>
		<stop  offset="0.358" style="stop-color:#BF7A31"/>
		<stop  offset="0.567" style="stop-color:#C78032"/>
		<stop  offset="1" style="stop-color:#D19853"/>
	</linearGradient>
	<polygon fill="url(#SVGID_3_)" points="360.432,228.856 1143.586,149.149 1209.204,644.625 426.475,655.857 	"/>
	<g>
		<rect x="446.564" y="281.777" fill="none" width="732.065" height="312.446"/>
		<text transform="matrix(1 0 0 1 446.564 325.1519)"><tspan x="0" y="0" fill="#FBE4A8" font-family="'HoltwoodOneSC'" font-size="63" letter-spacing="1">I don’t think </tspan><tspan x="0" y="63" fill="#FBE4A8" font-family="'HoltwoodOneSC'" font-size="63" letter-spacing="1">hitting the </tspan><tspan x="0" y="126" fill="#FBE4A8" font-family="'HoltwoodOneSC'" font-size="63" letter-spacing="1">wolf like we </tspan><tspan x="0" y="189" fill="#FBE4A8" font-family="'HoltwoodOneSC'" font-size="63" letter-spacing="1">did the snake is </tspan><tspan x="0" y="252" fill="#FBE4A8" font-family="'HoltwoodOneSC'" font-size="63" letter-spacing="1">a good idea…</tspan></text>
	</g>
</g>
</svg>
