<?xml version="1.0" encoding="utf-8"?>
<!-- Generator: Adobe Illustrator 17.0.0, SVG Export Plug-In . SVG Version: 6.00 Build 0)  -->
<!DOCTYPE svg PUBLIC "-//W3C//DTD SVG 1.1//EN" "http://www.w3.org/Graphics/SVG/1.1/DTD/svg11.dtd">
<svg version="1.1" xmlns="http://www.w3.org/2000/svg" xmlns:xlink="http://www.w3.org/1999/xlink" x="0px" y="0px" width="1600px"
	 height="900px" viewBox="0 0 1600 900" enable-background="new 0 0 1600 900" xml:space="preserve">
<g id="Layer_6" display="none">
	<g display="inline">
		<rect x="0" y="0.001" fill="#FBE4A8" width="1603.089" height="899.998"/>
		<radialGradient id="SVGID_1_" cx="803.0887" cy="342.8386" r="316.6649" gradientUnits="userSpaceOnUse">
			<stop  offset="0" style="stop-color:#FBE4CE"/>
			<stop  offset="0.5397" style="stop-color:#F2E7CE"/>
			<stop  offset="1" style="stop-color:#FFFFFF"/>
		</radialGradient>
		<circle fill="url(#SVGID_1_)" cx="803.089" cy="342.839" r="316.665"/>
		<g>
			<defs>
				<rect id="SVGID_14_" x="0" y="0.001" width="1603.089" height="899.998"/>
			</defs>
			<clipPath id="SVGID_3_">
				<use xlink:href="#SVGID_14_"  overflow="visible"/>
			</clipPath>
			<g clip-path="url(#SVGID_3_)">
				<g>
					<g>
						<polygon fill="#D19853" points="-1601.683,91.094 -1372.658,200.334 -1093.942,159.419 -726.206,283.391 -389.982,207.719 
							-17.945,285.727 501.107,180.716 1039.317,307.616 1443.317,187.616 2015.317,299.616 2335.317,183.616 2731.317,283.616 
							3198.317,91.094 3198.317,899.999 -1601.683,899.999 						"/>
						<polygon fill="#C18749" points="1039.317,307.616 1476.07,392.708 1095.662,290.879 						"/>
					</g>
				</g>
				<g>
					<g>
						<polygon fill="#C78032" points="-1601.683,327.616 -1315.898,267.397 -640.683,395.616 -240.683,267.397 127.317,367.616 
							657.122,267.397 1323.317,415.616 1668.224,285.727 2040.261,405.739 2247.317,303.048 2633.638,385.415 3003.357,267.397 
							3198.188,327.616 3198.317,899.999 -1601.683,899.999 						"/>
						<polygon fill="#B77430" points="127.317,367.616 -70.683,397.118 71.317,354.791 						"/>
						<polygon fill="#B77430" points="1323.317,415.616 1498.889,451.714 1372.436,397.118 						"/>
					</g>
				</g>
				<g>
					<g>
						<polygon fill="#BF672B" points="-1601.683,495.546 -1384.683,402.999 -1096.683,544.706 -876.683,449.999 -496.683,603.616 
							-264.683,495.616 127.317,551.616 395.317,383.616 763.317,515.616 1043.317,423.616 1703.317,567.616 1967.317,449.999 
							2247.317,527.616 2455.317,419.616 2827.317,491.616 3071.317,327.616 3198.087,495.546 3198.317,899.999 -1601.683,899.999 
													"/>
						<polygon fill="#A85C22" points="127.317,551.616 -35.683,619.616 78.177,544.596 						"/>
						<polygon fill="#A85C22" points="742.948,508.309 764.651,550.949 785.555,508.309 763.317,515.616 						"/>
					</g>
					<g id="peter_17_">
						<g>
							<path fill="#5E8C57" d="M1522.206,294.876c-13.808,0-25,11.192-25,25c0,0.191-0.424,19.946-9.86,38.819
								c-8.636,17.271-21.875,28.239-40.14,33.159V303.06c0-13.807-11.193-25-25-25s-25,11.193-25,25v148.978
								c-18.265-4.92-31.504-15.887-40.14-33.159c-9.437-18.873-9.86-38.628-9.86-38.819c0-13.808-11.192-25-25-25s-25,11.192-25,25
								c0,3.163,0.425,31.751,15.14,61.181c9.228,18.455,22.073,33.258,38.181,43.995c13.561,9.041,29.193,15.018,46.68,17.873
								v100.126h50v-160.31c17.486-2.854,33.119-8.832,46.68-17.873c16.107-10.737,28.953-25.54,38.181-43.995
								c14.715-29.43,15.14-58.018,15.14-61.181C1547.206,306.068,1536.014,294.876,1522.206,294.876z"/>
							<g>
								<path fill="#475E38" d="M1337.206,380.06c0,0.191,0.424,19.946,9.86,38.819c8.636,17.271,21.875,28.239,40.14,33.159v-3.526
									c-13.193-5.861-23.168-15.69-30.14-29.633c-9.437-18.873-9.86-38.628-9.86-38.819c0-13.808-11.192-25-25-25
									c-1.712,0-3.384,0.173-5,0.501C1328.617,357.877,1337.206,367.964,1337.206,380.06z"/>
								<path fill="#475E38" d="M1437.206,303.06v88.795c3.521-0.948,6.85-2.127,10-3.526V303.06c0-13.807-11.193-25-25-25
									c-1.712,0-3.384,0.173-5,0.501C1428.617,280.877,1437.206,290.965,1437.206,303.06z"/>
								<path fill="#475E38" d="M1522.206,294.876c-1.712,0-3.384,0.173-5,0.501c11.411,2.316,20,12.404,20,24.499
									c0,3.163-0.425,31.751-15.14,61.181c-9.228,18.455-22.073,33.258-38.181,43.995c-13.561,9.041-29.193,15.018-46.68,17.873
									v160.31h10v-160.31c17.486-2.854,33.119-8.832,46.68-17.873c16.107-10.737,28.953-25.54,38.181-43.995
									c14.715-29.43,15.14-58.018,15.14-61.181C1547.206,306.068,1536.014,294.876,1522.206,294.876z"/>
							</g>
						</g>
						<polygon fill="#BCD4E8" points="1441.358,412.503 1431.358,395.182 1441.358,377.862 1461.358,377.862 1471.358,395.182 
							1461.358,412.503 						"/>
						<polygon fill="#BCD4E8" points="1376.382,463.824 1366.382,446.503 1376.382,429.183 1396.382,429.183 1406.382,446.503 
							1396.382,463.824 						"/>
						<polygon fill="#A6AEE8" points="1461.736,401.174 1451.358,407.166 1440.979,401.174 1440.979,389.19 1451.358,383.198 
							1461.736,389.19 						"/>
						<polygon fill="#A6AEE8" points="1396.76,452.495 1386.382,458.487 1376.004,452.495 1376.004,440.511 1386.382,434.519 
							1396.76,440.511 						"/>
					</g>
					<g id="peter_15_">
						<g>
							<path fill="#5E8C57" d="M1614.847,603.772c2.07-6.734,3.189-13.883,3.189-21.296c0-39.978-32.409-72.386-72.386-72.386
								s-72.386,32.408-72.386,72.386c0,7.412,1.119,14.562,3.189,21.296H1614.847z"/>
							<path fill="#475E38" d="M1486.007,567.641c-3.583,0-7.071,0.401-10.433,1.14c-0.85,4.437-1.311,9.011-1.311,13.696
								c0,7.412,1.119,14.562,3.189,21.296h55.372C1527.398,582.984,1508.496,567.641,1486.007,567.641z"/>
							<path fill="#5E8C57" d="M1520.978,621.938c0.434-2.606,0.671-5.278,0.671-8.007c0-26.723-21.663-48.386-48.386-48.386
								c-26.723,0-48.386,21.663-48.386,48.386c0,2.729,0.237,5.401,0.671,8.007H1520.978z"/>
						</g>
						<polygon fill="#BCD4E8" points="1588.036,556.932 1578.036,539.611 1588.036,522.291 1608.036,522.291 1618.036,539.611 
							1608.036,556.932 						"/>
						<polygon fill="#A6AEE8" points="1608.414,545.603 1598.036,551.595 1587.657,545.603 1587.657,533.619 1598.036,527.627 
							1608.414,533.619 						"/>
					</g>
				</g>
			</g>
		</g>
	</g>
	<g display="inline">
		<g>
			<defs>
				<rect id="SVGID_89_" x="2310.876" y="109.836" width="1600" height="899.998"/>
			</defs>
			<clipPath id="SVGID_4_">
				<use xlink:href="#SVGID_89_"  overflow="visible"/>
			</clipPath>
			<g clip-path="url(#SVGID_4_)">
				<g>
					<g>
						<polygon fill="#394E5B" points="-520.245,200.93 -291.22,310.17 -12.504,269.255 355.232,393.227 691.456,317.555 
							1063.493,395.562 1582.545,290.552 2120.755,417.451 2524.755,297.451 3096.755,409.451 3416.755,293.451 3812.755,393.451 
							4279.755,200.93 4279.755,1009.835 -520.245,1009.835 						"/>
						<polygon fill="#2A3B44" points="355.232,393.227 26.755,464.627 313.519,379.164 						"/>
						<polygon fill="#2A3B44" points="1063.493,395.562 889.475,418.117 998.528,381.941 						"/>
					</g>
				</g>
				<g>
					<g>
						<polygon fill="#3F5C63" points="-520.245,437.451 -234.46,377.233 440.755,505.451 840.755,377.233 1208.755,477.451 
							1738.56,377.233 2404.755,525.451 2749.661,395.562 3121.698,515.574 3328.755,412.884 3715.076,495.251 4084.795,377.233 
							4279.626,437.451 4279.755,1009.835 -520.245,1009.835 						"/>
						<polygon fill="#364D51" points="440.755,505.451 84.755,585.451 370.815,492.17 						"/>
						<polygon fill="#364D51" points="1208.755,477.451 1010.755,506.954 1152.755,464.627 						"/>
					</g>
				</g>
				<g>
					<g>
						<polygon fill="#538896" points="-520.245,605.382 -303.245,512.835 -15.245,654.542 204.755,559.835 584.755,713.451 
							816.755,605.451 1208.755,661.451 1476.755,493.451 1844.755,625.451 2124.755,533.451 2784.755,677.451 3048.755,559.835 
							3328.755,637.451 3536.755,529.451 3908.755,601.451 4152.755,437.451 4279.525,605.382 4279.755,1009.835 -520.245,1009.835 
													"/>
						<polygon fill="#426972" points="1208.755,661.451 1045.755,729.451 1159.615,654.431 						"/>
						<polygon fill="#426972" points="584.755,713.451 330.755,828.451 540.864,695.708 						"/>
					</g>
					<g id="peter_43_">
						<g>
							<path fill="#3F5C63" d="M721.685,514.729c-13.807,0-25,11.147-25,24.955c-0.002,0.331-0.433,33.471-16.807,65.28
								c-8.991,17.47-21.13,31.283-36.078,41.057c-13.245,8.66-29.03,14.34-47.115,16.999V439.7c0-13.807-11.193-25-25-25
								s-25,11.193-25,25v122.573c-19.33-4.637-33.237-15.768-42.193-33.68c-9.437-18.873-9.86-38.628-9.86-38.819
								c0-13.808-11.192-25-25-25s-25,11.192-25,25c0,3.163,0.425,31.751,15.14,61.181c9.228,18.455,22.073,33.258,38.181,43.995
								c14.086,9.391,30.42,15.459,48.733,18.172v199.827h50v-99.498c73.413-7.999,110.321-50.917,128.61-87.496
								c21.146-42.293,21.39-84.408,21.39-86.181C746.685,525.968,735.493,514.729,721.685,514.729z"/>
							<g>
								<path fill="#364D51" d="M584.755,439.7v223.321c4.098-0.603,8.071-1.368,11.93-2.281V439.7c0-13.807-11.193-25-25-25
									c-2.056,0-4.053,0.254-5.965,0.722C576.646,418.098,584.755,427.95,584.755,439.7z"/>
								<path fill="#364D51" d="M721.685,514.729c-2.061,0-4.061,0.253-5.977,0.722c10.932,2.681,19.046,12.569,19.046,24.323
									c0,1.772-0.243,43.888-21.39,86.181c-18.29,36.58-55.198,79.497-128.61,87.496v99.498h11.93v-99.498
									c73.413-7.999,110.321-50.917,128.61-87.496c21.146-42.293,21.39-84.408,21.39-86.181
									C746.685,525.968,735.493,514.729,721.685,514.729z"/>
								<path fill="#364D51" d="M482.702,489.774c0,0.191,0.424,19.946,9.86,38.819c8.956,17.912,22.864,29.043,42.193,33.68v-4.013
									c-13.249-5.855-23.272-15.686-30.263-29.667c-9.437-18.873-9.86-38.628-9.86-38.819c0-13.808-11.192-25-25-25
									c-2.056,0-4.053,0.254-5.965,0.722C474.593,468.172,482.702,478.023,482.702,489.774z"/>
							</g>
						</g>
						<g>
							<polygon fill="#538896" points="531.288,578.632 521.288,561.311 531.288,543.99 551.288,543.99 561.288,561.311 
								551.288,578.632 							"/>
							<polygon fill="#426972" points="551.666,567.303 541.288,573.295 530.909,567.303 530.909,555.319 541.288,549.327 
								551.666,555.319 							"/>
						</g>
						<g>
							<polygon fill="#538896" points="590.72,681.16 580.72,663.839 590.72,646.519 610.72,646.519 620.72,663.839 610.72,681.16 
															"/>
							<polygon fill="#426972" points="611.098,669.831 600.72,675.823 590.341,669.831 590.341,657.847 600.72,651.855 
								611.098,657.847 							"/>
						</g>
					</g>
				</g>
			</g>
		</g>
	</g>
</g>
<g id="measurement_x5F_tools">
	<polygon fill="#1D252B" points="1117.876,581.976 753.208,569.377 737.699,761.774 920.999,675.574 	"/>
	<polygon fill="#1D252B" points="617.174,259.507 617.174,139.975 430.476,280.824 541.456,297.975 	"/>
	<linearGradient id="SVGID_6_" gradientUnits="userSpaceOnUse" x1="801.7811" y1="584.2441" x2="981.1327" y2="867.2415">
		<stop  offset="0" style="stop-color:#2A3B44"/>
		<stop  offset="0.3493" style="stop-color:#30424C"/>
		<stop  offset="0.7191" style="stop-color:#394E5B"/>
		<stop  offset="0.7604" style="stop-color:#394E5B"/>
		<stop  offset="1" style="stop-color:#394E5B"/>
	</linearGradient>
	<polygon fill="url(#SVGID_6_)" points="753.208,569.377 1063.841,719.102 737.699,761.774 	"/>
	<linearGradient id="SVGID_7_" gradientUnits="userSpaceOnUse" x1="458.0126" y1="243.1799" x2="1142.4844" y2="500.0302">
		<stop  offset="0" style="stop-color:#3F5C63"/>
		<stop  offset="0.5773" style="stop-color:#3E5A61"/>
		<stop  offset="0.8507" style="stop-color:#3A5459"/>
		<stop  offset="1" style="stop-color:#364D51"/>
	</linearGradient>
	<polygon fill="url(#SVGID_7_)" points="430.476,280.824 1143.586,199.402 1117.876,581.976 501.911,560.694 	"/>
	<rect x="527.376" y="351.554" fill="none" width="556.079" height="312.446"/>
	<text transform="matrix(1 0 0 1 527.3765 396.3058)"><tspan x="0" y="0" fill="#82B3BF" font-family="'HoltwoodOneSC'" font-size="65" letter-spacing="1">What do </tspan><tspan x="0" y="65" fill="#82B3BF" font-family="'HoltwoodOneSC'" font-size="65" letter-spacing="1">we do now?</tspan></text>
</g>
</svg>
