<?xml version="1.0" encoding="utf-8"?>
<!-- Generator: Adobe Illustrator 17.0.0, SVG Export Plug-In . SVG Version: 6.00 Build 0)  -->
<!DOCTYPE svg PUBLIC "-//W3C//DTD SVG 1.1//EN" "http://www.w3.org/Graphics/SVG/1.1/DTD/svg11.dtd">
<svg version="1.1" xmlns="http://www.w3.org/2000/svg" xmlns:xlink="http://www.w3.org/1999/xlink" x="0px" y="0px" width="1600px"
	 height="900px" viewBox="0 0 1600 900" enable-background="new 0 0 1600 900" xml:space="preserve">
<g id="Layer_3" display="none">
	<g display="inline">
		<rect x="-1.544" y="0.001" fill="#FBE4A8" width="1603.089" height="899.998"/>
		<radialGradient id="SVGID_1_" cx="801.5444" cy="342.8386" r="316.6649" gradientUnits="userSpaceOnUse">
			<stop  offset="0" style="stop-color:#FBE4CE"/>
			<stop  offset="0.5397" style="stop-color:#F2E7CE"/>
			<stop  offset="1" style="stop-color:#FFFFFF"/>
		</radialGradient>
		<circle fill="url(#SVGID_1_)" cx="801.544" cy="342.839" r="316.665"/>
		<g>
			<defs>
				<rect id="SVGID_11_" x="-1.544" y="0.001" width="1603.089" height="899.998"/>
			</defs>
			<clipPath id="SVGID_3_">
				<use xlink:href="#SVGID_11_"  overflow="visible"/>
			</clipPath>
			<g clip-path="url(#SVGID_3_)">
				<g>
					<g>
						<polygon fill="#D19853" points="-1603.227,91.094 -1374.202,200.334 -1095.487,159.419 -727.75,283.391 -391.527,207.719 
							-19.49,285.727 499.562,180.716 1037.773,307.616 1441.773,187.616 2013.773,299.616 2333.773,183.616 2729.773,283.616 
							3196.773,91.094 3196.773,899.999 -1603.227,899.999 						"/>
						<polygon fill="#C18749" points="1037.773,307.616 1474.525,392.708 1094.118,290.88 						"/>
					</g>
				</g>
				<g>
					<g>
						<polygon fill="#C78032" points="-1603.227,327.616 -1317.442,267.397 -642.227,395.616 -242.227,267.397 125.773,367.616 
							655.578,267.397 1321.773,415.616 1666.679,285.727 2038.716,405.739 2245.773,303.048 2632.094,385.415 3001.812,267.397 
							3196.644,327.616 3196.773,899.999 -1603.227,899.999 						"/>
						<polygon fill="#B77430" points="125.773,367.616 -72.227,397.118 69.773,354.791 						"/>
						<polygon fill="#B77430" points="1321.773,415.616 1497.344,451.714 1370.891,397.118 						"/>
					</g>
				</g>
				<g>
					<g>
						<polygon fill="#BF672B" points="-1603.227,495.546 -1386.227,402.999 -1098.227,544.706 -878.227,449.999 -498.227,603.616 
							-266.227,495.616 125.773,551.616 393.773,383.616 761.773,515.616 1041.773,423.616 1701.773,567.616 1965.773,449.999 
							2245.773,527.616 2453.773,419.616 2825.773,491.616 3069.773,327.616 3196.542,495.546 3196.773,899.999 -1603.227,899.999 
													"/>
						<polygon fill="#A85C22" points="125.773,551.616 -37.227,619.616 76.633,544.596 						"/>
						<polygon fill="#A85C22" points="741.403,508.309 763.106,550.949 784.01,508.309 761.773,515.616 						"/>
					</g>
					<g id="peter_8_">
						<g>
							<path fill="#5E8C57" d="M1520.662,294.876c-13.808,0-25,11.192-25,25c0,0.191-0.424,19.946-9.86,38.819
								c-8.636,17.271-21.875,28.239-40.14,33.159V303.06c0-13.807-11.193-25-25-25s-25,11.193-25,25v148.978
								c-18.265-4.92-31.504-15.887-40.14-33.159c-9.437-18.873-9.86-38.628-9.86-38.819c0-13.808-11.192-25-25-25s-25,11.192-25,25
								c0,3.163,0.425,31.751,15.14,61.181c9.228,18.455,22.073,33.258,38.181,43.995c13.561,9.041,29.193,15.018,46.68,17.873
								v100.126h50v-160.31c17.486-2.854,33.119-8.832,46.68-17.873c16.107-10.737,28.953-25.54,38.181-43.995
								c14.715-29.43,15.14-58.018,15.14-61.181C1545.662,306.068,1534.469,294.876,1520.662,294.876z"/>
							<g>
								<path fill="#475E38" d="M1335.662,380.06c0,0.191,0.424,19.946,9.86,38.819c8.636,17.271,21.875,28.239,40.14,33.159v-3.526
									c-13.193-5.861-23.168-15.69-30.14-29.633c-9.437-18.873-9.86-38.628-9.86-38.819c0-13.808-11.192-25-25-25
									c-1.712,0-3.384,0.173-5,0.501C1327.073,357.877,1335.662,367.964,1335.662,380.06z"/>
								<path fill="#475E38" d="M1435.662,303.06v88.795c3.521-0.948,6.85-2.127,10-3.526V303.06c0-13.807-11.193-25-25-25
									c-1.712,0-3.384,0.173-5,0.501C1427.073,280.877,1435.662,290.965,1435.662,303.06z"/>
								<path fill="#475E38" d="M1520.662,294.876c-1.712,0-3.384,0.173-5,0.501c11.411,2.316,20,12.404,20,24.499
									c0,3.163-0.425,31.751-15.14,61.181c-9.228,18.455-22.073,33.258-38.181,43.995c-13.561,9.041-29.193,15.018-46.68,17.873
									v160.31h10v-160.31c17.486-2.854,33.119-8.832,46.68-17.873c16.107-10.737,28.953-25.54,38.181-43.995
									c14.715-29.43,15.14-58.018,15.14-61.181C1545.662,306.068,1534.469,294.876,1520.662,294.876z"/>
							</g>
						</g>
						<polygon fill="#BCD4E8" points="1439.813,412.503 1429.813,395.182 1439.813,377.862 1459.813,377.862 1469.813,395.182 
							1459.813,412.503 						"/>
						<polygon fill="#BCD4E8" points="1374.838,463.824 1364.838,446.503 1374.838,429.183 1394.838,429.183 1404.838,446.503 
							1394.838,463.824 						"/>
						<polygon fill="#A6AEE8" points="1460.192,401.174 1449.813,407.166 1439.435,401.174 1439.435,389.19 1449.813,383.198 
							1460.192,389.19 						"/>
						<polygon fill="#A6AEE8" points="1395.216,452.495 1384.838,458.487 1374.459,452.495 1374.459,440.511 1384.838,434.519 
							1395.216,440.511 						"/>
					</g>
					<g id="peter_7_">
						<g>
							<path fill="#5E8C57" d="M1613.302,603.772c2.07-6.734,3.189-13.883,3.189-21.296c0-39.978-32.409-72.386-72.386-72.386
								s-72.386,32.408-72.386,72.386c0,7.412,1.119,14.562,3.189,21.296H1613.302z"/>
							<path fill="#475E38" d="M1484.463,567.641c-3.583,0-7.071,0.401-10.433,1.14c-0.85,4.437-1.311,9.011-1.311,13.696
								c0,7.412,1.119,14.562,3.189,21.296h55.372C1525.853,582.984,1506.952,567.641,1484.463,567.641z"/>
							<path fill="#5E8C57" d="M1519.434,621.938c0.434-2.606,0.671-5.278,0.671-8.007c0-26.723-21.663-48.386-48.386-48.386
								c-26.723,0-48.386,21.663-48.386,48.386c0,2.729,0.237,5.401,0.671,8.007H1519.434z"/>
						</g>
						<polygon fill="#BCD4E8" points="1586.491,556.932 1576.491,539.611 1586.491,522.291 1606.491,522.291 1616.491,539.611 
							1606.491,556.932 						"/>
						<polygon fill="#A6AEE8" points="1606.87,545.603 1596.491,551.595 1586.113,545.603 1586.113,533.619 1596.491,527.627 
							1606.87,533.619 						"/>
					</g>
				</g>
			</g>
		</g>
	</g>
	<g display="inline">
		<g>
			<defs>
				<rect id="SVGID_65_" x="2310.876" y="-22.593" width="1600" height="899.998"/>
			</defs>
			<clipPath id="SVGID_4_">
				<use xlink:href="#SVGID_65_"  overflow="visible"/>
			</clipPath>
			<g clip-path="url(#SVGID_4_)">
				<g>
					<g>
						<polygon fill="#394E5B" points="-520.245,68.501 -291.22,177.741 -12.504,136.825 355.232,260.797 691.456,185.125 
							1063.493,263.133 1582.545,158.123 2120.755,285.022 2524.755,165.022 3096.755,277.022 3416.755,161.022 3812.755,261.022 
							4279.755,68.501 4279.755,877.405 -520.245,877.405 						"/>
						<polygon fill="#2A3B44" points="355.232,260.797 26.755,332.198 313.519,246.735 						"/>
						<polygon fill="#2A3B44" points="1063.493,263.133 889.475,285.688 998.528,249.512 						"/>
					</g>
				</g>
				<g>
					<g>
						<polygon fill="#3F5C63" points="-520.245,305.022 -234.46,244.804 440.755,373.022 840.755,244.804 1208.755,345.022 
							1738.56,244.804 2404.755,393.022 2749.661,263.133 3121.698,383.145 3328.755,280.454 3715.076,362.822 4084.795,244.804 
							4279.626,305.022 4279.755,877.405 -520.245,877.405 						"/>
						<polygon fill="#364D51" points="440.755,373.022 84.755,453.022 370.815,359.741 						"/>
						<polygon fill="#364D51" points="1208.755,345.022 1010.755,374.525 1152.755,332.197 						"/>
					</g>
				</g>
				<g>
					<g>
						<polygon fill="#538896" points="-520.245,472.953 -303.245,380.405 -15.245,522.112 204.755,427.405 584.755,581.022 
							816.755,473.022 1208.755,529.022 1476.755,361.022 1844.755,493.022 2124.755,401.022 2784.755,545.022 3048.755,427.405 
							3328.755,505.022 3536.755,397.022 3908.755,469.022 4152.755,305.022 4279.525,472.953 4279.755,877.405 -520.245,877.405 
													"/>
						<polygon fill="#426972" points="1208.755,529.022 1045.755,597.022 1159.615,522.002 						"/>
						<polygon fill="#426972" points="584.755,581.022 330.755,696.022 540.864,563.279 						"/>
					</g>
					<g id="peter_36_">
						<g>
							<path fill="#3F5C63" d="M721.685,382.3c-13.807,0-25,11.147-25,24.955c-0.002,0.331-0.433,33.471-16.807,65.28
								c-8.991,17.47-21.13,31.283-36.078,41.057c-13.245,8.66-29.03,14.34-47.115,16.999V307.271c0-13.807-11.193-25-25-25
								s-25,11.193-25,25v122.573c-19.33-4.637-33.237-15.768-42.193-33.68c-9.437-18.873-9.86-38.628-9.86-38.819
								c0-13.808-11.192-25-25-25s-25,11.192-25,25c0,3.163,0.425,31.751,15.14,61.181c9.228,18.455,22.073,33.258,38.181,43.995
								c14.086,9.391,30.42,15.459,48.733,18.172V680.52h50v-99.498c73.413-7.999,110.321-50.917,128.61-87.496
								c21.146-42.293,21.39-84.408,21.39-86.181C746.685,393.539,735.493,382.3,721.685,382.3z"/>
							<g>
								<path fill="#364D51" d="M584.755,307.271v223.321c4.098-0.603,8.071-1.368,11.93-2.281v-221.04c0-13.807-11.193-25-25-25
									c-2.056,0-4.053,0.254-5.965,0.722C576.646,285.669,584.755,295.521,584.755,307.271z"/>
								<path fill="#364D51" d="M721.685,382.3c-2.061,0-4.061,0.253-5.977,0.722c10.932,2.681,19.046,12.569,19.046,24.323
									c0,1.772-0.243,43.888-21.39,86.181c-18.29,36.58-55.198,79.497-128.61,87.496v99.498h11.93v-99.498
									c73.413-7.999,110.321-50.917,128.61-87.496c21.146-42.293,21.39-84.408,21.39-86.181
									C746.685,393.539,735.493,382.3,721.685,382.3z"/>
								<path fill="#364D51" d="M482.702,357.345c0,0.191,0.424,19.946,9.86,38.819c8.956,17.912,22.864,29.043,42.193,33.68v-4.013
									c-13.249-5.855-23.272-15.686-30.263-29.667c-9.437-18.873-9.86-38.628-9.86-38.819c0-13.808-11.192-25-25-25
									c-2.056,0-4.053,0.254-5.965,0.722C474.593,335.742,482.702,345.594,482.702,357.345z"/>
							</g>
						</g>
						<g>
							<polygon fill="#538896" points="531.288,446.202 521.288,428.882 531.288,411.561 551.288,411.561 561.288,428.882 
								551.288,446.202 							"/>
							<polygon fill="#426972" points="551.666,434.874 541.288,440.866 530.909,434.874 530.909,422.89 541.288,416.898 
								551.666,422.89 							"/>
						</g>
						<g>
							<polygon fill="#538896" points="590.72,548.731 580.72,531.41 590.72,514.09 610.72,514.09 620.72,531.41 610.72,548.731 
															"/>
							<polygon fill="#426972" points="611.098,537.402 600.72,543.394 590.341,537.402 590.341,525.418 600.72,519.426 
								611.098,525.418 							"/>
						</g>
					</g>
				</g>
			</g>
		</g>
	</g>
</g>
<g id="outlune">
	<polygon fill="#1D252B" points="1117.876,581.101 753.208,568.502 737.699,760.9 920.999,674.699 	"/>
	<polygon fill="#1D252B" points="617.174,258.632 617.174,139.1 430.476,279.949 541.456,297.1 	"/>
	<linearGradient id="SVGID_6_" gradientUnits="userSpaceOnUse" x1="801.7811" y1="583.3693" x2="981.1327" y2="866.3666">
		<stop  offset="0" style="stop-color:#2A3B44"/>
		<stop  offset="0.3493" style="stop-color:#30424C"/>
		<stop  offset="0.7191" style="stop-color:#394E5B"/>
		<stop  offset="0.7604" style="stop-color:#394E5B"/>
		<stop  offset="1" style="stop-color:#394E5B"/>
	</linearGradient>
	<polygon fill="url(#SVGID_6_)" points="753.208,568.502 1063.841,718.227 737.699,760.9 	"/>
	<linearGradient id="SVGID_7_" gradientUnits="userSpaceOnUse" x1="458.0126" y1="242.3051" x2="1142.4844" y2="499.1553">
		<stop  offset="0" style="stop-color:#3F5C63"/>
		<stop  offset="0.5773" style="stop-color:#3E5A61"/>
		<stop  offset="0.8507" style="stop-color:#3A5459"/>
		<stop  offset="1" style="stop-color:#364D51"/>
	</linearGradient>
	<polygon fill="url(#SVGID_7_)" points="430.476,279.949 1143.586,198.527 1117.876,581.101 501.911,559.819 	"/>
	<g>
		<path fill="#82B3BF" d="M604.813,360.234l-12.98-34.246l-4.824-0.762v-13.774h30.818v13.774l-3.492,0.762l5.491,18.059
			l5.491-18.059l-3.492-0.762v-13.774h30.818v13.774l-3.491,0.762l5.491,18.059l5.49-18.059l-3.491-0.762v-13.774h23.359v13.774
			l-4.792,0.762l-12.981,34.246H639.63l-6.126-18.662l-6.094,18.662H604.813z"/>
		<path fill="#82B3BF" d="M685.181,315.514h26.724v12.568l-3.809,0.73v5.237h15.267v-5.237l-3.809-0.73v-12.727h26.723v12.727
			l-3.809,0.73v17.996l3.809,0.73v12.664h-26.723v-12.664l3.809-0.73v-5.3h-15.267v5.3l3.809,0.73v12.664h-26.724v-12.664
			l3.809-0.73v-17.996l-3.809-0.73V315.514z"/>
		<path fill="#82B3BF" d="M765.581,360.202v-12.6l3.809-0.952l-13.107-17.932l-4.824-0.698v-12.505h25.486v12.505l-2.984,0.698
			l6.062,9.172l6.03-9.172l-2.983-0.698v-12.505h25.454v12.505l-4.792,0.698l-13.108,17.932l3.841,0.952v12.6H765.581z"/>
		<path fill="#82B3BF" d="M866.395,360.202l-1.587-7.522h-12.474l-1.586,7.522h-16.98v-14.727l3.682-0.73l8.791-29.231h24.629
			l8.855,29.231l3.65,0.73v14.727H866.395z M854.271,342.651h8.601l-4.316-17.551L854.271,342.651z"/>
		<path fill="#82B3BF" d="M939.336,360.202h-18.979c-0.593-1.1-1.206-2.27-1.841-3.507c-0.635-1.238-1.249-2.534-1.841-3.888
			c-0.593-1.354-1.148-2.75-1.666-4.189c-0.519-1.438-0.958-2.92-1.317-4.443h-1.047v16.028h-22.916v-12.664l3.809-0.73v-18.059
			l-3.809-0.73v-12.505h25.994c3.448,0,6.427,0.148,8.935,0.444c2.507,0.296,4.634,0.73,6.379,1.301
			c1.746,0.571,3.158,1.265,4.237,2.079c1.079,0.815,1.92,1.735,2.523,2.762c0.603,1.026,1.01,2.153,1.222,3.38
			c0.211,1.228,0.317,2.529,0.317,3.904c0,1.396-0.133,2.666-0.396,3.809c-0.265,1.143-0.735,2.19-1.412,3.142
			c-0.678,0.952-1.604,1.825-2.777,2.618c-1.175,0.794-2.672,1.54-4.491,2.238c0.381,0.762,0.946,1.667,1.698,2.713
			c0.751,1.048,1.57,2.116,2.459,3.206s1.772,2.142,2.65,3.158s1.635,1.883,2.27,2.603V360.202z M912.645,335.573
			c1.163,0,2.216-0.058,3.157-0.175c0.941-0.116,1.746-0.37,2.412-0.762c0.667-0.391,1.18-0.968,1.54-1.729
			c0.359-0.762,0.539-1.788,0.539-3.079c0-1.27-0.18-2.285-0.539-3.047c-0.36-0.762-0.873-1.349-1.54-1.761
			c-0.666-0.413-1.471-0.683-2.412-0.81s-1.994-0.19-3.157-0.19V335.573z"/>
		<path fill="#82B3BF" d="M969.209,335.16l8.792-1.873v9.045l-8.792-1.904v7.014c1.27,0,2.496-0.09,3.682-0.27
			c1.185-0.18,2.285-0.429,3.301-0.746s1.946-0.688,2.793-1.111c0.846-0.423,1.576-0.878,2.19-1.365h4.348v16.25h-39.229v-12.664
			l3.809-0.73v-17.996l-3.809-0.73v-12.568h39.229v16.25h-4.348c-0.614-0.465-1.345-0.91-2.19-1.333
			c-0.847-0.423-1.777-0.793-2.793-1.111s-2.116-0.571-3.301-0.762c-1.186-0.19-2.412-0.286-3.682-0.286V335.16z"/>
		<path fill="#82B3BF" d="M603.766,425.234l-12.188-31.516l-4.539-0.698v-12.505h28.978v12.505l-3.301,0.698l5.173,16.631
			l5.174-16.631l-3.301-0.698v-12.505h28.977v12.505l-3.269,0.698l5.142,16.631l5.174-16.631l-3.301-0.698v-12.664h21.963v12.664
			l-4.508,0.698l-12.188,31.516H636.52l-5.776-17.17l-5.713,17.17H603.766z"/>
		<path fill="#82B3BF" d="M702.574,400.161l8.792-1.873v9.045l-8.792-1.904v7.014c1.27,0,2.496-0.09,3.682-0.27
			c1.185-0.18,2.285-0.429,3.301-0.746s1.946-0.688,2.793-1.111c0.846-0.423,1.576-0.878,2.19-1.365h4.348v16.25h-39.229v-12.664
			l3.809-0.73v-17.996l-3.809-0.73v-12.568h39.229v16.25h-4.348c-0.614-0.465-1.345-0.91-2.19-1.333
			c-0.847-0.423-1.777-0.793-2.793-1.111s-2.116-0.571-3.301-0.762c-1.186-0.19-2.412-0.286-3.682-0.286V400.161z"/>
		<path fill="#82B3BF" d="M747.051,380.515h26.725v12.505l-3.809,0.73v18.059l3.809,0.73v12.664h-26.725v-12.664l3.809-0.73V393.75
			l-3.809-0.73V380.515z"/>
		<path fill="#82B3BF" d="M796.824,401.748v10.061l3.841,0.698v12.695h-19.107v-12.664l3.809-0.73V393.75l-3.809-0.73v-12.505
			h22.916l15.266,24.089v-10.791l-3.809-0.793v-12.505h19.074v12.505l-3.809,0.73v18.059l3.809,0.73v12.664H812.09L796.824,401.748z
			"/>
		<path fill="#82B3BF" d="M874.532,392.322c-1.1,0-2.073,0.148-2.92,0.444c-0.846,0.296-1.555,0.667-2.126,1.111
			s-1.005,0.926-1.302,1.444c-0.296,0.519-0.443,1-0.443,1.444h-5.301v-16.25h43.291v16.25h-5.301c0-0.444-0.147-0.925-0.443-1.444
			c-0.297-0.518-0.73-1-1.302-1.444s-1.28-0.814-2.126-1.111c-0.847-0.296-1.82-0.444-2.92-0.444v19.487l3.809,0.73v12.664h-26.725
			v-12.664l3.809-0.73V392.322z"/>
		<path fill="#82B3BF" d="M911.672,380.515h26.724v12.568l-3.809,0.73v5.237h15.267v-5.237l-3.809-0.73v-12.727h26.723v12.727
			l-3.809,0.73v17.996l3.809,0.73v12.664h-26.723v-12.664l3.809-0.73v-5.3h-15.267v5.3l3.809,0.73v12.664h-26.724v-12.664
			l3.809-0.73v-17.996l-3.809-0.73V380.515z"/>
		<path fill="#82B3BF" d="M1003.402,400.161l8.792-1.873v9.045l-8.792-1.904v7.014c1.27,0,2.496-0.09,3.682-0.27
			c1.185-0.18,2.285-0.429,3.301-0.746s1.946-0.688,2.793-1.111c0.846-0.423,1.576-0.878,2.19-1.365h4.348v16.25h-39.229v-12.664
			l3.809-0.73v-17.996l-3.809-0.73v-12.568h39.229v16.25h-4.348c-0.614-0.465-1.345-0.91-2.19-1.333
			c-0.847-0.423-1.777-0.793-2.793-1.111s-2.116-0.571-3.301-0.762c-1.186-0.19-2.412-0.286-3.682-0.286V400.161z"/>
		<path fill="#82B3BF" d="M624.237,445.515c2.878,0.614,5.47,1.481,7.776,2.603c2.306,1.122,4.269,2.555,5.888,4.301
			c1.618,1.745,2.861,3.84,3.729,6.284c0.868,2.443,1.302,5.295,1.302,8.553c0,2.857-0.333,5.412-1,7.665
			c-0.666,2.254-1.618,4.232-2.856,5.936c-1.237,1.703-2.756,3.147-4.555,4.332c-1.798,1.186-3.824,2.147-6.077,2.888
			c-2.254,0.741-4.729,1.281-7.427,1.619c-2.698,0.339-5.57,0.508-8.617,0.508h-22.915v-12.664l3.809-0.729v-19.138l-3.809-0.73
			v-11.426H624.237z M615.319,476.809c1.417,0,2.613-0.105,3.586-0.317c0.974-0.211,1.772-0.508,2.396-0.889s1.111-0.857,1.46-1.428
			c0.35-0.572,0.604-1.207,0.762-1.904c0.159-0.699,0.249-1.471,0.271-2.317c0.021-0.846,0.031-1.745,0.031-2.698
			c0-0.951-0.011-1.851-0.031-2.697c-0.021-0.846-0.111-1.624-0.271-2.333c-0.158-0.708-0.412-1.343-0.762-1.904
			c-0.349-0.561-0.836-1.036-1.46-1.428s-1.423-0.693-2.396-0.905c-0.973-0.211-2.169-0.316-3.586-0.316h-2.92v19.138H615.319z"/>
		<path fill="#82B3BF" d="M671.978,465.161l8.792-1.873v9.045l-8.792-1.904v7.015c1.27,0,2.496-0.09,3.682-0.27
			c1.185-0.18,2.285-0.429,3.301-0.746s1.946-0.688,2.793-1.11c0.846-0.424,1.576-0.878,2.19-1.365h4.348v16.25h-39.229v-12.664
			l3.809-0.729v-17.995l-3.809-0.73v-12.568h39.229v16.25h-4.348c-0.614-0.465-1.345-0.909-2.19-1.333
			c-0.847-0.423-1.777-0.794-2.793-1.11c-1.016-0.318-2.116-0.572-3.301-0.762c-1.186-0.191-2.412-0.286-3.682-0.286V465.161z"/>
		<path fill="#82B3BF" d="M733.875,476.142c0,1.969-0.28,3.709-0.841,5.222c-0.562,1.513-1.323,2.824-2.285,3.936
			c-0.963,1.11-2.105,2.036-3.428,2.776c-1.323,0.741-2.746,1.339-4.27,1.794c-1.523,0.454-3.115,0.719-4.776,0.793
			s-3.316,0.111-4.967,0.111c-2.285,0-4.349-0.053-6.188-0.159c-1.842-0.105-3.486-0.338-4.936-0.697
			c-1.45-0.36-2.729-0.757-3.841-1.19c-1.11-0.434-2.09-0.862-2.936-1.286v-11.013h8.981c0.889,1.396,1.904,2.423,3.047,3.079
			c1.143,0.655,2.317,0.983,3.523,0.983c0.359,0,0.762-0.032,1.206-0.095c0.444-0.064,0.856-0.265,1.237-0.604
			c0.381-0.338,0.704-0.862,0.969-1.571c0.264-0.708,0.396-1.708,0.396-2.999c-1.714-0.147-3.412-0.365-5.094-0.65
			c-1.683-0.286-3.291-0.672-4.824-1.158c-1.534-0.487-2.957-1.105-4.27-1.857c-1.312-0.751-2.449-1.66-3.411-2.729
			c-0.963-1.068-1.72-2.327-2.27-3.776c-0.551-1.449-0.825-3.115-0.825-4.999c0-2.158,0.274-4.047,0.825-5.665
			c0.55-1.619,1.302-3.01,2.253-4.174c0.953-1.163,2.079-2.127,3.381-2.889c1.301-0.762,2.702-1.364,4.205-1.809
			c1.502-0.444,3.067-0.756,4.697-0.937c1.629-0.18,3.258-0.27,4.888-0.27c2.306,0,4.374,0.116,6.205,0.349
			c1.83,0.233,3.47,0.529,4.919,0.889c1.449,0.36,2.729,0.757,3.841,1.19c1.11,0.435,2.1,0.853,2.968,1.254v11.108h-9.617
			c-0.805-1.523-1.725-2.635-2.762-3.332c-1.036-0.699-2.094-1.048-3.174-1.048c-0.359,0-0.772,0.059-1.237,0.175
			c-0.466,0.116-0.899,0.376-1.302,0.777c-0.401,0.402-0.74,0.995-1.016,1.777c-0.274,0.783-0.412,1.841-0.412,3.174
			c3.491,0.127,6.554,0.497,9.188,1.111c2.634,0.613,4.84,1.528,6.617,2.745s3.11,2.782,3.999,4.697
			S733.875,473.413,733.875,476.142z"/>
		<path fill="#82B3BF" d="M763.525,465.161l8.792-1.873v9.045l-8.792-1.904v7.015c1.27,0,2.496-0.09,3.682-0.27
			c1.185-0.18,2.285-0.429,3.301-0.746s1.946-0.688,2.793-1.11c0.846-0.424,1.576-0.878,2.19-1.365h4.348v16.25H740.61v-12.664
			l3.809-0.729v-17.995l-3.809-0.73v-12.568h39.229v16.25h-4.348c-0.614-0.465-1.345-0.909-2.19-1.333
			c-0.847-0.423-1.777-0.794-2.793-1.11c-1.016-0.318-2.116-0.572-3.301-0.762c-1.186-0.191-2.412-0.286-3.682-0.286V465.161z"/>
		<path fill="#82B3BF" d="M836.149,490.202h-18.979c-0.593-1.1-1.206-2.27-1.841-3.507c-0.635-1.238-1.249-2.534-1.841-3.888
			c-0.593-1.354-1.148-2.751-1.666-4.189c-0.519-1.439-0.958-2.92-1.317-4.443h-1.047v16.027h-22.916v-12.664l3.809-0.729v-18.06
			l-3.809-0.729v-12.505h25.994c3.448,0,6.427,0.148,8.935,0.444c2.507,0.297,4.634,0.729,6.379,1.302
			c1.746,0.57,3.158,1.264,4.237,2.078c1.079,0.815,1.92,1.735,2.523,2.762c0.603,1.026,1.01,2.153,1.222,3.38
			c0.211,1.228,0.317,2.528,0.317,3.903c0,1.396-0.133,2.666-0.396,3.809c-0.265,1.143-0.735,2.19-1.412,3.143
			c-0.678,0.952-1.604,1.825-2.777,2.618c-1.175,0.794-2.672,1.54-4.491,2.237c0.381,0.762,0.946,1.667,1.698,2.714
			c0.751,1.048,1.57,2.116,2.459,3.206s1.772,2.143,2.65,3.158s1.635,1.883,2.27,2.602V490.202z M809.458,465.573
			c1.163,0,2.216-0.058,3.157-0.175c0.941-0.116,1.746-0.37,2.412-0.762c0.667-0.391,1.18-0.968,1.54-1.729
			c0.359-0.762,0.539-1.788,0.539-3.078c0-1.27-0.18-2.285-0.539-3.047c-0.36-0.762-0.873-1.35-1.54-1.762
			c-0.666-0.413-1.471-0.683-2.412-0.81s-1.994-0.19-3.157-0.19V465.573z"/>
		<path fill="#82B3BF" d="M853.42,457.322c-1.1,0-2.073,0.148-2.92,0.444c-0.846,0.297-1.555,0.667-2.126,1.11
			c-0.571,0.445-1.005,0.927-1.302,1.444c-0.296,0.519-0.443,1-0.443,1.444h-5.301v-16.25h43.291v16.25h-5.301
			c0-0.444-0.147-0.926-0.443-1.444c-0.297-0.518-0.73-0.999-1.302-1.444c-0.571-0.443-1.28-0.813-2.126-1.11
			c-0.847-0.296-1.82-0.444-2.92-0.444v19.487l3.809,0.729v12.664h-26.725v-12.664l3.809-0.729V457.322z"/>
		<path fill="#82B3BF" d="M909.921,455.702c0-0.655-0.111-1.231-0.333-1.729c-0.223-0.497-0.519-0.915-0.889-1.253
			c-0.371-0.339-0.805-0.598-1.302-0.778c-0.497-0.18-1.011-0.27-1.539-0.27c-1.206,0-2.401,0.28-3.587,0.841
			c-1.185,0.562-2.232,1.444-3.142,2.65h-9.554v-10.981c0.72-0.359,1.492-0.709,2.317-1.048c0.825-0.338,1.714-0.655,2.666-0.951
			c1.65-0.508,3.612-0.969,5.888-1.381c2.274-0.413,4.914-0.619,7.918-0.619c3.322,0,6.332,0.302,9.03,0.904
			c2.697,0.604,4.999,1.539,6.903,2.809s3.374,2.884,4.411,4.841c1.036,1.957,1.556,4.279,1.556,6.966
			c0,2.328-0.376,4.312-1.127,5.951c-0.752,1.641-1.777,3.021-3.079,4.143c-1.301,1.121-2.819,2.031-4.554,2.729
			c-1.735,0.699-3.598,1.27-5.586,1.715v3.713h-20.218c-0.021,0.021-0.053,0.031-0.095,0.031v-10.949
			c0.338-0.147,0.925-0.333,1.761-0.556c0.836-0.222,1.782-0.48,2.841-0.777c1.058-0.296,2.163-0.64,3.316-1.031
			s2.2-0.83,3.143-1.317c0.941-0.486,1.719-1.031,2.332-1.635C909.615,457.115,909.921,456.444,909.921,455.702z M895.608,478.046
			h20.312v12.188h-20.312V478.046z"/>
	</g>
</g>
<g id="fonts" display="none">
	<polygon display="inline" fill="#1D252B" points="1117.876,581.101 753.208,568.502 737.699,760.9 920.999,674.699 	"/>
	<polygon display="inline" fill="#1D252B" points="617.174,258.632 617.174,139.1 430.476,279.949 541.456,297.1 	"/>
	<linearGradient id="SVGID_9_" gradientUnits="userSpaceOnUse" x1="801.7811" y1="583.3693" x2="981.1327" y2="866.3666">
		<stop  offset="0" style="stop-color:#2A3B44"/>
		<stop  offset="0.3493" style="stop-color:#30424C"/>
		<stop  offset="0.7191" style="stop-color:#394E5B"/>
		<stop  offset="0.7604" style="stop-color:#394E5B"/>
		<stop  offset="1" style="stop-color:#394E5B"/>
	</linearGradient>
	<polygon display="inline" fill="url(#SVGID_9_)" points="753.208,568.502 1063.841,718.227 737.699,760.9 	"/>
	<linearGradient id="SVGID_10_" gradientUnits="userSpaceOnUse" x1="458.0126" y1="242.3051" x2="1142.4844" y2="499.1553">
		<stop  offset="0" style="stop-color:#3F5C63"/>
		<stop  offset="0.5773" style="stop-color:#3E5A61"/>
		<stop  offset="0.8507" style="stop-color:#3A5459"/>
		<stop  offset="1" style="stop-color:#364D51"/>
	</linearGradient>
	<polygon display="inline" fill="url(#SVGID_10_)" points="430.476,279.949 1143.586,198.527 1117.876,581.101 501.911,559.819 	"/>
	<rect x="586.501" y="315.45" display="inline" fill="none" width="526.892" height="312.446"/>
	<text transform="matrix(1 0 0 1 586.5005 360.2019)" display="inline"><tspan x="0" y="0" fill="#82B3BF" font-family="'HoltwoodOneSC'" font-size="65" letter-spacing="1">Why are </tspan><tspan x="0" y="65" fill="#82B3BF" font-family="'HoltwoodOneSC'" font-size="65" letter-spacing="1">we in the </tspan><tspan x="0" y="130" fill="#82B3BF" font-family="'HoltwoodOneSC'" font-size="65" letter-spacing="1">desert?</tspan></text>
</g>
</svg>
