<?xml version="1.0" encoding="utf-8"?>
<!-- Generator: Adobe Illustrator 17.0.0, SVG Export Plug-In . SVG Version: 6.00 Build 0)  -->
<!DOCTYPE svg PUBLIC "-//W3C//DTD SVG 1.1//EN" "http://www.w3.org/Graphics/SVG/1.1/DTD/svg11.dtd">
<svg version="1.1" xmlns="http://www.w3.org/2000/svg" xmlns:xlink="http://www.w3.org/1999/xlink" x="0px" y="0px" width="1600px"
	 height="900px" viewBox="0 0 1600 900" enable-background="new 0 0 1600 900" xml:space="preserve">
<g id="Layer_3" display="none">
</g>
<g id="outlune">
	<polygon fill="#A85C22" points="646.946,618.774 426.475,655.857 664.2,776.034 664.2,652.446 	"/>
	<polygon fill="#A85C22" points="1088.566,193.683 1143.586,149.149 927.787,40.732 914.073,204.454 	"/>
	<linearGradient id="SVGID_1_" gradientUnits="userSpaceOnUse" x1="622.0936" y1="749.7307" x2="548.7391" y2="818.3079">
		<stop  offset="0" style="stop-color:#B77430"/>
		<stop  offset="0.358" style="stop-color:#BF7A31"/>
		<stop  offset="0.567" style="stop-color:#C78032"/>
		<stop  offset="1" style="stop-color:#D19853"/>
	</linearGradient>
	<polygon fill="url(#SVGID_1_)" points="664.2,776.034 511.229,804.039 573.021,729.94 	"/>
	<linearGradient id="SVGID_3_" gradientUnits="userSpaceOnUse" x1="360.432" y1="402.503" x2="1209.2041" y2="402.503">
		<stop  offset="0" style="stop-color:#B77430"/>
		<stop  offset="0.358" style="stop-color:#BF7A31"/>
		<stop  offset="0.567" style="stop-color:#C78032"/>
		<stop  offset="1" style="stop-color:#D19853"/>
	</linearGradient>
	<polygon fill="url(#SVGID_3_)" points="360.432,228.856 1143.586,149.149 1209.204,644.625 426.475,655.857 	"/>
	<g>
		<g>
			<path fill="#FBE4A8" d="M492.877,358.561l-12.98-34.246l-4.824-0.762v-13.774h30.818v13.774l-3.492,0.762l5.491,18.059
				l5.491-18.059l-3.492-0.762v-13.774h30.818v13.774l-3.491,0.762l5.491,18.059l5.49-18.059l-3.491-0.762v-13.774h23.359v13.774
				l-4.792,0.762l-12.981,34.246h-22.598l-6.126-18.662l-6.094,18.662H492.877z"/>
			<path fill="#FBE4A8" d="M596.16,333.487l8.792-1.872v9.046l-8.792-1.904v7.014c1.27,0,2.496-0.09,3.682-0.27
				c1.185-0.18,2.285-0.429,3.301-0.746s1.946-0.688,2.793-1.111c0.846-0.422,1.576-0.877,2.19-1.364h4.348v16.25h-39.229v-12.663
				l3.809-0.73v-17.996l-3.809-0.729v-12.568h39.229v16.25h-4.348c-0.614-0.466-1.345-0.909-2.19-1.333
				c-0.847-0.423-1.777-0.793-2.793-1.111c-1.016-0.316-2.116-0.57-3.301-0.762c-1.186-0.189-2.412-0.285-3.682-0.285V333.487z"/>
			<path fill="#FBE4A8" d="M679.517,344.469c0,1.967-0.28,3.708-0.841,5.221c-0.562,1.513-1.323,2.824-2.285,3.936
				c-0.963,1.11-2.105,2.037-3.428,2.777c-1.323,0.74-2.746,1.338-4.27,1.793s-3.115,0.719-4.776,0.793s-3.316,0.111-4.967,0.111
				c-2.285,0-4.349-0.053-6.188-0.158c-1.842-0.106-3.486-0.34-4.936-0.699c-1.45-0.359-2.729-0.756-3.841-1.189
				c-1.11-0.434-2.09-0.862-2.936-1.285v-11.014h8.981c0.889,1.396,1.904,2.423,3.047,3.078c1.143,0.656,2.317,0.984,3.523,0.984
				c0.359,0,0.762-0.031,1.206-0.096c0.444-0.062,0.856-0.264,1.237-0.603s0.704-0.862,0.969-1.571
				c0.264-0.709,0.396-1.708,0.396-2.999c-1.714-0.147-3.412-0.365-5.094-0.65c-1.683-0.286-3.291-0.672-4.824-1.159
				c-1.534-0.486-2.957-1.105-4.27-1.856c-1.312-0.751-2.449-1.661-3.411-2.729c-0.963-1.068-1.72-2.327-2.27-3.776
				c-0.551-1.449-0.825-3.116-0.825-4.999c0-2.158,0.274-4.047,0.825-5.665c0.55-1.619,1.302-3.01,2.253-4.174
				c0.953-1.163,2.079-2.126,3.381-2.888c1.301-0.762,2.702-1.365,4.205-1.81c1.502-0.444,3.067-0.757,4.697-0.937
				c1.629-0.18,3.258-0.27,4.888-0.27c2.306,0,4.374,0.117,6.205,0.35c1.83,0.232,3.47,0.529,4.919,0.889s2.729,0.756,3.841,1.189
				c1.11,0.434,2.1,0.852,2.968,1.254v11.108h-9.617c-0.805-1.523-1.725-2.634-2.762-3.333c-1.036-0.697-2.094-1.047-3.174-1.047
				c-0.359,0-0.772,0.059-1.237,0.175c-0.466,0.116-0.899,0.376-1.302,0.777c-0.401,0.402-0.74,0.995-1.016,1.777
				c-0.274,0.783-0.412,1.841-0.412,3.174c3.491,0.127,6.554,0.497,9.188,1.11c2.634,0.614,4.84,1.529,6.617,2.746
				s3.11,2.782,3.999,4.697S679.517,341.739,679.517,344.469z"/>
			<path fill="#FBE4A8" d="M735.256,327.077c-0.021,0.635-0.032,1.253-0.032,1.856c0,0.603,0,1.18,0,1.729v4.92
				c0,4.231-0.582,7.854-1.745,10.87c-1.164,3.015-2.74,5.485-4.729,7.411c-1.988,1.926-4.321,3.279-6.998,4.062
				c-2.677,0.782-5.518,1.174-8.521,1.174c-3.471,0-6.713-0.392-9.728-1.174c-3.016-0.783-5.64-2.143-7.871-4.079
				c-2.232-1.936-3.989-4.405-5.269-7.411c-1.28-3.004-1.92-6.622-1.92-10.854v-8.506l-3.809-0.73v-12.505h24.787v12.505
				l-3.809,0.73v3.776c0,0.508,0,1.021,0,1.539s0.005,1,0.016,1.444s0.016,0.83,0.016,1.158s0,0.545,0,0.65
				c0,0.487,0.011,1.053,0.032,1.698c0.021,0.646,0.105,1.312,0.254,2c0.147,0.688,0.375,1.364,0.683,2.031
				c0.307,0.666,0.74,1.265,1.301,1.793c0.561,0.529,1.27,0.958,2.127,1.285c0.856,0.329,1.92,0.492,3.189,0.492
				s2.343-0.163,3.222-0.492c0.878-0.327,1.597-0.762,2.158-1.301c0.561-0.54,0.999-1.147,1.317-1.825
				c0.316-0.677,0.544-1.359,0.682-2.047s0.223-1.354,0.254-2c0.032-0.645,0.048-1.211,0.048-1.697c0-0.148,0-0.387,0-0.715
				s-0.006-0.709-0.016-1.143c-0.011-0.434-0.017-0.898-0.017-1.396c0-0.496,0-0.988,0-1.476v-3.776l-3.809-0.73v-12.505h22.027
				v12.505L735.256,327.077z"/>
			<path fill="#FBE4A8" d="M795.28,358.529H776.3c-0.593-1.101-1.206-2.27-1.841-3.507c-0.635-1.238-1.249-2.533-1.841-3.889
				c-0.593-1.354-1.148-2.75-1.666-4.189c-0.519-1.438-0.958-2.92-1.317-4.443h-1.047v16.028h-22.916v-12.663l3.809-0.73v-18.059
				l-3.809-0.73v-12.505h25.994c3.448,0,6.427,0.148,8.935,0.444c2.507,0.297,4.634,0.73,6.379,1.301
				c1.746,0.572,3.158,1.266,4.237,2.079c1.079,0.815,1.92,1.735,2.523,2.762c0.603,1.026,1.01,2.153,1.222,3.38
				c0.211,1.228,0.317,2.529,0.317,3.904c0,1.396-0.133,2.666-0.396,3.809c-0.265,1.143-0.735,2.189-1.412,3.142
				c-0.678,0.952-1.604,1.825-2.777,2.618c-1.175,0.794-2.672,1.539-4.491,2.238c0.381,0.762,0.946,1.666,1.698,2.713
				c0.751,1.048,1.57,2.116,2.459,3.206s1.772,2.142,2.65,3.157s1.635,1.884,2.27,2.604V358.529z M768.588,333.9
				c1.163,0,2.216-0.058,3.157-0.175c0.941-0.115,1.746-0.369,2.412-0.762c0.667-0.391,1.18-0.968,1.54-1.729
				c0.359-0.762,0.539-1.788,0.539-3.079c0-1.27-0.18-2.285-0.539-3.047c-0.36-0.762-0.873-1.349-1.54-1.761
				c-0.666-0.413-1.471-0.683-2.412-0.81s-1.994-0.19-3.157-0.19V333.9z"/>
			<path fill="#FBE4A8" d="M816.138,358.561l-11.87-31.517l-4.539-0.698v-12.505h27.867v12.505l-3.27,0.698l5.142,17.266
				l5.173-17.266l-3.301-0.698v-12.505h23.074v12.505l-4.507,0.698l-11.87,31.517H816.138z"/>
			<path fill="#FBE4A8" d="M859.658,313.842h26.725v12.505l-3.809,0.73v18.059l3.809,0.73v12.663h-26.725v-12.663l3.809-0.73
				v-18.059l-3.809-0.73V313.842z"/>
			<path fill="#FBE4A8" d="M908.034,358.561l-11.87-31.517l-4.539-0.698v-12.505h27.867v12.505l-3.27,0.698l5.142,17.266
				l5.173-17.266l-3.301-0.698v-12.505h23.074v12.505l-4.507,0.698l-11.87,31.517H908.034z"/>
			<path fill="#FBE4A8" d="M974.436,333.487l8.792-1.872v9.046l-8.792-1.904v7.014c1.27,0,2.496-0.09,3.682-0.27
				c1.185-0.18,2.285-0.429,3.301-0.746s1.946-0.688,2.793-1.111c0.846-0.422,1.576-0.877,2.19-1.364h4.348v16.25h-39.229v-12.663
				l3.809-0.73v-17.996l-3.809-0.729v-12.568h39.229v16.25h-4.348c-0.614-0.466-1.345-0.909-2.19-1.333
				c-0.847-0.423-1.777-0.793-2.793-1.111c-1.016-0.316-2.116-0.57-3.301-0.762c-1.186-0.189-2.412-0.285-3.682-0.285V333.487z"/>
			<path fill="#FBE4A8" d="M1032.111,313.842c2.878,0.614,5.47,1.481,7.776,2.603c2.306,1.121,4.269,2.555,5.888,4.301
				c1.618,1.745,2.861,3.84,3.729,6.284c0.868,2.443,1.302,5.295,1.302,8.554c0,2.855-0.333,5.411-1,7.664
				c-0.666,2.254-1.618,4.232-2.856,5.936c-1.237,1.703-2.756,3.147-4.555,4.332c-1.798,1.186-3.824,2.148-6.077,2.889
				c-2.254,0.74-4.729,1.279-7.427,1.618c-2.698,0.339-5.57,0.508-8.617,0.508h-22.915v-12.663l3.809-0.73v-19.139l-3.809-0.729
				v-11.426H1032.111z M1023.193,345.135c1.417,0,2.613-0.105,3.586-0.317c0.974-0.212,1.772-0.508,2.396-0.889
				s1.111-0.856,1.46-1.429c0.35-0.57,0.604-1.205,0.762-1.904c0.159-0.697,0.249-1.47,0.271-2.316
				c0.021-0.846,0.031-1.746,0.031-2.697c0-0.953-0.011-1.852-0.031-2.698c-0.021-0.847-0.111-1.624-0.271-2.333
				c-0.158-0.709-0.412-1.344-0.762-1.904c-0.349-0.561-0.836-1.036-1.46-1.428s-1.423-0.693-2.396-0.904
				c-0.973-0.212-2.169-0.318-3.586-0.318h-2.92v19.139H1023.193z"/>
			<path fill="#FBE4A8" d="M503.16,424.1c-3.724,0-7.21-0.396-10.457-1.19c-3.248-0.793-6.073-2.158-8.475-4.094
				c-2.401-1.937-4.295-4.406-5.681-7.411c-1.387-3.004-2.079-6.611-2.079-10.822c0-4.127,0.692-7.645,2.079-10.554
				c1.386-2.909,3.284-5.278,5.696-7.109c2.412-1.829,5.237-3.168,8.475-4.015c3.237-0.846,6.718-1.27,10.441-1.27
				c3.703,0,7.179,0.424,10.427,1.27c3.247,0.847,6.083,2.186,8.506,4.015c2.422,1.831,4.332,4.2,5.729,7.109
				s2.095,6.427,2.095,10.554c0,2.793-0.317,5.326-0.952,7.601s-1.529,4.296-2.682,6.062c-1.153,1.767-2.539,3.29-4.158,4.57
				c-1.618,1.28-3.423,2.338-5.411,3.174c-1.989,0.836-4.126,1.396-6.411,1.682C508.016,423.958,505.636,424.1,503.16,424.1z
				 M503.16,391.156c-1.248,0-2.301,0.159-3.157,0.476c-0.857,0.318-1.566,0.73-2.127,1.238s-0.999,1.09-1.317,1.746
				c-0.316,0.656-0.545,1.328-0.682,2.015c-0.138,0.688-0.223,1.365-0.254,2.031c-0.032,0.667-0.048,1.254-0.048,1.762
				c0,0.487,0.011,1.063,0.032,1.729c0.021,0.667,0.095,1.365,0.222,2.095c0.127,0.73,0.338,1.455,0.635,2.175
				c0.296,0.719,0.725,1.364,1.285,1.936s1.28,1.031,2.158,1.381c0.878,0.349,1.963,0.523,3.253,0.523
				c1.27,0,2.344-0.169,3.222-0.508c0.878-0.338,1.598-0.788,2.158-1.349s1-1.19,1.317-1.889s0.545-1.401,0.683-2.11
				c0.137-0.709,0.222-1.402,0.254-2.079c0.031-0.677,0.048-1.259,0.048-1.745c0-0.508-0.017-1.096-0.048-1.762
				c-0.032-0.667-0.117-1.35-0.254-2.047c-0.138-0.699-0.365-1.381-0.683-2.048c-0.317-0.666-0.757-1.264-1.317-1.793
				c-0.561-0.528-1.28-0.957-2.158-1.285S504.429,391.156,503.16,391.156z"/>
			<path fill="#FBE4A8" d="M585.273,392.077c-0.021,0.635-0.032,1.253-0.032,1.856c0,0.603,0,1.18,0,1.729v4.92
				c0,4.231-0.582,7.854-1.745,10.87c-1.164,3.015-2.74,5.485-4.729,7.41c-1.988,1.926-4.321,3.28-6.998,4.062
				c-2.677,0.783-5.518,1.175-8.521,1.175c-3.471,0-6.713-0.392-9.728-1.175c-3.016-0.782-5.64-2.142-7.871-4.078
				c-2.232-1.936-3.989-4.405-5.269-7.411c-1.28-3.004-1.92-6.622-1.92-10.854v-8.506l-3.809-0.73v-12.505h24.787v12.505
				l-3.809,0.73v3.776c0,0.508,0,1.021,0,1.539s0.005,1,0.016,1.444s0.016,0.83,0.016,1.158s0,0.545,0,0.65
				c0,0.487,0.011,1.053,0.032,1.698c0.021,0.646,0.105,1.312,0.254,2c0.147,0.688,0.375,1.364,0.683,2.031
				c0.307,0.666,0.74,1.265,1.301,1.793c0.561,0.529,1.27,0.958,2.127,1.285c0.856,0.329,1.92,0.492,3.189,0.492
				s2.343-0.163,3.222-0.492c0.878-0.327,1.597-0.762,2.158-1.301c0.561-0.54,0.999-1.147,1.317-1.825
				c0.316-0.677,0.544-1.359,0.682-2.047s0.223-1.354,0.254-2c0.032-0.645,0.048-1.211,0.048-1.697c0-0.148,0-0.387,0-0.715
				s-0.006-0.709-0.016-1.143c-0.011-0.434-0.017-0.898-0.017-1.396c0-0.496,0-0.988,0-1.476v-3.776l-3.809-0.73v-12.505h22.027
				v12.505L585.273,392.077z"/>
			<path fill="#FBE4A8" d="M645.296,423.529h-18.979c-0.593-1.1-1.206-2.27-1.841-3.507c-0.635-1.238-1.249-2.533-1.841-3.889
				c-0.593-1.354-1.148-2.75-1.666-4.189c-0.519-1.438-0.958-2.92-1.317-4.443h-1.047v16.028h-22.916v-12.663l3.809-0.73v-18.059
				l-3.809-0.73v-12.505h25.994c3.448,0,6.427,0.148,8.935,0.444c2.507,0.297,4.634,0.73,6.379,1.301
				c1.746,0.572,3.158,1.266,4.237,2.079c1.079,0.815,1.92,1.735,2.523,2.762c0.603,1.026,1.01,2.153,1.222,3.38
				c0.211,1.228,0.317,2.529,0.317,3.904c0,1.396-0.133,2.666-0.396,3.809c-0.265,1.143-0.735,2.189-1.412,3.142
				c-0.678,0.952-1.604,1.825-2.777,2.618c-1.175,0.794-2.672,1.539-4.491,2.238c0.381,0.762,0.946,1.666,1.698,2.713
				c0.751,1.048,1.57,2.116,2.459,3.206s1.772,2.142,2.65,3.157s1.635,1.884,2.27,2.604V423.529z M618.605,398.9
				c1.163,0,2.216-0.058,3.157-0.175c0.941-0.115,1.746-0.369,2.412-0.762c0.667-0.391,1.18-0.968,1.54-1.729
				c0.359-0.762,0.539-1.788,0.539-3.079c0-1.27-0.18-2.285-0.539-3.047c-0.36-0.762-0.873-1.349-1.54-1.761
				c-0.666-0.413-1.471-0.683-2.412-0.81s-1.994-0.19-3.157-0.19V398.9z"/>
			<path fill="#FBE4A8" d="M696.63,399.44l8.125-1.873v9.68l-8.125-1.904v4.793l3.809,0.825v12.568h-26.724v-12.663l3.809-0.73
				v-17.996l-3.809-0.729v-12.568h36.912v16.25h-5.301c-0.91-0.952-2.105-1.772-3.586-2.46c-1.481-0.688-3.186-1.031-5.11-1.031
				V399.44z"/>
			<path fill="#FBE4A8" d="M716.631,378.842h26.725v12.505l-3.809,0.73v18.059l3.809,0.73v12.663h-26.725v-12.663l3.809-0.73
				v-18.059l-3.809-0.73V378.842z"/>
			<path fill="#FBE4A8" d="M800.745,423.529h-18.979c-0.593-1.1-1.206-2.27-1.841-3.507c-0.635-1.238-1.249-2.533-1.841-3.889
				c-0.593-1.354-1.148-2.75-1.666-4.189c-0.519-1.438-0.958-2.92-1.317-4.443h-1.047v16.028h-22.916v-12.663l3.809-0.73v-18.059
				l-3.809-0.73v-12.505h25.994c3.448,0,6.427,0.148,8.935,0.444c2.507,0.297,4.634,0.73,6.379,1.301
				c1.746,0.572,3.158,1.266,4.237,2.079c1.079,0.815,1.92,1.735,2.523,2.762c0.603,1.026,1.01,2.153,1.222,3.38
				c0.211,1.228,0.317,2.529,0.317,3.904c0,1.396-0.133,2.666-0.396,3.809c-0.265,1.143-0.735,2.189-1.412,3.142
				c-0.678,0.952-1.604,1.825-2.777,2.618c-1.175,0.794-2.672,1.539-4.491,2.238c0.381,0.762,0.946,1.666,1.698,2.713
				c0.751,1.048,1.57,2.116,2.459,3.206s1.772,2.142,2.65,3.157s1.635,1.884,2.27,2.604V423.529z M774.053,398.9
				c1.163,0,2.216-0.058,3.157-0.175c0.941-0.115,1.746-0.369,2.412-0.762c0.667-0.391,1.18-0.968,1.54-1.729
				c0.359-0.762,0.539-1.788,0.539-3.079c0-1.27-0.18-2.285-0.539-3.047c-0.36-0.762-0.873-1.349-1.54-1.761
				c-0.666-0.413-1.471-0.683-2.412-0.81s-1.994-0.19-3.157-0.19V398.9z"/>
			<path fill="#FBE4A8" d="M846.613,409.469c0,1.967-0.28,3.708-0.841,5.221c-0.562,1.513-1.323,2.824-2.285,3.936
				c-0.963,1.11-2.105,2.036-3.428,2.776c-1.323,0.741-2.746,1.339-4.27,1.794c-1.523,0.454-3.115,0.719-4.776,0.793
				s-3.316,0.111-4.967,0.111c-2.285,0-4.349-0.053-6.188-0.159c-1.842-0.105-3.486-0.338-4.936-0.697
				c-1.45-0.36-2.729-0.757-3.841-1.19c-1.11-0.434-2.09-0.862-2.936-1.286v-11.013h8.981c0.889,1.396,1.904,2.423,3.047,3.078
				c1.143,0.656,2.317,0.984,3.523,0.984c0.359,0,0.762-0.031,1.206-0.096c0.444-0.062,0.856-0.264,1.237-0.603
				s0.704-0.862,0.969-1.571c0.264-0.709,0.396-1.708,0.396-2.999c-1.714-0.147-3.412-0.365-5.094-0.65
				c-1.683-0.286-3.291-0.672-4.824-1.159c-1.534-0.486-2.957-1.105-4.27-1.856c-1.312-0.751-2.449-1.661-3.411-2.729
				c-0.963-1.068-1.72-2.327-2.27-3.776c-0.551-1.449-0.825-3.116-0.825-4.999c0-2.158,0.274-4.047,0.825-5.665
				c0.55-1.619,1.302-3.01,2.253-4.174c0.953-1.163,2.079-2.126,3.381-2.888c1.301-0.762,2.702-1.365,4.205-1.81
				c1.502-0.444,3.067-0.757,4.697-0.937c1.629-0.18,3.258-0.27,4.888-0.27c2.306,0,4.374,0.117,6.205,0.35
				c1.83,0.232,3.47,0.529,4.919,0.889s2.729,0.756,3.841,1.189c1.11,0.434,2.1,0.852,2.968,1.254v11.108h-9.617
				c-0.805-1.523-1.725-2.634-2.762-3.333c-1.036-0.697-2.094-1.047-3.174-1.047c-0.359,0-0.772,0.059-1.237,0.175
				c-0.466,0.116-0.899,0.376-1.302,0.777c-0.401,0.402-0.74,0.995-1.016,1.777c-0.274,0.783-0.412,1.841-0.412,3.174
				c3.491,0.127,6.554,0.497,9.188,1.11c2.634,0.614,4.84,1.529,6.617,2.746s3.11,2.782,3.999,4.697
				S846.613,406.739,846.613,409.469z"/>
			<path fill="#FBE4A8" d="M863.663,390.648c-1.1,0-2.073,0.148-2.92,0.444c-0.846,0.297-1.555,0.666-2.126,1.111
				c-0.571,0.443-1.005,0.926-1.302,1.443c-0.296,0.52-0.443,1-0.443,1.444h-5.301v-16.25h43.291v16.25h-5.301
				c0-0.444-0.147-0.925-0.443-1.444c-0.297-0.518-0.73-1-1.302-1.443c-0.571-0.445-1.28-0.814-2.126-1.111
				c-0.847-0.296-1.82-0.444-2.92-0.444v19.487l3.809,0.73v12.663h-26.725v-12.663l3.809-0.73V390.648z"/>
			<path fill="#FBE4A8" d="M956.954,378.842c2.878,0.614,5.47,1.481,7.776,2.603c2.306,1.121,4.269,2.555,5.888,4.301
				c1.618,1.745,2.861,3.84,3.729,6.284c0.868,2.443,1.302,5.295,1.302,8.554c0,2.855-0.333,5.411-1,7.664
				c-0.666,2.254-1.618,4.232-2.856,5.936c-1.237,1.703-2.756,3.147-4.555,4.332c-1.798,1.186-3.824,2.147-6.077,2.888
				c-2.254,0.741-4.729,1.281-7.427,1.619c-2.698,0.339-5.57,0.508-8.617,0.508h-22.915v-12.663l3.809-0.73v-19.139l-3.809-0.729
				v-11.426H956.954z M948.036,410.135c1.417,0,2.613-0.105,3.586-0.317c0.974-0.212,1.772-0.508,2.396-0.889
				s1.111-0.856,1.46-1.429c0.35-0.57,0.604-1.205,0.762-1.904c0.159-0.697,0.249-1.47,0.271-2.316
				c0.021-0.846,0.031-1.746,0.031-2.697c0-0.953-0.011-1.852-0.031-2.698c-0.021-0.847-0.111-1.624-0.271-2.333
				c-0.158-0.709-0.412-1.344-0.762-1.904c-0.349-0.561-0.836-1.036-1.46-1.428s-1.423-0.693-2.396-0.904
				c-0.973-0.212-2.169-0.318-3.586-0.318h-2.92v19.139H948.036z"/>
			<path fill="#FBE4A8" d="M1012.883,423.529l-1.587-7.522h-12.474l-1.586,7.522h-16.98v-14.727l3.682-0.729l8.791-29.231h24.629
				l8.856,29.231l3.65,0.729v14.727H1012.883z M1000.759,405.977h8.601l-4.316-17.551L1000.759,405.977z"/>
			<path fill="#FBE4A8" d="M1043.739,423.529v-12.601l3.809-0.951l-13.107-17.933l-4.824-0.698v-12.505h25.486v12.505l-2.984,0.698
				l6.062,9.173l6.03-9.173l-2.983-0.698v-12.505h25.454v12.505l-4.792,0.698l-13.108,17.933l3.841,0.951v12.601H1043.739z"/>
			<path fill="#FBE4A8" d="M508.841,488.529l-1.587-7.521h-12.474l-1.586,7.521h-16.98v-14.727l3.682-0.73l8.791-29.23h24.629
				l8.855,29.23l3.65,0.73v14.727H508.841z M496.717,470.978h8.601l-4.316-17.552L496.717,470.978z"/>
			<path fill="#FBE4A8" d="M547.441,465.074v10.062l3.841,0.698v12.695h-19.107v-12.664l3.809-0.729v-18.06l-3.809-0.729v-12.505
				h22.916l15.266,24.09V457.14l-3.809-0.794v-12.505h19.074v12.505l-3.809,0.729v18.06l3.809,0.729v12.664h-22.914L547.441,465.074
				z"/>
			<path fill="#FBE4A8" d="M628.062,443.842c2.878,0.614,5.47,1.481,7.776,2.603c2.306,1.122,4.269,2.555,5.888,4.301
				c1.618,1.745,2.861,3.84,3.729,6.284c0.868,2.443,1.302,5.295,1.302,8.553c0,2.857-0.333,5.412-1,7.665
				c-0.666,2.254-1.618,4.232-2.856,5.936c-1.237,1.703-2.756,3.147-4.555,4.332c-1.798,1.186-3.824,2.147-6.077,2.888
				c-2.254,0.741-4.729,1.281-7.427,1.619c-2.698,0.339-5.57,0.508-8.617,0.508h-22.915v-12.664l3.809-0.729v-19.138l-3.809-0.73
				v-11.426H628.062z M619.144,475.135c1.417,0,2.613-0.105,3.586-0.317c0.974-0.211,1.772-0.508,2.396-0.889
				s1.111-0.857,1.46-1.428c0.35-0.572,0.604-1.207,0.762-1.904c0.159-0.699,0.249-1.471,0.271-2.317
				c0.021-0.846,0.031-1.745,0.031-2.698c0-0.951-0.011-1.851-0.031-2.697c-0.021-0.846-0.111-1.624-0.271-2.333
				c-0.158-0.708-0.412-1.343-0.762-1.904c-0.349-0.561-0.836-1.036-1.46-1.428s-1.423-0.693-2.396-0.905
				c-0.973-0.211-2.169-0.316-3.586-0.316h-2.92v19.138H619.144z"/>
			<path fill="#FBE4A8" d="M690.187,465.074v10.062l3.841,0.698v12.695H674.92v-12.664l3.809-0.729v-18.06l-3.809-0.729v-12.505
				h22.916l15.266,24.09V457.14l-3.809-0.794v-12.505h19.074v12.505l-3.809,0.729v18.06l3.809,0.729v12.664h-22.914L690.187,465.074
				z"/>
			<path fill="#FBE4A8" d="M736.15,443.842h26.725v12.505l-3.809,0.729v18.06l3.809,0.729v12.664H736.15v-12.664l3.809-0.729v-18.06
				l-3.809-0.729V443.842z"/>
			<path fill="#FBE4A8" d="M769.069,465.582c0-3.978,0.604-7.41,1.81-10.299c1.206-2.888,2.92-5.269,5.142-7.141
				c2.222-1.873,4.903-3.259,8.046-4.158c3.142-0.898,6.649-1.349,10.521-1.349c2.35,0,4.47,0.116,6.364,0.349
				c1.894,0.233,3.597,0.529,5.109,0.889c1.513,0.36,2.846,0.757,3.999,1.19c1.153,0.435,2.174,0.853,3.062,1.254v13.806h-8.981
				c-0.487-0.697-0.968-1.306-1.444-1.824c-0.476-0.519-0.989-0.941-1.539-1.27c-0.551-0.328-1.164-0.576-1.841-0.746
				c-0.678-0.169-1.471-0.254-2.38-0.254c-1.101,0-2.175,0.164-3.222,0.492c-1.048,0.328-1.979,0.867-2.793,1.618
				c-0.815,0.752-1.471,1.735-1.968,2.952c-0.498,1.217-0.746,2.713-0.746,4.49c0,2.074,0.201,3.772,0.604,5.095
				c0.401,1.322,0.983,2.37,1.745,3.142c0.762,0.772,1.698,1.307,2.809,1.604c1.111,0.296,2.386,0.443,3.825,0.443
				c0.762,0,1.549-0.052,2.364-0.158c0.814-0.105,1.698-0.307,2.649-0.604v-3.617h-6.379v-7.809h18.566v21.074
				c-1.565,0.656-3.227,1.27-4.982,1.842c-1.757,0.57-3.518,1.068-5.284,1.491c-1.768,0.424-3.497,0.698-5.189,0.825
				c-1.693,0.127-3.259,0.19-4.697,0.19c-3.534,0-6.835-0.424-9.902-1.27c-3.068-0.846-5.734-2.253-7.998-4.222
				c-2.265-1.967-4.042-4.448-5.332-7.442C769.714,473.174,769.069,469.644,769.069,465.582z"/>
			<path fill="#FBE4A8" d="M820.65,443.842h26.724v12.568l-3.809,0.73v5.236h15.267v-5.236l-3.809-0.73v-12.727h26.723v12.727
				l-3.809,0.73v17.995l3.809,0.729v12.664h-26.723v-12.664l3.809-0.729v-5.3h-15.267v5.3l3.809,0.729v12.664H820.65v-12.664
				l3.809-0.729V457.14l-3.809-0.73V443.842z"/>
			<path fill="#FBE4A8" d="M899.779,455.648c-1.1,0-2.073,0.148-2.92,0.444c-0.846,0.297-1.555,0.667-2.126,1.11
				c-0.571,0.445-1.005,0.927-1.302,1.444c-0.296,0.519-0.443,1-0.443,1.444h-5.301v-16.25h43.291v16.25h-5.301
				c0-0.444-0.147-0.926-0.443-1.444c-0.297-0.518-0.73-0.999-1.302-1.444c-0.571-0.443-1.28-0.813-2.126-1.11
				c-0.847-0.296-1.82-0.444-2.92-0.444v19.487l3.809,0.729v12.664H895.97v-12.664l3.809-0.729V455.648z"/>
			<path fill="#FBE4A8" d="M958.412,443.842h26.725v12.505l-3.809,0.729v18.06l3.809,0.729v12.664h-26.725v-12.664l3.809-0.729
				v-18.06l-3.809-0.729V443.842z"/>
			<path fill="#FBE4A8" d="M1008.184,465.074v10.062l3.841,0.698v12.695h-19.107v-12.664l3.809-0.729v-18.06l-3.809-0.729v-12.505
				h22.916l15.266,24.09V457.14l-3.809-0.794v-12.505h19.074v12.505l-3.809,0.729v18.06l3.809,0.729v12.664h-22.914
				L1008.184,465.074z"/>
			<path fill="#FBE4A8" d="M487.925,520.648c-1.1,0-2.073,0.148-2.92,0.444c-0.846,0.297-1.555,0.667-2.126,1.11
				c-0.571,0.445-1.005,0.927-1.302,1.444c-0.296,0.519-0.443,1-0.443,1.444h-5.301v-16.25h43.291v16.25h-5.301
				c0-0.444-0.147-0.926-0.443-1.444c-0.297-0.518-0.73-0.999-1.302-1.444c-0.571-0.443-1.28-0.813-2.126-1.11
				c-0.847-0.296-1.82-0.444-2.92-0.444v19.487l3.809,0.729v12.664h-26.725v-12.664l3.809-0.729V520.648z"/>
			<path fill="#FBE4A8" d="M525.066,508.842h26.724v12.568l-3.809,0.73v5.236h15.267v-5.236l-3.809-0.73v-12.727h26.723v12.727
				l-3.809,0.73v17.995l3.809,0.729v12.664h-26.723v-12.664l3.809-0.729v-5.3h-15.267v5.3l3.809,0.729v12.664h-26.724v-12.664
				l3.809-0.729V522.14l-3.809-0.73V508.842z"/>
			<path fill="#FBE4A8" d="M616.796,528.488l8.792-1.873v9.045l-8.792-1.904v7.015c1.27,0,2.496-0.09,3.682-0.27
				c1.185-0.18,2.285-0.429,3.301-0.746s1.946-0.688,2.793-1.11c0.846-0.424,1.576-0.878,2.19-1.365h4.348v16.25h-39.229v-12.664
				l3.809-0.729V522.14l-3.809-0.73v-12.568h39.229v16.25h-4.348c-0.614-0.465-1.345-0.909-2.19-1.333
				c-0.847-0.423-1.777-0.794-2.793-1.11c-1.016-0.318-2.116-0.572-3.301-0.762c-1.186-0.191-2.412-0.286-3.682-0.286V528.488z"/>
			<path fill="#FBE4A8" d="M695.932,508.842c2.878,0.614,5.47,1.481,7.776,2.603c2.306,1.122,4.269,2.555,5.888,4.301
				c1.618,1.745,2.861,3.84,3.729,6.284c0.868,2.443,1.302,5.295,1.302,8.553c0,2.857-0.333,5.412-1,7.665
				c-0.666,2.254-1.618,4.232-2.856,5.936c-1.237,1.703-2.756,3.147-4.555,4.332c-1.798,1.186-3.824,2.147-6.077,2.888
				c-2.254,0.741-4.729,1.281-7.427,1.619c-2.698,0.339-5.57,0.508-8.617,0.508h-22.915v-12.664l3.809-0.729v-19.138l-3.809-0.73
				v-11.426H695.932z M687.014,540.135c1.417,0,2.613-0.105,3.586-0.317c0.974-0.211,1.772-0.508,2.396-0.889
				s1.111-0.857,1.46-1.428c0.35-0.572,0.604-1.207,0.762-1.904c0.159-0.699,0.249-1.471,0.271-2.317
				c0.021-0.846,0.031-1.745,0.031-2.698c0-0.951-0.011-1.851-0.031-2.697c-0.021-0.846-0.111-1.624-0.271-2.333
				c-0.158-0.708-0.412-1.343-0.762-1.904c-0.349-0.561-0.836-1.036-1.46-1.428s-1.423-0.693-2.396-0.905
				c-0.973-0.211-2.169-0.316-3.586-0.316h-2.92v19.138H687.014z"/>
			<path fill="#FBE4A8" d="M743.673,528.488l8.792-1.873v9.045l-8.792-1.904v7.015c1.27,0,2.496-0.09,3.682-0.27
				c1.185-0.18,2.285-0.429,3.301-0.746s1.946-0.688,2.793-1.11c0.846-0.424,1.576-0.878,2.19-1.365h4.348v16.25h-39.229v-12.664
				l3.809-0.729V522.14l-3.809-0.73v-12.568h39.229v16.25h-4.348c-0.614-0.465-1.345-0.909-2.19-1.333
				c-0.847-0.423-1.777-0.794-2.793-1.11c-1.016-0.318-2.116-0.572-3.301-0.762c-1.186-0.191-2.412-0.286-3.682-0.286V528.488z"/>
			<path fill="#FBE4A8" d="M805.57,539.469c0,1.969-0.28,3.709-0.841,5.222c-0.562,1.513-1.323,2.824-2.285,3.936
				c-0.963,1.11-2.105,2.036-3.428,2.776c-1.323,0.741-2.746,1.339-4.27,1.794c-1.523,0.454-3.115,0.719-4.776,0.793
				s-3.316,0.111-4.967,0.111c-2.285,0-4.349-0.053-6.188-0.159c-1.842-0.105-3.486-0.338-4.936-0.697
				c-1.45-0.36-2.729-0.757-3.841-1.19c-1.11-0.434-2.09-0.862-2.936-1.286v-11.013h8.981c0.889,1.396,1.904,2.423,3.047,3.079
				c1.143,0.655,2.317,0.983,3.523,0.983c0.359,0,0.762-0.032,1.206-0.095c0.444-0.064,0.856-0.265,1.237-0.604
				c0.381-0.338,0.704-0.862,0.969-1.571c0.264-0.708,0.396-1.708,0.396-2.999c-1.714-0.147-3.412-0.365-5.094-0.65
				c-1.683-0.286-3.291-0.672-4.824-1.158c-1.534-0.487-2.957-1.105-4.27-1.857c-1.312-0.751-2.449-1.66-3.411-2.729
				c-0.963-1.068-1.72-2.327-2.27-3.776c-0.551-1.449-0.825-3.115-0.825-4.999c0-2.158,0.274-4.047,0.825-5.665
				c0.55-1.619,1.302-3.01,2.253-4.174c0.953-1.163,2.079-2.127,3.381-2.889c1.301-0.762,2.702-1.364,4.205-1.809
				c1.502-0.444,3.067-0.756,4.697-0.937c1.629-0.18,3.258-0.27,4.888-0.27c2.306,0,4.374,0.116,6.205,0.349
				c1.83,0.233,3.47,0.529,4.919,0.889c1.449,0.36,2.729,0.757,3.841,1.19c1.11,0.435,2.1,0.853,2.968,1.254v11.108h-9.617
				c-0.805-1.523-1.725-2.635-2.762-3.332c-1.036-0.699-2.094-1.048-3.174-1.048c-0.359,0-0.772,0.059-1.237,0.175
				c-0.466,0.116-0.899,0.376-1.302,0.777c-0.401,0.402-0.74,0.995-1.016,1.777c-0.274,0.783-0.412,1.841-0.412,3.174
				c3.491,0.127,6.554,0.497,9.188,1.111c2.634,0.613,4.84,1.528,6.617,2.745s3.11,2.782,3.999,4.697S805.57,536.74,805.57,539.469z
				"/>
			<path fill="#FBE4A8" d="M835.22,528.488l8.792-1.873v9.045l-8.792-1.904v7.015c1.27,0,2.496-0.09,3.682-0.27
				c1.185-0.18,2.285-0.429,3.301-0.746s1.946-0.688,2.793-1.11c0.846-0.424,1.576-0.878,2.19-1.365h4.348v16.25h-39.229v-12.664
				l3.809-0.729V522.14l-3.809-0.73v-12.568h39.229v16.25h-4.348c-0.614-0.465-1.345-0.909-2.19-1.333
				c-0.847-0.423-1.777-0.794-2.793-1.11c-1.016-0.318-2.116-0.572-3.301-0.762c-1.186-0.191-2.412-0.286-3.682-0.286V528.488z"/>
			<path fill="#FBE4A8" d="M907.844,553.529h-18.979c-0.593-1.1-1.206-2.27-1.841-3.507c-0.635-1.238-1.249-2.534-1.841-3.888
				c-0.593-1.354-1.148-2.751-1.666-4.189c-0.519-1.439-0.958-2.92-1.317-4.443h-1.047v16.027h-22.916v-12.664l3.809-0.729v-18.06
				l-3.809-0.729v-12.505h25.994c3.448,0,6.427,0.148,8.935,0.444c2.507,0.297,4.634,0.729,6.379,1.302
				c1.746,0.57,3.158,1.264,4.237,2.078c1.079,0.815,1.92,1.735,2.523,2.762c0.603,1.026,1.01,2.153,1.222,3.38
				c0.211,1.228,0.317,2.528,0.317,3.903c0,1.396-0.133,2.666-0.396,3.809c-0.265,1.143-0.735,2.19-1.412,3.143
				c-0.678,0.952-1.604,1.825-2.777,2.618c-1.175,0.794-2.672,1.54-4.491,2.237c0.381,0.762,0.946,1.667,1.698,2.714
				c0.751,1.048,1.57,2.116,2.459,3.206s1.772,2.143,2.65,3.158s1.635,1.883,2.27,2.602V553.529z M881.153,528.9
				c1.163,0,2.216-0.058,3.157-0.175c0.941-0.116,1.746-0.37,2.412-0.762c0.667-0.391,1.18-0.968,1.54-1.729
				c0.359-0.762,0.539-1.788,0.539-3.078c0-1.27-0.18-2.285-0.539-3.047c-0.36-0.762-0.873-1.35-1.54-1.762
				c-0.666-0.413-1.471-0.683-2.412-0.81s-1.994-0.19-3.157-0.19V528.9z"/>
			<path fill="#FBE4A8" d="M925.116,520.648c-1.1,0-2.073,0.148-2.92,0.444c-0.846,0.297-1.555,0.667-2.126,1.11
				c-0.571,0.445-1.005,0.927-1.302,1.444c-0.296,0.519-0.443,1-0.443,1.444h-5.301v-16.25h43.291v16.25h-5.301
				c0-0.444-0.147-0.926-0.443-1.444c-0.297-0.518-0.73-0.999-1.302-1.444c-0.571-0.443-1.28-0.813-2.126-1.11
				c-0.847-0.296-1.82-0.444-2.92-0.444v19.487l3.809,0.729v12.664h-26.725v-12.664l3.809-0.729V520.648z"/>
			<path fill="#FBE4A8" d="M960.575,537.279h20.312v16.25h-20.312V537.279z"/>
		</g>
	</g>
</g>
<g id="fonts" display="none">
	<polygon display="inline" fill="#A85C22" points="646.946,618.774 426.475,655.857 664.2,776.034 664.2,652.446 	"/>
	<polygon display="inline" fill="#A85C22" points="1088.566,193.683 1143.586,149.149 927.787,40.732 914.073,204.454 	"/>
	<linearGradient id="SVGID_4_" gradientUnits="userSpaceOnUse" x1="622.0936" y1="749.7307" x2="548.7391" y2="818.3079">
		<stop  offset="0" style="stop-color:#B77430"/>
		<stop  offset="0.358" style="stop-color:#BF7A31"/>
		<stop  offset="0.567" style="stop-color:#C78032"/>
		<stop  offset="1" style="stop-color:#D19853"/>
	</linearGradient>
	<polygon display="inline" fill="url(#SVGID_4_)" points="664.2,776.034 511.229,804.039 573.021,729.94 	"/>
	<linearGradient id="SVGID_6_" gradientUnits="userSpaceOnUse" x1="360.432" y1="402.503" x2="1209.2041" y2="402.503">
		<stop  offset="0" style="stop-color:#B77430"/>
		<stop  offset="0.358" style="stop-color:#BF7A31"/>
		<stop  offset="0.567" style="stop-color:#C78032"/>
		<stop  offset="1" style="stop-color:#D19853"/>
	</linearGradient>
	<polygon display="inline" fill="url(#SVGID_6_)" points="360.432,228.856 1143.586,149.149 1209.204,644.625 426.475,655.857 	"/>
	<g display="inline">
		<rect x="474.564" y="313.777" fill="none" width="700.065" height="312.446"/>
		<text transform="matrix(1 0 0 1 474.564 358.5291)"><tspan x="0" y="0" fill="#FBE4A8" font-family="'HoltwoodOneSC'" font-size="65" letter-spacing="1">We survived </tspan><tspan x="0" y="65" fill="#FBE4A8" font-family="'HoltwoodOneSC'" font-size="65" letter-spacing="1">our first day </tspan><tspan x="0" y="130" fill="#FBE4A8" font-family="'HoltwoodOneSC'" font-size="65" letter-spacing="1">and night in </tspan><tspan x="0" y="195" fill="#FBE4A8" font-family="'HoltwoodOneSC'" font-size="65" letter-spacing="1">the desert.</tspan></text>
	</g>
</g>
</svg>
