<?xml version="1.0" encoding="utf-8"?>
<!-- Generator: Adobe Illustrator 17.0.0, SVG Export Plug-In . SVG Version: 6.00 Build 0)  -->
<!DOCTYPE svg PUBLIC "-//W3C//DTD SVG 1.1//EN" "http://www.w3.org/Graphics/SVG/1.1/DTD/svg11.dtd">
<svg version="1.1" xmlns="http://www.w3.org/2000/svg" xmlns:xlink="http://www.w3.org/1999/xlink" x="0px" y="0px" width="1600px"
	 height="900px" viewBox="0 0 1600 900" enable-background="new 0 0 1600 900" xml:space="preserve">
<g id="Layer_3" display="none">
	<g display="inline">
		<rect x="0" y="0.001" fill="#FBE4A8" width="1603.089" height="899.998"/>
		<radialGradient id="SVGID_1_" cx="803.0887" cy="342.8386" r="316.6649" gradientUnits="userSpaceOnUse">
			<stop  offset="0" style="stop-color:#FBE4CE"/>
			<stop  offset="0.5397" style="stop-color:#F2E7CE"/>
			<stop  offset="1" style="stop-color:#FFFFFF"/>
		</radialGradient>
		<circle fill="url(#SVGID_1_)" cx="803.089" cy="342.839" r="316.665"/>
		<g>
			<defs>
				<rect id="SVGID_14_" x="0" y="0.001" width="1603.089" height="899.998"/>
			</defs>
			<clipPath id="SVGID_3_">
				<use xlink:href="#SVGID_14_"  overflow="visible"/>
			</clipPath>
			<g clip-path="url(#SVGID_3_)">
				<g>
					<g>
						<polygon fill="#D19853" points="-1601.683,91.094 -1372.658,200.334 -1093.942,159.419 -726.206,283.391 -389.982,207.719 
							-17.945,285.727 501.107,180.716 1039.317,307.616 1443.317,187.616 2015.317,299.616 2335.317,183.616 2731.317,283.616 
							3198.317,91.094 3198.317,899.999 -1601.683,899.999 						"/>
						<polygon fill="#C18749" points="1039.317,307.616 1476.07,392.708 1095.662,290.879 						"/>
					</g>
				</g>
				<g>
					<g>
						<polygon fill="#C78032" points="-1601.683,327.616 -1315.898,267.397 -640.683,395.616 -240.683,267.397 127.317,367.616 
							657.122,267.397 1323.317,415.616 1668.224,285.727 2040.261,405.739 2247.317,303.048 2633.638,385.415 3003.357,267.397 
							3198.188,327.616 3198.317,899.999 -1601.683,899.999 						"/>
						<polygon fill="#B77430" points="127.317,367.616 -70.683,397.118 71.317,354.791 						"/>
						<polygon fill="#B77430" points="1323.317,415.616 1498.889,451.714 1372.436,397.118 						"/>
					</g>
				</g>
				<g>
					<g>
						<polygon fill="#BF672B" points="-1601.683,495.546 -1384.683,402.999 -1096.683,544.706 -876.683,449.999 -496.683,603.616 
							-264.683,495.616 127.317,551.616 395.317,383.616 763.317,515.616 1043.317,423.616 1703.317,567.616 1967.317,449.999 
							2247.317,527.616 2455.317,419.616 2827.317,491.616 3071.317,327.616 3198.087,495.546 3198.317,899.999 -1601.683,899.999 
													"/>
						<polygon fill="#A85C22" points="127.317,551.616 -35.683,619.616 78.177,544.596 						"/>
						<polygon fill="#A85C22" points="742.948,508.309 764.651,550.949 785.555,508.309 763.317,515.616 						"/>
					</g>
					<g id="peter_17_">
						<g>
							<path fill="#5E8C57" d="M1522.206,294.876c-13.808,0-25,11.192-25,25c0,0.191-0.424,19.946-9.86,38.819
								c-8.636,17.271-21.875,28.239-40.14,33.159V303.06c0-13.807-11.193-25-25-25s-25,11.193-25,25v148.978
								c-18.265-4.92-31.504-15.887-40.14-33.159c-9.437-18.873-9.86-38.628-9.86-38.819c0-13.808-11.192-25-25-25s-25,11.192-25,25
								c0,3.163,0.425,31.751,15.14,61.181c9.228,18.455,22.073,33.258,38.181,43.995c13.561,9.041,29.193,15.018,46.68,17.873
								v100.126h50v-160.31c17.486-2.854,33.119-8.832,46.68-17.873c16.107-10.737,28.953-25.54,38.181-43.995
								c14.715-29.43,15.14-58.018,15.14-61.181C1547.206,306.068,1536.014,294.876,1522.206,294.876z"/>
							<g>
								<path fill="#475E38" d="M1337.206,380.06c0,0.191,0.424,19.946,9.86,38.819c8.636,17.271,21.875,28.239,40.14,33.159v-3.526
									c-13.193-5.861-23.168-15.69-30.14-29.633c-9.437-18.873-9.86-38.628-9.86-38.819c0-13.808-11.192-25-25-25
									c-1.712,0-3.384,0.173-5,0.501C1328.617,357.877,1337.206,367.964,1337.206,380.06z"/>
								<path fill="#475E38" d="M1437.206,303.06v88.795c3.521-0.948,6.85-2.127,10-3.526V303.06c0-13.807-11.193-25-25-25
									c-1.712,0-3.384,0.173-5,0.501C1428.617,280.877,1437.206,290.965,1437.206,303.06z"/>
								<path fill="#475E38" d="M1522.206,294.876c-1.712,0-3.384,0.173-5,0.501c11.411,2.316,20,12.404,20,24.499
									c0,3.163-0.425,31.751-15.14,61.181c-9.228,18.455-22.073,33.258-38.181,43.995c-13.561,9.041-29.193,15.018-46.68,17.873
									v160.31h10v-160.31c17.486-2.854,33.119-8.832,46.68-17.873c16.107-10.737,28.953-25.54,38.181-43.995
									c14.715-29.43,15.14-58.018,15.14-61.181C1547.206,306.068,1536.014,294.876,1522.206,294.876z"/>
							</g>
						</g>
						<polygon fill="#BCD4E8" points="1441.358,412.503 1431.358,395.182 1441.358,377.862 1461.358,377.862 1471.358,395.182 
							1461.358,412.503 						"/>
						<polygon fill="#BCD4E8" points="1376.382,463.824 1366.382,446.503 1376.382,429.183 1396.382,429.183 1406.382,446.503 
							1396.382,463.824 						"/>
						<polygon fill="#A6AEE8" points="1461.736,401.174 1451.358,407.166 1440.979,401.174 1440.979,389.19 1451.358,383.198 
							1461.736,389.19 						"/>
						<polygon fill="#A6AEE8" points="1396.76,452.495 1386.382,458.487 1376.004,452.495 1376.004,440.511 1386.382,434.519 
							1396.76,440.511 						"/>
					</g>
					<g id="peter_15_">
						<g>
							<path fill="#5E8C57" d="M1614.847,603.772c2.07-6.734,3.189-13.883,3.189-21.296c0-39.978-32.409-72.386-72.386-72.386
								s-72.386,32.408-72.386,72.386c0,7.412,1.119,14.562,3.189,21.296H1614.847z"/>
							<path fill="#475E38" d="M1486.007,567.641c-3.583,0-7.071,0.401-10.433,1.14c-0.85,4.437-1.311,9.011-1.311,13.696
								c0,7.412,1.119,14.562,3.189,21.296h55.372C1527.398,582.984,1508.496,567.641,1486.007,567.641z"/>
							<path fill="#5E8C57" d="M1520.978,621.938c0.434-2.606,0.671-5.278,0.671-8.007c0-26.723-21.663-48.386-48.386-48.386
								c-26.723,0-48.386,21.663-48.386,48.386c0,2.729,0.237,5.401,0.671,8.007H1520.978z"/>
						</g>
						<polygon fill="#BCD4E8" points="1588.036,556.932 1578.036,539.611 1588.036,522.291 1608.036,522.291 1618.036,539.611 
							1608.036,556.932 						"/>
						<polygon fill="#A6AEE8" points="1608.414,545.603 1598.036,551.595 1587.657,545.603 1587.657,533.619 1598.036,527.627 
							1608.414,533.619 						"/>
					</g>
				</g>
			</g>
		</g>
	</g>
	<g display="inline">
		<g>
			<defs>
				<rect id="SVGID_89_" x="2310.876" y="109.836" width="1600" height="899.998"/>
			</defs>
			<clipPath id="SVGID_4_">
				<use xlink:href="#SVGID_89_"  overflow="visible"/>
			</clipPath>
			<g clip-path="url(#SVGID_4_)">
				<g>
					<g>
						<polygon fill="#394E5B" points="-520.245,200.93 -291.22,310.17 -12.504,269.255 355.232,393.227 691.456,317.555 
							1063.493,395.562 1582.545,290.552 2120.755,417.451 2524.755,297.451 3096.755,409.451 3416.755,293.451 3812.755,393.451 
							4279.755,200.93 4279.755,1009.835 -520.245,1009.835 						"/>
						<polygon fill="#2A3B44" points="355.232,393.227 26.755,464.627 313.519,379.164 						"/>
						<polygon fill="#2A3B44" points="1063.493,395.562 889.475,418.117 998.528,381.941 						"/>
					</g>
				</g>
				<g>
					<g>
						<polygon fill="#3F5C63" points="-520.245,437.451 -234.46,377.233 440.755,505.451 840.755,377.233 1208.755,477.451 
							1738.56,377.233 2404.755,525.451 2749.661,395.562 3121.698,515.574 3328.755,412.884 3715.076,495.251 4084.795,377.233 
							4279.626,437.451 4279.755,1009.835 -520.245,1009.835 						"/>
						<polygon fill="#364D51" points="440.755,505.451 84.755,585.451 370.815,492.17 						"/>
						<polygon fill="#364D51" points="1208.755,477.451 1010.755,506.954 1152.755,464.627 						"/>
					</g>
				</g>
				<g>
					<g>
						<polygon fill="#538896" points="-520.245,605.382 -303.245,512.835 -15.245,654.542 204.755,559.835 584.755,713.451 
							816.755,605.451 1208.755,661.451 1476.755,493.451 1844.755,625.451 2124.755,533.451 2784.755,677.451 3048.755,559.835 
							3328.755,637.451 3536.755,529.451 3908.755,601.451 4152.755,437.451 4279.525,605.382 4279.755,1009.835 -520.245,1009.835 
													"/>
						<polygon fill="#426972" points="1208.755,661.451 1045.755,729.451 1159.615,654.431 						"/>
						<polygon fill="#426972" points="584.755,713.451 330.755,828.451 540.864,695.708 						"/>
					</g>
					<g id="peter_43_">
						<g>
							<path fill="#3F5C63" d="M721.685,514.729c-13.807,0-25,11.147-25,24.955c-0.002,0.331-0.433,33.471-16.807,65.28
								c-8.991,17.47-21.13,31.283-36.078,41.057c-13.245,8.66-29.03,14.34-47.115,16.999V439.7c0-13.807-11.193-25-25-25
								s-25,11.193-25,25v122.573c-19.33-4.637-33.237-15.768-42.193-33.68c-9.437-18.873-9.86-38.628-9.86-38.819
								c0-13.808-11.192-25-25-25s-25,11.192-25,25c0,3.163,0.425,31.751,15.14,61.181c9.228,18.455,22.073,33.258,38.181,43.995
								c14.086,9.391,30.42,15.459,48.733,18.172v199.827h50v-99.498c73.413-7.999,110.321-50.917,128.61-87.496
								c21.146-42.293,21.39-84.408,21.39-86.181C746.685,525.968,735.493,514.729,721.685,514.729z"/>
							<g>
								<path fill="#364D51" d="M584.755,439.7v223.321c4.098-0.603,8.071-1.368,11.93-2.281V439.7c0-13.807-11.193-25-25-25
									c-2.056,0-4.053,0.254-5.965,0.722C576.646,418.098,584.755,427.95,584.755,439.7z"/>
								<path fill="#364D51" d="M721.685,514.729c-2.061,0-4.061,0.253-5.977,0.722c10.932,2.681,19.046,12.569,19.046,24.323
									c0,1.772-0.243,43.888-21.39,86.181c-18.29,36.58-55.198,79.497-128.61,87.496v99.498h11.93v-99.498
									c73.413-7.999,110.321-50.917,128.61-87.496c21.146-42.293,21.39-84.408,21.39-86.181
									C746.685,525.968,735.493,514.729,721.685,514.729z"/>
								<path fill="#364D51" d="M482.702,489.774c0,0.191,0.424,19.946,9.86,38.819c8.956,17.912,22.864,29.043,42.193,33.68v-4.013
									c-13.249-5.855-23.272-15.686-30.263-29.667c-9.437-18.873-9.86-38.628-9.86-38.819c0-13.808-11.192-25-25-25
									c-2.056,0-4.053,0.254-5.965,0.722C474.593,468.172,482.702,478.023,482.702,489.774z"/>
							</g>
						</g>
						<g>
							<polygon fill="#538896" points="531.288,578.632 521.288,561.311 531.288,543.99 551.288,543.99 561.288,561.311 
								551.288,578.632 							"/>
							<polygon fill="#426972" points="551.666,567.303 541.288,573.295 530.909,567.303 530.909,555.319 541.288,549.327 
								551.666,555.319 							"/>
						</g>
						<g>
							<polygon fill="#538896" points="590.72,681.16 580.72,663.839 590.72,646.519 610.72,646.519 620.72,663.839 610.72,681.16 
															"/>
							<polygon fill="#426972" points="611.098,669.831 600.72,675.823 590.341,669.831 590.341,657.847 600.72,651.855 
								611.098,657.847 							"/>
						</g>
					</g>
				</g>
			</g>
		</g>
	</g>
</g>
<g id="outlune">
	<polygon fill="#1D252B" points="1117.876,581.976 753.208,569.377 737.699,761.774 920.999,675.574 	"/>
	<polygon fill="#1D252B" points="617.174,259.507 617.174,139.975 430.476,280.824 541.456,297.975 	"/>
	<linearGradient id="SVGID_6_" gradientUnits="userSpaceOnUse" x1="801.7811" y1="584.2441" x2="981.1327" y2="867.2415">
		<stop  offset="0" style="stop-color:#2A3B44"/>
		<stop  offset="0.3493" style="stop-color:#30424C"/>
		<stop  offset="0.7191" style="stop-color:#394E5B"/>
		<stop  offset="0.7604" style="stop-color:#394E5B"/>
		<stop  offset="1" style="stop-color:#394E5B"/>
	</linearGradient>
	<polygon fill="url(#SVGID_6_)" points="753.208,569.377 1063.841,719.102 737.699,761.774 	"/>
	<linearGradient id="SVGID_7_" gradientUnits="userSpaceOnUse" x1="458.0126" y1="243.1799" x2="1142.4844" y2="500.0302">
		<stop  offset="0" style="stop-color:#3F5C63"/>
		<stop  offset="0.5773" style="stop-color:#3E5A61"/>
		<stop  offset="0.8507" style="stop-color:#3A5459"/>
		<stop  offset="1" style="stop-color:#364D51"/>
	</linearGradient>
	<polygon fill="url(#SVGID_7_)" points="430.476,280.824 1143.586,199.402 1117.876,581.976 501.911,560.694 	"/>
	<g>
		<path fill="#82B3BF" d="M545.689,396.338l-12.98-34.246l-4.824-0.762v-13.774h30.818v13.774l-3.492,0.762l5.491,18.059
			l5.491-18.059l-3.492-0.762v-13.774h30.818v13.774l-3.491,0.762l5.491,18.059l5.49-18.059l-3.491-0.762v-13.774h23.359v13.774
			l-4.792,0.762l-12.981,34.246h-22.598l-6.126-18.662l-6.094,18.662H545.689z"/>
		<path fill="#82B3BF" d="M626.057,351.618h26.724v12.568l-3.809,0.73v5.237h15.267v-5.237l-3.809-0.73V351.46h26.723v12.727
			l-3.809,0.73v17.996l3.809,0.73v12.664H660.43v-12.664l3.809-0.73v-5.3h-15.267v5.3l3.809,0.73v12.664h-26.724v-12.664l3.809-0.73
			v-17.996l-3.809-0.73V351.618z"/>
		<path fill="#82B3BF" d="M726.103,396.306l-1.587-7.522h-12.474l-1.586,7.522h-16.98v-14.727l3.682-0.73l8.791-29.231h24.629
			l8.855,29.231l3.65,0.73v14.727H726.103z M713.979,378.755h8.601l-4.316-17.551L713.979,378.755z"/>
		<path fill="#82B3BF" d="M757.023,363.425c-1.1,0-2.073,0.148-2.92,0.444c-0.846,0.296-1.555,0.667-2.126,1.111
			s-1.005,0.926-1.302,1.444c-0.296,0.519-0.443,1-0.443,1.444h-5.301v-16.25h43.291v16.25h-5.301c0-0.444-0.147-0.925-0.443-1.444
			c-0.297-0.518-0.73-1-1.302-1.444s-1.28-0.814-2.126-1.111c-0.847-0.296-1.82-0.444-2.92-0.444v19.487l3.809,0.73v12.664h-26.725
			v-12.664l3.809-0.73V363.425z"/>
		<path fill="#82B3BF" d="M850.314,351.618c2.878,0.614,5.47,1.481,7.776,2.603c2.306,1.122,4.269,2.555,5.888,4.301
			c1.618,1.745,2.861,3.84,3.729,6.284c0.868,2.443,1.302,5.295,1.302,8.553c0,2.856-0.333,5.412-1,7.665
			c-0.666,2.254-1.618,4.232-2.856,5.936c-1.237,1.703-2.756,3.147-4.555,4.332c-1.798,1.185-3.824,2.148-6.077,2.888
			c-2.254,0.741-4.729,1.28-7.427,1.619c-2.698,0.339-5.57,0.508-8.617,0.508h-22.915v-12.664l3.809-0.73v-19.138l-3.809-0.73
			v-11.426H850.314z M841.396,382.912c1.417,0,2.613-0.105,3.586-0.317c0.974-0.211,1.772-0.508,2.396-0.889s1.111-0.857,1.46-1.428
			c0.35-0.571,0.604-1.206,0.762-1.904c0.159-0.698,0.249-1.47,0.271-2.317c0.021-0.846,0.031-1.746,0.031-2.698
			s-0.011-1.851-0.031-2.698c-0.021-0.846-0.111-1.624-0.271-2.333c-0.158-0.708-0.412-1.343-0.762-1.904
			c-0.349-0.56-0.836-1.036-1.46-1.428s-1.423-0.693-2.396-0.905c-0.973-0.211-2.169-0.317-3.586-0.317h-2.92v19.138H841.396z"/>
		<path fill="#82B3BF" d="M901.228,396.877c-3.724,0-7.21-0.396-10.457-1.19c-3.248-0.793-6.073-2.158-8.475-4.094
			c-2.401-1.937-4.295-4.406-5.681-7.411c-1.387-3.004-2.079-6.612-2.079-10.823c0-4.126,0.692-7.644,2.079-10.553
			c1.386-2.909,3.284-5.279,5.696-7.109c2.412-1.83,5.237-3.168,8.475-4.015c3.237-0.846,6.718-1.27,10.441-1.27
			c3.703,0,7.179,0.423,10.427,1.27c3.247,0.847,6.083,2.185,8.506,4.015c2.422,1.831,4.332,4.201,5.729,7.109
			c1.396,2.91,2.095,6.427,2.095,10.553c0,2.793-0.317,5.327-0.952,7.601c-0.635,2.275-1.529,4.296-2.682,6.062
			c-1.153,1.767-2.539,3.29-4.158,4.57c-1.618,1.28-3.423,2.338-5.411,3.174c-1.989,0.836-4.126,1.396-6.411,1.682
			C906.085,396.735,903.705,396.877,901.228,396.877z M901.228,363.933c-1.248,0-2.301,0.159-3.157,0.476
			c-0.857,0.317-1.566,0.73-2.127,1.238s-0.999,1.09-1.317,1.746c-0.316,0.656-0.545,1.328-0.682,2.015
			c-0.138,0.688-0.223,1.365-0.254,2.031c-0.032,0.667-0.048,1.254-0.048,1.762c0,0.487,0.011,1.063,0.032,1.729
			c0.021,0.667,0.095,1.365,0.222,2.095c0.127,0.73,0.338,1.455,0.635,2.174c0.296,0.72,0.725,1.365,1.285,1.936
			s1.28,1.031,2.158,1.381c0.878,0.349,1.963,0.523,3.253,0.523c1.27,0,2.344-0.169,3.222-0.508
			c0.878-0.338,1.598-0.788,2.158-1.349s1-1.19,1.317-1.889s0.545-1.401,0.683-2.11c0.137-0.709,0.222-1.402,0.254-2.079
			c0.031-0.677,0.048-1.259,0.048-1.746c0-0.508-0.017-1.095-0.048-1.761c-0.032-0.667-0.117-1.349-0.254-2.047
			c-0.138-0.698-0.365-1.38-0.683-2.047c-0.317-0.666-0.757-1.264-1.317-1.793c-0.561-0.529-1.28-0.957-2.158-1.285
			S902.498,363.933,901.228,363.933z"/>
		<path fill="#82B3BF" d="M544.642,461.337l-12.188-31.516l-4.539-0.698v-12.505h28.978v12.505l-3.301,0.698l5.173,16.631
			l5.174-16.631l-3.301-0.698v-12.505h28.977v12.505l-3.269,0.698l5.142,16.631l5.174-16.631l-3.301-0.698V416.46h21.963v12.664
			l-4.508,0.698l-12.188,31.516h-21.232l-5.776-17.17l-5.713,17.17H544.642z"/>
		<path fill="#82B3BF" d="M643.45,436.264l8.792-1.873v9.045l-8.792-1.904v7.014c1.27,0,2.496-0.09,3.682-0.27
			c1.185-0.18,2.285-0.429,3.301-0.746s1.946-0.688,2.793-1.111c0.846-0.423,1.576-0.878,2.19-1.365h4.348v16.25h-39.229v-12.664
			l3.809-0.73v-17.996l-3.809-0.73v-12.568h39.229v16.25h-4.348c-0.614-0.465-1.345-0.91-2.19-1.333
			c-0.847-0.423-1.777-0.793-2.793-1.111s-2.116-0.571-3.301-0.762c-1.186-0.19-2.412-0.286-3.682-0.286V436.264z"/>
		<path fill="#82B3BF" d="M722.586,416.618c2.878,0.614,5.47,1.481,7.776,2.603c2.306,1.122,4.269,2.555,5.888,4.301
			c1.618,1.745,2.861,3.84,3.729,6.284c0.868,2.443,1.302,5.295,1.302,8.553c0,2.856-0.333,5.412-1,7.665
			c-0.666,2.254-1.618,4.232-2.856,5.936c-1.237,1.703-2.756,3.147-4.555,4.332c-1.798,1.186-3.824,2.147-6.077,2.888
			c-2.254,0.741-4.729,1.281-7.427,1.619c-2.698,0.339-5.57,0.508-8.617,0.508h-22.915v-12.664l3.809-0.73v-19.138l-3.809-0.73
			v-11.426H722.586z M713.668,447.912c1.417,0,2.613-0.105,3.586-0.317c0.974-0.211,1.772-0.508,2.396-0.889s1.111-0.857,1.46-1.428
			c0.35-0.571,0.604-1.206,0.762-1.904c0.159-0.698,0.249-1.47,0.271-2.317c0.021-0.846,0.031-1.746,0.031-2.698
			s-0.011-1.851-0.031-2.698c-0.021-0.846-0.111-1.624-0.271-2.333c-0.158-0.708-0.412-1.343-0.762-1.904
			c-0.349-0.56-0.836-1.036-1.46-1.428s-1.423-0.693-2.396-0.905c-0.973-0.211-2.169-0.317-3.586-0.317h-2.92v19.138H713.668z"/>
		<path fill="#82B3BF" d="M773.5,461.877c-3.724,0-7.21-0.396-10.457-1.19c-3.248-0.793-6.073-2.158-8.475-4.094
			c-2.401-1.937-4.295-4.406-5.681-7.411c-1.387-3.004-2.079-6.612-2.079-10.823c0-4.126,0.692-7.644,2.079-10.553
			c1.386-2.909,3.284-5.279,5.696-7.109c2.412-1.83,5.237-3.168,8.475-4.015c3.237-0.846,6.718-1.27,10.441-1.27
			c3.703,0,7.179,0.423,10.427,1.27c3.247,0.847,6.083,2.185,8.506,4.015c2.422,1.831,4.332,4.201,5.729,7.109
			c1.396,2.91,2.095,6.427,2.095,10.553c0,2.793-0.317,5.327-0.952,7.601c-0.635,2.275-1.529,4.296-2.682,6.062
			c-1.153,1.767-2.539,3.29-4.158,4.57c-1.618,1.28-3.423,2.338-5.411,3.174c-1.989,0.836-4.126,1.396-6.411,1.682
			C778.356,461.735,775.976,461.877,773.5,461.877z M773.5,428.933c-1.248,0-2.301,0.159-3.157,0.476
			c-0.857,0.317-1.566,0.73-2.127,1.238s-0.999,1.09-1.317,1.746c-0.316,0.656-0.545,1.328-0.682,2.015
			c-0.138,0.688-0.223,1.365-0.254,2.031c-0.032,0.667-0.048,1.254-0.048,1.762c0,0.487,0.011,1.063,0.032,1.729
			c0.021,0.667,0.095,1.365,0.222,2.095c0.127,0.73,0.338,1.455,0.635,2.174c0.296,0.72,0.725,1.365,1.285,1.936
			s1.28,1.031,2.158,1.381c0.878,0.349,1.963,0.523,3.253,0.523c1.27,0,2.344-0.169,3.222-0.508
			c0.878-0.338,1.598-0.788,2.158-1.349s1-1.19,1.317-1.889s0.545-1.401,0.683-2.11c0.137-0.709,0.222-1.402,0.254-2.079
			c0.031-0.677,0.048-1.259,0.048-1.746c0-0.508-0.017-1.095-0.048-1.761c-0.032-0.667-0.117-1.349-0.254-2.047
			c-0.138-0.698-0.365-1.38-0.683-2.047c-0.317-0.666-0.757-1.264-1.317-1.793c-0.561-0.529-1.28-0.957-2.158-1.285
			S774.769,428.933,773.5,428.933z"/>
		<path fill="#82B3BF" d="M843.559,437.851v10.061l3.841,0.698v12.695h-19.107v-12.664l3.809-0.73v-18.059l-3.809-0.73v-12.505
			h22.916l15.266,24.089v-10.791l-3.809-0.793v-12.505h19.074v12.505l-3.809,0.73v18.059l3.809,0.73v12.664h-22.914L843.559,437.851
			z"/>
		<path fill="#82B3BF" d="M914.595,461.877c-3.724,0-7.21-0.396-10.457-1.19c-3.248-0.793-6.073-2.158-8.475-4.094
			c-2.401-1.937-4.295-4.406-5.681-7.411c-1.387-3.004-2.079-6.612-2.079-10.823c0-4.126,0.692-7.644,2.079-10.553
			c1.386-2.909,3.284-5.279,5.696-7.109c2.412-1.83,5.237-3.168,8.475-4.015c3.237-0.846,6.718-1.27,10.441-1.27
			c3.703,0,7.179,0.423,10.427,1.27c3.247,0.847,6.083,2.185,8.506,4.015c2.422,1.831,4.332,4.201,5.729,7.109
			c1.396,2.91,2.095,6.427,2.095,10.553c0,2.793-0.317,5.327-0.952,7.601c-0.635,2.275-1.529,4.296-2.682,6.062
			c-1.153,1.767-2.539,3.29-4.158,4.57c-1.618,1.28-3.423,2.338-5.411,3.174c-1.989,0.836-4.126,1.396-6.411,1.682
			C919.452,461.735,917.072,461.877,914.595,461.877z M914.595,428.933c-1.248,0-2.301,0.159-3.157,0.476
			c-0.857,0.317-1.566,0.73-2.127,1.238s-0.999,1.09-1.317,1.746c-0.316,0.656-0.545,1.328-0.682,2.015
			c-0.138,0.688-0.223,1.365-0.254,2.031c-0.032,0.667-0.048,1.254-0.048,1.762c0,0.487,0.011,1.063,0.032,1.729
			c0.021,0.667,0.095,1.365,0.222,2.095c0.127,0.73,0.338,1.455,0.635,2.174c0.296,0.72,0.725,1.365,1.285,1.936
			s1.28,1.031,2.158,1.381c0.878,0.349,1.963,0.523,3.253,0.523c1.27,0,2.344-0.169,3.222-0.508
			c0.878-0.338,1.598-0.788,2.158-1.349s1-1.19,1.317-1.889s0.545-1.401,0.683-2.11c0.137-0.709,0.222-1.402,0.254-2.079
			c0.031-0.677,0.048-1.259,0.048-1.746c0-0.508-0.017-1.095-0.048-1.761c-0.032-0.667-0.117-1.349-0.254-2.047
			c-0.138-0.698-0.365-1.38-0.683-2.047c-0.317-0.666-0.757-1.264-1.317-1.793c-0.561-0.529-1.28-0.957-2.158-1.285
			S915.865,428.933,914.595,428.933z"/>
		<path fill="#82B3BF" d="M961.669,461.337l-12.188-31.516l-4.539-0.698v-12.505h28.978v12.505l-3.301,0.698l5.173,16.631
			l5.174-16.631l-3.301-0.698v-12.505h28.977v12.505l-3.269,0.698l5.142,16.631l5.174-16.631l-3.301-0.698V416.46h21.963v12.664
			l-4.508,0.698l-12.188,31.516h-21.232l-5.776-17.17l-5.713,17.17H961.669z"/>
		<path fill="#82B3BF" d="M1056.922,426.806c0-0.656-0.111-1.232-0.333-1.73c-0.223-0.497-0.519-0.915-0.889-1.253
			c-0.371-0.338-0.805-0.598-1.302-0.778c-0.497-0.179-1.011-0.27-1.539-0.27c-1.206,0-2.401,0.281-3.587,0.841
			c-1.185,0.561-2.232,1.444-3.142,2.65h-9.554v-10.981c0.72-0.359,1.492-0.708,2.317-1.047c0.825-0.338,1.714-0.656,2.666-0.952
			c1.65-0.508,3.612-0.968,5.888-1.38c2.274-0.413,4.914-0.619,7.918-0.619c3.322,0,6.332,0.302,9.03,0.904
			c2.697,0.604,4.999,1.54,6.903,2.809s3.374,2.883,4.411,4.84c1.036,1.957,1.556,4.279,1.556,6.966
			c0,2.328-0.376,4.312-1.127,5.951c-0.752,1.64-1.777,3.021-3.079,4.142c-1.301,1.122-2.819,2.031-4.554,2.729
			c-1.735,0.698-3.598,1.27-5.586,1.714v3.713h-20.218c-0.021,0.021-0.053,0.032-0.095,0.032v-10.95
			c0.338-0.148,0.925-0.333,1.761-0.556c0.836-0.222,1.782-0.481,2.841-0.777c1.058-0.296,2.163-0.64,3.316-1.031
			s2.2-0.831,3.143-1.317c0.941-0.486,1.719-1.031,2.332-1.635C1056.616,428.219,1056.922,427.547,1056.922,426.806z
			 M1042.609,449.15h20.312v12.187h-20.312V449.15z"/>
	</g>
</g>
<g id="fonts" display="none">
	<polygon display="inline" fill="#1D252B" points="1117.876,581.976 753.208,569.377 737.699,761.774 920.999,675.574 	"/>
	<polygon display="inline" fill="#1D252B" points="617.174,259.507 617.174,139.975 430.476,280.824 541.456,297.975 	"/>
	<linearGradient id="SVGID_9_" gradientUnits="userSpaceOnUse" x1="801.7811" y1="584.2441" x2="981.1327" y2="867.2415">
		<stop  offset="0" style="stop-color:#2A3B44"/>
		<stop  offset="0.3493" style="stop-color:#30424C"/>
		<stop  offset="0.7191" style="stop-color:#394E5B"/>
		<stop  offset="0.7604" style="stop-color:#394E5B"/>
		<stop  offset="1" style="stop-color:#394E5B"/>
	</linearGradient>
	<polygon display="inline" fill="url(#SVGID_9_)" points="753.208,569.377 1063.841,719.102 737.699,761.774 	"/>
	<linearGradient id="SVGID_10_" gradientUnits="userSpaceOnUse" x1="458.0126" y1="243.1799" x2="1142.4844" y2="500.0302">
		<stop  offset="0" style="stop-color:#3F5C63"/>
		<stop  offset="0.5773" style="stop-color:#3E5A61"/>
		<stop  offset="0.8507" style="stop-color:#3A5459"/>
		<stop  offset="1" style="stop-color:#364D51"/>
	</linearGradient>
	<polygon display="inline" fill="url(#SVGID_10_)" points="430.476,280.824 1143.586,199.402 1117.876,581.976 501.911,560.694 	"/>
	<rect x="527.376" y="351.554" display="inline" fill="none" width="556.079" height="312.446"/>
	<text transform="matrix(1 0 0 1 527.3765 396.3058)" display="inline"><tspan x="0" y="0" fill="#82B3BF" font-family="'HoltwoodOneSC'" font-size="65" letter-spacing="1">What do </tspan><tspan x="0" y="65" fill="#82B3BF" font-family="'HoltwoodOneSC'" font-size="65" letter-spacing="1">we do now?</tspan></text>
</g>
</svg>
