<?xml version="1.0" encoding="utf-8"?>
<!-- Generator: Adobe Illustrator 17.0.0, SVG Export Plug-In . SVG Version: 6.00 Build 0)  -->
<!DOCTYPE svg PUBLIC "-//W3C//DTD SVG 1.1//EN" "http://www.w3.org/Graphics/SVG/1.1/DTD/svg11.dtd">
<svg version="1.1" xmlns="http://www.w3.org/2000/svg" xmlns:xlink="http://www.w3.org/1999/xlink" x="0px" y="0px" viewBox="0 0 4800 900" enable-background="new 0 0 4800 900" xml:space="preserve">
<g id="measurement_x5F_tools">
	<g>
		<polygon fill="#538896" points="0,495.547 217,403 505,544.707 725,450 1105,603.617 1337,495.617 1729,551.617 1997,383.617 
			2365,515.617 2645,423.617 3305,567.617 3569,450 3849,527.617 4057,419.617 4429,491.617 4673,327.617 4799.77,495.547 4800,900 
			0,900 		"/>
		<polygon fill="#426972" points="505,544.707 138,686.617 465.63,525.336 		"/>
		<polygon fill="#426972" points="1729,551.617 1566,619.617 1679.86,544.597 		"/>
		<polygon fill="#426972" points="3305,567.617 3561.13,621.687 3363.368,541.613 		"/>
		<polygon fill="#426972" points="3849,527.617 4286.984,621.687 3891.836,505.375 		"/>
		<polygon fill="#426972" points="1105,603.617 851,718.617 1061.109,585.873 		"/>
	</g>
	<g id="peter_12_">
		<g>
			<path fill="#3F5C63" d="M3123.889,294.877c-13.808,0-25,11.192-25,25c0,0.191-0.424,19.946-9.86,38.819
				c-8.636,17.271-21.875,28.239-40.14,33.159v-88.795c0-13.807-11.193-25-25-25s-25,11.193-25,25v148.978
				c-18.265-4.92-31.504-15.887-40.14-33.159c-9.437-18.873-9.86-38.628-9.86-38.819c0-13.808-11.192-25-25-25s-25,11.192-25,25
				c0,3.163,0.425,31.751,15.14,61.181c9.228,18.455,22.073,33.258,38.181,43.995c13.561,9.041,29.193,15.018,46.68,17.873v100.126
				h50v-160.31c17.486-2.854,33.119-8.832,46.68-17.873c16.107-10.737,28.953-25.54,38.181-43.995
				c14.715-29.43,15.14-58.018,15.14-61.181C3148.889,306.069,3137.697,294.877,3123.889,294.877z"/>
			<g>
				<path fill="#364D51" d="M2938.889,380.061c0,0.191,0.424,19.946,9.86,38.819c8.636,17.271,21.875,28.239,40.14,33.159v-3.526
					c-13.193-5.861-23.168-15.69-30.14-29.633c-9.437-18.873-9.86-38.628-9.86-38.819c0-13.808-11.192-25-25-25
					c-1.712,0-3.384,0.173-5,0.501C2930.3,357.878,2938.889,367.965,2938.889,380.061z"/>
				<path fill="#364D51" d="M3038.889,303.061v88.795c3.521-0.948,6.85-2.127,10-3.526v-85.268c0-13.807-11.193-25-25-25
					c-1.712,0-3.384,0.173-5,0.501C3030.3,280.878,3038.889,290.966,3038.889,303.061z"/>
				<path fill="#364D51" d="M3123.889,294.877c-1.712,0-3.384,0.173-5,0.501c11.411,2.316,20,12.404,20,24.499
					c0,3.163-0.425,31.751-15.14,61.181c-9.228,18.455-22.073,33.258-38.181,43.995c-13.561,9.041-29.193,15.018-46.68,17.873
					v160.31h10v-160.31c17.486-2.854,33.119-8.832,46.68-17.873c16.107-10.737,28.953-25.54,38.181-43.995
					c14.715-29.43,15.14-58.018,15.14-61.181C3148.889,306.069,3137.697,294.877,3123.889,294.877z"/>
			</g>
		</g>
		<polygon fill="#538896" points="3043.04,412.504 3033.04,395.183 3043.04,377.863 3063.04,377.863 3073.04,395.183 
			3063.04,412.504 		"/>
		<polygon fill="#538896" points="2978.064,463.825 2968.064,446.504 2978.064,429.184 2998.064,429.184 3008.064,446.504 
			2998.064,463.825 		"/>
		<polygon fill="#426972" points="3063.419,401.175 3053.04,407.167 3042.662,401.175 3042.662,389.191 3053.04,383.199 
			3063.419,389.191 		"/>
		<polygon fill="#426972" points="2998.443,452.496 2988.064,458.488 2977.686,452.496 2977.686,440.512 2988.064,434.52 
			2998.443,440.512 		"/>
	</g>
	<g id="peter_15_">
		<g>
			<path fill="#3F5C63" d="M3216.529,603.773c2.07-6.734,3.189-13.883,3.189-21.296c0-39.978-32.409-72.386-72.386-72.386
				s-72.386,32.408-72.386,72.386c0,7.412,1.119,14.562,3.189,21.296H3216.529z"/>
			<path fill="#364D51" d="M3087.69,567.642c-3.583,0-7.071,0.401-10.433,1.14c-0.85,4.437-1.311,9.011-1.311,13.696
				c0,7.412,1.119,14.562,3.189,21.296h55.372C3129.08,582.985,3110.178,567.642,3087.69,567.642z"/>
			<path fill="#3F5C63" d="M3122.661,621.939c0.434-2.606,0.671-5.278,0.671-8.007c0-26.723-21.663-48.386-48.386-48.386
				c-26.723,0-48.386,21.663-48.386,48.386c0,2.729,0.237,5.401,0.671,8.007H3122.661z"/>
		</g>
		<polygon fill="#538896" points="3189.718,556.933 3179.718,539.612 3189.718,522.292 3209.718,522.292 3219.718,539.612 
			3209.718,556.933 		"/>
		<polygon fill="#426972" points="3210.096,545.604 3199.718,551.596 3189.34,545.604 3189.34,533.62 3199.718,527.628 
			3210.096,533.62 		"/>
	</g>
	<g id="peter_14_">
		<g>
			<path fill="#3F5C63" d="M1241.93,404.895c-13.807,0-25,11.147-25,24.955c-0.002,0.331-0.433,33.471-16.807,65.28
				c-8.991,17.47-21.13,31.283-36.078,41.057c-13.245,8.66-29.03,14.34-47.115,16.999V329.865c0-13.807-11.193-25-25-25
				s-25,11.193-25,25v122.573c-19.33-4.637-33.237-15.768-42.193-33.68c-9.437-18.873-9.86-38.628-9.86-38.819
				c0-13.808-11.192-25-25-25s-25,11.192-25,25c0,3.163,0.425,31.751,15.14,61.181c9.228,18.455,22.073,33.258,38.181,43.995
				c14.086,9.391,30.42,15.459,48.733,18.172v199.827h50v-99.498c73.413-7.999,110.321-50.917,128.61-87.496
				c21.146-42.293,21.39-84.408,21.39-86.181C1266.93,416.133,1255.738,404.895,1241.93,404.895z"/>
			<g>
				<path fill="#364D51" d="M1105,329.865v223.321c4.098-0.603,8.071-1.368,11.93-2.281v-221.04c0-13.807-11.193-25-25-25
					c-2.056,0-4.053,0.254-5.965,0.722C1096.891,308.263,1105,318.115,1105,329.865z"/>
				<path fill="#364D51" d="M1241.93,404.895c-2.061,0-4.061,0.253-5.977,0.722c10.932,2.681,19.046,12.569,19.046,24.323
					c0,1.772-0.243,43.888-21.39,86.181c-18.29,36.58-55.198,79.497-128.61,87.496v99.498h11.93v-99.498
					c73.413-7.999,110.321-50.917,128.61-87.496c21.146-42.293,21.39-84.408,21.39-86.181
					C1266.93,416.133,1255.738,404.895,1241.93,404.895z"/>
				<path fill="#364D51" d="M1002.946,379.94c0,0.191,0.424,19.946,9.86,38.819c8.956,17.912,22.864,29.043,42.193,33.68v-4.013
					c-13.249-5.855-23.272-15.686-30.263-29.667c-9.437-18.873-9.86-38.628-9.86-38.819c0-13.808-11.192-25-25-25
					c-2.056,0-4.053,0.254-5.965,0.722C994.837,358.337,1002.946,368.189,1002.946,379.94z"/>
			</g>
		</g>
		<g>
			<polygon fill="#538896" points="1051.533,468.797 1041.533,451.476 1051.533,434.156 1071.533,434.156 1081.533,451.476 
				1071.533,468.797 			"/>
			<polygon fill="#426972" points="1071.911,457.468 1061.533,463.46 1051.154,457.468 1051.154,445.484 1061.533,439.492 
				1071.911,445.484 			"/>
		</g>
		<g>
			<polygon fill="#538896" points="1110.965,571.325 1100.965,554.005 1110.965,536.684 1130.965,536.684 1140.965,554.005 
				1130.965,571.325 			"/>
			<polygon fill="#426972" points="1131.343,559.997 1120.965,565.989 1110.586,559.997 1110.586,548.013 1120.965,542.021 
				1131.343,548.013 			"/>
		</g>
	</g>
</g>
</svg>
