<?xml version="1.0" encoding="utf-8"?>
<!-- Generator: Adobe Illustrator 17.0.0, SVG Export Plug-In . SVG Version: 6.00 Build 0)  -->
<!DOCTYPE svg PUBLIC "-//W3C//DTD SVG 1.1//EN" "http://www.w3.org/Graphics/SVG/1.1/DTD/svg11.dtd">
<svg version="1.1" xmlns="http://www.w3.org/2000/svg" xmlns:xlink="http://www.w3.org/1999/xlink" x="0px" y="0px" width="4800px"
	 height="900px" viewBox="0 0 4800 900" enable-background="new 0 0 4800 900" xml:space="preserve">
<g id="Layer_5">
</g>
<g id="Layer_3">
</g>
<g id="Layer_2">
</g>
<g id="Layer_1">
</g>
<g id="measurement_x5F_tools">
	<g>
		<polygon fill="#C78032" points="0,327.617 285.785,267.398 961,395.617 1361,267.398 1729,367.617 2258.805,267.398 2925,415.617 
			3269.906,285.728 3641.943,405.74 3849,303.049 4235.32,385.416 4605.04,267.398 4799.871,327.617 4800,900 0,900 		"/>
		<polygon fill="#B77430" points="961,395.617 605,475.617 891.059,382.336 		"/>
		<polygon fill="#B77430" points="1729,367.617 1531,397.119 1673,354.792 		"/>
		<polygon fill="#B77430" points="2925,415.617 3100.571,451.715 2974.118,397.119 		"/>
		<polygon fill="#B77430" points="3641.943,405.74 3909,476.176 3683.464,385.148 		"/>
		<polygon fill="#B77430" points="4235.32,385.416 4587.997,471.005 4293.126,366.964 		"/>
	</g>
	<g>
		<g>
			<path fill="#5E8C57" d="M4194.859,596.238c2.07-6.734,3.189-13.883,3.189-21.296c0-39.978-32.409-72.386-72.386-72.386
				c-39.978,0-72.386,32.408-72.386,72.386c0,7.412,1.119,14.562,3.189,21.296H4194.859z"/>
			<path fill="#475E38" d="M4066.02,560.106c-3.583,0-7.071,0.401-10.433,1.14c-0.85,4.437-1.311,9.011-1.311,13.696
				c0,7.412,1.119,14.562,3.189,21.296h55.372C4107.41,575.45,4088.508,560.106,4066.02,560.106z"/>
			<path fill="#5E8C57" d="M4100.99,614.404c0.434-2.606,0.671-5.278,0.671-8.007c0-26.723-21.663-48.386-48.386-48.386
				c-26.723,0-48.386,21.663-48.386,48.386c0,2.729,0.237,5.401,0.671,8.007H4100.99z"/>
		</g>
		<polygon fill="#BCD4E8" points="4168.048,549.397 4158.048,532.077 4168.048,514.756 4188.048,514.756 4198.048,532.077 
			4188.048,549.397 		"/>
		<polygon fill="#A6AEE8" points="4188.426,538.069 4178.048,544.061 4167.669,538.069 4167.669,526.085 4178.048,520.093 
			4188.426,526.085 		"/>
	</g>
	<polygon fill="#F80075" points="577.103,686.592 483.155,523.869 577.103,361.146 765,361.146 858.948,523.869 765,686.592 	"/>
	<polygon fill="#F80075" points="3532.242,603.642 3438.294,440.918 3532.242,278.195 3720.139,278.195 3814.088,440.918 
		3720.139,603.642 	"/>
</g>
</svg>
