<?xml version="1.0" encoding="utf-8"?>
<!-- Generator: Adobe Illustrator 17.0.0, SVG Export Plug-In . SVG Version: 6.00 Build 0)  -->
<!DOCTYPE svg PUBLIC "-//W3C//DTD SVG 1.1//EN" "http://www.w3.org/Graphics/SVG/1.1/DTD/svg11.dtd">
<svg version="1.1" xmlns="http://www.w3.org/2000/svg" xmlns:xlink="http://www.w3.org/1999/xlink" x="0px" y="0px" viewBox="0 0 4800 900" enable-background="new 0 0 4800 900" xml:space="preserve">
<g id="measurement_x5F_tools">
	<g>
		<polygon fill="#F4BA89" points="0,91.095 321.5,179.017 505,91.095 933.655,241.135 1143.613,179.017 1496.729,322.755 
			1977.517,210.076 2517.338,339.214 2925,179.017 3305,303.306 3937,183.617 4235.32,303.306 4800,91.095 4800,900 0,900 		"/>
		<polygon fill="#DB9B67" points="321.5,179.017 87,270.077 260.732,162.399 		"/>
		<polygon fill="#DB9B67" points="933.655,241.135 547,354.792 895.147,227.656 		"/>
		<polygon fill="#DB9B67" points="1496.729,322.755 1322.711,359.077 1445.641,301.959 		"/>
		<polygon fill="#DB9B67" points="2517.338,339.214 2960,438.077 2565.479,320.296 		"/>
		<polygon fill="#DB9B67" points="3305,303.306 3680,398.077 3355.373,293.766 		"/>
		<polygon fill="#DB9B67" points="4235.32,303.306 4513.283,389.077 4274.446,288.602 		"/>
	</g>
	<g id="snake_1_">
		<g>
			<path fill="#726962" d="M3955.916,373.282L3955.916,373.282h-28.945c-11.046,0-20,8.954-20,20s8.954,20,20,20h8.945v40h40v-60
				C3975.916,382.237,3966.962,373.282,3955.916,373.282z"/>
			<g>
				<polygon fill="#D19853" points="3975.916,413.282 3958.595,403.282 3975.916,393.282 				"/>
				<polygon fill="#D19853" points="3975.916,433.282 3958.595,423.282 3975.916,413.282 				"/>
				<polygon fill="#D19853" points="3975.916,453.282 3958.595,443.282 3975.916,433.282 				"/>
			</g>
		</g>
		<line x1="4000.963" y1="422.023" x2="4000.963" y2="460.119"/>
		<rect x="3980.963" y="422.024" fill="#726962" width="40" height="31.259"/>
		<g>
			<path fill="#726962" d="M4028.813,493.282h-100c-11.046,0-20-8.954-20-20s8.954-20,20-20h100c11.046,0,20,8.954,20,20
				S4039.859,493.282,4028.813,493.282z"/>
			<polygon fill="#D19853" points="3948.813,453.282 3938.813,470.603 3928.813,453.282 			"/>
			<polygon fill="#D19853" points="3968.813,453.282 3958.813,470.603 3948.813,453.282 			"/>
			<polygon fill="#D19853" points="3988.813,453.282 3978.813,470.603 3968.813,453.282 			"/>
			<polygon fill="#D19853" points="4008.813,453.282 3998.813,470.603 3988.813,453.282 			"/>
			<polygon fill="#D19853" points="4028.813,453.282 4018.813,470.603 4008.813,453.282 			"/>
		</g>
		<g>
			<path fill="#726962" d="M4038.813,533.282h-120c-11.046,0-20-8.954-20-20c0-11.046,8.954-20,20-20h120c11.046,0,20,8.954,20,20
				C4058.813,524.328,4049.859,533.282,4038.813,533.282z"/>
			<polygon fill="#D19853" points="3958.813,493.282 3948.813,510.603 3938.813,493.282 			"/>
			<polygon fill="#D19853" points="3938.813,493.282 3928.813,510.603 3918.813,493.282 			"/>
			<polygon fill="#D19853" points="3978.813,493.282 3968.813,510.603 3958.813,493.282 			"/>
			<polygon fill="#D19853" points="3998.813,493.282 3988.813,510.603 3978.813,493.282 			"/>
			<polygon fill="#D19853" points="4018.813,493.282 4008.813,510.603 3998.813,493.282 			"/>
			<polygon fill="#D19853" points="4038.813,493.282 4028.813,510.603 4018.813,493.282 			"/>
		</g>
		<g>
			<circle fill="#D19853" cx="4018.108" cy="411.597" r="15.998"/>
			<circle fill="#D19853" cx="4033.733" cy="408.21" r="11.999"/>
			<circle fill="#D19853" cx="4000.963" cy="422.023" r="19.998"/>
		</g>
	</g>
	<g>
		<g>
			<path fill="#5E8C57" d="M519.844,341.068c2.07-6.734,3.189-13.883,3.189-21.296c0-39.978-32.409-72.386-72.386-72.386
				s-72.386,32.408-72.386,72.386c0,7.412,1.119,14.562,3.189,21.296H519.844z"/>
			<path fill="#475E38" d="M391.005,304.937c-3.583,0-7.071,0.401-10.433,1.14c-0.85,4.437-1.311,9.011-1.311,13.696
				c0,7.412,1.119,14.562,3.189,21.296h55.372C432.396,320.28,413.494,304.937,391.005,304.937z"/>
			<path fill="#5E8C57" d="M425.976,359.234c0.434-2.606,0.671-5.278,0.671-8.007c0-26.723-21.663-48.386-48.386-48.386
				c-26.723,0-48.386,21.663-48.386,48.386c0,2.729,0.237,5.401,0.671,8.007H425.976z"/>
		</g>
		<polygon fill="#BCD4E8" points="493.033,294.228 483.033,276.907 493.033,259.587 513.033,259.587 523.033,276.907 
			513.033,294.228 		"/>
		<polygon fill="#A6AEE8" points="513.412,282.899 503.033,288.891 492.655,282.899 492.655,270.915 503.033,264.923 
			513.412,270.915 		"/>
	</g>
	<g id="peter">
		<g>
			<path fill="#5E8C57" d="M1836.553,128.561c-13.807,0-25,11.147-25,24.955c-0.002,0.331-0.433,33.471-16.807,65.28
				c-8.991,17.47-21.13,31.283-36.078,41.057c-13.245,8.66-29.03,14.34-47.115,16.999V53.532c0-13.807-11.193-25-25-25
				s-25,11.193-25,25v122.573c-19.33-4.637-33.237-15.768-42.193-33.68c-9.437-18.873-9.86-38.628-9.86-38.819
				c0-13.808-11.192-25-25-25s-25,11.192-25,25c0,3.163,0.425,31.751,15.14,61.181c9.228,18.455,22.073,33.258,38.181,43.995
				c14.086,9.391,30.42,15.459,48.733,18.172v199.827h50v-99.498c73.413-7.999,110.321-50.917,128.61-87.496
				c21.146-42.293,21.39-84.408,21.39-86.181C1861.553,139.799,1850.361,128.561,1836.553,128.561z"/>
			<g>
				<path fill="#475E38" d="M1699.623,53.532v223.321c4.098-0.603,8.071-1.368,11.93-2.281V53.532c0-13.807-11.193-25-25-25
					c-2.056,0-4.053,0.254-5.965,0.722C1691.514,31.93,1699.623,41.782,1699.623,53.532z"/>
				<path fill="#475E38" d="M1836.553,128.561c-2.061,0-4.061,0.253-5.977,0.722c10.932,2.681,19.046,12.569,19.046,24.323
					c0,1.772-0.243,43.888-21.39,86.181c-18.29,36.58-55.198,79.497-128.61,87.496v99.498h11.93v-99.498
					c73.413-7.999,110.321-50.917,128.61-87.496c21.146-42.293,21.39-84.408,21.39-86.181
					C1861.553,139.799,1850.361,128.561,1836.553,128.561z"/>
				<path fill="#475E38" d="M1597.57,103.606c0,0.191,0.424,19.946,9.86,38.819c8.956,17.912,22.864,29.043,42.193,33.68v-4.013
					c-13.249-5.855-23.272-15.686-30.263-29.667c-9.437-18.873-9.86-38.628-9.86-38.819c0-13.808-11.192-25-25-25
					c-2.056,0-4.053,0.254-5.965,0.722C1589.461,82.003,1597.57,91.855,1597.57,103.606z"/>
			</g>
		</g>
		<g>
			<polygon fill="#BCD4E8" points="1646.156,192.463 1636.156,175.143 1646.156,157.822 1666.156,157.822 1676.156,175.143 
				1666.156,192.463 			"/>
			<polygon fill="#A6AEE8" points="1666.534,181.135 1656.156,187.127 1645.777,181.135 1645.777,169.151 1656.156,163.159 
				1666.534,169.151 			"/>
		</g>
		<g>
			<polygon fill="#BCD4E8" points="1705.588,294.992 1695.588,277.671 1705.588,260.351 1725.588,260.351 1735.588,277.671 
				1725.588,294.992 			"/>
			<polygon fill="#A6AEE8" points="1725.967,283.663 1715.588,289.655 1705.209,283.663 1705.209,271.679 1715.588,265.687 
				1725.967,271.679 			"/>
		</g>
	</g>
</g>
</svg>
