<?xml version="1.0" encoding="utf-8"?>
<!-- Generator: Adobe Illustrator 17.0.0, SVG Export Plug-In . SVG Version: 6.00 Build 0)  -->
<!DOCTYPE svg PUBLIC "-//W3C//DTD SVG 1.1//EN" "http://www.w3.org/Graphics/SVG/1.1/DTD/svg11.dtd">
<svg version="1.1" xmlns="http://www.w3.org/2000/svg" xmlns:xlink="http://www.w3.org/1999/xlink" x="0px" y="0px" viewBox="0 0 14400 900" enable-background="new 0 0 14400 900" xml:space="preserve">
<g id="Layer_5">
</g>
<g id="Layer_3">
</g>
<g id="Layer_2">
</g>
<g id="Layer_1">
</g>
<g id="measurement_x5F_tools">
	<g>
		<polygon fill="#C78032" points="4800,212.214 5085.785,151.995 5761,280.214 6161,151.995 6529,252.214 7058.805,151.995 
			7725,300.214 8069.906,170.325 8441.943,290.337 8649,187.646 9035.32,270.013 9405.039,151.995 9599.871,212.214 9600,900 
			4800,900 		"/>
		<polygon fill="#B77430" points="5761,280.214 5405,360.214 5691.059,266.932 		"/>
		<polygon fill="#B77430" points="6529,252.214 6331,281.716 6473,239.389 		"/>
		<polygon fill="#B77430" points="7725,300.214 7900.571,336.312 7774.118,281.716 		"/>
		<polygon fill="#B77430" points="8441.943,290.337 8709,360.773 8483.464,269.744 		"/>
		<polygon fill="#B77430" points="9035.32,270.013 9387.996,355.602 9093.126,251.561 		"/>
	</g>
	<g>
		<polygon fill="#C78032" points="9596.871,212.214 9882.655,151.995 10557.871,280.214 10957.871,151.995 11325.871,252.214 
			11855.676,151.995 12521.871,300.214 12866.776,170.325 13238.814,290.337 13445.871,187.646 13832.191,270.013 14201.91,151.995 
			14396.741,212.214 14396.871,900 9596.871,900 		"/>
		<polygon fill="#B77430" points="10557.871,280.214 10201.871,360.214 10487.93,266.932 		"/>
		<polygon fill="#B77430" points="11325.871,252.214 11127.871,281.716 11269.871,239.389 		"/>
		<polygon fill="#B77430" points="12521.871,300.214 12697.441,336.312 12570.989,281.716 		"/>
		<polygon fill="#B77430" points="13238.814,290.337 13505.871,360.773 13280.334,269.744 		"/>
		<polygon fill="#B77430" points="13832.191,270.013 14184.867,355.602 13889.996,251.561 		"/>
	</g>
	<g>
		<polygon fill="#C78032" points="3.129,212.214 288.914,151.995 964.129,280.214 1364.129,151.995 1732.129,252.214 
			2261.934,151.995 2928.129,300.214 3273.035,170.325 3645.073,290.337 3852.129,187.646 4238.45,270.013 4608.169,151.995 
			4803,212.214 4800,900 0,900 		"/>
		<polygon fill="#B77430" points="964.129,280.214 608.129,360.214 894.188,266.932 		"/>
		<polygon fill="#B77430" points="1732.129,252.214 1534.129,281.716 1676.129,239.389 		"/>
		<polygon fill="#B77430" points="2928.129,300.214 3103.7,336.312 2977.248,281.716 		"/>
		<polygon fill="#B77430" points="3645.073,290.337 3912.129,360.773 3686.593,269.744 		"/>
		<polygon fill="#B77430" points="4238.45,270.013 4591.125,355.602 4296.255,251.561 		"/>
	</g>
	<g id="snake">
		<g>
			<path fill="#726962" d="M5670.366,361.104L5670.366,361.104h-28.945c-11.046,0-20,8.954-20,20s8.954,20,20,20h8.945v40h40v-60
				C5690.366,370.058,5681.412,361.104,5670.366,361.104z"/>
			<g>
				<polygon fill="#D19853" points="5690.366,401.104 5673.045,391.104 5690.366,381.104 				"/>
				<polygon fill="#D19853" points="5690.366,421.104 5673.045,411.104 5690.366,401.104 				"/>
				<polygon fill="#D19853" points="5690.366,441.104 5673.045,431.104 5690.366,421.104 				"/>
			</g>
		</g>
		<line x1="5715.413" y1="409.845" x2="5715.413" y2="447.94"/>
		<rect x="5695.413" y="409.845" fill="#726962" width="40" height="31.259"/>
		<g>
			<path fill="#726962" d="M5743.263,481.104h-100c-11.046,0-20-8.954-20-20s8.954-20,20-20h100c11.046,0,20,8.954,20,20
				S5754.309,481.104,5743.263,481.104z"/>
			<polygon fill="#D19853" points="5663.263,441.104 5653.263,458.424 5643.263,441.104 			"/>
			<polygon fill="#D19853" points="5683.263,441.104 5673.263,458.424 5663.263,441.104 			"/>
			<polygon fill="#D19853" points="5703.263,441.104 5693.263,458.424 5683.263,441.104 			"/>
			<polygon fill="#D19853" points="5723.263,441.104 5713.263,458.424 5703.263,441.104 			"/>
			<polygon fill="#D19853" points="5743.263,441.104 5733.263,458.424 5723.263,441.104 			"/>
		</g>
		<g>
			<path fill="#726962" d="M5753.263,521.104h-120c-11.046,0-20-8.954-20-20c0-11.046,8.954-20,20-20h120c11.046,0,20,8.954,20,20
				C5773.263,512.15,5764.309,521.104,5753.263,521.104z"/>
			<polygon fill="#D19853" points="5673.263,481.104 5663.263,498.424 5653.263,481.104 			"/>
			<polygon fill="#D19853" points="5653.263,481.104 5643.263,498.424 5633.263,481.104 			"/>
			<polygon fill="#D19853" points="5693.263,481.104 5683.263,498.424 5673.263,481.104 			"/>
			<polygon fill="#D19853" points="5713.263,481.104 5703.263,498.424 5693.263,481.104 			"/>
			<polygon fill="#D19853" points="5733.263,481.104 5723.263,498.424 5713.263,481.104 			"/>
			<polygon fill="#D19853" points="5753.263,481.104 5743.263,498.424 5733.263,481.104 			"/>
		</g>
		<g>
			<circle fill="#D19853" cx="5732.558" cy="399.418" r="15.998"/>
			<circle fill="#D19853" cx="5748.183" cy="396.031" r="11.999"/>
			<circle fill="#D19853" cx="5715.413" cy="409.845" r="19.998"/>
		</g>
	</g>
	<g id="tent">
		<path fill="#725947" d="M5449.254,149.757c-3.948,0-7.527-2.323-9.135-5.931l-18.71-41.993
			c-2.247-5.044,0.021-10.956,5.065-13.204c5.044-2.246,10.955,0.021,13.204,5.065l9.575,21.491l9.575-21.491
			c2.248-5.045,8.159-7.312,13.204-5.065c5.045,2.248,7.312,8.16,5.065,13.204l-18.71,41.993
			C5456.782,147.434,5453.203,149.757,5449.254,149.757z"/>
		<polygon fill="#F2E7CE" points="5449.254,115.186 5315.508,415.36 5583,415.36 		"/>
		<polygon fill="#35414F" points="5404.006,415.36 5548.023,415.36 5476.015,253.746 		"/>
		<polygon fill="#D19853" points="5355.932,398.42 5365.932,381.099 5345.932,381.099 		"/>
		<polygon fill="#D19853" points="5375.932,398.42 5385.932,381.099 5365.932,381.099 		"/>
		<polygon fill="#D19853" points="5395.932,398.42 5405.932,381.099 5385.932,381.099 		"/>
		<polygon fill="#D19853" points="5405.932,381.099 5413.461,394.14 5419.271,381.099 		"/>
		<polygon fill="#D19853" points="5535.483,387.216 5539.015,381.099 5532.758,381.099 		"/>
		<polygon fill="#D19853" points="5549.015,398.42 5559.015,381.099 5539.015,381.099 		"/>
		<g>
			<polygon fill="#D19853" points="5345.932,381.099 5330.773,381.099 5328.665,385.832 5335.932,398.42 			"/>
			<polygon fill="#D19853" points="5569.015,398.42 5572.648,392.127 5567.734,381.099 5559.015,381.099 			"/>
		</g>
		<polygon fill="#25303A" points="5476.015,253.746 5404.006,415.36 5428.63,415.36 5488.327,281.379 		"/>
	</g>
	<g id="peter_6_">
		<g>
			<path fill="#5E8C57" d="M8792.624,369.011c2.07-6.734,3.189-13.883,3.189-21.296c0-39.978-32.409-72.386-72.387-72.386
				s-72.386,32.408-72.386,72.386c0,7.412,1.119,14.562,3.189,21.296H8792.624z"/>
			<path fill="#475E38" d="M8663.785,332.879c-3.583,0-7.071,0.401-10.433,1.14c-0.85,4.437-1.312,9.011-1.312,13.696
				c0,7.412,1.119,14.562,3.189,21.296h55.371C8705.176,348.222,8686.273,332.879,8663.785,332.879z"/>
			<path fill="#5E8C57" d="M8698.756,387.176c0.434-2.606,0.671-5.278,0.671-8.007c0-26.723-21.663-48.386-48.386-48.386
				s-48.386,21.663-48.386,48.386c0,2.729,0.237,5.401,0.671,8.007H8698.756z"/>
		</g>
		<polygon fill="#BCD4E8" points="8765.813,322.17 8755.813,304.849 8765.813,287.529 8785.813,287.529 8795.813,304.849 
			8785.813,322.17 		"/>
		<polygon fill="#A6AEE8" points="8786.191,310.841 8775.813,316.833 8765.435,310.841 8765.435,298.857 8775.813,292.865 
			8786.191,298.857 		"/>
	</g>
</g>
</svg>
