<?xml version="1.0" encoding="utf-8"?>
<!-- Generator: Adobe Illustrator 17.0.0, SVG Export Plug-In . SVG Version: 6.00 Build 0)  -->
<!DOCTYPE svg PUBLIC "-//W3C//DTD SVG 1.1//EN" "http://www.w3.org/Graphics/SVG/1.1/DTD/svg11.dtd">
<svg version="1.1" xmlns="http://www.w3.org/2000/svg" xmlns:xlink="http://www.w3.org/1999/xlink" x="0px" y="0px" viewBox="0 0 4800 900" enable-background="new 0 0 4800 900" xml:space="preserve">
<g id="measurement_x5F_tools">
	<g>
		<polygon fill="#BF672B" points="0,495.548 217,403 505,544.707 725,450 1105,603.617 1337,495.617 1729,551.617 1997,383.617 
			2365,515.617 2645,423.617 3305,567.617 3569,450 3849,527.617 4057,419.617 4429,491.617 4673,327.617 4799.77,495.548 4800,900 
			0,900 		"/>
		<polygon fill="#A85C22" points="505,544.707 138,686.617 465.63,525.336 		"/>
		<polygon fill="#A85C22" points="1729,551.617 1566,619.617 1679.86,544.597 		"/>
		<polygon fill="#A85C22" points="2344.63,508.31 2366.333,550.95 2387.237,508.31 2365,515.617 		"/>
		<polygon fill="#A85C22" points="3305,567.617 3561.13,621.687 3363.368,541.613 		"/>
		<polygon fill="#A85C22" points="3849,527.617 4286.984,621.687 3891.836,505.375 		"/>
		<polygon fill="#A85C22" points="4429,491.617 4799.808,563.531 4451.973,476.176 		"/>
		<polygon fill="#A85C22" points="1105,603.617 851,718.617 1061.109,585.873 		"/>
	</g>
</g>
</svg>
