<?xml version="1.0" encoding="utf-8"?>
<!-- Generator: Adobe Illustrator 17.0.0, SVG Export Plug-In . SVG Version: 6.00 Build 0)  -->
<!DOCTYPE svg PUBLIC "-//W3C//DTD SVG 1.1//EN" "http://www.w3.org/Graphics/SVG/1.1/DTD/svg11.dtd">
<svg version="1.1" xmlns="http://www.w3.org/2000/svg" xmlns:xlink="http://www.w3.org/1999/xlink" x="0px" y="0px" viewBox="0 0 4800 900" enable-background="new 0 0 4800 900" xml:space="preserve">
<g id="measurement_x5F_tools">
	<g>
		<polygon fill="#D19853" points="0,91.095 229.025,200.335 507.74,159.42 875.477,283.392 1211.7,207.72 1583.737,285.728 
			2102.789,180.717 2641,307.617 3045,187.617 3617,299.617 3937,183.617 4333,283.617 4800,91.095 4800,900 0,900 		"/>
		<polygon fill="#C18749" points="229.025,200.335 0,241.135 0,236.803 184.332,179.017 		"/>
		<polygon fill="#C18749" points="875.477,283.392 547,354.792 833.763,269.329 		"/>
		<polygon fill="#C18749" points="1583.737,285.728 1409.72,308.283 1518.773,272.106 		"/>
		<polygon fill="#C18749" points="2641,307.617 3077.752,392.709 2697.345,290.881 		"/>
		<polygon fill="#C18749" points="3617,299.617 3978.813,360.744 3657.971,284.765 		"/>
		<polygon fill="#C18749" points="4333,283.617 4610.962,339.214 4372.341,267.398 		"/>
	</g>
</g>
</svg>
