<?xml version="1.0" encoding="utf-8"?>
<!-- Generator: Adobe Illustrator 17.0.0, SVG Export Plug-In . SVG Version: 6.00 Build 0)  -->
<!DOCTYPE svg PUBLIC "-//W3C//DTD SVG 1.1//EN" "http://www.w3.org/Graphics/SVG/1.1/DTD/svg11.dtd">
<svg version="1.1" xmlns="http://www.w3.org/2000/svg" xmlns:xlink="http://www.w3.org/1999/xlink" x="0px" y="0px" viewBox="0 0 14400 900" enable-background="new 0 0 14400 900" xml:space="preserve">
<g id="Layer_5">
</g>
<g id="Layer_3">
</g>
<g id="Layer_2">
</g>
<g id="Layer_1">
</g>
<g id="measurement_x5F_tools">
	<g>
		<polygon fill="#C78032" points="4800,327.617 5085.785,267.398 5761,395.617 6161,267.398 6529,367.617 7058.805,267.398 
			7725,415.617 8069.906,285.728 8441.943,405.74 8649,303.049 9035.32,385.416 9405.039,267.398 9599.871,327.617 9600,900 
			4800,900 		"/>
		<polygon fill="#B77430" points="5761,395.617 5405,475.617 5691.059,382.336 		"/>
		<polygon fill="#B77430" points="6529,367.617 6331,397.119 6473,354.792 		"/>
		<polygon fill="#B77430" points="7725,415.617 7900.571,451.715 7774.118,397.119 		"/>
		<polygon fill="#B77430" points="8441.943,405.74 8709,476.176 8483.464,385.148 		"/>
		<polygon fill="#B77430" points="9035.32,385.416 9387.996,471.005 9093.126,366.964 		"/>
	</g>
	<g>
		<polygon fill="#C78032" points="9599.871,327.617 9885.655,267.398 10560.871,395.617 10960.871,267.398 11328.871,367.617 
			11858.676,267.398 12524.871,415.617 12869.776,285.728 13241.814,405.74 13448.871,303.049 13835.191,385.416 14204.91,267.398 
			14399.741,327.617 14399.871,900 9599.871,900 		"/>
		<polygon fill="#B77430" points="10560.871,395.617 10204.871,475.617 10490.93,382.336 		"/>
		<polygon fill="#B77430" points="11328.871,367.617 11130.871,397.119 11272.871,354.792 		"/>
		<polygon fill="#B77430" points="12524.871,415.617 12700.441,451.715 12573.989,397.119 		"/>
		<polygon fill="#B77430" points="13241.814,405.74 13508.871,476.176 13283.334,385.148 		"/>
		<polygon fill="#B77430" points="13835.191,385.416 14187.867,471.005 13892.996,366.964 		"/>
	</g>
	<g>
		<polygon fill="#C78032" points="0.129,327.617 285.914,267.398 961.129,395.617 1361.129,267.398 1729.129,367.617 
			2258.934,267.398 2925.129,415.617 3270.035,285.728 3642.073,405.74 3849.129,303.049 4235.45,385.416 4605.169,267.398 
			4800,327.617 4800.129,900 0.129,900 		"/>
		<polygon fill="#B77430" points="961.129,395.617 605.129,475.617 891.188,382.336 		"/>
		<polygon fill="#B77430" points="1729.129,367.617 1531.129,397.119 1673.129,354.792 		"/>
		<polygon fill="#B77430" points="2925.129,415.617 3100.7,451.715 2974.248,397.119 		"/>
		<polygon fill="#B77430" points="3642.073,405.74 3909.129,476.176 3683.593,385.148 		"/>
		<polygon fill="#B77430" points="4235.45,385.416 4588.125,471.005 4293.255,366.964 		"/>
	</g>
	<g id="snake">
		<g>
			<path fill="#726962" d="M5280.136,374.756L5280.136,374.756h-28.945c-11.046,0-20,8.954-20,20s8.954,20,20,20h8.945v40h40v-60
				C5300.136,383.71,5291.182,374.756,5280.136,374.756z"/>
			<g>
				<polygon fill="#D19853" points="5300.136,414.756 5282.815,404.756 5300.136,394.756 				"/>
				<polygon fill="#D19853" points="5300.136,434.756 5282.815,424.756 5300.136,414.756 				"/>
				<polygon fill="#D19853" points="5300.136,454.756 5282.815,444.756 5300.136,434.756 				"/>
			</g>
		</g>
		<line x1="5325.183" y1="423.497" x2="5325.183" y2="461.593"/>
		<rect x="5305.183" y="423.497" fill="#726962" width="40" height="31.259"/>
		<g>
			<path fill="#726962" d="M5353.033,494.756h-100c-11.046,0-20-8.954-20-20s8.954-20,20-20h100c11.046,0,20,8.954,20,20
				S5364.079,494.756,5353.033,494.756z"/>
			<polygon fill="#D19853" points="5273.033,454.756 5263.033,472.077 5253.033,454.756 			"/>
			<polygon fill="#D19853" points="5293.033,454.756 5283.033,472.077 5273.033,454.756 			"/>
			<polygon fill="#D19853" points="5313.033,454.756 5303.033,472.077 5293.033,454.756 			"/>
			<polygon fill="#D19853" points="5333.033,454.756 5323.033,472.077 5313.033,454.756 			"/>
			<polygon fill="#D19853" points="5353.033,454.756 5343.033,472.077 5333.033,454.756 			"/>
		</g>
		<g>
			<path fill="#726962" d="M5363.033,534.756h-120c-11.046,0-20-8.954-20-20s8.954-20,20-20h120c11.046,0,20,8.954,20,20
				S5374.079,534.756,5363.033,534.756z"/>
			<polygon fill="#D19853" points="5283.033,494.756 5273.033,512.077 5263.033,494.756 			"/>
			<polygon fill="#D19853" points="5263.033,494.756 5253.033,512.077 5243.033,494.756 			"/>
			<polygon fill="#D19853" points="5303.033,494.756 5293.033,512.077 5283.033,494.756 			"/>
			<polygon fill="#D19853" points="5323.033,494.756 5313.033,512.077 5303.033,494.756 			"/>
			<polygon fill="#D19853" points="5343.033,494.756 5333.033,512.077 5323.033,494.756 			"/>
			<polygon fill="#D19853" points="5363.033,494.756 5353.033,512.077 5343.033,494.756 			"/>
		</g>
		<g>
			<circle fill="#D19853" cx="5342.328" cy="413.07" r="15.998"/>
			<circle fill="#D19853" cx="5357.953" cy="409.684" r="11.999"/>
			<circle fill="#D19853" cx="5325.183" cy="423.497" r="19.998"/>
		</g>
	</g>
	<g id="tent">
		<path fill="#725947" d="M5059.024,163.41c-3.948,0-7.527-2.323-9.135-5.931l-18.71-41.993c-2.247-5.044,0.021-10.956,5.065-13.204
			c5.044-2.246,10.955,0.021,13.204,5.065l9.575,21.491l9.575-21.491c2.248-5.045,8.159-7.312,13.204-5.065
			c5.045,2.248,7.312,8.16,5.065,13.204l-18.71,41.993C5066.551,161.086,5062.972,163.41,5059.024,163.41z"/>
		<polygon fill="#F2E7CE" points="5059.024,128.838 4925.278,429.013 5192.77,429.013 		"/>
		<polygon fill="#35414F" points="5013.776,429.013 5157.793,429.013 5085.785,267.398 		"/>
		<polygon fill="#D19853" points="4965.702,412.072 4975.702,394.752 4955.702,394.752 		"/>
		<polygon fill="#D19853" points="4985.702,412.072 4995.702,394.752 4975.702,394.752 		"/>
		<polygon fill="#D19853" points="5005.702,412.072 5015.702,394.752 4995.702,394.752 		"/>
		<polygon fill="#D19853" points="5015.702,394.752 5023.231,407.792 5029.041,394.752 		"/>
		<polygon fill="#D19853" points="5145.253,400.868 5148.785,394.752 5142.528,394.752 		"/>
		<polygon fill="#D19853" points="5158.785,412.072 5168.785,394.752 5148.785,394.752 		"/>
		<g>
			<polygon fill="#D19853" points="4955.702,394.752 4940.543,394.752 4938.435,399.485 4945.702,412.072 			"/>
			<polygon fill="#D19853" points="5178.785,412.072 5182.418,405.779 5177.504,394.752 5168.785,394.752 			"/>
		</g>
		<polygon fill="#25303A" points="5085.785,267.398 5013.776,429.013 5038.4,429.013 5098.097,295.032 		"/>
	</g>
	<g id="peter_6_">
		<g>
			<path fill="#5E8C57" d="M8880.465,616.18c2.07-6.734,3.189-13.883,3.189-21.296c0-39.978-32.409-72.386-72.387-72.386
				s-72.386,32.408-72.386,72.386c0,7.412,1.119,14.562,3.189,21.296H8880.465z"/>
			<path fill="#475E38" d="M8751.626,580.049c-3.583,0-7.071,0.401-10.433,1.14c-0.85,4.437-1.312,9.011-1.312,13.696
				c0,7.412,1.119,14.562,3.189,21.296h55.371C8793.017,595.392,8774.114,580.049,8751.626,580.049z"/>
			<path fill="#5E8C57" d="M8786.597,634.346c0.434-2.606,0.671-5.278,0.671-8.007c0-26.723-21.663-48.386-48.386-48.386
				s-48.386,21.663-48.386,48.386c0,2.729,0.237,5.401,0.671,8.007H8786.597z"/>
		</g>
		<polygon fill="#BCD4E8" points="8853.654,569.339 8843.654,552.019 8853.654,534.698 8873.654,534.698 8883.654,552.019 
			8873.654,569.339 		"/>
		<polygon fill="#A6AEE8" points="8874.032,558.011 8863.654,564.003 8853.275,558.011 8853.275,546.027 8863.654,540.035 
			8874.032,546.027 		"/>
	</g>
</g>
</svg>
