<?xml version="1.0" encoding="utf-8"?>
<!-- Generator: Adobe Illustrator 17.0.0, SVG Export Plug-In . SVG Version: 6.00 Build 0)  -->
<!DOCTYPE svg PUBLIC "-//W3C//DTD SVG 1.1//EN" "http://www.w3.org/Graphics/SVG/1.1/DTD/svg11.dtd">
<svg version="1.1" xmlns="http://www.w3.org/2000/svg" xmlns:xlink="http://www.w3.org/1999/xlink" x="0px" y="0px" width="4800px"
	 height="900px" viewBox="0 0 4800 900" enable-background="new 0 0 4800 900" xml:space="preserve">
<g id="Layer_5">
</g>
<g id="Layer_3">
</g>
<g id="Layer_2">
</g>
<g id="Layer_1">
</g>
<g id="measurement_x5F_tools">
	<g>
		<polygon fill="#D19853" points="0,91.095 229.025,200.335 507.74,159.42 875.477,283.392 1211.7,207.72 1583.737,285.728 
			2102.789,180.717 2641,307.617 3045,187.617 3617,299.617 3937,183.617 4333,283.617 4800,91.095 4800,900 0,900 		"/>
		<polygon fill="#C18749" points="229.025,200.335 0,241.135 0,236.803 184.332,179.017 		"/>
		<polygon fill="#C18749" points="875.477,283.392 547,354.792 833.763,269.329 		"/>
		<polygon fill="#C18749" points="1583.737,285.728 1409.72,308.283 1518.773,272.106 		"/>
		<polygon fill="#C18749" points="2641,307.617 3077.752,392.709 2697.345,290.881 		"/>
		<polygon fill="#C18749" points="3617,299.617 3978.813,360.744 3657.971,284.765 		"/>
		<polygon fill="#C18749" points="4333,283.617 4610.962,339.214 4372.341,267.398 		"/>
	</g>
	<g>
		<g>
			
				<rect x="3576.493" y="356.323" transform="matrix(0.6927 -0.7212 0.7212 0.6927 812.5528 2705.0107)" fill="#D3A47D" width="8.522" height="85.215"/>
			<path fill="#AA1741" d="M3551.833,371.151c-3.26,3.394-8.655,3.503-12.049,0.243l-2.943-2.826
				c-3.394-3.26-3.502-8.655-0.243-12.049c3.26-3.394,8.655-3.503,12.049-0.243l2.943,2.826
				C3554.984,362.362,3555.093,367.757,3551.833,371.151z"/>
		</g>
		<g>
			
				<rect x="3578.563" y="360.84" transform="matrix(0.425 0.9052 -0.9052 0.425 2425.4543 -3011.2112)" fill="#D3A47D" width="8.522" height="85.215"/>
			<path fill="#AA1741" d="M3619.286,386.329c-2-4.26-0.167-9.335,4.092-11.335l3.694-1.734c4.26-2,9.335-0.167,11.335,4.092
				c2,4.26,0.167,9.335-4.092,11.335l-3.694,1.734C3626.361,392.421,3621.286,390.589,3619.286,386.329z"/>
		</g>
		<g>
			
				<rect x="3577.939" y="353.863" transform="matrix(0.2789 -0.9603 0.9603 0.2789 2202.3215 3725.9268)" fill="#D3A47D" width="8.522" height="85.215"/>
			<path fill="#AA1741" d="M3543.69,385.286c-1.312,4.519-6.041,7.119-10.56,5.807l-3.918-1.138
				c-4.519-1.313-7.119-6.041-5.807-10.56c1.312-4.519,6.041-7.119,10.56-5.807l3.918,1.138
				C3542.403,376.038,3545.002,380.766,3543.69,385.286z"/>
		</g>
	</g>
	<g>
		<g>
			<path fill="#5E8C57" d="M330.625,129.642c-13.808,0-25,11.192-25,25c0,0.191-0.424,19.946-9.86,38.819
				c-8.636,17.271-21.875,28.239-40.14,33.159v-88.795c0-13.807-11.193-25-25-25s-25,11.193-25,25v148.978
				c-18.265-4.92-31.504-15.887-40.14-33.159c-9.437-18.873-9.86-38.628-9.86-38.819c0-13.808-11.192-25-25-25s-25,11.192-25,25
				c0,3.163,0.425,31.751,15.14,61.181c9.228,18.455,22.073,33.258,38.181,43.995c13.561,9.041,29.193,15.018,46.68,17.873V438h50
				V277.69c17.486-2.854,33.119-8.832,46.68-17.873c16.107-10.737,28.953-25.54,38.181-43.995
				c14.715-29.43,15.14-58.018,15.14-61.181C355.625,140.834,344.433,129.642,330.625,129.642z"/>
			<g>
				<path fill="#475E38" d="M145.625,214.825c0,0.191,0.424,19.946,9.86,38.819c8.636,17.271,21.875,28.239,40.14,33.159v-3.526
					c-13.193-5.861-23.168-15.69-30.14-29.633c-9.437-18.873-9.86-38.628-9.86-38.819c0-13.808-11.192-25-25-25
					c-1.712,0-3.384,0.173-5,0.501C137.036,192.643,145.625,202.73,145.625,214.825z"/>
				<path fill="#475E38" d="M245.625,137.825v88.795c3.521-0.948,6.85-2.127,10-3.526v-85.268c0-13.807-11.193-25-25-25
					c-1.712,0-3.384,0.173-5,0.501C237.036,115.643,245.625,125.731,245.625,137.825z"/>
				<path fill="#475E38" d="M330.625,129.642c-1.712,0-3.384,0.173-5,0.501c11.411,2.316,20,12.404,20,24.499
					c0,3.163-0.425,31.751-15.14,61.181c-9.228,18.455-22.073,33.258-38.181,43.995c-13.561,9.041-29.193,15.018-46.68,17.873V438
					h10V277.69c17.486-2.854,33.119-8.832,46.68-17.873c16.107-10.737,28.953-25.54,38.181-43.995
					c14.715-29.43,15.14-58.018,15.14-61.181C355.625,140.834,344.433,129.642,330.625,129.642z"/>
			</g>
		</g>
		<polygon fill="#BCD4E8" points="249.776,247.269 239.776,229.948 249.776,212.628 269.776,212.628 279.776,229.948 
			269.776,247.269 		"/>
		<polygon fill="#BCD4E8" points="184.801,298.589 174.801,281.269 184.801,263.948 204.801,263.948 214.801,281.269 
			204.801,298.589 		"/>
		<polygon fill="#A6AEE8" points="270.155,235.94 259.776,241.932 249.398,235.94 249.398,223.956 259.776,217.964 270.155,223.956 
					"/>
		<polygon fill="#A6AEE8" points="205.179,287.261 194.801,293.253 184.422,287.261 184.422,275.277 194.801,269.285 
			205.179,275.277 		"/>
	</g>
	<g>
		<g>
			<path fill="#5E8C57" d="M423.265,438.538c2.07-6.734,3.189-13.883,3.189-21.296c0-39.978-32.409-72.386-72.386-72.386
				s-72.386,32.408-72.386,72.386c0,7.412,1.119,14.562,3.189,21.296H423.265z"/>
			<path fill="#475E38" d="M294.426,402.407c-3.583,0-7.071,0.401-10.433,1.14c-0.85,4.437-1.311,9.011-1.311,13.696
				c0,7.412,1.119,14.562,3.189,21.296h55.372C335.817,417.75,316.915,402.407,294.426,402.407z"/>
			<path fill="#5E8C57" d="M329.397,456.704c0.434-2.606,0.671-5.278,0.671-8.007c0-26.723-21.663-48.386-48.386-48.386
				c-26.723,0-48.386,21.663-48.386,48.386c0,2.729,0.237,5.401,0.671,8.007H329.397z"/>
		</g>
		<polygon fill="#BCD4E8" points="396.454,391.697 386.454,374.377 396.454,357.056 416.454,357.056 426.454,374.377 
			416.454,391.697 		"/>
		<polygon fill="#A6AEE8" points="416.833,380.369 406.454,386.361 396.076,380.369 396.076,368.385 406.454,362.393 
			416.833,368.385 		"/>
	</g>
	<polygon fill="#F80075" points="1490.876,483.082 1396.928,320.358 1490.876,157.635 1678.773,157.635 1772.721,320.358 
		1678.773,483.082 	"/>
</g>
</svg>
