<?xml version="1.0" encoding="utf-8"?>
<!-- Generator: Adobe Illustrator 17.0.0, SVG Export Plug-In . SVG Version: 6.00 Build 0)  -->
<!DOCTYPE svg PUBLIC "-//W3C//DTD SVG 1.1//EN" "http://www.w3.org/Graphics/SVG/1.1/DTD/svg11.dtd">
<svg version="1.1" xmlns="http://www.w3.org/2000/svg" xmlns:xlink="http://www.w3.org/1999/xlink" x="0px" y="0px" viewBox="0 0 14400 900" enable-background="new 0 0 14400 900" xml:space="preserve">
<g id="Layer_5">
</g>
<g id="Layer_3">
</g>
<g id="Layer_2">
</g>
<g id="Layer_1">
</g>
<g id="measurement_x5F_tools">
	<g>
		<polygon fill="#BF672B" points="4800,495.548 5017,403 5305,544.707 5525,450 5905,603.617 6137,495.617 6529,551.617 
			6797,383.617 7165,515.617 7445,423.617 8105,567.617 8369,450 8649,527.617 8857,419.617 9229,491.617 9473,327.617 
			9599.77,495.548 9600,900 4800,900 		"/>
		<polygon fill="#A85C22" points="5305,544.707 4938,686.617 5265.63,525.336 		"/>
		<polygon fill="#A85C22" points="6529,551.617 6366,619.617 6479.86,544.597 		"/>
		<polygon fill="#A85C22" points="7144.63,508.31 7166.333,550.95 7187.237,508.31 7165,515.617 		"/>
		<polygon fill="#A85C22" points="8105,567.617 8361.13,621.687 8163.368,541.613 		"/>
		<polygon fill="#A85C22" points="8649,527.617 9086.984,621.687 8691.836,505.375 		"/>
		<polygon fill="#A85C22" points="9229,491.617 9599.809,563.531 9251.973,476.176 		"/>
		<polygon fill="#A85C22" points="5905,603.617 5651,718.617 5861.109,585.874 		"/>
	</g>
	<g>
		<polygon fill="#BF672B" points="9599.77,495.548 9816.77,403 10104.77,544.707 10324.77,450 10704.77,603.617 10936.77,495.617 
			11328.77,551.617 11596.77,383.617 11964.77,515.617 12244.77,423.617 12904.77,567.617 13168.77,450 13448.77,527.617 
			13656.77,419.617 14028.77,491.617 14272.77,327.617 14399.539,495.548 14399.77,900 9599.77,900 		"/>
		<polygon fill="#A85C22" points="10104.77,544.707 9737.77,686.617 10065.399,525.336 		"/>
		<polygon fill="#A85C22" points="11328.77,551.617 11165.77,619.617 11279.63,544.597 		"/>
		<polygon fill="#A85C22" points="11944.399,508.31 11966.103,550.95 11987.007,508.31 11964.77,515.617 		"/>
		<polygon fill="#A85C22" points="12904.77,567.617 13160.899,621.687 12963.138,541.613 		"/>
		<polygon fill="#A85C22" points="13448.77,527.617 13886.754,621.687 13491.605,505.375 		"/>
		<polygon fill="#A85C22" points="14028.77,491.617 14399.578,563.531 14051.742,476.176 		"/>
		<polygon fill="#A85C22" points="10704.77,603.617 10450.77,718.617 10660.879,585.874 		"/>
	</g>
	<g>
		<polygon fill="#BF672B" points="0.231,495.548 217.231,403 505.231,544.707 725.231,450 1105.231,603.617 1337.231,495.617 
			1729.231,551.617 1997.231,383.617 2365.231,515.617 2645.231,423.617 3305.231,567.617 3569.231,450 3849.231,527.617 
			4057.231,419.617 4429.23,491.617 4673.23,327.617 4800,495.548 4800.23,900 0.231,900 		"/>
		<polygon fill="#A85C22" points="505.231,544.707 138.231,686.617 465.861,525.336 		"/>
		<polygon fill="#A85C22" points="1729.231,551.617 1566.231,619.617 1680.091,544.597 		"/>
		<polygon fill="#A85C22" points="2344.861,508.31 2366.564,550.95 2387.468,508.31 2365.231,515.617 		"/>
		<polygon fill="#A85C22" points="3305.231,567.617 3561.36,621.687 3363.598,541.613 		"/>
		<polygon fill="#A85C22" points="3849.231,527.617 4287.215,621.687 3892.067,505.375 		"/>
		<polygon fill="#A85C22" points="4429.23,491.617 4800.039,563.531 4452.204,476.176 		"/>
		<polygon fill="#A85C22" points="1105.231,603.617 851.231,718.617 1061.34,585.874 		"/>
	</g>
	<g id="peter_16_">
		<g>
			<path fill="#5E8C57" d="M7923.889,294.877c-13.808,0-25,11.192-25,25c0,0.191-0.424,19.946-9.86,38.819
				c-8.636,17.271-21.875,28.239-40.14,33.159v-88.795c0-13.807-11.193-25-25-25s-25,11.193-25,25v148.978
				c-18.265-4.92-31.504-15.887-40.14-33.159c-9.437-18.873-9.86-38.628-9.86-38.819c0-13.808-11.192-25-25-25s-25,11.192-25,25
				c0,3.163,0.425,31.751,15.14,61.181c9.228,18.455,22.073,33.258,38.181,43.995c13.561,9.041,29.193,15.018,46.68,17.873v100.126
				h50v-160.31c17.486-2.854,33.119-8.832,46.68-17.873c16.107-10.737,28.953-25.54,38.181-43.995
				c14.715-29.43,15.14-58.018,15.14-61.181C7948.889,306.07,7937.696,294.877,7923.889,294.877z"/>
			<g>
				<path fill="#475E38" d="M7738.889,380.061c0,0.191,0.424,19.946,9.86,38.819c8.636,17.271,21.875,28.239,40.14,33.159v-3.526
					c-13.192-5.861-23.168-15.69-30.14-29.633c-9.437-18.873-9.86-38.628-9.86-38.819c0-13.808-11.192-25-25-25
					c-1.712,0-3.384,0.173-5,0.501C7730.3,357.878,7738.889,367.966,7738.889,380.061z"/>
				<path fill="#475E38" d="M7838.889,303.061v88.795c3.521-0.948,6.85-2.127,10-3.526v-85.268c0-13.807-11.193-25-25-25
					c-1.712,0-3.384,0.173-5,0.501C7830.3,280.879,7838.889,290.967,7838.889,303.061z"/>
				<path fill="#475E38" d="M7923.889,294.877c-1.712,0-3.384,0.173-5,0.501c11.411,2.316,20,12.404,20,24.499
					c0,3.163-0.425,31.751-15.14,61.181c-9.228,18.455-22.073,33.258-38.181,43.995c-13.561,9.041-29.193,15.018-46.68,17.873
					v160.31h10v-160.31c17.486-2.854,33.119-8.832,46.68-17.873c16.107-10.737,28.953-25.54,38.181-43.995
					c14.715-29.43,15.14-58.018,15.14-61.181C7948.889,306.07,7937.696,294.877,7923.889,294.877z"/>
			</g>
		</g>
		<polygon fill="#BCD4E8" points="7843.04,412.504 7833.04,395.183 7843.04,377.863 7863.04,377.863 7873.04,395.183 
			7863.04,412.504 		"/>
		<polygon fill="#BCD4E8" points="7778.064,463.825 7768.064,446.504 7778.064,429.184 7798.064,429.184 7808.064,446.504 
			7798.064,463.825 		"/>
		<polygon fill="#A6AEE8" points="7863.418,401.175 7853.04,407.167 7842.662,401.175 7842.662,389.191 7853.04,383.199 
			7863.418,389.191 		"/>
		<polygon fill="#A6AEE8" points="7798.443,452.496 7788.064,458.488 7777.686,452.496 7777.686,440.512 7788.064,434.52 
			7798.443,440.512 		"/>
	</g>
	<g id="peter_9_">
		<g>
			<path fill="#5E8C57" d="M8016.529,603.774c2.07-6.734,3.189-13.883,3.189-21.296c0-39.978-32.409-72.386-72.386-72.386
				s-72.386,32.408-72.386,72.386c0,7.412,1.119,14.562,3.189,21.296H8016.529z"/>
			<path fill="#475E38" d="M7887.69,567.642c-3.583,0-7.071,0.401-10.433,1.14c-0.85,4.437-1.311,9.011-1.311,13.696
				c0,7.412,1.119,14.562,3.189,21.296h55.372C7929.081,582.985,7910.179,567.642,7887.69,567.642z"/>
			<path fill="#5E8C57" d="M7922.661,621.939c0.434-2.606,0.671-5.278,0.671-8.007c0-26.723-21.663-48.386-48.386-48.386
				c-26.723,0-48.386,21.663-48.386,48.386c0,2.729,0.237,5.401,0.671,8.007H7922.661z"/>
		</g>
		<polygon fill="#BCD4E8" points="7989.718,556.933 7979.718,539.612 7989.718,522.292 8009.718,522.292 8019.718,539.612 
			8009.718,556.933 		"/>
		<polygon fill="#A6AEE8" points="8010.097,545.604 7999.718,551.596 7989.34,545.604 7989.34,533.62 7999.718,527.628 
			8010.097,533.62 		"/>
	</g>
	<g id="peter_1_">
		<g>
			<path fill="#5E8C57" d="M6041.93,404.895c-13.807,0-25,11.147-25,24.955c-0.002,0.331-0.433,33.471-16.807,65.28
				c-8.991,17.47-21.13,31.283-36.078,41.057c-13.245,8.66-29.03,14.34-47.115,16.999V329.866c0-13.807-11.193-25-25-25
				s-25,11.193-25,25v122.573c-19.33-4.637-33.237-15.768-42.193-33.68c-9.437-18.873-9.86-38.628-9.86-38.819
				c0-13.808-11.192-25-25-25s-25,11.192-25,25c0,3.163,0.425,31.751,15.14,61.181c9.228,18.455,22.073,33.258,38.181,43.995
				c14.086,9.391,30.42,15.459,48.733,18.172v199.827h50v-99.498c73.413-7.999,110.321-50.917,128.61-87.496
				c21.146-42.293,21.39-84.408,21.39-86.181C6066.93,416.133,6055.738,404.895,6041.93,404.895z"/>
			<g>
				<path fill="#475E38" d="M5905,329.866v223.321c4.098-0.603,8.071-1.368,11.93-2.281v-221.04c0-13.807-11.193-25-25-25
					c-2.056,0-4.053,0.254-5.965,0.722C5896.891,308.263,5905,318.115,5905,329.866z"/>
				<path fill="#475E38" d="M6041.93,404.895c-2.061,0-4.061,0.253-5.977,0.722c10.932,2.681,19.046,12.569,19.046,24.323
					c0,1.772-0.243,43.888-21.39,86.181c-18.29,36.58-55.198,79.497-128.61,87.496v99.498h11.93v-99.498
					c73.413-7.999,110.321-50.917,128.61-87.496c21.146-42.293,21.39-84.408,21.39-86.181
					C6066.93,416.133,6055.738,404.895,6041.93,404.895z"/>
				<path fill="#475E38" d="M5802.946,379.94c0,0.191,0.424,19.946,9.86,38.819c8.956,17.912,22.864,29.043,42.193,33.68v-4.013
					c-13.249-5.855-23.272-15.686-30.263-29.667c-9.437-18.873-9.86-38.628-9.86-38.819c0-13.808-11.192-25-25-25
					c-2.056,0-4.053,0.254-5.965,0.722C5794.837,358.337,5802.946,368.189,5802.946,379.94z"/>
			</g>
		</g>
		<g>
			<polygon fill="#BCD4E8" points="5851.533,468.797 5841.533,451.477 5851.533,434.156 5871.533,434.156 5881.533,451.477 
				5871.533,468.797 			"/>
			<polygon fill="#A6AEE8" points="5871.911,457.469 5861.533,463.461 5851.154,457.469 5851.154,445.484 5861.533,439.492 
				5871.911,445.484 			"/>
		</g>
		<g>
			<polygon fill="#BCD4E8" points="5910.965,571.325 5900.965,554.005 5910.965,536.684 5930.965,536.684 5940.965,554.005 
				5930.965,571.325 			"/>
			<polygon fill="#A6AEE8" points="5931.343,559.997 5920.965,565.989 5910.586,559.997 5910.586,548.013 5920.965,542.021 
				5931.343,548.013 			"/>
		</g>
	</g>
</g>
</svg>
