<?xml version="1.0" encoding="utf-8"?>
<!-- Generator: Adobe Illustrator 17.0.0, SVG Export Plug-In . SVG Version: 6.00 Build 0)  -->
<!DOCTYPE svg PUBLIC "-//W3C//DTD SVG 1.1//EN" "http://www.w3.org/Graphics/SVG/1.1/DTD/svg11.dtd">
<svg version="1.1" xmlns="http://www.w3.org/2000/svg" xmlns:xlink="http://www.w3.org/1999/xlink" x="0px" y="0px" viewBox="0 0 14400 900" enable-background="new 0 0 14400 900" xml:space="preserve">
<g id="Layer_5">
	<g>
		<polygon fill="#2B3238" points="4800,91.095 5121.5,179.017 5305,91.095 5733.655,241.135 5943.613,179.017 6296.729,322.755 
			6777.517,210.076 7317.338,339.214 7725,179.017 8105,303.306 8737,183.617 9035.32,303.306 9600,91.095 9600,900 4800,900 		"/>
		<polygon fill="#1D252B" points="5121.5,179.017 4887,270.077 5060.732,162.399 		"/>
		<polygon fill="#1D252B" points="5733.655,241.135 5347,354.792 5695.147,227.656 		"/>
		<polygon fill="#1D252B" points="6296.729,322.755 6122.711,359.077 6245.641,301.959 		"/>
		<polygon fill="#1D252B" points="7317.338,339.214 7760,438.077 7365.479,320.296 		"/>
		<polygon fill="#1D252B" points="8105,303.306 8480,398.077 8155.373,293.766 		"/>
		<polygon fill="#1D252B" points="9035.32,303.306 9313.283,389.077 9074.446,288.602 		"/>
	</g>
</g>
<g id="Layer_3">
</g>
<g id="Layer_2">
</g>
<g id="Layer_1">
</g>
<g id="measurement_x5F_tools">
	<g id="no_x5F_snake_1_">
		<g>
			<path fill="#3F5C63" d="M8755.916,373.282L8755.916,373.282h-28.945c-11.046,0-20,8.954-20,20s8.954,20,20,20h8.945v40h40v-60
				C8775.916,382.237,8766.962,373.282,8755.916,373.282z"/>
			<g>
				<polygon fill="#538896" points="8775.916,413.282 8758.596,403.282 8775.916,393.282 				"/>
				<polygon fill="#538896" points="8775.916,433.282 8758.596,423.282 8775.916,413.282 				"/>
				<polygon fill="#538896" points="8775.916,453.282 8758.596,443.282 8775.916,433.282 				"/>
			</g>
		</g>
		<line x1="8800.963" y1="422.023" x2="8800.963" y2="460.119"/>
		<rect x="8780.963" y="422.024" fill="#3F5C63" width="40" height="31.259"/>
		<g>
			<path fill="#3F5C63" d="M8828.813,493.282h-100c-11.046,0-20-8.954-20-20s8.954-20,20-20h100c11.046,0,20,8.954,20,20
				S8839.859,493.282,8828.813,493.282z"/>
			<polygon fill="#538896" points="8748.813,453.282 8738.813,470.603 8728.813,453.282 			"/>
			<polygon fill="#538896" points="8768.813,453.282 8758.813,470.603 8748.813,453.282 			"/>
			<polygon fill="#538896" points="8788.813,453.282 8778.813,470.603 8768.813,453.282 			"/>
			<polygon fill="#538896" points="8808.813,453.282 8798.813,470.603 8788.813,453.282 			"/>
			<polygon fill="#538896" points="8828.813,453.282 8818.813,470.603 8808.813,453.282 			"/>
		</g>
		<g>
			<path fill="#3F5C63" d="M8838.813,533.282h-120c-11.046,0-20-8.954-20-20c0-11.046,8.954-20,20-20h120c11.046,0,20,8.954,20,20
				C8858.813,524.328,8849.859,533.282,8838.813,533.282z"/>
			<polygon fill="#538896" points="8758.813,493.282 8748.813,510.603 8738.813,493.282 			"/>
			<polygon fill="#538896" points="8738.813,493.282 8728.813,510.603 8718.813,493.282 			"/>
			<polygon fill="#538896" points="8778.813,493.282 8768.813,510.603 8758.813,493.282 			"/>
			<polygon fill="#538896" points="8798.813,493.282 8788.813,510.603 8778.813,493.282 			"/>
			<polygon fill="#538896" points="8818.813,493.282 8808.813,510.603 8798.813,493.282 			"/>
			<polygon fill="#538896" points="8838.813,493.282 8828.813,510.603 8818.813,493.282 			"/>
		</g>
		<g>
			<circle fill="#538896" cx="8818.107" cy="411.597" r="15.998"/>
			<circle fill="#538896" cx="8833.732" cy="408.21" r="11.999"/>
			<circle fill="#538896" cx="8800.963" cy="422.023" r="19.998"/>
		</g>
	</g>
	<g id="peter_19_">
		<g>
			<path fill="#394E5B" d="M5319.844,341.068c2.07-6.734,3.189-13.883,3.189-21.296c0-39.978-32.409-72.386-72.386-72.386
				s-72.386,32.408-72.386,72.386c0,7.412,1.119,14.562,3.189,21.296H5319.844z"/>
			<path fill="#2A3B44" d="M5191.005,304.937c-3.583,0-7.071,0.401-10.433,1.14c-0.85,4.437-1.311,9.011-1.311,13.696
				c0,7.412,1.119,14.562,3.189,21.296h55.372C5232.396,320.28,5213.494,304.937,5191.005,304.937z"/>
			<path fill="#394E5B" d="M5225.976,359.234c0.434-2.606,0.671-5.278,0.671-8.007c0-26.723-21.663-48.386-48.386-48.386
				c-26.723,0-48.386,21.663-48.386,48.386c0,2.729,0.237,5.401,0.671,8.007H5225.976z"/>
		</g>
		<polygon fill="#538896" points="5293.033,294.228 5283.033,276.907 5293.033,259.587 5313.033,259.587 5323.033,276.907 
			5313.033,294.228 		"/>
		<polygon fill="#426972" points="5313.412,282.899 5303.033,288.891 5292.655,282.899 5292.655,270.915 5303.033,264.923 
			5313.412,270.915 		"/>
	</g>
	<g id="peter_18_">
		<g>
			<path fill="#394E5B" d="M6636.554,128.561c-13.807,0-25,11.147-25,24.955c-0.002,0.331-0.433,33.471-16.807,65.28
				c-8.991,17.47-21.13,31.283-36.078,41.057c-13.245,8.66-29.03,14.34-47.115,16.999V53.532c0-13.807-11.193-25-25-25
				s-25,11.193-25,25v122.573c-19.33-4.637-33.237-15.768-42.193-33.68c-9.437-18.873-9.86-38.628-9.86-38.819
				c0-13.808-11.192-25-25-25s-25,11.192-25,25c0,3.163,0.425,31.751,15.14,61.181c9.228,18.455,22.073,33.258,38.181,43.995
				c14.086,9.391,30.42,15.459,48.733,18.172v199.827h50v-99.498c73.413-7.999,110.321-50.917,128.61-87.496
				c21.146-42.293,21.39-84.408,21.39-86.181C6661.554,139.799,6650.361,128.561,6636.554,128.561z"/>
			<g>
				<path fill="#2A3B44" d="M6499.624,53.532v223.321c4.098-0.603,8.071-1.368,11.93-2.281V53.532c0-13.807-11.193-25-25-25
					c-2.056,0-4.053,0.254-5.965,0.722C6491.514,31.93,6499.624,41.782,6499.624,53.532z"/>
				<path fill="#2A3B44" d="M6636.554,128.561c-2.061,0-4.061,0.253-5.977,0.722c10.932,2.681,19.046,12.569,19.046,24.323
					c0,1.772-0.243,43.888-21.39,86.181c-18.29,36.58-55.198,79.497-128.61,87.496v99.498h11.93v-99.498
					c73.413-7.999,110.321-50.917,128.61-87.496c21.146-42.293,21.39-84.408,21.39-86.181
					C6661.554,139.799,6650.361,128.561,6636.554,128.561z"/>
				<path fill="#2A3B44" d="M6397.57,103.606c0,0.191,0.424,19.946,9.86,38.819c8.956,17.912,22.864,29.043,42.193,33.68v-4.013
					c-13.249-5.855-23.272-15.686-30.263-29.667c-9.437-18.873-9.86-38.628-9.86-38.819c0-13.808-11.192-25-25-25
					c-2.056,0-4.053,0.254-5.965,0.722C6389.461,82.003,6397.57,91.855,6397.57,103.606z"/>
			</g>
		</g>
		<g>
			<polygon fill="#538896" points="6446.156,192.463 6436.156,175.143 6446.156,157.822 6466.156,157.822 6476.156,175.143 
				6466.156,192.463 			"/>
			<polygon fill="#426972" points="6466.535,181.135 6456.156,187.127 6445.777,181.135 6445.777,169.151 6456.156,163.159 
				6466.535,169.151 			"/>
		</g>
		<g>
			<polygon fill="#538896" points="6505.588,294.992 6495.588,277.671 6505.588,260.351 6525.588,260.351 6535.588,277.671 
				6525.588,294.992 			"/>
			<polygon fill="#426972" points="6525.967,283.663 6515.588,289.655 6505.209,283.663 6505.209,271.679 6515.588,265.687 
				6525.967,271.679 			"/>
		</g>
	</g>
	<g>
		<polygon fill="#2B3238" points="1,91.095 322.5,179.017 506,91.095 934.655,241.135 1144.613,179.017 1497.729,322.755 
			1978.517,210.076 2518.338,339.214 2926,179.017 3306,303.306 3938,183.617 4236.321,303.306 4801,91.095 4801,900 1,900 		"/>
		<polygon fill="#1D252B" points="322.5,179.017 88,270.077 261.732,162.399 		"/>
		<polygon fill="#1D252B" points="934.655,241.135 548,354.792 896.147,227.656 		"/>
		<polygon fill="#1D252B" points="1497.729,322.755 1323.711,359.077 1446.641,301.959 		"/>
		<polygon fill="#1D252B" points="2518.338,339.214 2961,438.077 2566.479,320.296 		"/>
		<polygon fill="#1D252B" points="3306,303.306 3681,398.077 3356.373,293.766 		"/>
		<polygon fill="#1D252B" points="4236.321,303.306 4514.283,389.077 4275.446,288.602 		"/>
	</g>
	<g>
		<polygon fill="#2B3238" points="9597,91.095 9918.5,179.017 10102,91.095 10530.655,241.135 10740.613,179.017 11093.729,322.755 
			11574.517,210.076 12114.339,339.214 12522,179.017 12902,303.306 13534,183.617 13832.32,303.306 14397,91.095 14397,900 
			9597,900 		"/>
		<polygon fill="#1D252B" points="9918.5,179.017 9684,270.077 9857.732,162.399 		"/>
		<polygon fill="#1D252B" points="10530.655,241.135 10144,354.792 10492.147,227.656 		"/>
		<polygon fill="#1D252B" points="11093.729,322.755 10919.712,359.077 11042.641,301.959 		"/>
		<polygon fill="#1D252B" points="12114.339,339.214 12557,438.077 12162.479,320.296 		"/>
		<polygon fill="#1D252B" points="12902,303.306 13277,398.077 12952.373,293.766 		"/>
		<polygon fill="#1D252B" points="13832.32,303.306 14110.283,389.077 13871.446,288.602 		"/>
	</g>
</g>
</svg>
