<?xml version="1.0" encoding="utf-8"?>
<!-- Generator: Adobe Illustrator 17.0.0, SVG Export Plug-In . SVG Version: 6.00 Build 0)  -->
<!DOCTYPE svg PUBLIC "-//W3C//DTD SVG 1.1//EN" "http://www.w3.org/Graphics/SVG/1.1/DTD/svg11.dtd">
<svg version="1.1" xmlns="http://www.w3.org/2000/svg" xmlns:xlink="http://www.w3.org/1999/xlink" x="0px" y="0px" viewBox="0 0 14400 900" enable-background="new 0 0 14400 900" xml:space="preserve">
<g id="Layer_5">
</g>
<g id="Layer_3">
</g>
<g id="Layer_2">
</g>
<g id="Layer_1">
</g>
<g id="measurement_x5F_tools">
	<g>
		<polygon fill="#3F5C63" points="4801.73,212.214 5087.515,151.995 5762.73,280.214 6162.73,151.995 6530.73,252.214 
			7060.536,151.995 7726.73,300.214 8071.637,170.325 8443.674,290.337 8650.73,187.646 9037.051,270.013 9406.771,151.995 
			9601.602,212.214 9600.166,900 4799.436,900 		"/>
		<polygon fill="#364D51" points="5762.73,280.214 5406.73,360.214 5692.79,266.932 		"/>
		<polygon fill="#364D51" points="6530.73,252.214 6332.73,281.716 6474.73,239.389 		"/>
		<polygon fill="#364D51" points="7726.73,300.214 7902.302,336.312 7775.849,281.716 		"/>
		<polygon fill="#364D51" points="8443.674,290.337 8710.73,360.773 8485.194,269.744 		"/>
		<polygon fill="#364D51" points="9037.051,270.013 9389.728,355.602 9094.856,251.561 		"/>
	</g>
	<g>
		<polygon fill="#3F5C63" points="9598.602,212.214 9884.386,151.995 10559.602,280.214 10959.602,151.995 11327.602,252.214 
			11857.406,151.995 12523.602,300.214 12868.508,170.325 13240.545,290.337 13447.602,187.646 13833.922,270.013 
			14203.641,151.995 14398.472,212.214 14400,900 9597.037,900 		"/>
		<polygon fill="#364D51" points="10559.602,280.214 10203.602,360.214 10489.661,266.932 		"/>
		<polygon fill="#364D51" points="11327.602,252.214 11129.602,281.716 11271.602,239.389 		"/>
		<polygon fill="#364D51" points="12523.602,300.214 12699.173,336.312 12572.72,281.716 		"/>
		<polygon fill="#364D51" points="13240.545,290.337 13507.602,360.773 13282.065,269.744 		"/>
		<polygon fill="#364D51" points="13833.922,270.013 14186.598,355.602 13891.728,251.561 		"/>
	</g>
	<g>
		<polygon fill="#3F5C63" points="2.86,212.214 288.644,151.995 963.86,280.214 1363.86,151.995 1731.86,252.214 2261.665,151.995 
			2927.86,300.214 3272.766,170.325 3644.803,290.337 3851.86,187.646 4238.18,270.013 4607.899,151.995 4802.73,212.214 
			4800.564,900 0,900 		"/>
		<polygon fill="#364D51" points="963.86,280.214 607.86,360.214 893.919,266.932 		"/>
		<polygon fill="#364D51" points="1731.86,252.214 1533.86,281.716 1675.86,239.389 		"/>
		<polygon fill="#364D51" points="2927.86,300.214 3103.431,336.312 2976.978,281.716 		"/>
		<polygon fill="#364D51" points="3644.803,290.337 3911.86,360.773 3686.323,269.744 		"/>
		<polygon fill="#364D51" points="4238.18,270.013 4590.856,355.602 4295.985,251.561 		"/>
	</g>
	<g id="tent_2_">
		<path fill="#2B3238" d="M5450.985,149.757c-3.948,0-7.527-2.323-9.135-5.931l-18.71-41.993
			c-2.247-5.044,0.021-10.956,5.065-13.204c5.044-2.246,10.955,0.021,13.204,5.065l9.575,21.491l9.575-21.491
			c2.248-5.045,8.159-7.312,13.204-5.065c5.045,2.248,7.312,8.16,5.065,13.204l-18.71,41.993
			C5458.512,147.434,5454.933,149.757,5450.985,149.757z"/>
		<polygon fill="#538896" points="5450.985,115.186 5317.239,415.36 5584.73,415.36 		"/>
		<polygon fill="#2B3238" points="5405.737,415.36 5549.754,415.36 5477.746,253.746 		"/>
		<polygon fill="#426972" points="5357.663,398.42 5367.663,381.099 5347.663,381.099 		"/>
		<polygon fill="#426972" points="5377.663,398.42 5387.663,381.099 5367.663,381.099 		"/>
		<polygon fill="#426972" points="5397.663,398.42 5407.663,381.099 5387.663,381.099 		"/>
		<polygon fill="#426972" points="5407.663,381.099 5415.192,394.14 5421.002,381.099 		"/>
		<polygon fill="#426972" points="5537.214,387.216 5540.746,381.099 5534.489,381.099 		"/>
		<polygon fill="#426972" points="5550.746,398.42 5560.746,381.099 5540.746,381.099 		"/>
		<g>
			<polygon fill="#426972" points="5347.663,381.099 5332.504,381.099 5330.396,385.832 5337.663,398.42 			"/>
			<polygon fill="#426972" points="5570.746,398.42 5574.379,392.127 5569.465,381.099 5560.746,381.099 			"/>
		</g>
		<polygon fill="#1D252B" points="5477.746,253.746 5405.737,415.36 5430.361,415.36 5490.058,281.379 		"/>
	</g>
	<g id="peter_11_">
		<g>
			<path fill="#35414F" d="M8794.354,369.011c2.07-6.734,3.189-13.883,3.189-21.296c0-39.978-32.409-72.386-72.387-72.386
				s-72.386,32.408-72.386,72.386c0,7.412,1.119,14.562,3.189,21.296H8794.354z"/>
			<path fill="#25303A" d="M8665.516,332.879c-3.583,0-7.071,0.401-10.433,1.14c-0.85,4.437-1.312,9.011-1.312,13.696
				c0,7.412,1.119,14.562,3.189,21.296h55.371C8706.906,348.222,8688.004,332.879,8665.516,332.879z"/>
			<path fill="#35414F" d="M8700.486,387.176c0.435-2.606,0.672-5.278,0.672-8.007c0-26.723-21.663-48.386-48.387-48.386
				c-26.723,0-48.386,21.663-48.386,48.386c0,2.729,0.237,5.401,0.672,8.007H8700.486z"/>
		</g>
		<polygon fill="#538896" points="8767.544,322.17 8757.544,304.849 8767.544,287.529 8787.544,287.529 8797.544,304.849 
			8787.544,322.17 		"/>
		<polygon fill="#426972" points="8787.922,310.841 8777.544,316.833 8767.165,310.841 8767.165,298.857 8777.544,292.865 
			8787.922,298.857 		"/>
	</g>
</g>
</svg>
