<?xml version="1.0" encoding="utf-8"?>
<!-- Generator: Adobe Illustrator 17.0.0, SVG Export Plug-In . SVG Version: 6.00 Build 0)  -->
<!DOCTYPE svg PUBLIC "-//W3C//DTD SVG 1.1//EN" "http://www.w3.org/Graphics/SVG/1.1/DTD/svg11.dtd">
<svg version="1.1" xmlns="http://www.w3.org/2000/svg" xmlns:xlink="http://www.w3.org/1999/xlink" x="0px" y="0px" viewBox="0 0 14400 900" enable-background="new 0 0 14400 900" xml:space="preserve">
<g id="Layer_5">
</g>
<g id="Layer_3">
</g>
<g id="Layer_2">
</g>
<g id="Layer_1">
</g>
<g id="measurement_x5F_tools">
	<g>
		<polygon fill="#BF672B" points="4800,257.931 5017,165.383 5305,307.09 5525,212.383 5905,366 6137,258 6529,314 6797,146 
			7165,278 7445,186 8105,330 8369,212.383 8649,290 8857,182 9229,254 9473,90 9599.77,257.931 9600,900 4800,900 		"/>
		<polygon fill="#A85C22" points="5305,307.09 4938,449 5265.63,287.719 		"/>
		<polygon fill="#A85C22" points="6529,314 6366,382 6479.86,306.98 		"/>
		<polygon fill="#A85C22" points="7144.63,270.693 7166.333,313.333 7187.237,270.693 7165,278 		"/>
		<polygon fill="#A85C22" points="8105,330 8361.13,384.07 8163.368,303.996 		"/>
		<polygon fill="#A85C22" points="8649,290 9086.984,384.07 8691.836,267.758 		"/>
		<polygon fill="#A85C22" points="9229,254 9599.809,325.914 9251.973,238.559 		"/>
		<polygon fill="#A85C22" points="5905,366 5651,481 5861.109,348.257 		"/>
	</g>
	<g>
		<polygon fill="#BF672B" points="9596.77,257.931 9813.77,165.383 10101.77,307.09 10321.77,212.383 10701.77,366 10933.77,258 
			11325.77,314 11593.77,146 11961.77,278 12241.77,186 12901.77,330 13165.77,212.383 13445.77,290 13653.77,182 14025.77,254 
			14269.77,90 14396.539,257.931 14396.77,900 9596.77,900 		"/>
		<polygon fill="#A85C22" points="10101.77,307.09 9734.77,449 10062.399,287.719 		"/>
		<polygon fill="#A85C22" points="11325.77,314 11162.77,382 11276.63,306.98 		"/>
		<polygon fill="#A85C22" points="11941.399,270.693 11963.103,313.333 11984.007,270.693 11961.77,278 		"/>
		<polygon fill="#A85C22" points="12901.77,330 13157.899,384.07 12960.138,303.996 		"/>
		<polygon fill="#A85C22" points="13445.77,290 13883.754,384.07 13488.605,267.758 		"/>
		<polygon fill="#A85C22" points="14025.77,254 14396.578,325.914 14048.742,238.559 		"/>
		<polygon fill="#A85C22" points="10701.77,366 10447.77,481 10657.879,348.257 		"/>
	</g>
	<g>
		<polygon fill="#BF672B" points="3.231,257.931 220.231,165.383 508.231,307.09 728.231,212.383 1108.231,366 1340.231,258 
			1732.231,314 2000.231,146 2368.231,278 2648.231,186 3308.231,330 3572.231,212.383 3852.231,290 4060.231,182 4432.23,254 
			4676.23,90 4803,257.931 4803.23,900 3.231,900 		"/>
		<polygon fill="#A85C22" points="508.231,307.09 141.231,449 468.861,287.719 		"/>
		<polygon fill="#A85C22" points="1732.231,314 1569.231,382 1683.091,306.98 		"/>
		<polygon fill="#A85C22" points="2347.861,270.693 2369.564,313.333 2390.468,270.693 2368.231,278 		"/>
		<polygon fill="#A85C22" points="3308.231,330 3564.36,384.07 3366.598,303.996 		"/>
		<polygon fill="#A85C22" points="3852.231,290 4290.215,384.07 3895.067,267.758 		"/>
		<polygon fill="#A85C22" points="4432.23,254 4803.039,325.914 4455.204,238.559 		"/>
		<polygon fill="#A85C22" points="1108.231,366 854.231,481 1064.34,348.257 		"/>
	</g>
	<g id="peter_16_">
		<g>
			<path fill="#5E8C57" d="M7923.889,126.434c-13.808,0-25,11.192-25,25c0,0.191-0.424,19.946-9.86,38.819
				c-8.636,17.271-21.875,28.239-40.14,33.159v-88.795c0-13.807-11.193-25-25-25s-25,11.193-25,25v148.978
				c-18.265-4.92-31.504-15.887-40.14-33.159c-9.437-18.873-9.86-38.628-9.86-38.819c0-13.808-11.192-25-25-25s-25,11.192-25,25
				c0,3.163,0.425,31.751,15.14,61.181c9.228,18.455,22.073,33.258,38.181,43.995c13.561,9.041,29.193,15.018,46.68,17.873v100.126
				h50v-160.31c17.486-2.854,33.119-8.832,46.68-17.873c16.107-10.737,28.953-25.54,38.181-43.995
				c14.715-29.43,15.14-58.018,15.14-61.181C7948.889,137.626,7937.697,126.434,7923.889,126.434z"/>
			<g>
				<path fill="#475E38" d="M7738.889,211.617c0,0.191,0.424,19.946,9.86,38.819c8.636,17.271,21.875,28.239,40.14,33.159v-3.526
					c-13.193-5.861-23.168-15.69-30.14-29.633c-9.437-18.873-9.86-38.628-9.86-38.819c0-13.808-11.192-25-25-25
					c-1.712,0-3.384,0.173-5,0.501C7730.3,189.435,7738.889,199.522,7738.889,211.617z"/>
				<path fill="#475E38" d="M7838.889,134.617v88.795c3.521-0.948,6.85-2.127,10-3.526v-85.268c0-13.807-11.193-25-25-25
					c-1.712,0-3.384,0.173-5,0.501C7830.3,112.435,7838.889,122.523,7838.889,134.617z"/>
				<path fill="#475E38" d="M7923.889,126.434c-1.712,0-3.384,0.173-5,0.501c11.411,2.316,20,12.404,20,24.499
					c0,3.163-0.425,31.751-15.14,61.181c-9.228,18.455-22.073,33.258-38.181,43.995c-13.561,9.041-29.193,15.018-46.68,17.873
					v160.31h10v-160.31c17.486-2.854,33.119-8.832,46.68-17.873c16.107-10.737,28.953-25.54,38.181-43.995
					c14.715-29.43,15.14-58.018,15.14-61.181C7948.889,137.626,7937.697,126.434,7923.889,126.434z"/>
			</g>
		</g>
		<polygon fill="#BCD4E8" points="7843.04,244.06 7833.04,226.74 7843.04,209.419 7863.04,209.419 7873.04,226.74 7863.04,244.06 		
			"/>
		<polygon fill="#BCD4E8" points="7778.064,295.381 7768.064,278.061 7778.064,260.74 7798.064,260.74 7808.064,278.061 
			7798.064,295.381 		"/>
		<polygon fill="#A6AEE8" points="7863.418,232.732 7853.04,238.724 7842.662,232.732 7842.662,220.748 7853.04,214.756 
			7863.418,220.748 		"/>
		<polygon fill="#A6AEE8" points="7798.443,284.053 7788.064,290.045 7777.686,284.053 7777.686,272.069 7788.064,266.077 
			7798.443,272.069 		"/>
	</g>
	<g id="peter_9_">
		<g>
			<path fill="#5E8C57" d="M8016.529,435.33c2.07-6.734,3.189-13.883,3.189-21.296c0-39.978-32.409-72.386-72.386-72.386
				s-72.386,32.408-72.386,72.386c0,7.412,1.119,14.562,3.189,21.296H8016.529z"/>
			<path fill="#475E38" d="M7887.69,399.199c-3.583,0-7.071,0.401-10.433,1.14c-0.85,4.437-1.311,9.011-1.311,13.696
				c0,7.412,1.119,14.562,3.189,21.296h55.372C7929.081,414.542,7910.179,399.199,7887.69,399.199z"/>
			<path fill="#5E8C57" d="M7922.661,453.496c0.434-2.606,0.671-5.278,0.671-8.007c0-26.723-21.663-48.386-48.386-48.386
				c-26.723,0-48.386,21.663-48.386,48.386c0,2.729,0.237,5.401,0.671,8.007H7922.661z"/>
		</g>
		<polygon fill="#BCD4E8" points="7989.718,388.489 7979.718,371.169 7989.718,353.848 8009.718,353.848 8019.718,371.169 
			8009.718,388.489 		"/>
		<polygon fill="#A6AEE8" points="8010.097,377.161 7999.718,383.153 7989.34,377.161 7989.34,365.177 7999.718,359.185 
			8010.097,365.177 		"/>
	</g>
	<g id="peter_1_">
		<g>
			<path fill="#5E8C57" d="M6041.93,258.747c-13.807,0-25,11.147-25,24.955c-0.002,0.331-0.433,33.471-16.807,65.28
				c-8.991,17.47-21.13,31.283-36.078,41.057c-13.245,8.66-29.03,14.34-47.115,16.999V183.717c0-13.807-11.193-25-25-25
				s-25,11.193-25,25v122.573c-19.33-4.637-33.237-15.768-42.193-33.68c-9.437-18.873-9.86-38.628-9.86-38.819
				c0-13.808-11.192-25-25-25s-25,11.192-25,25c0,3.163,0.425,31.751,15.14,61.181c9.228,18.455,22.073,33.258,38.181,43.995
				c14.086,9.391,30.42,15.459,48.733,18.172v199.827h50v-99.498c73.413-7.999,110.321-50.917,128.61-87.496
				c21.146-42.293,21.39-84.408,21.39-86.181C6066.93,269.985,6055.738,258.747,6041.93,258.747z"/>
			<g>
				<path fill="#475E38" d="M5905,183.717v223.321c4.098-0.603,8.071-1.368,11.93-2.281v-221.04c0-13.807-11.193-25-25-25
					c-2.056,0-4.053,0.254-5.965,0.722C5896.891,162.115,5905,171.967,5905,183.717z"/>
				<path fill="#475E38" d="M6041.93,258.747c-2.061,0-4.061,0.253-5.977,0.722c10.932,2.681,19.046,12.569,19.046,24.323
					c0,1.772-0.243,43.888-21.39,86.181c-18.29,36.58-55.198,79.497-128.61,87.496v99.498h11.93v-99.498
					c73.413-7.999,110.321-50.917,128.61-87.496c21.146-42.293,21.39-84.408,21.39-86.181
					C6066.93,269.985,6055.738,258.747,6041.93,258.747z"/>
				<path fill="#475E38" d="M5802.946,233.791c0,0.191,0.424,19.946,9.86,38.819c8.956,17.912,22.864,29.043,42.193,33.68v-4.013
					c-13.249-5.855-23.272-15.686-30.263-29.667c-9.437-18.873-9.86-38.628-9.86-38.819c0-13.808-11.192-25-25-25
					c-2.056,0-4.053,0.254-5.965,0.722C5794.837,212.189,5802.946,222.041,5802.946,233.791z"/>
			</g>
		</g>
		<g>
			<polygon fill="#BCD4E8" points="5851.533,322.649 5841.533,305.328 5851.533,288.008 5871.533,288.008 5881.533,305.328 
				5871.533,322.649 			"/>
			<polygon fill="#A6AEE8" points="5871.911,311.32 5861.533,317.312 5851.154,311.32 5851.154,299.336 5861.533,293.344 
				5871.911,299.336 			"/>
		</g>
		<g>
			<polygon fill="#BCD4E8" points="5910.965,425.177 5900.965,407.856 5910.965,390.536 5930.965,390.536 5940.965,407.856 
				5930.965,425.177 			"/>
			<polygon fill="#A6AEE8" points="5931.343,413.848 5920.965,419.841 5910.586,413.848 5910.586,401.864 5920.965,395.872 
				5931.343,401.864 			"/>
		</g>
	</g>
</g>
</svg>
