<?xml version="1.0" encoding="utf-8"?>
<!-- Generator: Adobe Illustrator 17.0.0, SVG Export Plug-In . SVG Version: 6.00 Build 0)  -->
<!DOCTYPE svg PUBLIC "-//W3C//DTD SVG 1.1//EN" "http://www.w3.org/Graphics/SVG/1.1/DTD/svg11.dtd">
<svg version="1.1" xmlns="http://www.w3.org/2000/svg" xmlns:xlink="http://www.w3.org/1999/xlink" x="0px" y="0px"  viewBox="0 0 14400 900" enable-background="new 0 0 14400 900" xml:space="preserve">
<g id="Layer_5">
</g>
<g id="Layer_3">
</g>
<g id="Layer_2">
</g>
<g id="Layer_1">
</g>
<g id="measurement_x5F_tools">
	<g>
		<polygon fill="#3F5C63" points="4800,327.617 5085.785,267.398 5761,395.617 6161,267.398 6529,367.617 7058.805,267.398 
			7725,415.617 8069.906,285.728 8441.943,405.74 8649,303.049 9035.32,385.416 9405.04,267.398 9599.871,327.617 9600,900 
			4800,900 		"/>
		<polygon fill="#364D51" points="5761,395.617 5405,475.617 5691.06,382.335 		"/>
		<polygon fill="#364D51" points="6529,367.617 6331,397.119 6473,354.792 		"/>
		<polygon fill="#364D51" points="7725,415.617 7900.571,451.715 7774.118,397.119 		"/>
		<polygon fill="#364D51" points="8441.943,405.74 8709,476.176 8483.464,385.147 		"/>
		<polygon fill="#364D51" points="9035.32,385.416 9387.996,471.005 9093.126,366.964 		"/>
	</g>
	<g>
		<polygon fill="#3F5C63" points="9599.871,327.617 9885.655,267.398 10560.871,395.617 10960.871,267.398 11328.871,367.617 
			11858.676,267.398 12524.871,415.617 12869.777,285.728 13241.814,405.74 13448.871,303.049 13835.191,385.416 14204.91,267.398 
			14399.741,327.617 14399.871,900 9599.871,900 		"/>
		<polygon fill="#364D51" points="10560.871,395.617 10204.871,475.617 10490.93,382.335 		"/>
		<polygon fill="#364D51" points="11328.871,367.617 11130.871,397.119 11272.871,354.792 		"/>
		<polygon fill="#364D51" points="12524.871,415.617 12700.442,451.715 12573.989,397.119 		"/>
		<polygon fill="#364D51" points="13241.814,405.74 13508.871,476.176 13283.334,385.147 		"/>
		<polygon fill="#364D51" points="13835.191,385.416 14187.867,471.005 13892.996,366.964 		"/>
	</g>
	<g>
		<polygon fill="#3F5C63" points="0.129,327.617 285.914,267.398 961.129,395.617 1361.129,267.398 1729.129,367.617 
			2258.934,267.398 2925.129,415.617 3270.035,285.728 3642.073,405.74 3849.129,303.049 4235.45,385.416 4605.169,267.398 
			4800,327.617 4800.129,900 0.129,900 		"/>
		<polygon fill="#364D51" points="961.129,395.617 605.129,475.617 891.189,382.335 		"/>
		<polygon fill="#364D51" points="1729.129,367.617 1531.129,397.119 1673.129,354.792 		"/>
		<polygon fill="#364D51" points="2925.129,415.617 3100.7,451.715 2974.248,397.119 		"/>
		<polygon fill="#364D51" points="3642.073,405.74 3909.129,476.176 3683.593,385.147 		"/>
		<polygon fill="#364D51" points="4235.45,385.416 4588.126,471.005 4293.255,366.964 		"/>
	</g>
	<g id="tent_2_">
		<path fill="#2B3238" d="M5059.024,163.409c-3.948,0-7.527-2.323-9.135-5.931l-18.71-41.993
			c-2.247-5.044,0.021-10.956,5.065-13.204c5.044-2.246,10.955,0.021,13.204,5.065l9.575,21.491l9.575-21.491
			c2.248-5.045,8.159-7.312,13.204-5.065c5.045,2.248,7.312,8.16,5.065,13.204l-18.71,41.993
			C5066.551,161.086,5062.972,163.409,5059.024,163.409z"/>
		<polygon fill="#538896" points="5059.024,128.838 4925.278,429.013 5192.77,429.013 		"/>
		<polygon fill="#2B3238" points="5013.776,429.013 5157.793,429.013 5085.785,267.398 		"/>
		<polygon fill="#426972" points="4965.702,412.072 4975.702,394.752 4955.702,394.752 		"/>
		<polygon fill="#426972" points="4985.702,412.072 4995.702,394.752 4975.702,394.752 		"/>
		<polygon fill="#426972" points="5005.702,412.072 5015.702,394.752 4995.702,394.752 		"/>
		<polygon fill="#426972" points="5015.702,394.752 5023.231,407.792 5029.041,394.752 		"/>
		<polygon fill="#426972" points="5145.253,400.868 5148.785,394.752 5142.528,394.752 		"/>
		<polygon fill="#426972" points="5158.785,412.072 5168.785,394.752 5148.785,394.752 		"/>
		<g>
			<polygon fill="#426972" points="4955.702,394.752 4940.543,394.752 4938.435,399.485 4945.702,412.072 			"/>
			<polygon fill="#426972" points="5178.785,412.072 5182.418,405.779 5177.504,394.752 5168.785,394.752 			"/>
		</g>
		<polygon fill="#1D252B" points="5085.785,267.398 5013.776,429.013 5038.4,429.013 5098.097,295.031 		"/>
	</g>
	<g id="peter_11_">
		<g>
			<path fill="#35414F" d="M8880.465,616.18c2.07-6.734,3.189-13.883,3.189-21.296c0-39.978-32.409-72.386-72.387-72.386
				s-72.386,32.408-72.386,72.386c0,7.412,1.119,14.562,3.189,21.296H8880.465z"/>
			<path fill="#25303A" d="M8751.626,580.048c-3.583,0-7.071,0.401-10.433,1.14c-0.85,4.437-1.312,9.011-1.312,13.696
				c0,7.412,1.119,14.562,3.189,21.296h55.371C8793.017,595.392,8774.114,580.048,8751.626,580.048z"/>
			<path fill="#35414F" d="M8786.597,634.346c0.434-2.606,0.671-5.278,0.671-8.007c0-26.723-21.663-48.386-48.386-48.386
				s-48.386,21.663-48.386,48.386c0,2.729,0.237,5.401,0.671,8.007H8786.597z"/>
		</g>
		<polygon fill="#538896" points="8853.654,569.339 8843.654,552.019 8853.654,534.698 8873.654,534.698 8883.654,552.019 
			8873.654,569.339 		"/>
		<polygon fill="#426972" points="8874.032,558.011 8863.654,564.003 8853.275,558.011 8853.275,546.027 8863.654,540.035 
			8874.032,546.027 		"/>
	</g>
</g>
</svg>
