<?xml version="1.0" encoding="utf-8"?>
<!-- Generator: Adobe Illustrator 17.0.0, SVG Export Plug-In . SVG Version: 6.00 Build 0)  -->
<!DOCTYPE svg PUBLIC "-//W3C//DTD SVG 1.1//EN" "http://www.w3.org/Graphics/SVG/1.1/DTD/svg11.dtd">
<svg version="1.1" xmlns="http://www.w3.org/2000/svg" xmlns:xlink="http://www.w3.org/1999/xlink" x="0px" y="0px" viewBox="0 0 4800 900" enable-background="new 0 0 4800 900" xml:space="preserve">
<g id="measurement_x5F_tools">
	<g>
		<polygon fill="#EFAE6F" points="0,91.095 204.25,216.238 547,162.399 885.665,301.959 1179.606,216.238 1322.711,301.959 
			1593.523,216.238 1861.92,288.602 2157.41,270.077 2365.934,330.518 2841.273,270.077 3117.218,345.921 3525.137,227.656 
			3885.065,288.602 4046.767,227.656 4460.95,288.602 4800,91.095 4800,900 0,900 		"/>
		<polygon fill="#CE8F5F" points="204.25,216.238 7,283.556 178.657,200.557 		"/>
		<polygon fill="#CE8F5F" points="885.665,301.959 596,354.792 841.006,283.556 		"/>
		<polygon fill="#CE8F5F" points="1322.711,301.959 1174,338.281 1282.042,277.597 		"/>
		<polygon fill="#CE8F5F" points="2365.934,330.518 2553.674,364.509 2427.085,322.742 		"/>
		<polygon fill="#CE8F5F" points="1844.4,283.878 1860,322.742 1892.479,286.686 1861.92,288.602 		"/>
		<polygon fill="#CE8F5F" points="3117.218,345.921 3382.466,390.718 3176.022,328.873 		"/>
		<polygon fill="#CE8F5F" points="3885.065,288.602 4189.501,328.873 3922.819,274.373 		"/>
		<polygon fill="#CE8F5F" points="4485.377,274.373 4721.974,326.1 4460.95,288.602 		"/>
	</g>
	<g id="tent_1_">
		<path fill="#725947" d="M2738.669,227.069c-3.948,0-7.527-2.323-9.135-5.931l-18.71-41.993
			c-2.247-5.044,0.021-10.956,5.065-13.204c5.044-2.246,10.955,0.021,13.204,5.065l9.575,21.491l9.575-21.491
			c2.248-5.045,8.159-7.312,13.204-5.065c5.045,2.248,7.312,8.16,5.065,13.204l-18.71,41.993
			C2746.197,224.745,2742.617,227.069,2738.669,227.069z"/>
		<polygon fill="#F2E7CE" points="2738.669,192.497 2604.924,492.672 2872.415,492.672 		"/>
		<polygon fill="#35414F" points="2693.421,492.672 2837.439,492.672 2765.43,331.058 		"/>
		<polygon fill="#D19853" points="2645.347,475.732 2655.347,458.411 2635.347,458.411 		"/>
		<polygon fill="#D19853" points="2665.347,475.732 2675.347,458.411 2655.347,458.411 		"/>
		<polygon fill="#D19853" points="2685.347,475.732 2695.347,458.411 2675.347,458.411 		"/>
		<polygon fill="#D19853" points="2695.347,458.411 2702.876,471.451 2708.686,458.411 		"/>
		<polygon fill="#D19853" points="2824.899,464.527 2828.43,458.411 2822.174,458.411 		"/>
		<polygon fill="#D19853" points="2838.43,475.732 2848.43,458.411 2828.43,458.411 		"/>
		<g>
			<polygon fill="#D19853" points="2635.347,458.411 2620.189,458.411 2618.08,463.144 2625.347,475.732 			"/>
			<polygon fill="#D19853" points="2858.43,475.732 2862.063,469.439 2857.15,458.411 2848.43,458.411 			"/>
		</g>
		<polygon fill="#25303A" points="2765.43,331.058 2693.421,492.672 2718.046,492.672 2777.742,358.691 		"/>
	</g>
	<g>
		<g>
			<path fill="#5E8C57" d="M4438.048,70.467c-13.808,0-25,11.192-25,25c0,0.191-0.424,19.946-9.86,38.819
				c-8.636,17.271-21.875,28.239-40.14,33.159V78.651c0-13.807-11.193-25-25-25s-25,11.193-25,25v148.978
				c-18.265-4.92-31.504-15.887-40.14-33.159c-9.437-18.873-9.86-38.628-9.86-38.819c0-13.808-11.192-25-25-25s-25,11.192-25,25
				c0,3.163,0.425,31.751,15.14,61.181c9.228,18.455,22.073,33.258,38.181,43.995c13.561,9.041,29.193,15.018,46.68,17.873v100.126
				h50v-160.31c17.486-2.854,33.119-8.832,46.68-17.873c16.107-10.737,28.953-25.54,38.181-43.995
				c14.715-29.43,15.14-58.018,15.14-61.181C4463.048,81.659,4451.855,70.467,4438.048,70.467z"/>
			<g>
				<path fill="#475E38" d="M4253.048,155.651c0,0.191,0.424,19.946,9.86,38.819c8.636,17.271,21.875,28.239,40.14,33.159v-3.526
					c-13.193-5.861-23.168-15.69-30.14-29.633c-9.437-18.873-9.86-38.628-9.86-38.819c0-13.808-11.192-25-25-25
					c-1.712,0-3.384,0.173-5,0.501C4244.459,133.468,4253.048,143.555,4253.048,155.651z"/>
				<path fill="#475E38" d="M4353.048,78.651v88.795c3.521-0.948,6.85-2.127,10-3.526V78.651c0-13.807-11.193-25-25-25
					c-1.712,0-3.384,0.173-5,0.501C4344.458,56.468,4353.048,66.556,4353.048,78.651z"/>
				<path fill="#475E38" d="M4438.048,70.467c-1.712,0-3.384,0.173-5,0.501c11.411,2.316,20,12.404,20,24.499
					c0,3.163-0.425,31.751-15.14,61.181c-9.228,18.455-22.073,33.258-38.181,43.995c-13.561,9.041-29.193,15.018-46.68,17.873
					v160.31h10v-160.31c17.486-2.854,33.119-8.832,46.68-17.873c16.107-10.737,28.953-25.54,38.181-43.995
					c14.715-29.43,15.14-58.018,15.14-61.181C4463.048,81.659,4451.855,70.467,4438.048,70.467z"/>
			</g>
		</g>
		<polygon fill="#BCD4E8" points="4357.199,188.094 4347.199,170.773 4357.199,153.453 4377.199,153.453 4387.199,170.773 
			4377.199,188.094 		"/>
		<polygon fill="#BCD4E8" points="4292.224,239.414 4282.224,222.094 4292.224,204.773 4312.224,204.773 4322.224,222.094 
			4312.224,239.414 		"/>
		<polygon fill="#A6AEE8" points="4377.578,176.765 4367.199,182.757 4356.82,176.765 4356.82,164.781 4367.199,158.789 
			4377.578,164.781 		"/>
		<polygon fill="#A6AEE8" points="4312.602,228.086 4302.224,234.078 4291.845,228.086 4291.845,216.102 4302.224,210.11 
			4312.602,216.102 		"/>
	</g>
	<g>
		<path fill="#664A36" d="M208.696,427.017l72.767,18.447l82.016,147.321l-16.087,41.385h82.436l27.05-84.01l0.65-2.011
			c1.976-6.114,2.16-12.875,0.128-19.483l-48.48-157.656l62.806-100.535c4.389-7.025,2.252-16.279-4.774-20.669
			c-7.028-4.391-16.281-2.252-20.669,4.774l-49.031,78.485l-28.98-94.242l66.508-179.138c3.608-9.788-0.916-20.898-10.579-25.227
			c-10.086-4.518-21.925-0.005-26.443,10.081L338.378,177.66l-33.866-68.734c-1.83-3.716-6.326-5.244-10.042-3.413
			c-3.716,1.83-5.244,6.327-3.413,10.042l39.069,79.296c0.092,0.188,0.206,0.356,0.312,0.532l-14.59,32.57
			c-2.108,4.704-2.733,10.131-1.417,15.527l0.392,1.606l70.844,290.621l-8.07,20.761L266.488,356.892
			c-4.028-7.238-13.163-9.839-20.401-5.81s-9.84,13.163-5.81,20.401l31.155,55.962l-59.051-14.97
			c-4.015-1.015-8.096,1.412-9.112,5.428C202.251,421.918,204.68,425.998,208.696,427.017z"/>
		<path fill="#544032" d="M411.558,34.458c9.662,4.329,14.187,15.438,10.578,25.227l-66.508,179.138l33.235,108.078l8.644-13.836
			l-28.98-94.242l66.508-179.138c3.608-9.788-0.916-20.898-10.578-25.227c-4.802-2.151-9.993-2.235-14.61-0.665
			C410.421,33.989,410.993,34.205,411.558,34.458z"/>
		<path fill="#544032" d="M253.59,356.892l118.702,213.219l5.304-13.643L266.488,356.892c-3.872-6.958-12.458-9.612-19.547-6.23
			C249.656,351.955,252.016,354.063,253.59,356.892z"/>
		<path fill="#544032" d="M467.207,249.806c-4.507-2.816-9.924-2.934-14.391-0.812c0.506,0.242,1.005,0.508,1.492,0.812
			c7.026,4.39,9.163,13.644,4.774,20.669L396.277,371.01l48.48,157.656c2.032,6.608,1.849,13.369-0.128,19.483l-0.65,2.011
			l-27.05,84.01h12.898l27.05-84.01l0.65-2.011c1.977-6.114,2.16-12.875,0.128-19.483l-48.48-157.656l62.806-100.535
			C476.37,263.449,474.233,254.195,467.207,249.806z"/>
		<path fill="#544032" d="M273.551,431.253l-2.119-3.807l-59.051-14.97c-2.449-0.619-4.919,0.048-6.707,1.57L273.551,431.253z"/>
		<path fill="#544032" d="M335.185,184.788l3.193-7.128l-33.866-68.734c-1.689-3.431-5.651-4.99-9.173-3.769L335.185,184.788z"/>
	</g>
</g>
</svg>
