<?xml version="1.0" encoding="utf-8"?>
<!-- Generator: Adobe Illustrator 17.0.0, SVG Export Plug-In . SVG Version: 6.00 Build 0)  -->
<!DOCTYPE svg PUBLIC "-//W3C//DTD SVG 1.1//EN" "http://www.w3.org/Graphics/SVG/1.1/DTD/svg11.dtd">
<svg version="1.1" xmlns="http://www.w3.org/2000/svg" xmlns:xlink="http://www.w3.org/1999/xlink" x="0px" y="0px" width="4800px"
	 height="900px" viewBox="0 0 4800 900" enable-background="new 0 0 4800 900" xml:space="preserve">
<g id="Layer_5">
</g>
<g id="Layer_3">
</g>
<g id="Layer_2">
</g>
<g id="Layer_1">
</g>
<g id="measurement_x5F_tools">
	<g>
		<polygon fill="#EFAE6F" points="0,91.095 204.25,216.238 547,162.399 885.665,301.959 1179.606,216.238 1322.711,301.959 
			1593.523,216.238 1861.92,288.602 2157.41,270.077 2365.934,330.518 2841.273,270.077 3117.218,345.921 3525.137,227.656 
			3885.065,288.602 4046.767,227.656 4460.95,288.602 4800,91.095 4800,900 0,900 		"/>
		<polygon fill="#CE8F5F" points="204.25,216.238 7,283.556 178.657,200.557 		"/>
		<polygon fill="#CE8F5F" points="885.665,301.959 596,354.792 841.006,283.556 		"/>
		<polygon fill="#CE8F5F" points="1322.711,301.959 1174,338.281 1282.042,277.597 		"/>
		<polygon fill="#CE8F5F" points="2365.934,330.518 2553.674,364.509 2427.085,322.742 		"/>
		<polygon fill="#CE8F5F" points="1844.4,283.878 1860,322.742 1892.479,286.686 1861.92,288.602 		"/>
		<polygon fill="#CE8F5F" points="3117.218,345.921 3382.466,390.718 3176.022,328.873 		"/>
		<polygon fill="#CE8F5F" points="3885.065,288.602 4189.501,328.873 3922.819,274.373 		"/>
		<polygon fill="#CE8F5F" points="4485.377,274.373 4721.974,326.1 4460.95,288.602 		"/>
	</g>
</g>
</svg>
