<?xml version="1.0" encoding="utf-8"?>
<!-- Generator: Adobe Illustrator 17.0.0, SVG Export Plug-In . SVG Version: 6.00 Build 0)  -->
<!DOCTYPE svg PUBLIC "-//W3C//DTD SVG 1.1//EN" "http://www.w3.org/Graphics/SVG/1.1/DTD/svg11.dtd">
<svg version="1.1" xmlns="http://www.w3.org/2000/svg" xmlns:xlink="http://www.w3.org/1999/xlink" x="0px" y="0px" viewBox="0 0 4800 900" enable-background="new 0 0 4800 900" xml:space="preserve">
<g id="measurement_x5F_tools">
	<g>
		<polygon fill="#D19853" points="0,91.095 229.025,200.335 507.74,159.42 875.477,283.392 1211.7,207.72 1583.737,285.728 
			2102.789,180.717 2641,307.617 3045,187.617 3617,299.617 3937,183.617 4333,283.617 4800,91.095 4800,900 0,900 		"/>
		<polygon fill="#C18749" points="229.025,200.335 0,241.135 0,236.803 184.332,179.017 		"/>
		<polygon fill="#C18749" points="875.477,283.392 547,354.792 833.763,269.329 		"/>
		<polygon fill="#C18749" points="1583.737,285.728 1409.72,308.283 1518.773,272.106 		"/>
		<polygon fill="#C18749" points="2641,307.617 3077.752,392.709 2697.345,290.881 		"/>
		<polygon fill="#C18749" points="3617,299.617 3978.813,360.744 3657.971,284.765 		"/>
		<polygon fill="#C18749" points="4333,283.617 4610.962,339.214 4372.341,267.398 		"/>
	</g>
	<g>
		<g>
			<path fill="#5E8C57" d="M330.625,129.642c-13.808,0-25,11.192-25,25c0,0.191-0.424,19.946-9.86,38.819
				c-8.636,17.271-21.875,28.239-40.14,33.159v-88.795c0-13.807-11.193-25-25-25s-25,11.193-25,25v148.978
				c-18.265-4.92-31.504-15.887-40.14-33.159c-9.437-18.873-9.86-38.628-9.86-38.819c0-13.808-11.192-25-25-25s-25,11.192-25,25
				c0,3.163,0.425,31.751,15.14,61.181c9.228,18.455,22.073,33.258,38.181,43.995c13.561,9.041,29.193,15.018,46.68,17.873V438h50
				V277.69c17.486-2.854,33.119-8.832,46.68-17.873c16.107-10.737,28.953-25.54,38.181-43.995
				c14.715-29.43,15.14-58.018,15.14-61.181C355.625,140.834,344.433,129.642,330.625,129.642z"/>
			<g>
				<path fill="#475E38" d="M145.625,214.825c0,0.191,0.424,19.946,9.86,38.819c8.636,17.271,21.875,28.239,40.14,33.159v-3.526
					c-13.193-5.861-23.168-15.69-30.14-29.633c-9.437-18.873-9.86-38.628-9.86-38.819c0-13.808-11.192-25-25-25
					c-1.712,0-3.384,0.173-5,0.501C137.036,192.643,145.625,202.73,145.625,214.825z"/>
				<path fill="#475E38" d="M245.625,137.825v88.795c3.521-0.948,6.85-2.127,10-3.526v-85.268c0-13.807-11.193-25-25-25
					c-1.712,0-3.384,0.173-5,0.501C237.036,115.643,245.625,125.731,245.625,137.825z"/>
				<path fill="#475E38" d="M330.625,129.642c-1.712,0-3.384,0.173-5,0.501c11.411,2.316,20,12.404,20,24.499
					c0,3.163-0.425,31.751-15.14,61.181c-9.228,18.455-22.073,33.258-38.181,43.995c-13.561,9.041-29.193,15.018-46.68,17.873V438
					h10V277.69c17.486-2.854,33.119-8.832,46.68-17.873c16.107-10.737,28.953-25.54,38.181-43.995
					c14.715-29.43,15.14-58.018,15.14-61.181C355.625,140.834,344.433,129.642,330.625,129.642z"/>
			</g>
		</g>
		<polygon fill="#BCD4E8" points="249.776,247.269 239.776,229.948 249.776,212.628 269.776,212.628 279.776,229.948 
			269.776,247.269 		"/>
		<polygon fill="#BCD4E8" points="184.801,298.589 174.801,281.269 184.801,263.948 204.801,263.948 214.801,281.269 
			204.801,298.589 		"/>
		<polygon fill="#A6AEE8" points="270.155,235.94 259.776,241.932 249.398,235.94 249.398,223.956 259.776,217.964 270.155,223.956 
					"/>
		<polygon fill="#A6AEE8" points="205.179,287.261 194.801,293.253 184.422,287.261 184.422,275.277 194.801,269.285 
			205.179,275.277 		"/>
	</g>
	<g>
		<g>
			<path fill="#5E8C57" d="M423.265,438.538c2.07-6.734,3.189-13.883,3.189-21.296c0-39.978-32.409-72.386-72.386-72.386
				s-72.386,32.408-72.386,72.386c0,7.412,1.119,14.562,3.189,21.296H423.265z"/>
			<path fill="#475E38" d="M294.426,402.407c-3.583,0-7.071,0.401-10.433,1.14c-0.85,4.437-1.311,9.011-1.311,13.696
				c0,7.412,1.119,14.562,3.189,21.296h55.372C335.817,417.75,316.915,402.407,294.426,402.407z"/>
			<path fill="#5E8C57" d="M329.397,456.704c0.434-2.606,0.671-5.278,0.671-8.007c0-26.723-21.663-48.386-48.386-48.386
				c-26.723,0-48.386,21.663-48.386,48.386c0,2.729,0.237,5.401,0.671,8.007H329.397z"/>
		</g>
		<polygon fill="#BCD4E8" points="396.454,391.697 386.454,374.377 396.454,357.056 416.454,357.056 426.454,374.377 
			416.454,391.697 		"/>
		<polygon fill="#A6AEE8" points="416.833,380.369 406.454,386.361 396.076,380.369 396.076,368.385 406.454,362.393 
			416.833,368.385 		"/>
	</g>
	<g>
		<g>
			<path fill="#5E8C57" d="M3504.852,469.277c2.07-6.734,3.189-13.883,3.189-21.296c0-39.978-32.409-72.386-72.386-72.386
				s-72.386,32.408-72.386,72.386c0,7.412,1.119,14.562,3.189,21.296H3504.852z"/>
			<path fill="#475E38" d="M3376.012,433.145c-3.583,0-7.071,0.401-10.433,1.14c-0.85,4.437-1.311,9.011-1.311,13.696
				c0,7.412,1.119,14.562,3.189,21.296h55.372C3417.403,448.488,3398.501,433.145,3376.012,433.145z"/>
			<path fill="#5E8C57" d="M3410.983,487.442c0.434-2.606,0.671-5.278,0.671-8.007c0-26.723-21.663-48.386-48.386-48.386
				c-26.723,0-48.386,21.663-48.386,48.386c0,2.729,0.237,5.401,0.671,8.007H3410.983z"/>
		</g>
		<polygon fill="#BCD4E8" points="3478.041,422.436 3468.041,405.115 3478.041,387.795 3498.041,387.795 3508.041,405.115 
			3498.041,422.436 		"/>
		<polygon fill="#A6AEE8" points="3498.419,411.107 3488.041,417.099 3477.662,411.107 3477.662,399.123 3488.041,393.131 
			3498.419,399.123 		"/>
	</g>
	<g>
		<g id="well_2_">
			<path fill="#664A36" d="M1908.635,207.785h-25.745h-11.033h-11.034H1610.73h-11.034h-11.033h-25.745
				c-6.094,0-11.034,4.939-11.034,11.034s4.939,11.034,11.034,11.034h25.745v233.19c0,6.094,4.939,11.034,11.033,11.034
				c6.094,0,11.034-4.939,11.034-11.034v-233.19h250.093v233.376c0,6.094,4.939,11.034,11.034,11.034
				c6.094,0,11.033-4.939,11.033-11.034V229.852h25.745c6.094,0,11.034-4.939,11.034-11.034S1914.729,207.785,1908.635,207.785z"/>
			<path fill="#726962" d="M1882.89,331.281h-294.227c-20.312,0-36.778,16.467-36.778,36.778v133.74h367.784V368.06
				C1919.668,347.748,1903.201,331.281,1882.89,331.281z"/>
			<path fill="#544032" d="M1909.969,207.873c0.367,1.099,0.574,2.271,0.574,3.494c0,6.094-4.939,11.034-11.034,11.034h-25.745
				h-22.067h-250.093h-47.812c-0.453,0-0.896-0.036-1.334-0.088c1.463,4.379,5.588,7.54,10.46,7.54h38.686v101.429h9.126V229.852
				h240.968h22.067v101.429h9.126V229.852h25.745c6.094,0,11.034-4.939,11.034-11.034
				C1919.668,213.177,1915.432,208.533,1909.969,207.873z"/>
			<g>
				<g>
					<polygon fill="#9B9A9A" points="1816.125,291.707 1816.964,297.866 1867.456,297.866 1868.294,291.707 					"/>
					<polygon fill="#9B9A9A" points="1871.036,271.543 1813.383,271.543 1815.125,284.351 1869.295,284.351 					"/>
					<polygon fill="#9B9A9A" points="1821.544,331.544 1862.876,331.544 1866.456,305.221 1817.964,305.221 					"/>
					<polygon fill="#7C7C7C" points="1815.125,284.351 1815.625,288.03 1816.125,291.707 1868.294,291.707 1868.794,288.03 
						1869.294,284.351 					"/>
					<polygon fill="#7C7C7C" points="1816.963,297.866 1817.463,301.544 1817.963,305.221 1866.455,305.221 1866.956,301.544 
						1867.456,297.866 					"/>
				</g>
				<polygon fill="#7C7C7C" points="1860.126,271.543 1851.965,331.544 1862.876,331.544 1871.036,271.543 				"/>
			</g>
			<path fill="#7C7C7C" d="M1642.432,394.246c0,4.062-3.293,7.356-7.356,7.356h-40.456c-4.062,0-7.356-3.293-7.356-7.356v-10.298
				c0-4.062,3.293-7.356,7.356-7.356h40.456c4.062,0,7.356,3.293,7.356,7.356V394.246z"/>
			<path fill="#9B9A9A" d="M1697.599,394.246c0,4.062-3.293,7.356-7.356,7.356h-40.456c-4.062,0-7.356-3.293-7.356-7.356v-10.298
				c0-4.062,3.293-7.356,7.356-7.356h40.456c4.062,0,7.356,3.293,7.356,7.356V394.246z"/>
			<path fill="#564F4B" d="M1670.016,419.255c0,4.062-3.293,7.356-7.356,7.356h-40.456c-4.062,0-7.356-3.293-7.356-7.356v-10.298
				c0-4.062,3.293-7.356,7.356-7.356h40.456c4.062,0,7.356,3.293,7.356,7.356V419.255z"/>
			<path fill="#564F4B" d="M1883.585,469.274c0,4.062-3.293,7.356-7.356,7.356h-40.456c-4.062,0-7.356-3.293-7.356-7.356v-10.298
				c0-4.062,3.293-7.356,7.356-7.356h40.456c4.062,0,7.356,3.293,7.356,7.356V469.274z"/>
			<path fill="#9B9A9A" d="M1883.585,419.255c0,4.062-3.293,7.356-7.356,7.356h-40.456c-4.062,0-7.356-3.293-7.356-7.356v-10.298
				c0-4.062,3.293-7.356,7.356-7.356h40.456c4.062,0,7.356,3.293,7.356,7.356V419.255z"/>
			<path fill="#7C7C7C" d="M1856.002,444.265c0,4.062-3.293,7.356-7.356,7.356h-40.456c-4.062,0-7.356-3.293-7.356-7.356v-10.298
				c0-4.062,3.293-7.356,7.356-7.356h40.456c4.062,0,7.356,3.293,7.356,7.356V444.265z"/>
			<path fill="#564F4B" d="M1637.59,377.062c0.728,1.142,1.164,2.489,1.164,3.944v10.298c0,4.062-3.293,7.356-7.356,7.356h-40.456
				c-0.886,0-1.725-0.182-2.513-0.469c1.306,2.046,3.583,3.412,6.191,3.412h40.456c4.063,0,7.356-3.293,7.356-7.356v-10.298
				C1642.432,380.772,1640.408,378.092,1637.59,377.062z"/>
			<path fill="#7C7C7C" d="M1692.757,377.062c0.728,1.142,1.164,2.489,1.164,3.944v10.298c0,4.062-3.293,7.356-7.356,7.356h-40.456
				c-0.886,0-1.725-0.182-2.513-0.469c1.306,2.046,3.583,3.412,6.191,3.412h40.456c4.063,0,7.356-3.293,7.356-7.356v-10.298
				C1697.599,380.772,1695.576,378.092,1692.757,377.062z"/>
			<path fill="#3F3E3E" d="M1665.173,402.071c0.728,1.142,1.164,2.489,1.164,3.944v10.298c0,4.062-3.293,7.356-7.356,7.356h-40.456
				c-0.886,0-1.725-0.182-2.513-0.469c1.306,2.046,3.583,3.412,6.191,3.412h40.456c4.063,0,7.356-3.293,7.356-7.356v-10.298
				C1670.016,405.782,1667.992,403.101,1665.173,402.071z"/>
			<path fill="#3F3E3E" d="M1878.743,452.09c0.728,1.142,1.164,2.489,1.164,3.944v10.298c0,4.063-3.293,7.356-7.356,7.356h-40.456
				c-0.886,0-1.725-0.182-2.513-0.469c1.306,2.046,3.583,3.412,6.191,3.412h40.456c4.063,0,7.356-3.293,7.356-7.356v-10.298
				C1883.585,455.8,1881.562,453.12,1878.743,452.09z"/>
			<path fill="#564F4B" d="M1851.159,427.08c0.728,1.142,1.164,2.489,1.164,3.944v10.298c0,4.062-3.293,7.356-7.356,7.356h-40.456
				c-0.886,0-1.725-0.182-2.513-0.469c1.306,2.046,3.583,3.412,6.191,3.412h40.456c4.063,0,7.356-3.293,7.356-7.356v-10.298
				C1856.002,430.791,1853.978,428.11,1851.159,427.08z"/>
			<path fill="#7C7C7C" d="M1878.743,402.071c0.729,1.142,1.165,2.489,1.165,3.944v10.298c0,4.062-3.293,7.356-7.356,7.356h-40.456
				c-0.887,0-1.725-0.182-2.513-0.469c1.306,2.046,3.583,3.412,6.191,3.412h40.456c4.062,0,7.356-3.293,7.356-7.356v-10.298
				C1883.585,405.782,1881.562,403.101,1878.743,402.071z"/>
		</g>
		<path fill="#564F4B" d="M1882.89,331.281h-19.288c20.31,0.002,36.775,16.468,36.775,36.778v133.74l19.291,0V368.06
			C1919.668,347.748,1903.201,331.281,1882.89,331.281z"/>
	</g>
</g>
</svg>
