<?xml version="1.0" encoding="utf-8"?>
<!-- Generator: Adobe Illustrator 17.0.0, SVG Export Plug-In . SVG Version: 6.00 Build 0)  -->
<!DOCTYPE svg PUBLIC "-//W3C//DTD SVG 1.1//EN" "http://www.w3.org/Graphics/SVG/1.1/DTD/svg11.dtd">
<svg version="1.1" xmlns="http://www.w3.org/2000/svg" xmlns:xlink="http://www.w3.org/1999/xlink" x="0px" y="0px" width="4800px"
	 height="900px" viewBox="0 0 4800 900" enable-background="new 0 0 4800 900" xml:space="preserve">
<g id="Layer_5">
</g>
<g id="Layer_3">
</g>
<g id="Layer_2">
</g>
<g id="Layer_1">
</g>
<g id="measurement_x5F_tools">
	<g>
		<polygon fill="#F4BA89" points="0,91.095 321.5,179.017 505,91.095 933.655,241.135 1143.613,179.017 1496.729,322.755 
			1977.517,210.076 2517.338,339.214 2925,179.017 3305,303.306 3937,183.617 4235.32,303.306 4800,91.095 4800,900 0,900 		"/>
		<polygon fill="#DB9B67" points="321.5,179.017 87,270.077 260.732,162.399 		"/>
		<polygon fill="#DB9B67" points="933.655,241.135 547,354.792 895.147,227.656 		"/>
		<polygon fill="#DB9B67" points="1496.729,322.755 1322.711,359.077 1445.641,301.959 		"/>
		<polygon fill="#DB9B67" points="2517.338,339.214 2960,438.077 2565.479,320.296 		"/>
		<polygon fill="#DB9B67" points="3305,303.306 3680,398.077 3355.373,293.766 		"/>
		<polygon fill="#DB9B67" points="4235.321,303.306 4513.283,389.077 4274.446,288.602 		"/>
	</g>
</g>
</svg>
