<?xml version="1.0" encoding="utf-8"?>
<!-- Generator: Adobe Illustrator 17.0.0, SVG Export Plug-In . SVG Version: 6.00 Build 0)  -->
<!DOCTYPE svg PUBLIC "-//W3C//DTD SVG 1.1//EN" "http://www.w3.org/Graphics/SVG/1.1/DTD/svg11.dtd">
<svg version="1.1" xmlns="http://www.w3.org/2000/svg" xmlns:xlink="http://www.w3.org/1999/xlink" x="0px" y="0px" viewBox="0 0 4800 900" enable-background="new 0 0 4800 900" xml:space="preserve">
<g id="Layer_5">
	<g>
		<polygon fill="#35414F" points="0,91.095 204.25,216.238 547,162.399 885.665,301.959 1179.606,216.238 1322.711,301.959 
			1593.523,216.238 1861.92,288.602 2157.41,270.077 2365.934,330.518 2841.273,270.077 3117.218,345.921 3525.137,227.656 
			3885.065,288.602 4046.767,227.656 4460.95,288.602 4800,91.095 4800,900 0,900 		"/>
		<polygon fill="#25303A" points="204.25,216.238 7,283.556 178.657,200.557 		"/>
		<polygon fill="#25303A" points="885.665,301.959 596,354.792 841.006,283.556 		"/>
		<polygon fill="#25303A" points="1322.711,301.959 1174,338.281 1282.042,277.597 		"/>
		<polygon fill="#25303A" points="2365.934,330.518 2553.674,364.509 2427.085,322.742 		"/>
		<polygon fill="#25303A" points="1844.4,283.878 1860,322.742 1892.479,286.686 1861.92,288.602 		"/>
		<polygon fill="#25303A" points="3117.218,345.921 3382.466,390.718 3176.022,328.873 		"/>
		<polygon fill="#25303A" points="3885.065,288.602 4189.501,328.873 3922.819,274.373 		"/>
		<polygon fill="#25303A" points="4485.377,274.373 4721.974,326.1 4460.95,288.602 		"/>
	</g>
</g>
<g id="Layer_3">
</g>
<g id="Layer_2">
</g>
<g id="Layer_1">
</g>
<g id="measurement_x5F_tools">
	<g>
		<g>
			<path fill="#394E5B" d="M4438.048,70.467c-13.808,0-25,11.192-25,25c0,0.191-0.424,19.946-9.86,38.819
				c-8.636,17.271-21.875,28.239-40.14,33.159V78.651c0-13.807-11.193-25-25-25s-25,11.193-25,25v148.978
				c-18.265-4.92-31.504-15.887-40.14-33.159c-9.437-18.873-9.86-38.628-9.86-38.819c0-13.808-11.192-25-25-25s-25,11.192-25,25
				c0,3.163,0.425,31.751,15.14,61.181c9.228,18.455,22.073,33.258,38.181,43.995c13.561,9.041,29.193,15.018,46.68,17.873v100.126
				h50v-160.31c17.486-2.854,33.119-8.832,46.68-17.873c16.107-10.737,28.953-25.54,38.181-43.995
				c14.715-29.43,15.14-58.018,15.14-61.181C4463.048,81.66,4451.855,70.467,4438.048,70.467z"/>
			<g>
				<path fill="#2A3B44" d="M4253.048,155.651c0,0.191,0.424,19.946,9.86,38.819c8.636,17.271,21.875,28.239,40.14,33.159v-3.526
					c-13.193-5.861-23.168-15.69-30.14-29.633c-9.437-18.873-9.86-38.628-9.86-38.819c0-13.808-11.192-25-25-25
					c-1.712,0-3.384,0.173-5,0.501C4244.459,133.468,4253.048,143.555,4253.048,155.651z"/>
				<path fill="#2A3B44" d="M4353.048,78.651v88.795c3.521-0.948,6.85-2.127,10-3.526V78.651c0-13.807-11.193-25-25-25
					c-1.712,0-3.384,0.173-5,0.501C4344.458,56.468,4353.048,66.556,4353.048,78.651z"/>
				<path fill="#2A3B44" d="M4438.048,70.467c-1.712,0-3.384,0.173-5,0.501c11.411,2.316,20,12.404,20,24.499
					c0,3.163-0.425,31.751-15.14,61.181c-9.228,18.455-22.073,33.258-38.181,43.995c-13.561,9.041-29.193,15.018-46.68,17.873
					v160.31h10v-160.31c17.486-2.854,33.119-8.832,46.68-17.873c16.107-10.737,28.953-25.54,38.181-43.995
					c14.715-29.43,15.14-58.018,15.14-61.181C4463.048,81.66,4451.855,70.467,4438.048,70.467z"/>
			</g>
		</g>
		<polygon fill="#538896" points="4357.199,188.094 4347.199,170.773 4357.199,153.453 4377.199,153.453 4387.199,170.773 
			4377.199,188.094 		"/>
		<polygon fill="#538896" points="4292.224,239.415 4282.224,222.094 4292.224,204.774 4312.224,204.774 4322.224,222.094 
			4312.224,239.415 		"/>
		<polygon fill="#426972" points="4377.578,176.765 4367.199,182.757 4356.82,176.765 4356.82,164.781 4367.199,158.789 
			4377.578,164.781 		"/>
		<polygon fill="#426972" points="4312.602,228.086 4302.224,234.078 4291.845,228.086 4291.845,216.102 4302.224,210.11 
			4312.602,216.102 		"/>
	</g>
	<g id="dead_x5F_tree_2_">
		<path fill="#2B3238" d="M208.696,427.017l72.767,18.447l82.016,147.321l-16.087,41.385h82.436l27.05-84.01l0.65-2.011
			c1.976-6.114,2.16-12.875,0.128-19.483l-48.48-157.656l62.806-100.535c4.389-7.025,2.252-16.279-4.774-20.669
			c-7.028-4.391-16.281-2.252-20.669,4.774l-49.031,78.485l-28.98-94.242l66.508-179.138c3.608-9.788-0.916-20.898-10.579-25.227
			c-10.086-4.518-21.925-0.005-26.443,10.081L338.378,177.66l-33.866-68.734c-1.83-3.716-6.326-5.244-10.042-3.413
			c-3.716,1.83-5.244,6.327-3.413,10.042l39.069,79.296c0.092,0.188,0.206,0.356,0.312,0.532l-14.59,32.57
			c-2.108,4.704-2.733,10.131-1.417,15.527l0.392,1.606l70.844,290.621l-8.07,20.761L266.488,356.892
			c-4.028-7.238-13.163-9.839-20.401-5.81s-9.84,13.163-5.81,20.401l31.155,55.962l-59.051-14.97
			c-4.015-1.015-8.096,1.412-9.112,5.428C202.251,421.918,204.68,425.998,208.696,427.017z"/>
		<path fill="#1D252B" d="M411.558,34.458c9.662,4.329,14.187,15.438,10.578,25.227l-66.508,179.138l33.235,108.078l8.644-13.836
			l-28.98-94.242l66.508-179.138c3.608-9.788-0.916-20.898-10.578-25.227c-4.802-2.151-9.993-2.235-14.61-0.665
			C410.421,33.99,410.993,34.205,411.558,34.458z"/>
		<path fill="#1D252B" d="M253.59,356.892l118.702,213.219l5.304-13.643L266.488,356.892c-3.872-6.958-12.458-9.612-19.547-6.23
			C249.656,351.955,252.016,354.063,253.59,356.892z"/>
		<path fill="#1D252B" d="M467.207,249.806c-4.507-2.816-9.924-2.934-14.391-0.812c0.506,0.242,1.005,0.508,1.492,0.812
			c7.026,4.39,9.163,13.644,4.774,20.669L396.277,371.01l48.48,157.656c2.032,6.608,1.849,13.369-0.128,19.483l-0.65,2.011
			l-27.05,84.01h12.898l27.05-84.01l0.65-2.011c1.977-6.114,2.16-12.875,0.128-19.483l-48.48-157.656l62.806-100.535
			C476.37,263.45,474.233,254.196,467.207,249.806z"/>
		<path fill="#1D252B" d="M273.552,431.253l-2.119-3.807l-59.051-14.97c-2.449-0.619-4.919,0.048-6.707,1.57L273.552,431.253z"/>
		<path fill="#1D252B" d="M335.185,184.788l3.193-7.128l-33.866-68.734c-1.689-3.431-5.651-4.99-9.173-3.769L335.185,184.788z"/>
	</g>
	<g>
		<g id="well_5_">
			<path fill="#2B3238" d="M1112.085,136.549h-25.745h-11.034h-11.034H814.179h-11.034h-11.034h-25.745
				c-6.094,0-11.034,4.939-11.034,11.034c0,6.094,4.939,11.034,11.034,11.034h25.745v233.19c0,6.094,4.939,11.034,11.034,11.034
				s11.034-4.939,11.034-11.034v-233.19h250.093v233.376c0,6.094,4.939,11.034,11.034,11.034c6.094,0,11.034-4.939,11.034-11.034
				V158.616h25.745c6.094,0,11.033-4.939,11.033-11.034C1123.118,141.488,1118.179,136.549,1112.085,136.549z"/>
			<path fill="#3F5C63" d="M1086.34,260.045H792.112c-20.311,0-36.778,16.467-36.778,36.778v133.74h367.784v-133.74
				C1123.118,276.512,1106.651,260.045,1086.34,260.045z"/>
			<path fill="#1D252B" d="M1113.418,136.637c0.367,1.099,0.574,2.271,0.574,3.494c0,6.094-4.939,11.034-11.034,11.034h-25.745
				h-22.067H805.054h-47.812c-0.453,0-0.896-0.036-1.334-0.088c1.463,4.379,5.588,7.54,10.46,7.54h38.686v101.429h9.126V158.616
				h240.968h22.067v101.429h9.126V158.616h25.745c6.094,0,11.033-4.939,11.033-11.034
				C1123.118,141.94,1118.882,137.297,1113.418,136.637z"/>
			<g>
				<g>
					<polygon fill="#394E5B" points="1019.575,220.471 1020.413,226.63 1070.906,226.63 1071.744,220.471 					"/>
					<polygon fill="#394E5B" points="1074.486,200.307 1016.833,200.307 1018.574,213.115 1072.744,213.115 					"/>
					<polygon fill="#394E5B" points="1024.994,260.308 1066.325,260.308 1069.906,233.985 1021.413,233.985 					"/>
					<polygon fill="#2A3B44" points="1018.574,213.115 1019.075,216.793 1019.575,220.471 1071.743,220.471 1072.244,216.793 
						1072.744,213.115 					"/>
					<polygon fill="#2A3B44" points="1020.413,226.63 1020.913,230.308 1021.413,233.985 1069.905,233.985 1070.406,230.308 
						1070.906,226.63 					"/>
				</g>
				<polygon fill="#2A3B44" points="1063.576,200.307 1055.415,260.308 1066.325,260.308 1074.486,200.307 				"/>
			</g>
			<path fill="#35414F" d="M845.882,323.01c0,4.062-3.293,7.356-7.356,7.356H798.07c-4.062,0-7.356-3.293-7.356-7.356v-10.298
				c0-4.062,3.293-7.356,7.356-7.356h40.456c4.062,0,7.356,3.293,7.356,7.356V323.01z"/>
			<path fill="#394E5B" d="M901.049,323.01c0,4.062-3.293,7.356-7.356,7.356h-40.456c-4.062,0-7.356-3.293-7.356-7.356v-10.298
				c0-4.062,3.293-7.356,7.356-7.356h40.456c4.062,0,7.356,3.293,7.356,7.356V323.01z"/>
			<path fill="#2B3238" d="M873.465,348.019c0,4.062-3.293,7.356-7.356,7.356h-40.456c-4.062,0-7.356-3.293-7.356-7.356v-10.298
				c0-4.062,3.293-7.356,7.356-7.356h40.456c4.062,0,7.356,3.293,7.356,7.356V348.019z"/>
			<path fill="#2B3238" d="M1087.035,398.038c0,4.062-3.293,7.356-7.356,7.356h-40.456c-4.062,0-7.356-3.293-7.356-7.356V387.74
				c0-4.062,3.293-7.356,7.356-7.356h40.456c4.062,0,7.356,3.293,7.356,7.356V398.038z"/>
			<path fill="#394E5B" d="M1087.035,348.019c0,4.062-3.293,7.356-7.356,7.356h-40.456c-4.062,0-7.356-3.293-7.356-7.356v-10.298
				c0-4.062,3.293-7.356,7.356-7.356h40.456c4.062,0,7.356,3.293,7.356,7.356V348.019z"/>
			<path fill="#35414F" d="M1059.451,373.028c0,4.062-3.293,7.356-7.356,7.356h-40.456c-4.062,0-7.356-3.293-7.356-7.356V362.73
				c0-4.062,3.293-7.356,7.356-7.356h40.456c4.062,0,7.356,3.293,7.356,7.356V373.028z"/>
			<path fill="#25303A" d="M841.039,305.826c0.728,1.142,1.164,2.489,1.164,3.944v10.298c0,4.062-3.293,7.356-7.356,7.356h-40.456
				c-0.886,0-1.725-0.182-2.513-0.469c1.306,2.046,3.583,3.412,6.191,3.412h40.456c4.063,0,7.356-3.293,7.356-7.356v-10.298
				C845.882,309.536,843.858,306.856,841.039,305.826z"/>
			<path fill="#2A3B44" d="M896.207,305.826c0.728,1.142,1.164,2.489,1.164,3.944v10.298c0,4.062-3.293,7.356-7.356,7.356h-40.456
				c-0.886,0-1.725-0.182-2.513-0.469c1.306,2.046,3.583,3.412,6.191,3.412h40.456c4.063,0,7.356-3.293,7.356-7.356v-10.298
				C901.049,309.536,899.026,306.856,896.207,305.826z"/>
			<path fill="#1D252B" d="M868.623,330.835c0.728,1.142,1.164,2.489,1.164,3.944v10.298c0,4.062-3.293,7.356-7.356,7.356h-40.456
				c-0.886,0-1.725-0.182-2.513-0.469c1.306,2.046,3.583,3.412,6.191,3.412h40.456c4.063,0,7.356-3.293,7.356-7.356v-10.298
				C873.465,334.545,871.442,331.865,868.623,330.835z"/>
			<path fill="#1D252B" d="M1082.193,380.853c0.728,1.142,1.164,2.489,1.164,3.944v10.298c0,4.062-3.293,7.356-7.356,7.356h-40.456
				c-0.886,0-1.725-0.182-2.513-0.469c1.306,2.046,3.583,3.412,6.191,3.412h40.456c4.063,0,7.356-3.293,7.356-7.356V387.74
				C1087.035,384.564,1085.012,381.884,1082.193,380.853z"/>
			<path fill="#25303A" d="M1054.609,355.844c0.728,1.142,1.164,2.489,1.164,3.944v10.298c0,4.063-3.293,7.356-7.356,7.356h-40.456
				c-0.886,0-1.725-0.182-2.513-0.469c1.306,2.046,3.583,3.412,6.191,3.412h40.456c4.063,0,7.356-3.293,7.356-7.356V362.73
				C1059.451,359.555,1057.428,356.874,1054.609,355.844z"/>
			<path fill="#2A3B44" d="M1082.192,330.835c0.729,1.142,1.165,2.489,1.165,3.944v10.298c0,4.062-3.293,7.356-7.356,7.356h-40.456
				c-0.887,0-1.725-0.182-2.513-0.469c1.306,2.046,3.583,3.412,6.191,3.412h40.456c4.062,0,7.356-3.293,7.356-7.356v-10.298
				C1087.035,334.545,1085.012,331.865,1082.192,330.835z"/>
		</g>
		<path fill="#364D51" d="M1086.34,260.045h-19.288c20.31,0.002,36.775,16.468,36.775,36.778v133.74l19.291,0v-133.74
			C1123.118,276.512,1106.651,260.045,1086.34,260.045z"/>
	</g>
	<g id="wolf_2_">
		<path fill="#2B3238" d="M1514.959,461.545h-3.526l-15.3-175.508l7.388-23.417c0.098-0.15,2.43-5.861,2.599-7.943
			c1.289-15.903-9.46-63.116-9.46-63.116c-0.006-0.021-0.015-0.041-0.021-0.062c-0.111-0.373-0.245-0.737-0.382-1.1l3.878-36.046
			c0.08-0.759-0.228-1.544-0.881-2.039c-0.993-0.751-2.407-0.556-3.158,0.437l-19.648,25.96c0,0-18.601-2.71-24.851-2.71
			c-6.25,0-24.854,2.71-24.854,2.71l-19.648-25.96c-0.463-0.607-1.224-0.969-2.039-0.881c-1.238,0.133-2.133,1.245-2,2.483
			l3.878,36.045c-0.137,0.363-0.271,0.727-0.382,1.1c-0.006,0.021-0.015,0.041-0.022,0.062c0,0-11.628,47.165-10.46,63.116
			c0.153,2.084,2.5,7.794,2.599,7.943l8.388,23.417l-15.3,175.508h-3.526c-8.86,0-16.041,7.182-16.041,16.041
			s7.182,16.041,16.041,16.041h63.363h63.363c8.859,0,16.041-7.182,16.041-16.041S1523.818,461.545,1514.959,461.545z"/>
		<g>
			<path fill="#FFB000" d="M1421.72,244.277c-2.678-1.709-6.48-10.931-6.48-10.931s9.965-0.436,12.644,1.273
				c2.678,1.709,6.48,10.931,6.48,10.931S1424.398,245.986,1421.72,244.277z"/>
		</g>
		<g>
			<path fill="#FFB000" d="M1484.859,244.277c2.678-1.709,6.48-10.931,6.48-10.931s-9.965-0.436-12.643,1.273
				c-2.678,1.709-6.48,10.931-6.48,10.931S1482.181,245.986,1484.859,244.277z"/>
		</g>
		<g>
			<path fill="#1D252B" d="M1477.58,265.704c0.061,0.809-0.001,1.64-0.219,2.469l-10.712,40.779
				c-0.866,3.297-3.846,5.595-7.254,5.595h-22.061c-1.238,0-2.415-0.311-3.459-0.855l0.375,1.429
				c0.866,3.297,3.846,5.595,7.254,5.595h22.06c3.408,0,6.388-2.298,7.254-5.595l10.712-40.779
				C1482.453,270.828,1480.723,267.243,1477.58,265.704z"/>
		</g>
	</g>
</g>
</svg>
