<?xml version="1.0" encoding="utf-8"?>
<!-- Generator: Adobe Illustrator 17.0.0, SVG Export Plug-In . SVG Version: 6.00 Build 0)  -->
<!DOCTYPE svg PUBLIC "-//W3C//DTD SVG 1.1//EN" "http://www.w3.org/Graphics/SVG/1.1/DTD/svg11.dtd">
<svg version="1.1" xmlns="http://www.w3.org/2000/svg" xmlns:xlink="http://www.w3.org/1999/xlink" x="0px" y="0px" viewBox="0 0 4800 900" enable-background="new 0 0 4800 900" xml:space="preserve">
<g id="measurement_x5F_tools">
	<g>
		<polygon fill="#3F5C63" points="0,327.617 285.785,267.398 961,395.617 1361,267.398 1729,367.617 2258.805,267.398 2925,415.617 
			3269.906,285.728 3641.943,405.74 3849,303.049 4235.32,385.416 4605.04,267.398 4799.871,327.617 4800,900 0,900 		"/>
		<polygon fill="#364D51" points="961,395.617 605,475.617 891.059,382.335 		"/>
		<polygon fill="#364D51" points="1729,367.617 1531,397.119 1673,354.792 		"/>
		<polygon fill="#364D51" points="2925,415.617 3100.571,451.715 2974.118,397.119 		"/>
		<polygon fill="#364D51" points="3641.943,405.74 3909,476.176 3683.464,385.147 		"/>
		<polygon fill="#364D51" points="4235.32,385.416 4587.997,471.005 4293.126,366.964 		"/>
	</g>
	<g id="tent_2_">
		<path fill="#2B3238" d="M259.024,163.409c-3.948,0-7.527-2.323-9.135-5.931l-18.71-41.993c-2.247-5.044,0.021-10.956,5.065-13.204
			c5.044-2.246,10.955,0.021,13.204,5.065l9.575,21.491l9.575-21.491c2.248-5.045,8.159-7.312,13.204-5.065
			c5.045,2.248,7.312,8.16,5.065,13.204l-18.71,41.993C266.551,161.086,262.972,163.409,259.024,163.409z"/>
		<polygon fill="#538896" points="259.024,128.838 125.278,429.013 392.77,429.013 		"/>
		<polygon fill="#2B3238" points="213.776,429.013 357.793,429.013 285.785,267.398 		"/>
		<polygon fill="#426972" points="165.702,412.072 175.702,394.752 155.702,394.752 		"/>
		<polygon fill="#426972" points="185.702,412.072 195.702,394.752 175.702,394.752 		"/>
		<polygon fill="#426972" points="205.702,412.072 215.702,394.752 195.702,394.752 		"/>
		<polygon fill="#426972" points="215.702,394.752 223.231,407.792 229.041,394.752 		"/>
		<polygon fill="#426972" points="345.253,400.868 348.785,394.752 342.528,394.752 		"/>
		<polygon fill="#426972" points="358.785,412.072 368.785,394.752 348.785,394.752 		"/>
		<g>
			<polygon fill="#426972" points="155.702,394.752 140.543,394.752 138.435,399.485 145.702,412.072 			"/>
			<polygon fill="#426972" points="378.785,412.072 382.418,405.779 377.504,394.752 368.785,394.752 			"/>
		</g>
		<polygon fill="#1D252B" points="285.785,267.398 213.776,429.013 238.4,429.013 298.097,295.031 		"/>
	</g>
	<g id="peter_11_">
		<g>
			<path fill="#35414F" d="M4080.465,616.18c2.07-6.734,3.189-13.883,3.189-21.296c0-39.978-32.409-72.386-72.386-72.386
				s-72.386,32.408-72.386,72.386c0,7.412,1.119,14.562,3.189,21.296H4080.465z"/>
			<path fill="#25303A" d="M3951.626,580.048c-3.583,0-7.071,0.401-10.433,1.14c-0.85,4.437-1.311,9.011-1.311,13.696
				c0,7.412,1.119,14.562,3.189,21.296h55.372C3993.016,595.392,3974.115,580.048,3951.626,580.048z"/>
			<path fill="#35414F" d="M3986.597,634.346c0.434-2.606,0.671-5.278,0.671-8.007c0-26.723-21.663-48.386-48.386-48.386
				c-26.723,0-48.386,21.663-48.386,48.386c0,2.729,0.237,5.401,0.671,8.007H3986.597z"/>
		</g>
		<polygon fill="#538896" points="4053.654,569.339 4043.654,552.019 4053.654,534.698 4073.654,534.698 4083.654,552.019 
			4073.654,569.339 		"/>
		<polygon fill="#426972" points="4074.032,558.011 4063.654,564.003 4053.275,558.011 4053.275,546.027 4063.654,540.035 
			4074.032,546.027 		"/>
	</g>
</g>
</svg>
