<?xml version="1.0" encoding="utf-8"?>
<!-- Generator: Adobe Illustrator 17.0.0, SVG Export Plug-In . SVG Version: 6.00 Build 0)  -->
<!DOCTYPE svg PUBLIC "-//W3C//DTD SVG 1.1//EN" "http://www.w3.org/Graphics/SVG/1.1/DTD/svg11.dtd">
<svg version="1.1" xmlns="http://www.w3.org/2000/svg" xmlns:xlink="http://www.w3.org/1999/xlink" x="0px" y="0px" width="4800px"
	 height="900px" viewBox="0 0 4800 900" enable-background="new 0 0 4800 900" xml:space="preserve">
<g id="Layer_5">
</g>
<g id="Layer_3">
</g>
<g id="Layer_2">
</g>
<g id="Layer_1">
</g>
<g id="measurement_x5F_tools">
	<g>
		<polygon fill="#BF672B" points="0,495.548 217,403 505,544.707 725,450 1105,603.617 1337,495.617 1729,551.617 1997,383.617 
			2365,515.617 2645,423.617 3305,567.617 3569,450 3849,527.617 4057,419.617 4429,491.617 4673,327.617 4799.77,495.548 4800,900 
			0,900 		"/>
		<polygon fill="#A85C22" points="505,544.707 138,686.617 465.63,525.336 		"/>
		<polygon fill="#A85C22" points="1729,551.617 1566,619.617 1679.86,544.597 		"/>
		<polygon fill="#A85C22" points="2344.63,508.31 2366.333,550.95 2387.237,508.31 2365,515.617 		"/>
		<polygon fill="#A85C22" points="3305,567.617 3561.13,621.687 3363.368,541.613 		"/>
		<polygon fill="#A85C22" points="3849,527.617 4286.984,621.687 3891.836,505.375 		"/>
		<polygon fill="#A85C22" points="4429,491.617 4799.808,563.531 4451.973,476.176 		"/>
		<polygon fill="#A85C22" points="1105,603.617 851,718.617 1061.109,585.874 		"/>
	</g>
	<g>
		<g>
			<path fill="#726962" d="M4235.15,623.937L4235.15,623.937h-28.945c-11.046,0-20,8.954-20,20s8.954,20,20,20h8.945v40h40v-60
				C4255.15,632.891,4246.196,623.937,4235.15,623.937z"/>
			<g>
				<polygon fill="#D19853" points="4255.15,663.937 4237.83,653.937 4255.15,643.937 				"/>
				<polygon fill="#D19853" points="4255.15,683.937 4237.83,673.937 4255.15,663.937 				"/>
				<polygon fill="#D19853" points="4255.15,703.937 4237.83,693.937 4255.15,683.937 				"/>
			</g>
		</g>
		<line x1="4280.197" y1="672.678" x2="4280.197" y2="710.774"/>
		<rect x="4260.197" y="672.679" fill="#726962" width="40" height="31.259"/>
		<g>
			<path fill="#726962" d="M4308.048,743.937h-100c-11.046,0-20-8.954-20-20s8.954-20,20-20h100c11.046,0,20,8.954,20,20
				S4319.094,743.937,4308.048,743.937z"/>
			<polygon fill="#D19853" points="4228.048,703.937 4218.048,721.258 4208.048,703.937 			"/>
			<polygon fill="#D19853" points="4248.048,703.937 4238.048,721.258 4228.048,703.937 			"/>
			<polygon fill="#D19853" points="4268.048,703.937 4258.048,721.258 4248.048,703.937 			"/>
			<polygon fill="#D19853" points="4288.048,703.937 4278.048,721.258 4268.048,703.937 			"/>
			<polygon fill="#D19853" points="4308.048,703.937 4298.048,721.258 4288.048,703.937 			"/>
		</g>
		<g>
			<path fill="#726962" d="M4318.048,783.937h-120c-11.046,0-20-8.954-20-20s8.954-20,20-20h120c11.046,0,20,8.954,20,20
				S4329.094,783.937,4318.048,783.937z"/>
			<polygon fill="#D19853" points="4238.048,743.937 4228.048,761.258 4218.048,743.937 			"/>
			<polygon fill="#D19853" points="4218.048,743.937 4208.048,761.258 4198.048,743.937 			"/>
			<polygon fill="#D19853" points="4258.048,743.937 4248.048,761.258 4238.048,743.937 			"/>
			<polygon fill="#D19853" points="4278.048,743.937 4268.048,761.258 4258.048,743.937 			"/>
			<polygon fill="#D19853" points="4298.048,743.937 4288.048,761.258 4278.048,743.937 			"/>
			<polygon fill="#D19853" points="4318.048,743.937 4308.048,761.258 4298.048,743.937 			"/>
		</g>
		<g>
			<circle fill="#D19853" cx="4297.342" cy="662.251" r="15.998"/>
			<circle fill="#D19853" cx="4312.967" cy="658.865" r="11.999"/>
			<circle fill="#D19853" cx="4280.197" cy="672.678" r="19.998"/>
		</g>
	</g>
	<g>
		<path fill="#725947" d="M438.87,421.347c-3.948,0-7.527-2.323-9.135-5.931l-18.71-41.993c-2.247-5.044,0.021-10.956,5.065-13.204
			c5.044-2.246,10.955,0.021,13.204,5.065l9.575,21.491l9.575-21.491c2.248-5.045,8.159-7.312,13.204-5.065
			c5.045,2.248,7.312,8.16,5.065,13.204l-18.71,41.993C446.397,419.023,442.818,421.347,438.87,421.347z"/>
		<polygon fill="#F2E7CE" points="438.87,386.775 305.124,686.95 572.615,686.95 		"/>
		<polygon fill="#35414F" points="393.622,686.95 537.639,686.95 465.63,525.336 		"/>
		<polygon fill="#D19853" points="345.548,670.01 355.548,652.689 335.548,652.689 		"/>
		<polygon fill="#D19853" points="365.548,670.01 375.548,652.689 355.548,652.689 		"/>
		<polygon fill="#D19853" points="385.548,670.01 395.548,652.689 375.548,652.689 		"/>
		<polygon fill="#D19853" points="395.548,652.689 403.077,665.729 408.887,652.689 		"/>
		<polygon fill="#D19853" points="525.099,658.805 528.63,652.689 522.374,652.689 		"/>
		<polygon fill="#D19853" points="538.63,670.01 548.63,652.689 528.63,652.689 		"/>
		<g>
			<polygon fill="#D19853" points="335.548,652.689 320.389,652.689 318.28,657.422 325.548,670.01 			"/>
			<polygon fill="#D19853" points="558.63,670.01 562.264,663.717 557.35,652.689 548.63,652.689 			"/>
		</g>
		<polygon fill="#25303A" points="465.63,525.336 393.622,686.95 418.246,686.95 477.943,552.969 		"/>
	</g>
	<g>
		<g>
			<path fill="#5E8C57" d="M3123.889,294.877c-13.808,0-25,11.192-25,25c0,0.191-0.424,19.946-9.86,38.819
				c-8.636,17.271-21.875,28.239-40.14,33.159v-88.795c0-13.807-11.193-25-25-25s-25,11.193-25,25v148.978
				c-18.265-4.92-31.504-15.887-40.14-33.159c-9.437-18.873-9.86-38.628-9.86-38.819c0-13.808-11.192-25-25-25s-25,11.192-25,25
				c0,3.163,0.425,31.751,15.14,61.181c9.228,18.455,22.073,33.258,38.181,43.995c13.561,9.041,29.193,15.018,46.68,17.873v100.126
				h50v-160.31c17.486-2.854,33.119-8.832,46.68-17.873c16.107-10.737,28.953-25.54,38.181-43.995
				c14.715-29.43,15.14-58.018,15.14-61.181C3148.889,306.07,3137.697,294.877,3123.889,294.877z"/>
			<g>
				<path fill="#475E38" d="M2938.889,380.061c0,0.191,0.424,19.946,9.86,38.819c8.636,17.271,21.875,28.239,40.14,33.159v-3.526
					c-13.193-5.861-23.168-15.69-30.14-29.633c-9.437-18.873-9.86-38.628-9.86-38.819c0-13.808-11.192-25-25-25
					c-1.712,0-3.384,0.173-5,0.501C2930.3,357.878,2938.889,367.966,2938.889,380.061z"/>
				<path fill="#475E38" d="M3038.889,303.061v88.795c3.521-0.948,6.85-2.127,10-3.526v-85.268c0-13.807-11.193-25-25-25
					c-1.712,0-3.384,0.173-5,0.501C3030.3,280.879,3038.889,290.967,3038.889,303.061z"/>
				<path fill="#475E38" d="M3123.889,294.877c-1.712,0-3.384,0.173-5,0.501c11.411,2.316,20,12.404,20,24.499
					c0,3.163-0.425,31.751-15.14,61.181c-9.228,18.455-22.073,33.258-38.181,43.995c-13.561,9.041-29.193,15.018-46.68,17.873
					v160.31h10v-160.31c17.486-2.854,33.119-8.832,46.68-17.873c16.107-10.737,28.953-25.54,38.181-43.995
					c14.715-29.43,15.14-58.018,15.14-61.181C3148.889,306.07,3137.697,294.877,3123.889,294.877z"/>
			</g>
		</g>
		<polygon fill="#BCD4E8" points="3043.04,412.504 3033.04,395.183 3043.04,377.863 3063.04,377.863 3073.04,395.183 
			3063.04,412.504 		"/>
		<polygon fill="#BCD4E8" points="2978.064,463.825 2968.064,446.504 2978.064,429.184 2998.064,429.184 3008.064,446.504 
			2998.064,463.825 		"/>
		<polygon fill="#A6AEE8" points="3063.419,401.175 3053.04,407.167 3042.662,401.175 3042.662,389.191 3053.04,383.199 
			3063.419,389.191 		"/>
		<polygon fill="#A6AEE8" points="2998.443,452.496 2988.064,458.488 2977.686,452.496 2977.686,440.512 2988.064,434.52 
			2998.443,440.512 		"/>
	</g>
	<g>
		<g>
			<path fill="#5E8C57" d="M3216.529,603.774c2.07-6.734,3.189-13.883,3.189-21.296c0-39.978-32.409-72.386-72.386-72.386
				s-72.386,32.408-72.386,72.386c0,7.412,1.119,14.562,3.189,21.296H3216.529z"/>
			<path fill="#475E38" d="M3087.69,567.642c-3.583,0-7.071,0.401-10.433,1.14c-0.85,4.437-1.311,9.011-1.311,13.696
				c0,7.412,1.119,14.562,3.189,21.296h55.372C3129.08,582.985,3110.178,567.642,3087.69,567.642z"/>
			<path fill="#5E8C57" d="M3122.661,621.939c0.434-2.606,0.671-5.278,0.671-8.007c0-26.723-21.663-48.386-48.386-48.386
				c-26.723,0-48.386,21.663-48.386,48.386c0,2.729,0.237,5.401,0.671,8.007H3122.661z"/>
		</g>
		<polygon fill="#BCD4E8" points="3189.718,556.933 3179.718,539.612 3189.718,522.292 3209.718,522.292 3219.718,539.612 
			3209.718,556.933 		"/>
		<polygon fill="#A6AEE8" points="3210.096,545.604 3199.718,551.596 3189.34,545.604 3189.34,533.62 3199.718,527.628 
			3210.096,533.62 		"/>
	</g>
	<polygon fill="#F80075" points="1465.551,688.934 1371.603,526.21 1465.551,363.487 1653.448,363.487 1747.396,526.21 
		1653.448,688.934 	"/>
</g>
</svg>
