<?xml version="1.0" encoding="utf-8"?>
<!-- Generator: Adobe Illustrator 17.0.0, SVG Export Plug-In . SVG Version: 6.00 Build 0)  -->
<!DOCTYPE svg PUBLIC "-//W3C//DTD SVG 1.1//EN" "http://www.w3.org/Graphics/SVG/1.1/DTD/svg11.dtd">
<svg version="1.1" xmlns="http://www.w3.org/2000/svg" xmlns:xlink="http://www.w3.org/1999/xlink" x="0px" y="0px" width="4800px"
	 height="900px" viewBox="0 0 4800 900" enable-background="new 0 0 4800 900" xml:space="preserve">
<g id="Layer_5">
</g>
<g id="Layer_3">
</g>
<g id="Layer_2">
</g>
<g id="Layer_1">
</g>
<g id="measurement_x5F_tools">
	<g>
		<polygon fill="#F4BA89" points="0,91.095 321.5,179.017 505,91.095 933.655,241.135 1143.613,179.017 1496.729,322.755 
			1977.517,210.076 2517.338,339.214 2925,179.017 3305,303.306 3937,183.617 4235.32,303.306 4800,91.095 4800,900 0,900 		"/>
		<polygon fill="#DB9B67" points="321.5,179.017 87,270.077 260.732,162.399 		"/>
		<polygon fill="#DB9B67" points="933.655,241.135 547,354.792 895.147,227.656 		"/>
		<polygon fill="#DB9B67" points="1496.729,322.755 1322.711,359.077 1445.641,301.959 		"/>
		<polygon fill="#DB9B67" points="2517.338,339.214 2960,438.077 2565.479,320.296 		"/>
		<polygon fill="#DB9B67" points="3305,303.306 3680,398.077 3355.373,293.766 		"/>
		<polygon fill="#DB9B67" points="4235.32,303.306 4513.283,389.077 4274.446,288.602 		"/>
	</g>
	<g>
		<g>
			<path fill="#5E8C57" d="M519.844,341.068c2.07-6.734,3.189-13.883,3.189-21.296c0-39.978-32.409-72.386-72.386-72.386
				s-72.386,32.408-72.386,72.386c0,7.412,1.119,14.562,3.189,21.296H519.844z"/>
			<path fill="#475E38" d="M391.005,304.937c-3.583,0-7.071,0.401-10.433,1.14c-0.85,4.437-1.311,9.011-1.311,13.696
				c0,7.412,1.119,14.562,3.189,21.296h55.372C432.396,320.28,413.494,304.937,391.005,304.937z"/>
			<path fill="#5E8C57" d="M425.976,359.234c0.434-2.606,0.671-5.278,0.671-8.007c0-26.723-21.663-48.386-48.386-48.386
				c-26.723,0-48.386,21.663-48.386,48.386c0,2.729,0.237,5.401,0.671,8.007H425.976z"/>
		</g>
		<polygon fill="#BCD4E8" points="493.033,294.228 483.033,276.907 493.033,259.587 513.033,259.587 523.033,276.907 
			513.033,294.228 		"/>
		<polygon fill="#A6AEE8" points="513.412,282.899 503.033,288.891 492.655,282.899 492.655,270.915 503.033,264.923 
			513.412,270.915 		"/>
	</g>
	<polygon fill="#F80075" points="3844.138,380.971 3750.19,218.247 3844.138,55.524 4032.035,55.524 4125.983,218.247 
		4032.035,380.971 	"/>
	<polygon fill="#F80075" points="1653.448,537.691 1559.5,374.967 1653.448,212.244 1841.345,212.244 1935.293,374.967 
		1841.345,537.691 	"/>
</g>
</svg>
