<?xml version="1.0" encoding="utf-8"?>
<!-- Generator: Adobe Illustrator 17.0.0, SVG Export Plug-In . SVG Version: 6.00 Build 0)  -->
<!DOCTYPE svg PUBLIC "-//W3C//DTD SVG 1.1//EN" "http://www.w3.org/Graphics/SVG/1.1/DTD/svg11.dtd">
<svg version="1.1" xmlns="http://www.w3.org/2000/svg" xmlns:xlink="http://www.w3.org/1999/xlink" x="0px" y="0px" viewBox="0 0 4800 900" enable-background="new 0 0 4800 900" xml:space="preserve">
<g id="measurement_x5F_tools">
	<g>
		<polygon fill="#C78032" points="0,327.617 285.785,267.398 961,395.617 1361,267.398 1729,367.617 2258.805,267.398 2925,415.617 
			3269.906,285.728 3641.943,405.74 3849,303.049 4235.32,385.416 4605.04,267.398 4799.871,327.617 4800,900 0,900 		"/>
		<polygon fill="#B77430" points="961,395.617 605,475.617 891.059,382.336 		"/>
		<polygon fill="#B77430" points="1729,367.617 1531,397.119 1673,354.792 		"/>
		<polygon fill="#B77430" points="2925,415.617 3100.571,451.715 2974.118,397.119 		"/>
		<polygon fill="#B77430" points="3641.943,405.74 3909,476.176 3683.464,385.148 		"/>
		<polygon fill="#B77430" points="4235.32,385.416 4587.997,471.005 4293.126,366.964 		"/>
	</g>
	<g>
		<g>
			<path fill="#5E8C57" d="M4194.859,596.238c2.07-6.734,3.189-13.883,3.189-21.296c0-39.978-32.409-72.386-72.386-72.386
				c-39.978,0-72.386,32.408-72.386,72.386c0,7.412,1.119,14.562,3.189,21.296H4194.859z"/>
			<path fill="#475E38" d="M4066.02,560.106c-3.583,0-7.071,0.401-10.433,1.14c-0.85,4.437-1.311,9.011-1.311,13.696
				c0,7.412,1.119,14.562,3.189,21.296h55.372C4107.41,575.45,4088.508,560.106,4066.02,560.106z"/>
			<path fill="#5E8C57" d="M4100.99,614.404c0.434-2.606,0.671-5.278,0.671-8.007c0-26.723-21.663-48.386-48.386-48.386
				c-26.723,0-48.386,21.663-48.386,48.386c0,2.729,0.237,5.401,0.671,8.007H4100.99z"/>
		</g>
		<polygon fill="#BCD4E8" points="4168.048,549.397 4158.048,532.077 4168.048,514.756 4188.048,514.756 4198.048,532.077 
			4188.048,549.397 		"/>
		<polygon fill="#A6AEE8" points="4188.426,538.069 4178.048,544.061 4167.669,538.069 4167.669,526.085 4178.048,520.093 
			4188.426,526.085 		"/>
	</g>
	<g id="peter_1_">
		<g>
			<path fill="#5E8C57" d="M1231.027,255.392c-13.807,0-25,11.147-25,24.955c-0.002,0.331-0.433,33.471-16.807,65.28
				c-8.991,17.47-21.13,31.283-36.078,41.057c-13.245,8.66-29.03,14.34-47.115,16.999V180.362c0-13.807-11.193-25-25-25
				s-25,11.193-25,25v122.573c-19.33-4.637-33.237-15.768-42.193-33.68c-9.437-18.873-9.86-38.628-9.86-38.819
				c0-13.808-11.192-25-25-25s-25,11.192-25,25c0,3.163,0.425,31.751,15.14,61.181c9.228,18.455,22.073,33.258,38.181,43.995
				c14.086,9.391,30.42,15.459,48.733,18.172v199.827h50v-99.498c73.413-7.999,110.321-50.917,128.61-87.496
				c21.146-42.293,21.39-84.408,21.39-86.181C1256.027,266.63,1244.834,255.392,1231.027,255.392z"/>
			<g>
				<path fill="#475E38" d="M1094.097,180.362v223.321c4.098-0.603,8.071-1.368,11.93-2.281v-221.04c0-13.807-11.193-25-25-25
					c-2.056,0-4.053,0.254-5.965,0.722C1085.987,158.76,1094.097,168.612,1094.097,180.362z"/>
				<path fill="#475E38" d="M1231.027,255.392c-2.061,0-4.061,0.253-5.977,0.722c10.932,2.681,19.046,12.569,19.046,24.323
					c0,1.772-0.243,43.888-21.39,86.181c-18.29,36.58-55.198,79.497-128.61,87.496v99.498h11.93v-99.498
					c73.413-7.999,110.321-50.917,128.61-87.496c21.146-42.293,21.39-84.408,21.39-86.181
					C1256.027,266.63,1244.834,255.392,1231.027,255.392z"/>
				<path fill="#475E38" d="M992.043,230.437c0,0.191,0.424,19.946,9.86,38.819c8.956,17.912,22.864,29.043,42.193,33.68v-4.013
					c-13.249-5.855-23.272-15.686-30.263-29.667c-9.437-18.873-9.86-38.628-9.86-38.819c0-13.808-11.192-25-25-25
					c-2.056,0-4.053,0.254-5.965,0.722C983.934,208.834,992.043,218.686,992.043,230.437z"/>
			</g>
		</g>
		<g>
			<polygon fill="#BCD4E8" points="1040.629,319.294 1030.629,301.973 1040.629,284.653 1060.629,284.653 1070.629,301.973 
				1060.629,319.294 			"/>
			<polygon fill="#A6AEE8" points="1061.008,307.965 1050.629,313.957 1040.251,307.965 1040.251,295.981 1050.629,289.989 
				1061.008,295.981 			"/>
		</g>
		<g>
			<polygon fill="#BCD4E8" points="1100.061,421.822 1090.061,404.502 1100.061,387.181 1120.061,387.181 1130.061,404.502 
				1120.061,421.822 			"/>
			<polygon fill="#A6AEE8" points="1120.44,410.494 1110.061,416.486 1099.683,410.494 1099.683,398.51 1110.061,392.518 
				1120.44,398.51 			"/>
		</g>
	</g>
	<g id="dead_x5F_tree">
		<path fill="#664A36" d="M3281.508,579.9l72.767,18.447l82.016,147.321l-16.087,41.385h82.436l27.05-84.01l0.65-2.011
			c1.976-6.114,2.16-12.875,0.128-19.483l-48.48-157.656l62.806-100.535c4.389-7.025,2.252-16.279-4.774-20.669
			c-7.028-4.391-16.281-2.252-20.669,4.774l-49.031,78.485l-28.98-94.242l66.508-179.138c3.608-9.788-0.916-20.898-10.579-25.227
			c-10.086-4.518-21.925-0.005-26.443,10.081l-59.635,133.121l-33.866-68.734c-1.83-3.716-6.326-5.244-10.042-3.413
			c-3.716,1.83-5.244,6.327-3.413,10.042l39.069,79.296c0.092,0.188,0.206,0.356,0.312,0.532l-14.59,32.57
			c-2.108,4.704-2.733,10.131-1.417,15.527l0.392,1.606l70.844,290.621l-8.07,20.761L3339.3,509.775
			c-4.028-7.238-13.163-9.839-20.401-5.81s-9.84,13.163-5.81,20.401l31.155,55.962l-59.051-14.97
			c-4.015-1.015-8.096,1.412-9.112,5.428C3275.063,574.801,3277.493,578.881,3281.508,579.9z"/>
		<path fill="#544032" d="M3484.371,187.341c9.662,4.329,14.187,15.438,10.578,25.227l-66.508,179.138l33.235,108.078l8.644-13.836
			l-28.98-94.242l66.508-179.138c3.608-9.788-0.916-20.898-10.578-25.227c-4.802-2.151-9.993-2.235-14.61-0.665
			C3483.233,186.872,3483.805,187.087,3484.371,187.341z"/>
		<path fill="#544032" d="M3326.402,509.775l118.702,213.219l5.304-13.643L3339.3,509.775c-3.872-6.958-12.458-9.612-19.547-6.23
			C3322.469,504.838,3324.828,506.946,3326.402,509.775z"/>
		<path fill="#544032" d="M3540.019,402.689c-4.507-2.816-9.924-2.934-14.391-0.812c0.506,0.242,1.005,0.508,1.492,0.812
			c7.026,4.39,9.163,13.644,4.774,20.669l-62.806,100.535l48.48,157.656c2.032,6.608,1.849,13.369-0.128,19.483l-0.65,2.011
			l-27.05,84.01h12.898l27.05-84.01l0.65-2.011c1.977-6.114,2.16-12.875,0.128-19.483l-48.48-157.656l62.806-100.535
			C3549.182,416.332,3547.045,407.078,3540.019,402.689z"/>
		<path fill="#544032" d="M3346.364,584.136l-2.119-3.807l-59.051-14.97c-2.449-0.619-4.919,0.048-6.707,1.57L3346.364,584.136z"/>
		<path fill="#544032" d="M3407.997,337.671l3.193-7.128l-33.866-68.734c-1.689-3.431-5.651-4.99-9.173-3.769L3407.997,337.671z"/>
	</g>
	<g id="wolf">
		<path fill="#9B9A9A" d="M417.431,670.879h-3.526l-15.3-175.508l7.388-23.417c0.098-0.15,2.43-5.861,2.599-7.943
			c1.289-15.903-9.46-63.116-9.46-63.116c-0.006-0.021-0.015-0.041-0.022-0.062c-0.111-0.373-0.245-0.737-0.382-1.1l3.878-36.046
			c0.079-0.759-0.228-1.544-0.881-2.039c-0.993-0.751-2.407-0.556-3.158,0.437l-19.648,25.96c0,0-18.601-2.71-24.851-2.71
			c-6.25,0-24.854,2.71-24.854,2.71l-19.648-25.96c-0.463-0.607-1.224-0.969-2.039-0.881c-1.238,0.133-2.133,1.245-2,2.483
			l3.878,36.045c-0.137,0.363-0.271,0.727-0.382,1.1c-0.006,0.021-0.015,0.041-0.022,0.062c0,0-11.628,47.165-10.46,63.116
			c0.153,2.084,2.501,7.794,2.599,7.943l8.388,23.417l-15.3,175.508h-3.526c-8.86,0-16.041,7.182-16.041,16.041
			c0,8.859,7.182,16.041,16.041,16.041h63.363h63.363c8.86,0,16.041-7.182,16.041-16.041
			C433.473,678.061,426.291,670.879,417.431,670.879z"/>
		<g>
			<path fill="#FFB000" d="M324.192,453.612c-2.678-1.709-6.48-10.931-6.48-10.931s9.965-0.436,12.643,1.273
				s6.48,10.931,6.48,10.931S326.87,455.321,324.192,453.612z"/>
		</g>
		<g>
			<path fill="#FFB000" d="M387.331,453.612c2.678-1.709,6.48-10.931,6.48-10.931s-9.965-0.436-12.643,1.273
				s-6.48,10.931-6.48,10.931S384.653,455.321,387.331,453.612z"/>
		</g>
		<g>
			<path fill="#7C7C7C" d="M380.052,475.038c0.061,0.809-0.001,1.64-0.219,2.469l-10.712,40.779
				c-0.866,3.297-3.846,5.595-7.254,5.595h-22.061c-1.238,0-2.415-0.311-3.459-0.855l0.375,1.429
				c0.866,3.297,3.846,5.595,7.254,5.595h22.06c3.408,0,6.388-2.298,7.254-5.595l10.712-40.779
				C384.925,480.163,383.195,476.577,380.052,475.038z"/>
		</g>
	</g>
</g>
</svg>
