<?xml version="1.0" encoding="utf-8"?>
<!-- Generator: Adobe Illustrator 17.0.0, SVG Export Plug-In . SVG Version: 6.00 Build 0)  -->
<!DOCTYPE svg PUBLIC "-//W3C//DTD SVG 1.1//EN" "http://www.w3.org/Graphics/SVG/1.1/DTD/svg11.dtd">
<svg version="1.1" xmlns="http://www.w3.org/2000/svg" xmlns:xlink="http://www.w3.org/1999/xlink" x="0px" y="0px" width="4800px"
	 height="900px" viewBox="0 0 4800 900" enable-background="new 0 0 4800 900" xml:space="preserve">
<g id="Layer_5">
	<g>
		<polygon fill="#2B3238" points="0,91.095 204.25,216.238 547,162.399 885.665,301.959 1179.606,216.238 1322.711,301.959 
			1593.523,216.238 1861.92,288.602 2157.41,270.077 2365.934,330.518 2841.273,270.077 3117.218,345.921 3525.137,227.656 
			3885.065,288.602 4046.767,227.656 4460.95,288.602 4800,91.095 4800,900 0,900 		"/>
		<polygon fill="#1D252B" points="204.25,216.238 7,283.556 178.657,200.557 		"/>
		<polygon fill="#1D252B" points="885.665,301.959 596,354.792 841.006,283.556 		"/>
		<polygon fill="#1D252B" points="1322.711,301.959 1174,338.281 1282.042,277.598 		"/>
		<polygon fill="#1D252B" points="2365.934,330.518 2553.674,364.509 2427.085,322.742 		"/>
		<polygon fill="#1D252B" points="1844.4,283.878 1860,322.742 1892.479,286.686 1861.92,288.602 		"/>
		<polygon fill="#1D252B" points="3117.218,345.921 3382.466,390.718 3176.022,328.873 		"/>
		<polygon fill="#1D252B" points="3885.065,288.602 4189.501,328.873 3922.819,274.373 		"/>
		<polygon fill="#1D252B" points="4485.377,274.373 4721.974,326.1 4460.95,288.602 		"/>
	</g>
</g>
<g id="Layer_3">
</g>
<g id="Layer_2">
</g>
<g id="Layer_1">
</g>
<g id="measurement_x5F_tools">
	<g>
		<g>
			<path fill="#5E8C57" d="M519.844,341.068c2.07-6.734,3.189-13.883,3.189-21.296c0-39.978-32.409-72.386-72.386-72.386
				s-72.386,32.408-72.386,72.386c0,7.412,1.119,14.562,3.189,21.296H519.844z"/>
			<path fill="#475E38" d="M391.005,304.937c-3.583,0-7.071,0.401-10.433,1.14c-0.85,4.437-1.311,9.011-1.311,13.696
				c0,7.412,1.119,14.562,3.189,21.296h55.372C432.396,320.28,413.494,304.937,391.005,304.937z"/>
			<path fill="#5E8C57" d="M425.976,359.234c0.434-2.606,0.671-5.278,0.671-8.007c0-26.723-21.663-48.386-48.386-48.386
				c-26.723,0-48.386,21.663-48.386,48.386c0,2.729,0.237,5.401,0.671,8.007H425.976z"/>
		</g>
		<polygon fill="#BCD4E8" points="493.033,294.228 483.033,276.907 493.033,259.587 513.033,259.587 523.033,276.907 
			513.033,294.228 		"/>
		<polygon fill="#A6AEE8" points="513.412,282.899 503.033,288.891 492.655,282.899 492.655,270.915 503.033,264.923 
			513.412,270.915 		"/>
	</g>
	<polygon fill="#F80075" points="3844.138,380.971 3750.19,218.247 3844.138,55.524 4032.035,55.524 4125.983,218.247 
		4032.035,380.971 	"/>
	<polygon fill="#F80075" points="1653.448,537.691 1559.5,374.967 1653.448,212.244 1841.345,212.244 1935.293,374.967 
		1841.345,537.691 	"/>
</g>
</svg>
