<?xml version="1.0" encoding="utf-8"?>
<!-- Generator: Adobe Illustrator 17.0.0, SVG Export Plug-In . SVG Version: 6.00 Build 0)  -->
<!DOCTYPE svg PUBLIC "-//W3C//DTD SVG 1.1//EN" "http://www.w3.org/Graphics/SVG/1.1/DTD/svg11.dtd">
<svg version="1.1" xmlns="http://www.w3.org/2000/svg" xmlns:xlink="http://www.w3.org/1999/xlink" x="0px" y="0px" viewBox="0 0 4800 900" enable-background="new 0 0 4800 900" xml:space="preserve">
<g id="measurement_x5F_tools">
	<g>
		<polygon fill="#394E5B" points="0,91.095 229.025,200.335 507.74,159.42 875.477,283.392 1211.7,207.72 1583.737,285.728 
			2102.789,180.717 2641,307.617 3045,187.617 3617,299.617 3937,183.617 4333,283.617 4800,91.095 4800,900 0,900 		"/>
		<polygon fill="#2A3B44" points="229.025,200.335 0,241.135 0,236.803 184.332,179.018 		"/>
		<polygon fill="#2A3B44" points="875.477,283.392 547,354.792 833.763,269.33 		"/>
		<polygon fill="#2A3B44" points="1583.737,285.728 1409.72,308.283 1518.773,272.106 		"/>
		<polygon fill="#2A3B44" points="2641,307.617 3077.752,392.709 2697.345,290.881 		"/>
		<polygon fill="#2A3B44" points="3617,299.617 3978.813,360.745 3657.971,284.765 		"/>
		<polygon fill="#2A3B44" points="4333,283.617 4610.962,339.214 4372.341,267.398 		"/>
	</g>
	<g id="peter_13_">
		<g>
			<path fill="#35414F" d="M330.625,129.642c-13.808,0-25,11.192-25,25c0,0.191-0.424,19.946-9.86,38.819
				c-8.636,17.271-21.875,28.239-40.14,33.159v-88.795c0-13.807-11.193-25-25-25s-25,11.193-25,25v148.978
				c-18.265-4.92-31.504-15.887-40.14-33.159c-9.437-18.873-9.86-38.628-9.86-38.819c0-13.808-11.192-25-25-25s-25,11.192-25,25
				c0,3.163,0.425,31.751,15.14,61.181c9.228,18.455,22.073,33.258,38.181,43.995c13.561,9.041,29.193,15.018,46.68,17.873V438h50
				V277.69c17.486-2.854,33.119-8.832,46.68-17.873c16.107-10.737,28.953-25.54,38.181-43.995
				c14.715-29.43,15.14-58.018,15.14-61.181C355.625,140.834,344.433,129.642,330.625,129.642z"/>
			<g>
				<path fill="#25303A" d="M145.625,214.825c0,0.191,0.424,19.946,9.86,38.819c8.636,17.271,21.875,28.239,40.14,33.159v-3.526
					c-13.193-5.861-23.168-15.69-30.14-29.633c-9.437-18.873-9.86-38.628-9.86-38.819c0-13.808-11.192-25-25-25
					c-1.712,0-3.384,0.173-5,0.501C137.036,192.643,145.625,202.73,145.625,214.825z"/>
				<path fill="#25303A" d="M245.625,137.825v88.795c3.521-0.948,6.85-2.127,10-3.526v-85.268c0-13.807-11.193-25-25-25
					c-1.712,0-3.384,0.173-5,0.501C237.036,115.643,245.625,125.731,245.625,137.825z"/>
				<path fill="#25303A" d="M330.625,129.642c-1.712,0-3.384,0.173-5,0.501c11.411,2.316,20,12.404,20,24.499
					c0,3.163-0.425,31.751-15.14,61.181c-9.228,18.455-22.073,33.258-38.181,43.995c-13.561,9.041-29.193,15.018-46.68,17.873V438
					h10V277.69c17.486-2.854,33.119-8.832,46.68-17.873c16.107-10.737,28.953-25.54,38.181-43.995
					c14.715-29.43,15.14-58.018,15.14-61.181C355.625,140.834,344.433,129.642,330.625,129.642z"/>
			</g>
		</g>
		<polygon fill="#538896" points="249.776,247.268 239.776,229.948 249.776,212.627 269.776,212.627 279.776,229.948 
			269.776,247.268 		"/>
		<polygon fill="#538896" points="184.801,298.589 174.801,281.269 184.801,263.948 204.801,263.948 214.801,281.269 
			204.801,298.589 		"/>
		<polygon fill="#426972" points="270.155,235.94 259.776,241.932 249.398,235.94 249.398,223.956 259.776,217.964 270.155,223.956 
					"/>
		<polygon fill="#426972" points="205.179,287.261 194.801,293.253 184.422,287.261 184.422,275.277 194.801,269.285 
			205.179,275.277 		"/>
	</g>
	<g id="peter_10_">
		<g>
			<path fill="#35414F" d="M3592.407,341.064c2.07-6.734,3.189-13.883,3.189-21.296c0-39.978-32.409-72.386-72.386-72.386
				s-72.386,32.408-72.386,72.386c0,7.412,1.119,14.562,3.189,21.296H3592.407z"/>
			<path fill="#25303A" d="M3463.568,304.932c-3.583,0-7.071,0.401-10.433,1.14c-0.85,4.437-1.311,9.011-1.311,13.696
				c0,7.412,1.119,14.562,3.189,21.296h55.372C3504.959,320.276,3486.057,304.932,3463.568,304.932z"/>
			<path fill="#35414F" d="M3498.539,359.229c0.434-2.606,0.671-5.278,0.671-8.007c0-26.723-21.663-48.386-48.386-48.386
				c-26.723,0-48.386,21.663-48.386,48.386c0,2.729,0.237,5.401,0.671,8.007H3498.539z"/>
		</g>
		<polygon fill="#538896" points="3565.596,294.223 3555.596,276.903 3565.596,259.582 3585.596,259.582 3595.596,276.903 
			3585.596,294.223 		"/>
		<polygon fill="#426972" points="3585.975,282.895 3575.596,288.887 3565.218,282.895 3565.218,270.91 3575.596,264.918 
			3585.975,270.91 		"/>
	</g>
	<g id="dead_x5F_tree_4_">
		<path fill="#2B3238" d="M4103.094,514.052l72.767,18.447l82.016,147.321l-16.087,41.385h82.436l27.05-84.01l0.65-2.011
			c1.976-6.114,2.16-12.875,0.128-19.483l-48.48-157.656l62.806-100.535c4.389-7.025,2.252-16.279-4.774-20.669
			c-7.028-4.391-16.281-2.252-20.669,4.774l-49.031,78.485l-28.98-94.242l66.508-179.138c3.608-9.788-0.916-20.898-10.579-25.227
			c-10.086-4.518-21.925-0.005-26.443,10.081l-59.635,133.121l-33.866-68.734c-1.83-3.716-6.326-5.244-10.042-3.413
			c-3.716,1.83-5.244,6.327-3.413,10.042l39.069,79.296c0.092,0.188,0.206,0.356,0.312,0.532l-14.59,32.57
			c-2.108,4.704-2.733,10.131-1.417,15.527l0.392,1.606l70.844,290.621l-8.07,20.761l-111.107-199.577
			c-4.028-7.238-13.163-9.839-20.401-5.81s-9.84,13.163-5.81,20.401l31.155,55.962l-59.051-14.97
			c-4.015-1.015-8.096,1.412-9.112,5.428C4096.649,508.953,4099.079,513.034,4103.094,514.052z"/>
		<path fill="#1D252B" d="M4305.957,121.493c9.662,4.329,14.187,15.438,10.578,25.227l-66.508,179.138l33.235,108.078l8.644-13.836
			l-28.98-94.242l66.508-179.138c3.608-9.788-0.916-20.898-10.578-25.227c-4.802-2.151-9.993-2.235-14.61-0.665
			C4304.819,121.025,4305.391,121.24,4305.957,121.493z"/>
		<path fill="#1D252B" d="M4147.988,443.927l118.702,213.219l5.304-13.643l-111.107-199.577c-3.872-6.958-12.458-9.612-19.547-6.23
			C4144.055,438.99,4146.414,441.098,4147.988,443.927z"/>
		<path fill="#1D252B" d="M4361.605,336.841c-4.507-2.816-9.924-2.934-14.391-0.812c0.506,0.242,1.005,0.508,1.492,0.812
			c7.026,4.39,9.163,13.644,4.774,20.669l-62.806,100.535l48.48,157.656c2.032,6.608,1.849,13.369-0.128,19.483l-0.65,2.011
			l-27.05,84.01h12.898l27.05-84.01l0.65-2.011c1.977-6.114,2.16-12.875,0.128-19.483l-48.48-157.656l62.806-100.535
			C4370.768,350.485,4368.631,341.231,4361.605,336.841z"/>
		<path fill="#1D252B" d="M4167.95,518.288l-2.119-3.807l-59.051-14.97c-2.449-0.619-4.919,0.048-6.707,1.57L4167.95,518.288z"/>
		<path fill="#1D252B" d="M4229.583,271.824l3.193-7.128l-33.866-68.734c-1.689-3.431-5.651-4.99-9.173-3.769L4229.583,271.824z"/>
	</g>
	<g id="bag">
		<path fill="#538896" d="M4268.382,617.087h-90c-11.046,0-20,8.954-20,20v160c0,11.046,8.954,20,20,20h90c11.046,0,20-8.954,20-20
			v-160C4288.382,626.041,4279.428,617.087,4268.382,617.087z"/>
		<path fill="#426972" d="M4268.382,617.087h-13.279c11.046,0,20,8.954,20,20v160c0,11.046-8.954,20-20,20h13.279
			c11.046,0,20-8.954,20-20v-160C4288.382,626.041,4279.428,617.087,4268.382,617.087z"/>
		<path fill="#538896" d="M4262.7,617.087h-90c-11.046,0-20,8.954-20,20v60c0,11.046,8.954,20,20,20h90c11.046,0,20-8.954,20-20v-60
			C4282.7,626.041,4273.746,617.087,4262.7,617.087z"/>
		<g>
			<path fill="#426972" d="M4172.7,728.979h90c11.046,0,20-8.954,20-20v-11.893c0,11.046-8.954,20-20,20h-90
				c-5.617,0-10.685-2.323-14.318-6.051v11.893C4162.015,726.657,4167.083,728.979,4172.7,728.979z"/>
		</g>
		<path fill="#2A3B44" d="M4218.7,700.114c-1.989,0-3.896-0.79-5.304-2.197l-13.014-13.015c-2.929-2.929-2.929-7.677,0-10.606
			l13.014-13.014c2.93-2.928,7.678-2.928,10.607,0l13.014,13.014c2.929,2.93,2.929,7.678,0,10.606l-13.014,13.015
			C4222.597,699.324,4220.689,700.114,4218.7,700.114z"/>
		<path fill="#725947" d="M4267.873,738.205h-24.082c-4.143,0-7.5-3.357-7.5-7.5s3.357-7.5,7.5-7.5h24.082
			c4.143,0,7.5,3.357,7.5,7.5S4272.015,738.205,4267.873,738.205z"/>
		<path fill="#394E5B" d="M4217.7,698.114c-1.989,0-3.896-0.79-5.304-2.197l-13.014-13.015c-2.929-2.929-2.929-7.677,0-10.606
			l13.014-13.014c2.93-2.928,7.678-2.928,10.607,0l13.014,13.014c2.929,2.93,2.929,7.678,0,10.606l-13.014,13.015
			C4221.597,697.324,4219.689,698.114,4217.7,698.114z"/>
		<path fill="#2A3B44" d="M4248.332,617.087v149.9c0,4.143,3.357,7.5,7.5,7.5s7.5-3.357,7.5-7.5v-149.9H4248.332z"/>
		<g>
			<path fill="#2A3B44" d="M4177.331,738.205v28.782c0,4.143,3.357,7.5,7.5,7.5s7.5-3.357,7.5-7.5v-28.782H4177.331z"/>
			<rect x="4177.331" y="617.086" fill="#2A3B44" width="15" height="106.119"/>
		</g>
		<path fill="#394E5B" d="M4175.331,617.087v147.9c0,4.143,3.357,7.5,7.5,7.5s7.5-3.357,7.5-7.5v-147.9H4175.331z"/>
		<path fill="#394E5B" d="M4246.332,617.087v147.9c0,4.143,3.357,7.5,7.5,7.5s7.5-3.357,7.5-7.5v-147.9H4246.332z"/>
		<path fill="#2A3B44" d="M4267.873,738.205h-24.082c-4.143,0-7.5-3.357-7.5-7.5s3.357-7.5,7.5-7.5h24.082
			c4.143,0,7.5,3.357,7.5,7.5S4272.015,738.205,4267.873,738.205z"/>
		<path fill="#394E5B" d="M4265.873,736.205h-24.082c-4.143,0-7.5-3.357-7.5-7.5s3.357-7.5,7.5-7.5h24.082
			c4.143,0,7.5,3.357,7.5,7.5S4270.015,736.205,4265.873,736.205z"/>
		<path fill="#2A3B44" d="M4196.872,738.205h-24.082c-4.143,0-7.5-3.357-7.5-7.5s3.357-7.5,7.5-7.5h24.082
			c4.143,0,7.5,3.357,7.5,7.5S4201.015,738.205,4196.872,738.205z"/>
		<path fill="#394E5B" d="M4194.872,736.205h-24.082c-4.143,0-7.5-3.357-7.5-7.5s3.357-7.5,7.5-7.5h24.082
			c4.143,0,7.5,3.357,7.5,7.5S4199.015,736.205,4194.872,736.205z"/>
	</g>
	<g id="peter_20_">
		<g>
			<path fill="#35414F" d="M423.265,438.538c2.07-6.734,3.189-13.883,3.189-21.296c0-39.978-32.409-72.386-72.386-72.386
				s-72.386,32.408-72.386,72.386c0,7.412,1.119,14.562,3.189,21.296H423.265z"/>
			<path fill="#25303A" d="M294.426,402.407c-3.583,0-7.071,0.401-10.433,1.14c-0.85,4.437-1.311,9.011-1.311,13.696
				c0,7.412,1.119,14.562,3.189,21.296h55.372C335.817,417.75,316.915,402.407,294.426,402.407z"/>
			<path fill="#35414F" d="M329.397,456.704c0.434-2.606,0.671-5.278,0.671-8.007c0-26.723-21.663-48.386-48.386-48.386
				c-26.723,0-48.386,21.663-48.386,48.386c0,2.729,0.237,5.401,0.671,8.007H329.397z"/>
		</g>
		<polygon fill="#538896" points="396.454,391.697 386.454,374.377 396.454,357.056 416.454,357.056 426.454,374.377 
			416.454,391.697 		"/>
		<polygon fill="#426972" points="416.833,380.369 406.454,386.361 396.076,380.369 396.076,368.385 406.454,362.393 
			416.833,368.385 		"/>
	</g>
</g>
</svg>
