<?xml version="1.0" encoding="utf-8"?>
<!-- Generator: Adobe Illustrator 17.0.0, SVG Export Plug-In . SVG Version: 6.00 Build 0)  -->
<!DOCTYPE svg PUBLIC "-//W3C//DTD SVG 1.1//EN" "http://www.w3.org/Graphics/SVG/1.1/DTD/svg11.dtd">
<svg version="1.1" xmlns="http://www.w3.org/2000/svg" xmlns:xlink="http://www.w3.org/1999/xlink" x="0px" y="0px" width="4800px"
	 height="900px" viewBox="0 0 4800 900" enable-background="new 0 0 4800 900" xml:space="preserve">
<g id="Layer_5">
</g>
<g id="Layer_3">
</g>
<g id="Layer_2">
</g>
<g id="Layer_1">
</g>
<g id="measurement_x5F_tools">
	<g>
		<polygon fill="#EFAE6F" points="0,91.095 204.25,216.238 547,162.399 885.665,301.959 1179.606,216.238 1322.711,301.959 
			1593.523,216.238 1861.92,288.602 2157.41,270.077 2365.934,330.518 2841.273,270.077 3117.218,345.921 3525.137,227.656 
			3885.065,288.602 4046.767,227.656 4460.95,288.602 4800,91.095 4800,900 0,900 		"/>
		<polygon fill="#CE8F5F" points="204.25,216.238 7,283.556 178.657,200.557 		"/>
		<polygon fill="#CE8F5F" points="885.665,301.959 596,354.792 841.006,283.556 		"/>
		<polygon fill="#CE8F5F" points="1322.711,301.959 1174,338.281 1282.042,277.597 		"/>
		<polygon fill="#CE8F5F" points="2365.934,330.518 2553.674,364.509 2427.085,322.742 		"/>
		<polygon fill="#CE8F5F" points="1844.4,283.878 1860,322.742 1892.479,286.686 1861.92,288.602 		"/>
		<polygon fill="#CE8F5F" points="3117.218,345.921 3382.466,390.718 3176.022,328.873 		"/>
		<polygon fill="#CE8F5F" points="3885.065,288.602 4189.501,328.873 3922.819,274.373 		"/>
		<polygon fill="#CE8F5F" points="4485.377,274.373 4721.974,326.1 4460.95,288.602 		"/>
	</g>
	<g>
		<g>
			<path fill="#5E8C57" d="M4438.048,70.467c-13.808,0-25,11.192-25,25c0,0.191-0.424,19.946-9.86,38.819
				c-8.636,17.271-21.875,28.239-40.14,33.159V78.651c0-13.807-11.193-25-25-25s-25,11.193-25,25v148.978
				c-18.265-4.92-31.504-15.887-40.14-33.159c-9.437-18.873-9.86-38.628-9.86-38.819c0-13.808-11.192-25-25-25s-25,11.192-25,25
				c0,3.163,0.425,31.751,15.14,61.181c9.228,18.455,22.073,33.258,38.181,43.995c13.561,9.041,29.193,15.018,46.68,17.873v100.126
				h50v-160.31c17.486-2.854,33.119-8.832,46.68-17.873c16.107-10.737,28.953-25.54,38.181-43.995
				c14.715-29.43,15.14-58.018,15.14-61.181C4463.048,81.659,4451.855,70.467,4438.048,70.467z"/>
			<g>
				<path fill="#475E38" d="M4253.048,155.651c0,0.191,0.424,19.946,9.86,38.819c8.636,17.271,21.875,28.239,40.14,33.159v-3.526
					c-13.193-5.861-23.168-15.69-30.14-29.633c-9.437-18.873-9.86-38.628-9.86-38.819c0-13.808-11.192-25-25-25
					c-1.712,0-3.384,0.173-5,0.501C4244.459,133.468,4253.048,143.555,4253.048,155.651z"/>
				<path fill="#475E38" d="M4353.048,78.651v88.795c3.521-0.948,6.85-2.127,10-3.526V78.651c0-13.807-11.193-25-25-25
					c-1.712,0-3.384,0.173-5,0.501C4344.458,56.468,4353.048,66.556,4353.048,78.651z"/>
				<path fill="#475E38" d="M4438.048,70.467c-1.712,0-3.384,0.173-5,0.501c11.411,2.316,20,12.404,20,24.499
					c0,3.163-0.425,31.751-15.14,61.181c-9.228,18.455-22.073,33.258-38.181,43.995c-13.561,9.041-29.193,15.018-46.68,17.873
					v160.31h10v-160.31c17.486-2.854,33.119-8.832,46.68-17.873c16.107-10.737,28.953-25.54,38.181-43.995
					c14.715-29.43,15.14-58.018,15.14-61.181C4463.048,81.659,4451.855,70.467,4438.048,70.467z"/>
			</g>
		</g>
		<polygon fill="#BCD4E8" points="4357.199,188.094 4347.199,170.773 4357.199,153.453 4377.199,153.453 4387.199,170.773 
			4377.199,188.094 		"/>
		<polygon fill="#BCD4E8" points="4292.224,239.414 4282.224,222.094 4292.224,204.773 4312.224,204.773 4322.224,222.094 
			4312.224,239.414 		"/>
		<polygon fill="#A6AEE8" points="4377.578,176.765 4367.199,182.757 4356.82,176.765 4356.82,164.781 4367.199,158.789 
			4377.578,164.781 		"/>
		<polygon fill="#A6AEE8" points="4312.602,228.086 4302.224,234.078 4291.845,228.086 4291.845,216.102 4302.224,210.11 
			4312.602,216.102 		"/>
	</g>
	<polygon fill="#F80075" points="503.138,552.146 409.19,389.423 503.138,226.699 691.035,226.699 784.984,389.423 691.035,552.146 
			"/>
	<polygon fill="#F80075" points="2748.412,467.43 2654.464,304.707 2748.412,141.984 2936.309,141.984 3030.257,304.707 
		2936.309,467.43 	"/>
</g>
</svg>
