<?xml version="1.0" encoding="utf-8"?>
<!-- Generator: Adobe Illustrator 17.0.0, SVG Export Plug-In . SVG Version: 6.00 Build 0)  -->
<!DOCTYPE svg PUBLIC "-//W3C//DTD SVG 1.1//EN" "http://www.w3.org/Graphics/SVG/1.1/DTD/svg11.dtd">
<svg version="1.1" xmlns="http://www.w3.org/2000/svg" xmlns:xlink="http://www.w3.org/1999/xlink" x="0px" y="0px" width="1600px"
	 height="900px" viewBox="0 0 1600 900" enable-background="new 0 0 1600 900" xml:space="preserve">
<g id="Layer_3" display="none">
</g>
<g id="outlune">
	<polygon fill="#1D252B" points="646.946,618.774 426.475,655.857 664.2,776.034 664.2,652.446 	"/>
	<polygon fill="#1D252B" points="1088.566,193.683 1143.586,149.149 927.787,40.732 914.073,204.454 	"/>
	<linearGradient id="SVGID_1_" gradientUnits="userSpaceOnUse" x1="622.0936" y1="749.7307" x2="548.7392" y2="818.3079">
		<stop  offset="0" style="stop-color:#2A3B44"/>
		<stop  offset="0.3493" style="stop-color:#30424C"/>
		<stop  offset="0.7191" style="stop-color:#394E5B"/>
		<stop  offset="0.7604" style="stop-color:#394E5B"/>
		<stop  offset="1" style="stop-color:#394E5B"/>
	</linearGradient>
	<polygon fill="url(#SVGID_1_)" points="664.2,776.034 511.229,804.039 573.021,729.94 	"/>
	<linearGradient id="SVGID_3_" gradientUnits="userSpaceOnUse" x1="370.4804" y1="246.9418" x2="1229.7303" y2="569.3782">
		<stop  offset="0" style="stop-color:#3F5C63"/>
		<stop  offset="0.5773" style="stop-color:#3E5A61"/>
		<stop  offset="0.8507" style="stop-color:#3A5459"/>
		<stop  offset="1" style="stop-color:#364D51"/>
	</linearGradient>
	<polygon fill="url(#SVGID_3_)" points="360.432,228.856 1143.586,149.149 1209.204,644.625 426.475,655.857 	"/>
	<g>
		<path fill="#82B3BF" d="M483.437,350.342c1.016,0,1.968-0.122,2.856-0.365s1.714-0.556,2.476-0.937s1.454-0.814,2.079-1.301
			c0.624-0.486,1.169-0.973,1.635-1.46h5.3v16.25h-38.721v-13.774l4.062-0.793v-19.615l-4.062-0.793v-13.774H487.5v13.774
			l-4.062,0.793V350.342z"/>
		<path fill="#82B3BF" d="M526.449,337.487l8.792-1.872v9.046l-8.792-1.904v7.014c1.27,0,2.496-0.09,3.682-0.27
			c1.185-0.18,2.285-0.429,3.301-0.746s1.946-0.688,2.793-1.111c0.846-0.422,1.576-0.877,2.19-1.364h4.348v16.25h-39.229v-12.663
			l3.809-0.73v-17.996l-3.809-0.729v-12.568h39.229v16.25h-4.348c-0.614-0.466-1.345-0.909-2.19-1.333
			c-0.847-0.423-1.777-0.793-2.793-1.111c-1.016-0.316-2.116-0.57-3.301-0.762c-1.186-0.189-2.412-0.285-3.682-0.285V337.487z"/>
		<path fill="#82B3BF" d="M559.748,329.648c-1.1,0-2.073,0.148-2.92,0.444c-0.846,0.297-1.555,0.666-2.126,1.111
			c-0.571,0.443-1.005,0.926-1.302,1.443c-0.296,0.52-0.443,1-0.443,1.444h-5.301v-16.25h43.291v16.25h-5.301
			c0-0.444-0.147-0.925-0.443-1.444c-0.297-0.518-0.73-1-1.302-1.443c-0.571-0.445-1.28-0.814-2.126-1.111
			c-0.847-0.296-1.82-0.444-2.92-0.444v19.487l3.809,0.73v12.663h-26.725v-12.663l3.809-0.73V329.648z"/>
		<path fill="#82B3BF" d="M596.031,313.779h20.312v16.218c0,2.688-0.465,4.947-1.396,6.776c-0.931,1.831-2.158,3.312-3.682,4.443
			s-3.258,1.942-5.205,2.429c-1.946,0.486-3.936,0.729-5.967,0.729v-10.283c0.402-0.021,0.836-0.095,1.302-0.222
			c0.465-0.127,0.899-0.339,1.302-0.635c0.401-0.297,0.74-0.703,1.016-1.223c0.274-0.518,0.412-1.18,0.412-1.983h-8.094V313.779z"/>
		<path fill="#82B3BF" d="M662.307,348.469c0,1.967-0.28,3.708-0.841,5.221c-0.562,1.513-1.323,2.824-2.285,3.936
			c-0.963,1.11-2.105,2.037-3.428,2.777c-1.323,0.74-2.746,1.338-4.27,1.793s-3.115,0.719-4.776,0.793s-3.316,0.111-4.967,0.111
			c-2.285,0-4.349-0.053-6.188-0.158c-1.842-0.106-3.486-0.34-4.936-0.699c-1.45-0.359-2.729-0.756-3.841-1.189
			c-1.11-0.434-2.09-0.862-2.936-1.285v-11.014h8.981c0.889,1.396,1.904,2.423,3.047,3.078c1.143,0.656,2.317,0.984,3.523,0.984
			c0.359,0,0.762-0.031,1.206-0.096c0.444-0.062,0.856-0.264,1.237-0.603s0.704-0.862,0.969-1.571
			c0.264-0.709,0.396-1.708,0.396-2.999c-1.714-0.147-3.412-0.365-5.094-0.65c-1.683-0.286-3.291-0.672-4.824-1.159
			c-1.534-0.486-2.957-1.105-4.27-1.856c-1.312-0.751-2.449-1.661-3.411-2.729c-0.963-1.068-1.72-2.327-2.27-3.776
			c-0.551-1.449-0.825-3.116-0.825-4.999c0-2.158,0.274-4.047,0.825-5.665c0.55-1.619,1.302-3.01,2.253-4.174
			c0.953-1.163,2.079-2.126,3.381-2.888c1.301-0.762,2.702-1.365,4.205-1.81c1.502-0.444,3.067-0.757,4.697-0.937
			c1.629-0.18,3.258-0.27,4.888-0.27c2.306,0,4.374,0.117,6.205,0.35c1.83,0.232,3.47,0.529,4.919,0.889s2.729,0.756,3.841,1.189
			c1.11,0.434,2.1,0.852,2.968,1.254v11.108h-9.617c-0.805-1.523-1.725-2.634-2.762-3.333c-1.036-0.697-2.094-1.047-3.174-1.047
			c-0.359,0-0.772,0.059-1.237,0.175c-0.466,0.116-0.899,0.376-1.302,0.777c-0.401,0.402-0.74,0.995-1.016,1.777
			c-0.274,0.783-0.412,1.841-0.412,3.174c3.491,0.127,6.554,0.497,9.188,1.11c2.634,0.614,4.84,1.529,6.617,2.746
			s3.11,2.782,3.999,4.697S662.307,345.739,662.307,348.469z"/>
		<path fill="#82B3BF" d="M689.392,339.583c0-3.979,0.604-7.411,1.81-10.3c1.206-2.888,2.92-5.269,5.142-7.141
			c2.222-1.873,4.903-3.259,8.046-4.158c3.142-0.899,6.649-1.349,10.521-1.349c2.35,0,4.47,0.117,6.364,0.35
			c1.894,0.232,3.597,0.529,5.109,0.889s2.846,0.756,3.999,1.189s2.174,0.852,3.062,1.254v13.807h-8.981
			c-0.487-0.699-0.968-1.307-1.444-1.825c-0.476-0.519-0.989-0.941-1.539-1.27c-0.551-0.328-1.164-0.577-1.841-0.746
			c-0.678-0.169-1.471-0.254-2.38-0.254c-1.101,0-2.175,0.164-3.222,0.492c-1.048,0.328-1.979,0.868-2.793,1.618
			c-0.815,0.752-1.471,1.735-1.968,2.952c-0.498,1.217-0.746,2.714-0.746,4.491c0,2.073,0.201,3.771,0.604,5.094
			c0.401,1.322,0.983,2.369,1.745,3.142s1.698,1.308,2.809,1.603c1.111,0.297,2.386,0.445,3.825,0.445
			c0.762,0,1.549-0.053,2.364-0.159c0.814-0.105,1.698-0.307,2.649-0.603v-3.619h-6.379v-7.807h18.566v21.074
			c-1.565,0.656-3.227,1.27-4.982,1.84c-1.757,0.572-3.518,1.069-5.284,1.492c-1.768,0.424-3.497,0.698-5.189,0.825
			c-1.693,0.127-3.259,0.19-4.697,0.19c-3.534,0-6.835-0.424-9.902-1.27c-3.068-0.846-5.734-2.254-7.998-4.221
			c-2.265-1.969-4.042-4.449-5.332-7.443C690.038,347.173,689.392,343.645,689.392,339.583z"/>
		<path fill="#82B3BF" d="M766.523,363.1c-3.724,0-7.21-0.396-10.457-1.19c-3.248-0.793-6.073-2.158-8.475-4.094
			c-2.401-1.937-4.295-4.406-5.681-7.411c-1.387-3.004-2.079-6.611-2.079-10.822c0-4.127,0.692-7.645,2.079-10.554
			c1.386-2.909,3.284-5.278,5.696-7.109c2.412-1.829,5.237-3.168,8.475-4.015c3.237-0.846,6.718-1.27,10.441-1.27
			c3.703,0,7.179,0.424,10.427,1.27c3.247,0.847,6.083,2.186,8.506,4.015c2.422,1.831,4.332,4.2,5.729,7.109
			s2.095,6.427,2.095,10.554c0,2.793-0.317,5.326-0.952,7.601s-1.529,4.296-2.682,6.062c-1.153,1.767-2.539,3.29-4.158,4.57
			c-1.618,1.28-3.423,2.338-5.411,3.174c-1.989,0.836-4.126,1.396-6.411,1.682C771.379,362.958,769,363.1,766.523,363.1z
			 M766.523,330.156c-1.248,0-2.301,0.159-3.157,0.476c-0.857,0.318-1.566,0.73-2.127,1.238s-0.999,1.09-1.317,1.746
			c-0.316,0.656-0.545,1.328-0.682,2.015c-0.138,0.688-0.223,1.365-0.254,2.031c-0.032,0.667-0.048,1.254-0.048,1.762
			c0,0.487,0.011,1.063,0.032,1.729c0.021,0.667,0.095,1.365,0.222,2.095c0.127,0.73,0.338,1.455,0.635,2.175
			c0.296,0.719,0.725,1.364,1.285,1.936s1.28,1.031,2.158,1.381c0.878,0.349,1.963,0.523,3.253,0.523
			c1.27,0,2.344-0.169,3.222-0.508c0.878-0.338,1.598-0.788,2.158-1.349s1-1.19,1.317-1.889s0.545-1.401,0.683-2.11
			c0.137-0.709,0.222-1.402,0.254-2.079c0.031-0.677,0.048-1.259,0.048-1.745c0-0.508-0.017-1.096-0.048-1.762
			c-0.032-0.667-0.117-1.35-0.254-2.047c-0.138-0.699-0.365-1.381-0.683-2.048c-0.317-0.666-0.757-1.264-1.317-1.793
			c-0.561-0.528-1.28-0.957-2.158-1.285S767.793,330.156,766.523,330.156z"/>
		<path fill="#82B3BF" d="M821.285,317.842h26.724v12.568l-3.809,0.729v5.237h15.267v-5.237l-3.809-0.729v-12.728h26.723v12.728
			l-3.809,0.729v17.996l3.809,0.73v12.663h-26.723v-12.663l3.809-0.73v-5.301H844.2v5.301l3.809,0.73v12.663h-26.724v-12.663
			l3.809-0.73v-17.996l-3.809-0.729V317.842z"/>
		<path fill="#82B3BF" d="M890.13,317.842h26.725v12.505l-3.809,0.73v18.059l3.809,0.73v12.663H890.13v-12.663l3.809-0.73v-18.059
			l-3.809-0.73V317.842z"/>
		<path fill="#82B3BF" d="M934.919,329.648c-1.1,0-2.073,0.148-2.92,0.444c-0.846,0.297-1.555,0.666-2.126,1.111
			c-0.571,0.443-1.005,0.926-1.302,1.443c-0.296,0.52-0.443,1-0.443,1.444h-5.301v-16.25h43.291v16.25h-5.301
			c0-0.444-0.147-0.925-0.443-1.444c-0.297-0.518-0.73-1-1.302-1.443c-0.571-0.445-1.28-0.814-2.126-1.111
			c-0.847-0.296-1.82-0.444-2.92-0.444v19.487l3.809,0.73v12.663h-26.725v-12.663l3.809-0.73V329.648z"/>
		<path fill="#82B3BF" d="M469.186,394.648c-1.1,0-2.073,0.148-2.92,0.444c-0.846,0.297-1.555,0.666-2.126,1.111
			c-0.571,0.443-1.005,0.926-1.302,1.443c-0.296,0.52-0.443,1-0.443,1.444h-5.301v-16.25h43.291v16.25h-5.301
			c0-0.444-0.147-0.925-0.443-1.444c-0.297-0.518-0.73-1-1.302-1.443c-0.571-0.445-1.28-0.814-2.126-1.111
			c-0.847-0.296-1.82-0.444-2.92-0.444v19.487l3.809,0.73v12.663h-26.725v-12.663l3.809-0.73V394.648z"/>
		<path fill="#82B3BF" d="M506.327,382.842h26.724v12.568l-3.809,0.729v5.237h15.267v-5.237l-3.809-0.729v-12.728h26.723v12.728
			l-3.809,0.729v17.996l3.809,0.73v12.663H540.7v-12.663l3.809-0.73v-5.301h-15.267v5.301l3.809,0.73v12.663h-26.724v-12.663
			l3.809-0.73v-17.996l-3.809-0.729V382.842z"/>
		<path fill="#82B3BF" d="M598.057,402.487l8.792-1.872v9.046l-8.792-1.904v7.014c1.27,0,2.496-0.09,3.682-0.27
			c1.185-0.18,2.285-0.429,3.301-0.746s1.946-0.688,2.793-1.111c0.846-0.422,1.576-0.877,2.19-1.364h4.348v16.25h-39.229v-12.663
			l3.809-0.73v-17.996l-3.809-0.729v-12.568h39.229v16.25h-4.348c-0.614-0.466-1.345-0.909-2.19-1.333
			c-0.847-0.423-1.777-0.793-2.793-1.111c-1.016-0.316-2.116-0.57-3.301-0.762c-1.186-0.189-2.412-0.285-3.682-0.285V402.487z"/>
		<path fill="#82B3BF" d="M681.415,413.469c0,1.967-0.28,3.708-0.841,5.221c-0.562,1.513-1.323,2.824-2.285,3.936
			c-0.963,1.11-2.105,2.036-3.428,2.776c-1.323,0.741-2.746,1.339-4.27,1.794c-1.523,0.454-3.115,0.719-4.776,0.793
			s-3.316,0.111-4.967,0.111c-2.285,0-4.349-0.053-6.188-0.159c-1.842-0.105-3.486-0.338-4.936-0.697
			c-1.45-0.36-2.729-0.757-3.841-1.19c-1.11-0.434-2.09-0.862-2.936-1.286v-11.013h8.981c0.889,1.396,1.904,2.423,3.047,3.078
			c1.143,0.656,2.317,0.984,3.523,0.984c0.359,0,0.762-0.031,1.206-0.096c0.444-0.062,0.856-0.264,1.237-0.603
			s0.704-0.862,0.969-1.571c0.264-0.709,0.396-1.708,0.396-2.999c-1.714-0.147-3.412-0.365-5.094-0.65
			c-1.683-0.286-3.291-0.672-4.824-1.159c-1.534-0.486-2.957-1.105-4.27-1.856c-1.312-0.751-2.449-1.661-3.411-2.729
			c-0.963-1.068-1.72-2.327-2.27-3.776c-0.551-1.449-0.825-3.116-0.825-4.999c0-2.158,0.274-4.047,0.825-5.665
			c0.55-1.619,1.302-3.01,2.253-4.174c0.953-1.163,2.079-2.126,3.381-2.888c1.301-0.762,2.702-1.365,4.205-1.81
			c1.502-0.444,3.067-0.757,4.697-0.937c1.629-0.18,3.258-0.27,4.888-0.27c2.306,0,4.374,0.117,6.205,0.35
			c1.83,0.232,3.47,0.529,4.919,0.889s2.729,0.756,3.841,1.189c1.11,0.434,2.1,0.852,2.968,1.254v11.108h-9.617
			c-0.805-1.523-1.725-2.634-2.762-3.333c-1.036-0.697-2.094-1.047-3.174-1.047c-0.359,0-0.772,0.059-1.237,0.175
			c-0.466,0.116-0.899,0.376-1.302,0.777c-0.401,0.402-0.74,0.995-1.016,1.777c-0.274,0.783-0.412,1.841-0.412,3.174
			c3.491,0.127,6.554,0.497,9.188,1.11c2.634,0.614,4.84,1.529,6.617,2.746s3.11,2.782,3.999,4.697S681.415,410.739,681.415,413.469
			z"/>
		<path fill="#82B3BF" d="M703.448,404.075v10.061l3.841,0.698v12.695h-19.107v-12.663l3.809-0.73v-18.059l-3.809-0.73v-12.505
			h22.916l15.266,24.089v-10.791l-3.809-0.793v-12.505h19.074v12.505l-3.809,0.73v18.059l3.809,0.73v12.663h-22.914L703.448,404.075
			z"/>
		<path fill="#82B3BF" d="M780.61,427.529l-1.587-7.522h-12.474l-1.586,7.522h-16.98v-14.727l3.682-0.729l8.791-29.231h24.629
			l8.855,29.231l3.65,0.729v14.727H780.61z M768.486,409.977h8.601l-4.316-17.551L768.486,409.977z"/>
		<path fill="#82B3BF" d="M856.724,427.529H835.3l-8.441-18.726v18.726h-22.916v-12.663l3.809-0.73v-18.059l-3.809-0.73v-12.505
			h22.916v17.837l8.441-17.837h20.566v8.062c-1.248,1.059-2.406,2.169-3.475,3.332c-1.069,1.164-2.068,2.339-3,3.523
			c-0.931,1.186-1.788,2.349-2.57,3.491c-0.783,1.143-1.492,2.232-2.127,3.269c0.826,1.312,1.703,2.683,2.635,4.11
			c0.931,1.429,1.898,2.862,2.904,4.301c1.005,1.438,2.052,2.852,3.142,4.237s2.206,2.682,3.349,3.888V427.529z"/>
		<path fill="#82B3BF" d="M884.565,402.487l8.792-1.872v9.046l-8.792-1.904v7.014c1.27,0,2.496-0.09,3.682-0.27
			c1.185-0.18,2.285-0.429,3.301-0.746s1.946-0.688,2.793-1.111c0.846-0.422,1.576-0.877,2.19-1.364h4.348v16.25H861.65v-12.663
			l3.809-0.73v-17.996l-3.809-0.729v-12.568h39.229v16.25h-4.348c-0.614-0.466-1.345-0.909-2.19-1.333
			c-0.847-0.423-1.777-0.793-2.793-1.111c-1.016-0.316-2.116-0.57-3.301-0.762c-1.186-0.189-2.412-0.285-3.682-0.285V402.487z"/>
		<path fill="#82B3BF" d="M473.09,492.56l-12.188-31.516l-4.539-0.698v-12.505h28.978v12.505l-3.301,0.698l5.173,16.631
			l5.174-16.631l-3.301-0.698v-12.505h28.977v12.505l-3.269,0.698l5.142,16.631l5.174-16.631l-3.301-0.698v-12.663h21.963v12.663
			l-4.508,0.698l-12.188,31.516h-21.232l-5.776-17.17l-5.713,17.17H473.09z"/>
		<path fill="#82B3BF" d="M549.014,447.842h26.725v12.505l-3.809,0.729v18.06l3.809,0.729v12.664h-26.725v-12.664l3.809-0.729
			v-18.06l-3.809-0.729V447.842z"/>
		<path fill="#82B3BF" d="M593.803,459.648c-1.1,0-2.073,0.148-2.92,0.444c-0.846,0.297-1.555,0.667-2.126,1.11
			c-0.571,0.445-1.005,0.927-1.302,1.444c-0.296,0.519-0.443,1-0.443,1.444h-5.301v-16.25h43.291v16.25h-5.301
			c0-0.444-0.147-0.926-0.443-1.444c-0.297-0.518-0.73-0.999-1.302-1.444c-0.571-0.443-1.28-0.813-2.126-1.11
			c-0.847-0.296-1.82-0.444-2.92-0.444v19.487l3.809,0.729v12.664h-26.725v-12.664l3.809-0.729V459.648z"/>
		<path fill="#82B3BF" d="M630.944,447.842h26.724v12.568l-3.809,0.73v5.236h15.267v-5.236l-3.809-0.73v-12.727h26.723v12.727
			l-3.809,0.73v17.995l3.809,0.729v12.664h-26.723v-12.664l3.809-0.729v-5.3h-15.267v5.3l3.809,0.729v12.664h-26.724v-12.664
			l3.809-0.729V461.14l-3.809-0.73V447.842z"/>
		<path fill="#82B3BF" d="M731.535,459.648c-1.1,0-2.073,0.148-2.92,0.444c-0.846,0.297-1.555,0.667-2.126,1.11
			c-0.571,0.445-1.005,0.927-1.302,1.444c-0.296,0.519-0.443,1-0.443,1.444h-5.301v-16.25h43.291v16.25h-5.301
			c0-0.444-0.147-0.926-0.443-1.444c-0.297-0.518-0.73-0.999-1.302-1.444c-0.571-0.443-1.28-0.813-2.126-1.11
			c-0.847-0.296-1.82-0.444-2.92-0.444v19.487l3.809,0.729v12.664h-26.725v-12.664l3.809-0.729V459.648z"/>
		<path fill="#82B3BF" d="M768.675,447.842h26.724v12.568l-3.809,0.73v5.236h15.267v-5.236l-3.809-0.73v-12.727h26.723v12.727
			l-3.809,0.73v17.995l3.809,0.729v12.664h-26.723v-12.664l3.809-0.729v-5.3H791.59v5.3l3.809,0.729v12.664h-26.724v-12.664
			l3.809-0.729V461.14l-3.809-0.73V447.842z"/>
		<path fill="#82B3BF" d="M837.521,447.842h26.725v12.505l-3.809,0.729v18.06l3.809,0.729v12.664h-26.725v-12.664l3.809-0.729
			v-18.06l-3.809-0.729V447.842z"/>
		<path fill="#82B3BF" d="M910.907,478.469c0,1.969-0.28,3.709-0.841,5.222c-0.562,1.513-1.323,2.824-2.285,3.936
			c-0.963,1.11-2.105,2.036-3.428,2.776c-1.323,0.741-2.746,1.339-4.27,1.794c-1.523,0.454-3.115,0.719-4.776,0.793
			s-3.316,0.111-4.967,0.111c-2.285,0-4.349-0.053-6.188-0.159c-1.842-0.105-3.486-0.338-4.936-0.697
			c-1.45-0.36-2.729-0.757-3.841-1.19c-1.11-0.434-2.09-0.862-2.936-1.286v-11.013h8.981c0.889,1.396,1.904,2.423,3.047,3.079
			c1.143,0.655,2.317,0.983,3.523,0.983c0.359,0,0.762-0.032,1.206-0.095c0.444-0.064,0.856-0.265,1.237-0.604
			c0.381-0.338,0.704-0.862,0.969-1.571c0.264-0.708,0.396-1.708,0.396-2.999c-1.714-0.147-3.412-0.365-5.094-0.65
			c-1.683-0.286-3.291-0.672-4.824-1.158c-1.534-0.487-2.957-1.105-4.27-1.857c-1.312-0.751-2.449-1.66-3.411-2.729
			c-0.963-1.068-1.72-2.327-2.27-3.776c-0.551-1.449-0.825-3.115-0.825-4.999c0-2.158,0.274-4.047,0.825-5.665
			c0.55-1.619,1.302-3.01,2.253-4.174c0.953-1.163,2.079-2.127,3.381-2.889c1.301-0.762,2.702-1.364,4.205-1.809
			c1.502-0.444,3.067-0.756,4.697-0.937c1.629-0.18,3.258-0.27,4.888-0.27c2.306,0,4.374,0.116,6.205,0.349
			c1.83,0.233,3.47,0.529,4.919,0.889c1.449,0.36,2.729,0.757,3.841,1.19c1.11,0.435,2.1,0.853,2.968,1.254v11.108h-9.617
			c-0.805-1.523-1.725-2.635-2.762-3.332c-1.036-0.699-2.094-1.048-3.174-1.048c-0.359,0-0.772,0.059-1.237,0.175
			c-0.466,0.116-0.899,0.376-1.302,0.777c-0.401,0.402-0.74,0.995-1.016,1.777c-0.274,0.783-0.412,1.841-0.412,3.174
			c3.491,0.127,6.554,0.497,9.188,1.111c2.634,0.613,4.84,1.528,6.617,2.745s3.11,2.782,3.999,4.697S910.907,475.74,910.907,478.469
			z"/>
		<path fill="#82B3BF" d="M458.872,512.842h26.724v12.568l-3.809,0.73v5.236h15.267v-5.236l-3.809-0.73v-12.727h26.723v12.727
			l-3.809,0.73v17.995l3.809,0.729v12.664h-26.723v-12.664l3.809-0.729v-5.3h-15.267v5.3l3.809,0.729v12.664h-26.724v-12.664
			l3.809-0.729V526.14l-3.809-0.73V512.842z"/>
		<path fill="#82B3BF" d="M550.602,532.488l8.792-1.873v9.045l-8.792-1.904v7.015c1.27,0,2.496-0.09,3.682-0.27
			c1.185-0.18,2.285-0.429,3.301-0.746s1.946-0.688,2.793-1.11c0.846-0.424,1.576-0.878,2.19-1.365h4.348v16.25h-39.229v-12.664
			l3.809-0.729V526.14l-3.809-0.73v-12.568h39.229v16.25h-4.348c-0.614-0.465-1.345-0.909-2.19-1.333
			c-0.847-0.423-1.777-0.794-2.793-1.11c-1.016-0.318-2.116-0.572-3.301-0.762c-1.186-0.191-2.412-0.286-3.682-0.286V532.488z"/>
		<path fill="#82B3BF" d="M604.818,557.529l-1.587-7.521h-12.474l-1.586,7.521h-16.98v-14.727l3.682-0.73l8.791-29.23h24.629
			l8.855,29.23l3.65,0.73v14.727H604.818z M592.694,539.978h8.601l-4.316-17.552L592.694,539.978z"/>
		<path fill="#82B3BF" d="M638.626,557.56l-11.87-31.516l-4.539-0.698v-12.505h27.867v12.505l-3.27,0.698l5.142,17.266l5.173-17.266
			l-3.301-0.698v-12.505h23.074v12.505l-4.507,0.698l-11.87,31.516H638.626z"/>
		<path fill="#82B3BF" d="M693.697,557.529v-12.6l3.809-0.953l-13.107-17.932l-4.824-0.698v-12.505h25.486v12.505l-2.984,0.698
			l6.062,9.172l6.03-9.172l-2.983-0.698v-12.505h25.454v12.505l-4.792,0.698l-13.108,17.932l3.841,0.953v12.6H693.697z"/>
		<path fill="#82B3BF" d="M801.748,512.842c3.131,0.741,5.475,1.936,7.03,3.586c1.555,1.65,2.333,3.894,2.333,6.729
			c0,1.904-0.212,3.513-0.635,4.824c-0.424,1.312-0.958,2.392-1.604,3.238c-0.646,0.846-1.344,1.497-2.095,1.951
			c-0.751,0.455-1.449,0.789-2.095,1c-0.646,0.212-1.401,0.35-2.27,0.412c0.762,0.043,1.588,0.133,2.477,0.271
			s1.766,0.349,2.634,0.635c0.867,0.285,1.703,0.656,2.507,1.11c0.805,0.455,1.508,1.031,2.111,1.73
			c0.603,0.697,1.089,1.523,1.46,2.475c0.37,0.953,0.556,2.063,0.556,3.333c0,1.904-0.244,3.677-0.73,5.316
			c-0.487,1.64-1.349,3.058-2.587,4.253c-1.237,1.195-2.903,2.132-4.999,2.809c-2.094,0.678-4.76,1.016-7.998,1.016h-34.626v-12.664
			l3.809-0.729v-19.138l-3.809-0.73v-11.426H801.748z M795.05,526.743c0-1.079-0.174-1.909-0.523-2.491
			c-0.349-0.582-0.814-1.011-1.396-1.285c-0.582-0.275-1.237-0.434-1.968-0.477c-0.729-0.042-1.476-0.063-2.237-0.063h-2.793v9.014
			h2.793c0.762,0,1.508-0.026,2.237-0.079c0.73-0.053,1.386-0.223,1.968-0.508c0.582-0.286,1.048-0.746,1.396-1.381
			C794.877,528.838,795.05,527.928,795.05,526.743z M795.05,541.945c0-1.078-0.174-1.904-0.523-2.475
			c-0.349-0.572-0.814-0.995-1.396-1.27c-0.582-0.275-1.237-0.434-1.968-0.477c-0.729-0.042-1.476-0.063-2.237-0.063h-2.793v9.014
			h2.793c0.762,0,1.508-0.026,2.237-0.079c0.73-0.053,1.386-0.228,1.968-0.523c0.582-0.297,1.048-0.762,1.396-1.396
			C794.877,544.041,795.05,543.131,795.05,541.945z"/>
		<path fill="#82B3BF" d="M869.834,557.529h-18.979c-0.593-1.1-1.206-2.27-1.841-3.507c-0.635-1.238-1.249-2.534-1.841-3.888
			c-0.593-1.354-1.148-2.751-1.666-4.189c-0.519-1.439-0.958-2.92-1.317-4.443h-1.047v16.027h-22.916v-12.664l3.809-0.729v-18.06
			l-3.809-0.729v-12.505h25.994c3.448,0,6.427,0.148,8.935,0.444c2.507,0.297,4.634,0.729,6.379,1.302
			c1.746,0.57,3.158,1.264,4.237,2.078c1.079,0.815,1.92,1.735,2.523,2.762c0.603,1.026,1.01,2.153,1.222,3.38
			c0.211,1.228,0.317,2.528,0.317,3.903c0,1.396-0.133,2.666-0.396,3.809c-0.265,1.143-0.735,2.19-1.412,3.143
			c-0.678,0.952-1.604,1.825-2.777,2.618c-1.175,0.794-2.672,1.54-4.491,2.237c0.381,0.762,0.946,1.667,1.698,2.714
			c0.751,1.048,1.57,2.116,2.459,3.206s1.772,2.143,2.65,3.158s1.635,1.883,2.27,2.602V557.529z M843.142,532.9
			c1.163,0,2.216-0.058,3.157-0.175c0.941-0.116,1.746-0.37,2.412-0.762c0.667-0.391,1.18-0.968,1.54-1.729
			c0.359-0.762,0.539-1.788,0.539-3.078c0-1.27-0.18-2.285-0.539-3.047c-0.36-0.762-0.873-1.35-1.54-1.762
			c-0.666-0.413-1.471-0.683-2.412-0.81s-1.994-0.19-3.157-0.19V532.9z"/>
		<path fill="#82B3BF" d="M908.021,557.529l-1.587-7.521h-12.474l-1.586,7.521h-16.98v-14.727l3.682-0.73l8.791-29.23h24.629
			l8.855,29.23l3.65,0.73v14.727H908.021z M895.897,539.978h8.601l-4.316-17.552L895.897,539.978z"/>
		<path fill="#82B3BF" d="M946.62,534.074v10.062l3.841,0.698v12.695h-19.107v-12.664l3.809-0.729v-18.06l-3.809-0.729v-12.505
			h22.916l15.266,24.09V526.14l-3.809-0.794v-12.505H984.8v12.505l-3.809,0.729v18.06l3.809,0.729v12.664h-22.914L946.62,534.074z"
			/>
		<path fill="#82B3BF" d="M1010.134,534.582c0,3.365,0.857,5.814,2.57,7.348c1.715,1.534,4.147,2.301,7.301,2.301
			c1.861,0,4.046-0.232,6.554-0.697c2.507-0.466,5.337-1.175,8.489-2.127v13.807c-6.348,1.925-12.452,2.888-18.313,2.888
			c-3.64,0-7.025-0.429-10.156-1.285c-3.132-0.857-5.851-2.27-8.156-4.237c-2.307-1.968-4.121-4.448-5.443-7.442
			c-1.323-2.994-1.984-6.512-1.984-10.554c0-3.998,0.608-7.442,1.825-10.33c1.217-2.889,2.941-5.269,5.174-7.142
			c2.231-1.872,4.914-3.253,8.046-4.142c3.131-0.889,6.622-1.333,10.473-1.333c2.35,0,4.47,0.116,6.364,0.349
			c1.894,0.233,3.597,0.529,5.109,0.889c1.513,0.36,2.846,0.757,3.999,1.19c1.153,0.435,2.174,0.853,3.062,1.254v13.806h-8.981
			c-1.016-1.396-2.138-2.428-3.364-3.094c-1.228-0.667-2.508-1-3.84-1c-1.101,0-2.175,0.212-3.222,0.635
			c-1.048,0.424-1.979,1.042-2.793,1.856c-0.815,0.815-1.471,1.814-1.968,2.999C1010.382,531.705,1010.134,533.058,1010.134,534.582
			z"/>
		<path fill="#82B3BF" d="M1042.515,512.842h26.724v12.568l-3.809,0.73v5.236h15.267v-5.236l-3.809-0.73v-12.727h26.723v12.727
			l-3.809,0.73v17.995l3.809,0.729v12.664h-26.723v-12.664l3.809-0.729v-5.3h-15.267v5.3l3.809,0.729v12.664h-26.724v-12.664
			l3.809-0.729V526.14l-3.809-0.73V512.842z"/>
		<path fill="#82B3BF" d="M1111.203,521.443v-12.664h24.406v12.664l-4.062,19.836h-16.25L1111.203,521.443z M1113.265,545.342
			h20.312v12.188h-20.312V545.342z"/>
	</g>
</g>
<g id="fonts" display="none">
	<polygon display="inline" fill="#1D252B" points="646.946,618.774 426.475,655.857 664.2,776.034 664.2,652.446 	"/>
	<polygon display="inline" fill="#1D252B" points="1088.566,193.683 1143.586,149.149 927.787,40.732 914.073,204.454 	"/>
	<linearGradient id="SVGID_4_" gradientUnits="userSpaceOnUse" x1="622.0936" y1="749.7307" x2="548.7392" y2="818.3079">
		<stop  offset="0" style="stop-color:#2A3B44"/>
		<stop  offset="0.3493" style="stop-color:#30424C"/>
		<stop  offset="0.7191" style="stop-color:#394E5B"/>
		<stop  offset="0.7604" style="stop-color:#394E5B"/>
		<stop  offset="1" style="stop-color:#394E5B"/>
	</linearGradient>
	<polygon display="inline" fill="url(#SVGID_4_)" points="664.2,776.034 511.229,804.039 573.021,729.94 	"/>
	<linearGradient id="SVGID_6_" gradientUnits="userSpaceOnUse" x1="370.4804" y1="246.9418" x2="1229.7303" y2="569.3782">
		<stop  offset="0" style="stop-color:#3F5C63"/>
		<stop  offset="0.5773" style="stop-color:#3E5A61"/>
		<stop  offset="0.8507" style="stop-color:#3A5459"/>
		<stop  offset="1" style="stop-color:#364D51"/>
	</linearGradient>
	<polygon display="inline" fill="url(#SVGID_6_)" points="360.432,228.856 1143.586,149.149 1209.204,644.625 426.475,655.857 	"/>
	<rect x="455.825" y="317.777" display="inline" fill="none" width="724.017" height="312.446"/>
	<text transform="matrix(1 0 0 1 455.8248 362.5291)" display="inline"><tspan x="0" y="0" fill="#82B3BF" font-family="'HoltwoodOneSC'" font-size="65" letter-spacing="1">Let’s go hit </tspan><tspan x="0" y="65" fill="#82B3BF" font-family="'HoltwoodOneSC'" font-size="65" letter-spacing="1">the snake </tspan><tspan x="0" y="130" fill="#82B3BF" font-family="'HoltwoodOneSC'" font-size="65" letter-spacing="1">with this </tspan><tspan x="0" y="195" fill="#82B3BF" font-family="'HoltwoodOneSC'" font-size="65" letter-spacing="1">heavy branch!</tspan><tspan x="688.201" y="195" fill="#82B3BF" font-family="'HoltwoodOneSC'" font-size="65" letter-spacing="11">	</tspan></text>
</g>
</svg>
