<?xml version="1.0" encoding="utf-8"?>
<!-- Generator: Adobe Illustrator 17.0.0, SVG Export Plug-In . SVG Version: 6.00 Build 0)  -->
<!DOCTYPE svg PUBLIC "-//W3C//DTD SVG 1.1//EN" "http://www.w3.org/Graphics/SVG/1.1/DTD/svg11.dtd">
<svg version="1.1" xmlns="http://www.w3.org/2000/svg" xmlns:xlink="http://www.w3.org/1999/xlink" x="0px" y="0px" width="1600px"
	 height="900px" viewBox="0 0 1600 900" enable-background="new 0 0 1600 900" xml:space="preserve">
<g id="Layer_3" display="none">
</g>
<g id="outlune">
	<polygon fill="#A85C22" points="646.946,618.774 426.475,655.857 664.2,776.034 664.2,652.446 	"/>
	<polygon fill="#A85C22" points="1088.566,193.683 1143.586,149.149 927.787,40.732 914.073,204.454 	"/>
	<linearGradient id="SVGID_1_" gradientUnits="userSpaceOnUse" x1="622.0936" y1="749.7307" x2="548.7391" y2="818.3079">
		<stop  offset="0" style="stop-color:#B77430"/>
		<stop  offset="0.358" style="stop-color:#BF7A31"/>
		<stop  offset="0.567" style="stop-color:#C78032"/>
		<stop  offset="1" style="stop-color:#D19853"/>
	</linearGradient>
	<polygon fill="url(#SVGID_1_)" points="664.2,776.034 511.229,804.039 573.021,729.94 	"/>
	<linearGradient id="SVGID_3_" gradientUnits="userSpaceOnUse" x1="360.432" y1="402.5029" x2="1209.2041" y2="402.5029">
		<stop  offset="0" style="stop-color:#B77430"/>
		<stop  offset="0.358" style="stop-color:#BF7A31"/>
		<stop  offset="0.567" style="stop-color:#C78032"/>
		<stop  offset="1" style="stop-color:#D19853"/>
	</linearGradient>
	<polygon fill="url(#SVGID_3_)" points="360.432,228.856 1143.586,149.149 1209.204,644.625 426.475,655.857 	"/>
	<g>
		<g>
			<path fill="#FBE4A8" d="M554.176,330.342c1.438,0,2.793-0.122,4.062-0.365s2.438-0.556,3.507-0.937s2.036-0.814,2.904-1.301
				c0.867-0.486,1.629-0.974,2.285-1.46h5.301v16.25h-42.435v-13.774l4.062-0.794V308.41l-4.062-0.793v-13.838h42.435v16.25h-5.11
				c-0.678-0.466-1.46-0.941-2.349-1.429c-0.889-0.486-1.878-0.925-2.968-1.316s-2.269-0.709-3.538-0.952s-2.635-0.365-4.095-0.365
				v8.664l9.521-2.062v11.235l-9.521-2.063V330.342z"/>
			<path fill="#FBE4A8" d="M630.101,329.167l4.538,0.698v12.664h-30.246v-12.664l3.27-0.698l-6.951-5.205l-5.744,5.205l5.648,0.698
				v12.664h-23.041v-12.664l4.506-0.698l11.014-9.648l-10.728-8.474l-5.427-0.698v-12.505h29.357v12.505l-3.27,0.698l7.522,5.49
				l5.173-5.49l-5.681-0.698v-12.505h23.073v12.505l-5.395,0.698l-8.919,9.045L630.101,329.167z"/>
			<path fill="#FBE4A8" d="M658.132,319.582c0,3.364,0.857,5.813,2.57,7.348c1.715,1.534,4.147,2.301,7.301,2.301
				c1.861,0,4.046-0.232,6.554-0.698c2.507-0.465,5.337-1.174,8.489-2.126v13.806c-6.348,1.926-12.452,2.889-18.312,2.889
				c-3.64,0-7.025-0.429-10.156-1.285c-3.132-0.857-5.851-2.27-8.156-4.237c-2.307-1.968-4.121-4.448-5.443-7.442
				c-1.323-2.994-1.984-6.512-1.984-10.554c0-3.999,0.608-7.442,1.825-10.33c1.217-2.889,2.941-5.269,5.174-7.142
				c2.231-1.872,4.914-3.253,8.046-4.142c3.131-0.889,6.622-1.333,10.473-1.333c2.35,0,4.47,0.116,6.364,0.349
				c1.894,0.233,3.597,0.529,5.109,0.889c1.513,0.36,2.846,0.757,3.999,1.19s2.174,0.852,3.062,1.254v13.806h-8.981
				c-1.016-1.396-2.138-2.428-3.364-3.094c-1.228-0.667-2.508-1-3.84-1c-1.101,0-2.175,0.212-3.222,0.635
				c-1.048,0.423-1.979,1.042-2.793,1.856c-0.815,0.814-1.471,1.814-1.968,2.999C658.38,316.705,658.132,318.059,658.132,319.582z"
				/>
			<path fill="#FBE4A8" d="M713.427,317.487l8.792-1.872v9.045l-8.792-1.904v7.015c1.27,0,2.496-0.09,3.682-0.27
				c1.185-0.18,2.285-0.429,3.301-0.746s1.946-0.688,2.793-1.111c0.846-0.423,1.576-0.878,2.19-1.364h4.348v16.25h-39.229v-12.664
				l3.809-0.729V311.14l-3.809-0.729v-12.568h39.229v16.25h-4.348c-0.614-0.466-1.345-0.91-2.19-1.333
				c-0.847-0.423-1.777-0.794-2.793-1.111s-2.116-0.571-3.301-0.762c-1.186-0.19-2.412-0.285-3.682-0.285V317.487z"/>
			<path fill="#FBE4A8" d="M759.328,330.342c0.889,0,1.734-0.122,2.539-0.365c0.804-0.243,1.55-0.561,2.237-0.952
				s1.312-0.825,1.873-1.301c0.561-0.477,1.052-0.958,1.476-1.444h5.3v16.25h-36.309v-12.664l3.809-0.729v-18.06l-3.809-0.729
				v-12.505h26.725v12.505l-3.841,0.729V330.342z"/>
			<path fill="#FBE4A8" d="M801.546,330.342c0.889,0,1.734-0.122,2.539-0.365c0.804-0.243,1.55-0.561,2.237-0.952
				s1.312-0.825,1.873-1.301c0.561-0.477,1.052-0.958,1.476-1.444h5.3v16.25h-36.309v-12.664l3.809-0.729v-18.06l-3.809-0.729
				v-12.505h26.725v12.505l-3.841,0.729V330.342z"/>
			<path fill="#FBE4A8" d="M843.765,317.487l8.792-1.872v9.045l-8.792-1.904v7.015c1.27,0,2.496-0.09,3.682-0.27
				c1.185-0.18,2.285-0.429,3.301-0.746s1.946-0.688,2.793-1.111c0.846-0.423,1.576-0.878,2.19-1.364h4.348v16.25H820.85v-12.664
				l3.809-0.729V311.14l-3.809-0.729v-12.568h39.229v16.25h-4.348c-0.614-0.466-1.345-0.91-2.19-1.333
				c-0.847-0.423-1.777-0.794-2.793-1.111s-2.116-0.571-3.301-0.762c-1.186-0.19-2.412-0.285-3.682-0.285V317.487z"/>
			<path fill="#FBE4A8" d="M882.048,319.074v10.062l3.841,0.698v12.695h-19.107v-12.664l3.809-0.729v-18.06l-3.809-0.729v-12.505
				h22.916l15.266,24.089V311.14l-3.809-0.793v-12.505h19.074v12.505l-3.809,0.729v18.06l3.809,0.729v12.664h-22.914
				L882.048,319.074z"/>
			<path fill="#FBE4A8" d="M938.294,309.649c-1.1,0-2.073,0.148-2.92,0.444c-0.846,0.296-1.555,0.666-2.126,1.11
				s-1.005,0.926-1.302,1.444c-0.296,0.519-0.443,1-0.443,1.444h-5.301v-16.25h43.291v16.25h-5.301c0-0.444-0.147-0.926-0.443-1.444
				c-0.297-0.519-0.73-1-1.302-1.444s-1.28-0.814-2.126-1.11c-0.847-0.296-1.82-0.444-2.92-0.444v19.487l3.809,0.729v12.664h-26.725
				v-12.664l3.809-0.729V309.649z"/>
			<path fill="#FBE4A8" d="M975.308,306.442v-12.663h24.406v12.663l-4.062,19.837h-16.25L975.308,306.442z M977.371,330.342h20.312
				v12.188h-20.312V330.342z"/>
			<path fill="#FBE4A8" d="M572.394,358.779v16.25h-5.332c-0.36-0.466-0.772-0.941-1.238-1.429
				c-0.465-0.486-0.983-0.925-1.555-1.316s-1.195-0.709-1.873-0.952c-0.677-0.243-1.407-0.365-2.189-0.365v21.994l4.062,0.794
				v13.774h-28.438v-13.774l4.062-0.794v-21.994c-0.783,0-1.513,0.122-2.189,0.365c-0.678,0.243-1.302,0.561-1.873,0.952
				s-1.09,0.83-1.555,1.316c-0.466,0.487-0.879,0.963-1.238,1.429h-5.332v-16.25H572.394z"/>
			<path fill="#FBE4A8" d="M578.209,362.842h26.724v12.568l-3.809,0.729v5.237h15.267v-5.237l-3.809-0.729v-12.728h26.723v12.728
				l-3.809,0.729v17.996l3.809,0.729v12.664h-26.723v-12.664l3.809-0.729v-5.301h-15.267v5.301l3.809,0.729v12.664h-26.724v-12.664
				l3.809-0.729V376.14l-3.809-0.729V362.842z"/>
			<path fill="#FBE4A8" d="M669.939,382.487l8.792-1.872v9.045l-8.792-1.904v7.015c1.27,0,2.496-0.09,3.682-0.27
				c1.185-0.18,2.285-0.429,3.301-0.746s1.946-0.688,2.793-1.111c0.846-0.423,1.576-0.878,2.19-1.364h4.348v16.25h-39.229v-12.664
				l3.809-0.729V376.14l-3.809-0.729v-12.568h39.229v16.25h-4.348c-0.614-0.466-1.345-0.91-2.19-1.333
				c-0.847-0.423-1.777-0.794-2.793-1.111s-2.116-0.571-3.301-0.762c-1.186-0.19-2.412-0.285-3.682-0.285V382.487z"/>
			<path fill="#FBE4A8" d="M728.604,407.561l-12.188-31.516l-4.539-0.698v-12.505h28.978v12.505l-3.301,0.698l5.173,16.631
				l5.174-16.631l-3.301-0.698v-12.505h28.977v12.505l-3.269,0.698l5.142,16.631l5.174-16.631l-3.301-0.698v-12.664h21.963v12.664
				l-4.508,0.698l-12.188,31.516h-21.232l-5.776-17.17l-5.713,17.17H728.604z"/>
			<path fill="#FBE4A8" d="M829.601,408.101c-3.724,0-7.21-0.396-10.457-1.19c-3.248-0.793-6.073-2.158-8.475-4.094
				c-2.401-1.937-4.295-4.406-5.681-7.411c-1.387-3.005-2.079-6.612-2.079-10.823c0-4.126,0.692-7.644,2.079-10.553
				c1.386-2.909,3.284-5.279,5.696-7.109s5.237-3.168,8.475-4.015s6.718-1.27,10.441-1.27c3.703,0,7.179,0.423,10.427,1.27
				c3.247,0.847,6.083,2.185,8.506,4.015c2.422,1.83,4.332,4.2,5.729,7.109s2.095,6.427,2.095,10.553
				c0,2.793-0.317,5.327-0.952,7.602s-1.529,4.296-2.682,6.062c-1.153,1.767-2.539,3.29-4.158,4.57
				c-1.618,1.28-3.423,2.338-5.411,3.174c-1.989,0.836-4.126,1.396-6.411,1.682C834.458,407.958,832.078,408.101,829.601,408.101z
				 M829.601,375.156c-1.248,0-2.301,0.158-3.157,0.476c-0.857,0.317-1.566,0.73-2.127,1.238s-0.999,1.09-1.317,1.745
				c-0.316,0.656-0.545,1.328-0.682,2.016c-0.138,0.688-0.223,1.365-0.254,2.031c-0.032,0.667-0.048,1.254-0.048,1.762
				c0,0.486,0.011,1.063,0.032,1.729c0.021,0.667,0.095,1.365,0.222,2.095c0.127,0.73,0.338,1.455,0.635,2.174
				c0.296,0.72,0.725,1.365,1.285,1.937s1.28,1.031,2.158,1.381c0.878,0.349,1.963,0.523,3.253,0.523
				c1.27,0,2.344-0.169,3.222-0.508s1.598-0.788,2.158-1.349s1-1.19,1.317-1.889s0.545-1.401,0.683-2.11
				c0.137-0.709,0.222-1.402,0.254-2.079c0.031-0.677,0.048-1.259,0.048-1.746c0-0.508-0.017-1.095-0.048-1.761
				c-0.032-0.667-0.117-1.35-0.254-2.048c-0.138-0.698-0.365-1.38-0.683-2.047c-0.317-0.666-0.757-1.264-1.317-1.793
				s-1.28-0.957-2.158-1.285S830.871,375.156,829.601,375.156z"/>
			<path fill="#FBE4A8" d="M885.373,395.342c0.889,0,1.734-0.122,2.539-0.365c0.804-0.243,1.55-0.561,2.237-0.952
				s1.312-0.825,1.873-1.301c0.561-0.477,1.052-0.958,1.476-1.444h5.3v16.25h-36.309v-12.664l3.809-0.729v-18.06l-3.809-0.729
				v-12.505h26.725v12.505l-3.841,0.729V395.342z"/>
			<path fill="#FBE4A8" d="M927.591,383.44l8.125-1.872v9.68l-8.125-1.904v4.793l3.809,0.825v12.568h-26.724v-12.664l3.809-0.729
				V376.14l-3.809-0.729v-12.568h36.912v16.25h-5.301c-0.91-0.952-2.105-1.772-3.586-2.46c-1.481-0.688-3.186-1.031-5.11-1.031
				V383.44z"/>
			<path fill="#FBE4A8" d="M529.642,427.842h26.725v12.505l-3.809,0.729v18.06l3.809,0.729v12.664h-26.725v-12.664l3.809-0.729
				v-18.06l-3.809-0.729V427.842z"/>
			<path fill="#FBE4A8" d="M603.028,458.469c0,1.969-0.28,3.709-0.841,5.222c-0.562,1.513-1.323,2.824-2.285,3.936
				c-0.963,1.11-2.105,2.036-3.428,2.776c-1.323,0.741-2.746,1.339-4.27,1.794c-1.523,0.454-3.115,0.719-4.776,0.793
				s-3.316,0.111-4.967,0.111c-2.285,0-4.349-0.053-6.188-0.159c-1.842-0.105-3.486-0.338-4.936-0.697
				c-1.45-0.36-2.729-0.757-3.841-1.19c-1.11-0.434-2.09-0.862-2.936-1.286v-11.013h8.981c0.889,1.396,1.904,2.423,3.047,3.079
				c1.143,0.655,2.317,0.983,3.523,0.983c0.359,0,0.762-0.032,1.206-0.095c0.444-0.064,0.856-0.265,1.237-0.604
				c0.381-0.338,0.704-0.862,0.969-1.571c0.264-0.708,0.396-1.708,0.396-2.999c-1.714-0.147-3.412-0.365-5.094-0.65
				c-1.683-0.286-3.291-0.672-4.824-1.158c-1.534-0.487-2.957-1.105-4.27-1.857c-1.312-0.751-2.449-1.66-3.411-2.729
				c-0.963-1.068-1.72-2.327-2.27-3.776c-0.551-1.449-0.825-3.115-0.825-4.999c0-2.158,0.274-4.047,0.825-5.665
				c0.55-1.619,1.302-3.01,2.253-4.174c0.953-1.163,2.079-2.127,3.381-2.889c1.301-0.762,2.702-1.364,4.205-1.809
				c1.502-0.444,3.067-0.756,4.697-0.937c1.629-0.18,3.258-0.27,4.888-0.27c2.306,0,4.374,0.116,6.205,0.349
				c1.83,0.233,3.47,0.529,4.919,0.889c1.449,0.36,2.729,0.757,3.841,1.19c1.11,0.435,2.1,0.853,2.968,1.254v11.108h-9.617
				c-0.805-1.523-1.725-2.635-2.762-3.332c-1.036-0.699-2.094-1.048-3.174-1.048c-0.359,0-0.772,0.059-1.237,0.175
				c-0.466,0.116-0.899,0.376-1.302,0.777c-0.401,0.402-0.74,0.995-1.016,1.777c-0.274,0.783-0.412,1.841-0.412,3.174
				c3.491,0.127,6.554,0.497,9.188,1.111c2.634,0.613,4.84,1.528,6.617,2.745s3.11,2.782,3.999,4.697
				S603.028,455.74,603.028,458.469z"/>
			<path fill="#FBE4A8" d="M662.454,472.529l-1.587-7.521h-12.474l-1.586,7.521h-16.98v-14.727l3.682-0.73l8.791-29.23h24.629
				l8.855,29.23l3.65,0.73v14.727H662.454z M650.33,454.979h8.601l-4.316-17.552L650.33,454.979z"/>
			<path fill="#FBE4A8" d="M708.671,448.44l8.125-1.872v9.681l-8.125-1.904v4.792l3.809,0.825v12.568h-26.724v-12.664l3.809-0.729
				v-17.995l-3.809-0.73v-12.568h36.912v16.25h-5.301c-0.91-0.952-2.105-1.771-3.586-2.46c-1.481-0.688-3.186-1.031-5.11-1.031
				V448.44z"/>
			<path fill="#FBE4A8" d="M778.28,472.529H759.3c-0.593-1.1-1.206-2.27-1.841-3.507c-0.635-1.238-1.249-2.534-1.841-3.888
				c-0.593-1.354-1.148-2.751-1.666-4.189c-0.519-1.439-0.958-2.92-1.317-4.443h-1.047v16.027h-22.916v-12.664l3.809-0.729v-18.06
				l-3.809-0.729v-12.505h25.994c3.448,0,6.427,0.148,8.935,0.444c2.507,0.297,4.634,0.729,6.379,1.302
				c1.746,0.57,3.158,1.264,4.237,2.078c1.079,0.815,1.92,1.735,2.523,2.762c0.603,1.026,1.01,2.153,1.222,3.38
				c0.211,1.228,0.317,2.528,0.317,3.903c0,1.396-0.133,2.666-0.396,3.809c-0.265,1.143-0.735,2.19-1.412,3.143
				c-0.678,0.952-1.604,1.825-2.777,2.618c-1.175,0.794-2.672,1.54-4.491,2.237c0.381,0.762,0.946,1.667,1.698,2.714
				c0.751,1.048,1.57,2.116,2.459,3.206s1.772,2.143,2.65,3.158s1.635,1.883,2.27,2.602V472.529z M751.588,447.9
				c1.163,0,2.216-0.058,3.157-0.175c0.941-0.116,1.746-0.37,2.412-0.762c0.667-0.391,1.18-0.968,1.54-1.729
				c0.359-0.762,0.539-1.788,0.539-3.078c0-1.27-0.18-2.285-0.539-3.047c-0.36-0.762-0.873-1.35-1.54-1.762
				c-0.666-0.413-1.471-0.683-2.412-0.81s-1.994-0.19-3.157-0.19V447.9z"/>
			<path fill="#FBE4A8" d="M816.467,472.529l-1.587-7.521h-12.474l-1.586,7.521h-16.98v-14.727l3.682-0.73l8.791-29.23h24.629
				l8.855,29.23l3.65,0.73v14.727H816.467z M804.343,454.979h8.601l-4.316-17.552L804.343,454.979z"/>
			<path fill="#FBE4A8" d="M839.801,427.842h26.725v12.505l-3.809,0.729v18.06l3.809,0.729v12.664h-26.725v-12.664l3.809-0.729
				v-18.06l-3.809-0.729V427.842z"/>
			<path fill="#FBE4A8" d="M908.965,427.842c2.878,0.614,5.47,1.481,7.776,2.603c2.306,1.122,4.269,2.555,5.888,4.301
				c1.618,1.745,2.861,3.84,3.729,6.284c0.868,2.443,1.302,5.295,1.302,8.553c0,2.857-0.333,5.412-1,7.665
				c-0.666,2.254-1.618,4.232-2.856,5.936c-1.237,1.703-2.756,3.147-4.555,4.332c-1.798,1.186-3.824,2.147-6.077,2.888
				c-2.254,0.741-4.729,1.281-7.427,1.619c-2.698,0.339-5.57,0.508-8.617,0.508h-22.915v-12.664l3.809-0.729v-19.138l-3.809-0.73
				v-11.426H908.965z M900.047,459.136c1.417,0,2.613-0.105,3.586-0.317c0.974-0.211,1.772-0.508,2.396-0.889
				s1.111-0.857,1.46-1.428c0.35-0.572,0.604-1.207,0.762-1.904c0.159-0.699,0.249-1.471,0.271-2.317
				c0.021-0.846,0.031-1.745,0.031-2.698c0-0.951-0.011-1.851-0.031-2.697c-0.021-0.846-0.111-1.624-0.271-2.333
				c-0.158-0.708-0.412-1.343-0.762-1.904c-0.349-0.561-0.836-1.036-1.46-1.428s-1.423-0.693-2.396-0.905
				c-0.973-0.211-2.169-0.316-3.586-0.316h-2.92v19.138H900.047z"/>
			<path fill="#FBE4A8" d="M981.34,473.101c-3.724,0-7.21-0.396-10.457-1.19c-3.248-0.793-6.073-2.158-8.475-4.094
				c-2.401-1.937-4.295-4.406-5.681-7.411c-1.387-3.004-2.079-6.612-2.079-10.823c0-4.125,0.692-7.643,2.079-10.553
				c1.386-2.909,3.284-5.278,5.696-7.109c2.412-1.83,5.237-3.168,8.475-4.015c3.237-0.846,6.718-1.27,10.441-1.27
				c3.703,0,7.179,0.424,10.427,1.27c3.247,0.847,6.083,2.185,8.506,4.015c2.422,1.831,4.332,4.2,5.729,7.109
				c1.396,2.91,2.095,6.428,2.095,10.553c0,2.793-0.317,5.327-0.952,7.602c-0.635,2.275-1.529,4.296-2.682,6.062
				c-1.153,1.767-2.539,3.29-4.158,4.57c-1.618,1.28-3.423,2.338-5.411,3.174c-1.989,0.836-4.126,1.396-6.411,1.682
				C986.197,472.958,983.817,473.101,981.34,473.101z M981.34,440.156c-1.248,0-2.301,0.158-3.157,0.477
				c-0.857,0.316-1.566,0.729-2.127,1.237s-0.999,1.09-1.317,1.745c-0.316,0.656-0.545,1.328-0.682,2.016
				c-0.138,0.688-0.223,1.365-0.254,2.031c-0.032,0.667-0.048,1.254-0.048,1.762c0,0.487,0.011,1.063,0.032,1.729
				c0.021,0.667,0.095,1.365,0.222,2.095c0.127,0.73,0.338,1.455,0.635,2.174c0.296,0.72,0.725,1.365,1.285,1.937
				s1.28,1.031,2.158,1.381c0.878,0.349,1.963,0.523,3.253,0.523c1.27,0,2.344-0.169,3.222-0.508
				c0.878-0.338,1.598-0.788,2.158-1.349s1-1.19,1.317-1.889s0.545-1.401,0.683-2.11c0.137-0.709,0.222-1.401,0.254-2.079
				c0.031-0.677,0.048-1.259,0.048-1.746c0-0.508-0.017-1.095-0.048-1.761c-0.032-0.667-0.117-1.349-0.254-2.048
				c-0.138-0.697-0.365-1.38-0.683-2.047c-0.317-0.666-0.757-1.264-1.317-1.793c-0.561-0.528-1.28-0.957-2.158-1.285
				S982.61,440.156,981.34,440.156z"/>
			<path fill="#FBE4A8" d="M1037.048,448.44l8.125-1.872v9.681l-8.125-1.904v4.792l3.809,0.825v12.568h-26.724v-12.664l3.809-0.729
				v-17.995l-3.809-0.73v-12.568h36.912v16.25h-5.301c-0.91-0.952-2.105-1.771-3.586-2.46c-1.481-0.688-3.186-1.031-5.11-1.031
				V448.44z"/>
			<path fill="#FBE4A8" d="M539.925,504.649c-1.1,0-2.073,0.148-2.92,0.444c-0.846,0.297-1.555,0.667-2.126,1.11
				c-0.571,0.445-1.005,0.927-1.302,1.444c-0.296,0.519-0.443,1-0.443,1.444h-5.301v-16.25h43.291v16.25h-5.301
				c0-0.444-0.147-0.926-0.443-1.444c-0.297-0.518-0.73-0.999-1.302-1.444c-0.571-0.443-1.28-0.813-2.126-1.11
				c-0.847-0.296-1.82-0.444-2.92-0.444v19.487l3.809,0.729v12.664h-26.725v-12.664l3.809-0.729V504.649z"/>
			<path fill="#FBE4A8" d="M577.066,492.842h26.724v12.568l-3.809,0.73v5.236h15.267v-5.236l-3.809-0.73v-12.727h26.723v12.727
				l-3.809,0.73v17.995l3.809,0.729v12.664h-26.723v-12.664l3.809-0.729v-5.3h-15.267v5.3l3.809,0.729v12.664h-26.724v-12.664
				l3.809-0.729v-17.995l-3.809-0.73V492.842z"/>
			<path fill="#FBE4A8" d="M668.796,512.488l8.792-1.873v9.045l-8.792-1.904v7.015c1.27,0,2.496-0.09,3.682-0.27
				c1.185-0.18,2.285-0.429,3.301-0.746s1.946-0.688,2.793-1.11c0.846-0.424,1.576-0.878,2.19-1.365h4.348v16.25h-39.229v-12.664
				l3.809-0.729v-17.995l-3.809-0.73v-12.568h39.229v16.25h-4.348c-0.614-0.465-1.345-0.909-2.19-1.333
				c-0.847-0.423-1.777-0.794-2.793-1.11c-1.016-0.318-2.116-0.572-3.301-0.762c-1.186-0.191-2.412-0.286-3.682-0.286V512.488z"/>
			<path fill="#FBE4A8" d="M736.158,513.44l8.125-1.872v9.681l-8.125-1.904v4.792l3.809,0.825v12.568h-26.724v-12.664l3.809-0.729
				v-17.995l-3.809-0.73v-12.568h36.912v16.25h-5.301c-0.91-0.952-2.105-1.771-3.586-2.46c-1.481-0.688-3.186-1.031-5.11-1.031
				V513.44z"/>
			<path fill="#FBE4A8" d="M756.159,492.842h26.725v12.505l-3.809,0.729v18.06l3.809,0.729v12.664h-26.725v-12.664l3.809-0.729
				v-18.06l-3.809-0.729V492.842z"/>
			<path fill="#FBE4A8" d="M840.272,537.529h-18.979c-0.593-1.1-1.206-2.27-1.841-3.507c-0.635-1.238-1.249-2.534-1.841-3.888
				c-0.593-1.354-1.148-2.751-1.666-4.189c-0.519-1.439-0.958-2.92-1.317-4.443h-1.047v16.027h-22.916v-12.664l3.809-0.729v-18.06
				l-3.809-0.729v-12.505h25.994c3.448,0,6.427,0.148,8.935,0.444c2.507,0.297,4.634,0.729,6.379,1.302
				c1.746,0.57,3.158,1.264,4.237,2.078c1.079,0.815,1.92,1.735,2.523,2.762c0.603,1.026,1.01,2.153,1.222,3.38
				c0.211,1.228,0.317,2.528,0.317,3.903c0,1.396-0.133,2.666-0.396,3.809c-0.265,1.143-0.735,2.19-1.412,3.143
				c-0.678,0.952-1.604,1.825-2.777,2.618c-1.175,0.794-2.672,1.54-4.491,2.237c0.381,0.762,0.946,1.667,1.698,2.714
				c0.751,1.048,1.57,2.116,2.459,3.206s1.772,2.143,2.65,3.158s1.635,1.883,2.27,2.602V537.529z M813.581,512.9
				c1.163,0,2.216-0.058,3.157-0.175c0.941-0.116,1.746-0.37,2.412-0.762c0.667-0.391,1.18-0.968,1.54-1.729
				c0.359-0.762,0.539-1.788,0.539-3.078c0-1.27-0.18-2.285-0.539-3.047c-0.36-0.762-0.873-1.35-1.54-1.762
				c-0.666-0.413-1.471-0.683-2.412-0.81s-1.994-0.19-3.157-0.19V512.9z"/>
			<path fill="#FBE4A8" d="M870.144,512.488l8.792-1.873v9.045l-8.792-1.904v7.015c1.27,0,2.496-0.09,3.682-0.27
				c1.185-0.18,2.285-0.429,3.301-0.746s1.946-0.688,2.793-1.11c0.846-0.424,1.576-0.878,2.19-1.365h4.348v16.25h-39.229v-12.664
				l3.809-0.729v-17.995l-3.809-0.73v-12.568h39.229v16.25h-4.348c-0.614-0.465-1.345-0.909-2.19-1.333
				c-0.847-0.423-1.777-0.794-2.793-1.11c-1.016-0.318-2.116-0.572-3.301-0.762c-1.186-0.191-2.412-0.286-3.682-0.286V512.488z"/>
			<path fill="#FBE4A8" d="M893.003,501.443v-12.664h24.406v12.664l-4.062,19.836h-16.25L893.003,501.443z M895.065,525.342h20.312
				v12.188h-20.312V525.342z"/>
		</g>
	</g>
</g>
<g id="fonts" display="none">
	<polygon display="inline" fill="#A85C22" points="646.946,618.774 426.475,655.857 664.2,776.034 664.2,652.446 	"/>
	<polygon display="inline" fill="#A85C22" points="1088.566,193.683 1143.586,149.149 927.787,40.732 914.073,204.454 	"/>
	<linearGradient id="SVGID_4_" gradientUnits="userSpaceOnUse" x1="622.0936" y1="749.7307" x2="548.7391" y2="818.3079">
		<stop  offset="0" style="stop-color:#B77430"/>
		<stop  offset="0.358" style="stop-color:#BF7A31"/>
		<stop  offset="0.567" style="stop-color:#C78032"/>
		<stop  offset="1" style="stop-color:#D19853"/>
	</linearGradient>
	<polygon display="inline" fill="url(#SVGID_4_)" points="664.2,776.034 511.229,804.039 573.021,729.94 	"/>
	<linearGradient id="SVGID_6_" gradientUnits="userSpaceOnUse" x1="360.432" y1="402.5029" x2="1209.2041" y2="402.5029">
		<stop  offset="0" style="stop-color:#B77430"/>
		<stop  offset="0.358" style="stop-color:#BF7A31"/>
		<stop  offset="0.567" style="stop-color:#C78032"/>
		<stop  offset="1" style="stop-color:#D19853"/>
	</linearGradient>
	<polygon display="inline" fill="url(#SVGID_6_)" points="360.432,228.856 1143.586,149.149 1209.204,644.625 426.475,655.857 	"/>
	<g display="inline">
		<rect x="526.564" y="297.777" fill="none" width="700.065" height="312.446"/>
		<text transform="matrix(1 0 0 1 526.564 342.5291)"><tspan x="0" y="0" fill="#FBE4A8" font-family="'HoltwoodOneSC'" font-size="65" letter-spacing="1">Excellent! </tspan><tspan x="0" y="65" fill="#FBE4A8" font-family="'HoltwoodOneSC'" font-size="65" letter-spacing="1">The wolf </tspan><tspan x="0" y="130" fill="#FBE4A8" font-family="'HoltwoodOneSC'" font-size="65" letter-spacing="1">is afraid of </tspan><tspan x="0" y="195" fill="#FBE4A8" font-family="'HoltwoodOneSC'" font-size="65" letter-spacing="1">the fire!</tspan></text>
	</g>
</g>
</svg>
