<?xml version="1.0" encoding="utf-8"?>
<!-- Generator: Adobe Illustrator 17.0.0, SVG Export Plug-In . SVG Version: 6.00 Build 0)  -->
<!DOCTYPE svg PUBLIC "-//W3C//DTD SVG 1.1//EN" "http://www.w3.org/Graphics/SVG/1.1/DTD/svg11.dtd">
<svg version="1.1" xmlns="http://www.w3.org/2000/svg" xmlns:xlink="http://www.w3.org/1999/xlink" x="0px" y="0px" width="1600px"
	 height="900px" viewBox="0 0 1600 900" enable-background="new 0 0 1600 900" xml:space="preserve">
<g id="Layer_3" display="none">
</g>
<g id="outlune">
	<polygon fill="#1D252B" points="646.946,618.774 426.475,655.857 664.2,776.034 664.2,652.446 	"/>
	<polygon fill="#1D252B" points="1088.566,193.683 1143.586,149.149 927.787,40.732 914.073,204.454 	"/>
	<linearGradient id="SVGID_1_" gradientUnits="userSpaceOnUse" x1="622.0936" y1="749.7307" x2="548.7392" y2="818.3079">
		<stop  offset="0" style="stop-color:#2A3B44"/>
		<stop  offset="0.3493" style="stop-color:#30424C"/>
		<stop  offset="0.7191" style="stop-color:#394E5B"/>
		<stop  offset="0.7604" style="stop-color:#394E5B"/>
		<stop  offset="1" style="stop-color:#394E5B"/>
	</linearGradient>
	<polygon fill="url(#SVGID_1_)" points="664.2,776.034 511.229,804.039 573.021,729.94 	"/>
	<linearGradient id="SVGID_3_" gradientUnits="userSpaceOnUse" x1="370.4804" y1="246.9418" x2="1229.7303" y2="569.3782">
		<stop  offset="0" style="stop-color:#3F5C63"/>
		<stop  offset="0.5773" style="stop-color:#3E5A61"/>
		<stop  offset="0.8507" style="stop-color:#3A5459"/>
		<stop  offset="1" style="stop-color:#364D51"/>
	</linearGradient>
	<polygon fill="url(#SVGID_3_)" points="360.432,228.856 1143.586,149.149 1209.204,644.625 426.475,655.857 	"/>
	<g>
		<path fill="#82B3BF" d="M438.962,297.902h27.562v13.412l-3.938,0.769v5.814h15.75v-5.814l-3.938-0.769v-13.412h27.562v13.412
			l-3.938,0.769v18.949l3.938,0.77v13.351H474.4v-13.351l3.938-0.77v-6.183h-15.75v6.183l3.938,0.77v13.351h-27.562v-13.351
			l3.938-0.77v-18.949l-3.938-0.769V297.902z"/>
		<path fill="#82B3BF" d="M531.838,323.957v21.195H509.66v-12.274l3.691-0.707v-17.504l-3.691-0.707v-12.12h22.179l9.321,16.55
			l9.229-16.55h22.179v12.12l-3.691,0.707v17.504l3.691,0.707v12.274h-22.179v-21.195l-9.229,15.627L531.838,323.957z"/>
		<path fill="#82B3BF" d="M602.29,323.957v21.195h-22.179v-12.274l3.691-0.707v-17.504l-3.691-0.707v-12.12h22.179l9.321,16.55
			l9.229-16.55h22.179v12.12l-3.691,0.707v17.504l3.691,0.707v12.274h-22.179v-21.195l-9.229,15.627L602.29,323.957z"/>
		<path fill="#82B3BF" d="M650.775,329.402h19.688v15.75h-19.688V329.402z M678.06,329.402h19.688v15.75H678.06V329.402z
			 M705.346,329.402h19.688v15.75h-19.688V329.402z"/>
		<path fill="#82B3BF" d="M471.231,408.152l-1.66-7.937h-12.859l-1.63,7.937h-17.503v-15.504l3.783-0.77l9.074-30.977h25.41
			l9.105,30.977l3.783,0.77v15.504H471.231z M459.358,389.664h7.566l-3.783-17.811L459.358,389.664z"/>
		<path fill="#82B3BF" d="M553.101,364.84c3.035,0.718,5.307,1.876,6.813,3.476c1.508,1.6,2.261,3.773,2.261,6.521
			c0,1.846-0.205,3.404-0.615,4.676c-0.41,1.272-0.928,2.318-1.553,3.138c-0.626,0.82-1.303,1.451-2.03,1.893
			c-0.729,0.44-1.405,0.764-2.03,0.969c-0.626,0.205-1.359,0.338-2.199,0.399c0.738,0.042,1.537,0.129,2.398,0.262
			c0.861,0.134,1.713,0.339,2.554,0.615c0.841,0.277,1.65,0.636,2.431,1.077c0.778,0.44,1.461,0.999,2.045,1.676
			c0.585,0.677,1.057,1.477,1.415,2.399s0.538,2,0.538,3.23c0,1.846-0.235,3.563-0.707,5.152c-0.472,1.59-1.308,2.964-2.507,4.122
			c-1.2,1.159-2.815,2.066-4.845,2.723c-2.031,0.656-4.615,0.984-7.752,0.984h-33.562v-12.274l3.691-0.707v-18.55l-3.691-0.707
			V364.84H553.101z M546.611,378.313c0-1.046-0.17-1.851-0.508-2.415c-0.339-0.563-0.79-0.979-1.354-1.246
			c-0.564-0.266-1.2-0.42-1.907-0.461c-0.708-0.041-1.431-0.062-2.169-0.062h-2.707v8.736h2.707c0.738,0,1.461-0.025,2.169-0.077
			c0.707-0.051,1.343-0.215,1.907-0.492c0.563-0.276,1.015-0.723,1.354-1.338C546.441,380.344,546.611,379.462,546.611,378.313z
			 M546.611,393.048c0-1.046-0.17-1.846-0.508-2.399c-0.339-0.554-0.79-0.964-1.354-1.23c-0.564-0.266-1.2-0.42-1.907-0.461
			c-0.708-0.041-1.431-0.062-2.169-0.062h-2.707v8.736h2.707c0.738,0,1.461-0.025,2.169-0.077c0.707-0.051,1.343-0.22,1.907-0.508
			c0.563-0.287,1.015-0.738,1.354-1.354C546.441,395.078,546.611,394.197,546.611,393.048z"/>
		<path fill="#82B3BF" d="M619.09,408.152h-18.396c-0.574-1.066-1.169-2.199-1.784-3.399c-0.615-1.199-1.21-2.456-1.784-3.769
			c-0.574-1.312-1.112-2.665-1.615-4.061c-0.503-1.395-0.928-2.83-1.276-4.307h-1.016v15.535H571.01v-12.274l3.691-0.707v-17.504
			l-3.691-0.707v-12.12h25.193c3.343,0,6.229,0.144,8.659,0.431c2.431,0.287,4.491,0.707,6.184,1.261
			c1.691,0.554,3.061,1.226,4.106,2.016c1.046,0.789,1.861,1.682,2.445,2.676c0.585,0.995,0.979,2.087,1.185,3.276
			s0.308,2.45,0.308,3.783c0,1.354-0.128,2.584-0.385,3.691s-0.713,2.123-1.369,3.046s-1.553,1.769-2.691,2.538
			c-1.138,0.769-2.589,1.491-4.353,2.168c0.369,0.738,0.918,1.615,1.646,2.631c0.728,1.015,1.523,2.051,2.385,3.106
			c0.861,1.057,1.717,2.076,2.568,3.061c0.851,0.984,1.584,1.826,2.199,2.522V408.152z M593.219,384.281
			c1.128,0,2.148-0.057,3.062-0.169c0.912-0.113,1.691-0.359,2.338-0.738c0.646-0.38,1.143-0.938,1.491-1.677
			s0.523-1.733,0.523-2.984c0-1.23-0.175-2.215-0.523-2.953s-0.846-1.307-1.491-1.707c-0.646-0.399-1.426-0.661-2.338-0.784
			c-0.913-0.123-1.934-0.185-3.062-0.185V384.281z"/>
		<path fill="#82B3BF" d="M656.103,408.152l-1.538-7.291h-12.089l-1.539,7.291H624.48v-14.273l3.568-0.708l8.521-28.331h23.871
			l8.582,28.331l3.537,0.708v14.273H656.103z M644.352,391.141h8.337l-4.184-17.011L644.352,391.141z"/>
		<path fill="#82B3BF" d="M693.516,385.419v9.752l3.722,0.677v12.305H678.72v-12.274l3.691-0.707v-17.504l-3.691-0.707v-12.12
			h22.209l14.797,23.348v-10.459l-3.691-0.769v-12.12h18.488v12.12l-3.691,0.707v17.504l3.691,0.707v12.274h-22.211L693.516,385.419
			z"/>
		<path fill="#82B3BF" d="M755.077,385.911c0,3.261,0.83,5.635,2.492,7.122c1.66,1.486,4.019,2.229,7.074,2.229
			c1.805,0,3.923-0.226,6.353-0.677c2.431-0.45,5.173-1.138,8.229-2.061v13.382c-6.152,1.866-12.069,2.799-17.75,2.799
			c-3.527,0-6.809-0.415-9.844-1.246c-3.035-0.83-5.671-2.199-7.906-4.106s-3.994-4.312-5.275-7.214
			c-1.281-2.901-1.922-6.311-1.922-10.229c0-3.876,0.589-7.213,1.769-10.013c1.179-2.799,2.85-5.106,5.014-6.921
			c2.164-1.815,4.763-3.153,7.798-4.015s6.419-1.292,10.152-1.292c2.275,0,4.332,0.112,6.167,0.338
			c1.835,0.227,3.486,0.513,4.953,0.861c1.466,0.35,2.758,0.733,3.876,1.154c1.117,0.42,2.107,0.825,2.969,1.215v13.381h-8.706
			c-0.984-1.354-2.071-2.353-3.261-2.999c-1.189-0.646-2.43-0.969-3.723-0.969c-1.066,0-2.106,0.205-3.122,0.615
			c-1.015,0.41-1.918,1.01-2.707,1.8c-0.789,0.789-1.426,1.758-1.907,2.906C755.318,383.123,755.077,384.434,755.077,385.911z"/>
		<path fill="#82B3BF" d="M786.46,364.84h25.901v12.182l-3.691,0.707v5.076h14.796v-5.076l-3.691-0.707v-12.336h25.902v12.336
			l-3.691,0.707v17.442l3.691,0.707v12.274h-25.902v-12.274l3.691-0.707v-5.138h-14.796v5.138l3.691,0.707v12.274H786.46v-12.274
			l3.691-0.707v-17.442l-3.691-0.707V364.84z"/>
		<path fill="#82B3BF" d="M896.169,384.804l7.875-1.814v9.382l-7.875-1.846v4.646l3.691,0.8v12.182h-25.901v-12.274l3.691-0.707
			v-17.442l-3.691-0.707V364.84h35.775v15.75h-5.137c-0.882-0.923-2.041-1.718-3.477-2.384c-1.436-0.667-3.086-1-4.952-1V384.804z"
			/>
		<path fill="#82B3BF" d="M963.635,408.152H945.24c-0.574-1.066-1.169-2.199-1.784-3.399c-0.615-1.199-1.21-2.456-1.784-3.769
			c-0.574-1.312-1.112-2.665-1.615-4.061c-0.503-1.395-0.928-2.83-1.276-4.307h-1.016v15.535h-22.209v-12.274l3.691-0.707v-17.504
			l-3.691-0.707v-12.12h25.193c3.343,0,6.229,0.144,8.659,0.431c2.431,0.287,4.491,0.707,6.184,1.261
			c1.691,0.554,3.061,1.226,4.106,2.016c1.046,0.789,1.861,1.682,2.445,2.676c0.585,0.995,0.979,2.087,1.185,3.276
			s0.308,2.45,0.308,3.783c0,1.354-0.128,2.584-0.385,3.691s-0.713,2.123-1.369,3.046s-1.553,1.769-2.691,2.538
			c-1.138,0.769-2.589,1.491-4.353,2.168c0.369,0.738,0.918,1.615,1.646,2.631c0.728,1.015,1.523,2.051,2.385,3.106
			c0.861,1.057,1.717,2.076,2.568,3.061c0.851,0.984,1.584,1.826,2.199,2.522V408.152z M937.764,384.281
			c1.128,0,2.148-0.057,3.062-0.169c0.912-0.113,1.691-0.359,2.338-0.738c0.646-0.38,1.143-0.938,1.491-1.677
			s0.523-1.733,0.523-2.984c0-1.23-0.175-2.215-0.523-2.953s-0.846-1.307-1.491-1.707c-0.646-0.399-1.426-0.661-2.338-0.784
			c-0.913-0.123-1.934-0.185-3.062-0.185V384.281z"/>
		<path fill="#82B3BF" d="M994.866,408.706c-3.61,0-6.988-0.385-10.137-1.153c-3.148-0.77-5.886-2.092-8.213-3.969
			c-2.328-1.876-4.164-4.271-5.507-7.183s-2.015-6.409-2.015-10.49c0-3.999,0.672-7.408,2.015-10.228
			c1.343-2.82,3.185-5.117,5.522-6.891c2.338-1.774,5.075-3.071,8.213-3.892s6.511-1.23,10.121-1.23c3.588,0,6.956,0.41,10.104,1.23
			s5.896,2.117,8.244,3.892c2.349,1.773,4.199,4.07,5.553,6.891c1.354,2.819,2.03,6.229,2.03,10.228
			c0,2.707-0.308,5.163-0.923,7.368c-0.615,2.204-1.481,4.163-2.6,5.875c-1.118,1.713-2.461,3.189-4.029,4.43
			c-1.569,1.241-3.317,2.267-5.245,3.076c-1.928,0.811-3.999,1.354-6.214,1.631C999.572,408.567,997.264,408.706,994.866,408.706z
			 M994.866,376.775c-1.211,0-2.23,0.153-3.062,0.461c-0.83,0.308-1.518,0.708-2.061,1.2c-0.544,0.492-0.97,1.057-1.276,1.691
			c-0.309,0.636-0.528,1.287-0.662,1.954c-0.134,0.666-0.215,1.322-0.246,1.969c-0.03,0.646-0.046,1.215-0.046,1.707
			c0,0.472,0.01,1.03,0.03,1.677c0.021,0.646,0.093,1.322,0.216,2.03c0.123,0.707,0.328,1.41,0.615,2.106
			c0.287,0.697,0.702,1.323,1.246,1.877c0.543,0.554,1.24,1,2.092,1.338c0.851,0.339,1.901,0.508,3.153,0.508
			c1.23,0,2.271-0.164,3.122-0.492c0.851-0.328,1.548-0.764,2.092-1.308c0.543-0.543,0.969-1.153,1.276-1.83
			s0.527-1.358,0.661-2.046c0.134-0.687,0.216-1.358,0.246-2.015c0.031-0.656,0.046-1.22,0.046-1.692
			c0-0.492-0.015-1.061-0.046-1.707c-0.03-0.646-0.112-1.308-0.246-1.984s-0.354-1.338-0.661-1.983
			c-0.308-0.646-0.733-1.226-1.276-1.738c-0.544-0.513-1.241-0.928-2.092-1.246C997.136,376.934,996.096,376.775,994.866,376.775z"
			/>
		<path fill="#82B3BF" d="M1048.919,386.957v21.195h-22.179v-12.274l3.691-0.707v-17.504l-3.691-0.707v-12.12h22.179l9.321,16.55
			l9.229-16.55h22.179v12.12l-3.691,0.707v17.504l3.691,0.707v12.274h-22.179v-21.195l-9.229,15.627L1048.919,386.957z"/>
		<path fill="#82B3BF" d="M448.776,439.283c-1.067,0-2.011,0.144-2.83,0.431c-0.821,0.287-1.508,0.646-2.062,1.077
			c-0.554,0.43-0.975,0.896-1.261,1.399c-0.288,0.503-0.432,0.969-0.432,1.399h-5.137v-15.75h41.959v15.75h-5.137
			c0-0.431-0.145-0.896-0.432-1.399s-0.707-0.97-1.261-1.399c-0.554-0.432-1.241-0.79-2.062-1.077s-1.764-0.431-2.83-0.431v18.888
			l3.691,0.708v12.273h-25.9v-12.273l3.691-0.708V439.283z"/>
		<path fill="#82B3BF" d="M484.773,427.84h25.901v12.182l-3.691,0.707v5.076h14.796v-5.076l-3.691-0.707v-12.336h25.902v12.336
			l-3.691,0.707v17.442l3.691,0.708v12.273h-25.902v-12.273l3.691-0.708v-5.138h-14.796v5.138l3.691,0.708v12.273h-25.901v-12.273
			l3.691-0.708v-17.442l-3.691-0.707V427.84z"/>
		<path fill="#82B3BF" d="M581.74,471.152l-1.538-7.291h-12.089l-1.539,7.291h-16.457v-14.273l3.568-0.707l8.521-28.332h23.871
			l8.582,28.332l3.537,0.707v14.273H581.74z M569.989,454.141h8.337l-4.184-17.011L569.989,454.141z"/>
		<path fill="#82B3BF" d="M611.707,439.283c-1.067,0-2.011,0.144-2.83,0.431c-0.821,0.287-1.508,0.646-2.062,1.077
			c-0.554,0.43-0.975,0.896-1.261,1.399c-0.288,0.503-0.432,0.969-0.432,1.399h-5.137v-15.75h41.959v15.75h-5.137
			c0-0.431-0.145-0.896-0.432-1.399s-0.707-0.97-1.261-1.399c-0.554-0.432-1.241-0.79-2.062-1.077s-1.764-0.431-2.83-0.431v18.888
			l3.691,0.708v12.273h-25.9v-12.273l3.691-0.708V439.283z"/>
		<path fill="#82B3BF" d="M702.128,427.84c2.788,0.595,5.301,1.436,7.536,2.522s4.138,2.477,5.706,4.168
			c1.569,1.692,2.773,3.723,3.615,6.091c0.84,2.369,1.261,5.133,1.261,8.291c0,2.768-0.323,5.244-0.969,7.429
			c-0.646,2.184-1.569,4.102-2.769,5.752c-1.2,1.651-2.672,3.051-4.414,4.199c-1.744,1.148-3.707,2.082-5.892,2.8
			c-2.184,0.718-4.583,1.24-7.198,1.568c-2.614,0.328-5.398,0.492-8.352,0.492h-22.21v-12.273l3.691-0.708v-18.55l-3.691-0.707
			V427.84H702.128z M693.484,458.171c1.374,0,2.532-0.103,3.477-0.308c0.942-0.205,1.717-0.492,2.322-0.861
			c0.604-0.369,1.076-0.83,1.415-1.385c0.338-0.553,0.584-1.168,0.738-1.846c0.153-0.676,0.24-1.425,0.261-2.245
			s0.031-1.692,0.031-2.614c0-0.924-0.011-1.795-0.031-2.615s-0.107-1.573-0.261-2.261c-0.154-0.688-0.4-1.303-0.738-1.846
			c-0.339-0.543-0.811-1.005-1.415-1.385c-0.605-0.379-1.38-0.671-2.322-0.876c-0.944-0.205-2.103-0.309-3.477-0.309h-2.83v18.55
			H693.484z"/>
		<path fill="#82B3BF" d="M748.401,446.881l8.521-1.814v8.768l-8.521-1.846v6.798c1.23,0,2.42-0.087,3.568-0.262
			c1.148-0.174,2.215-0.415,3.199-0.723s1.887-0.666,2.707-1.077c0.82-0.409,1.527-0.851,2.122-1.322h4.215v15.75h-38.021v-12.273
			l3.691-0.708v-17.442l-3.691-0.707V427.84h38.021v15.75h-4.215c-0.595-0.451-1.302-0.882-2.122-1.292s-1.723-0.769-2.707-1.077
			c-0.984-0.307-2.051-0.553-3.199-0.738c-1.148-0.184-2.338-0.276-3.568-0.276V446.881z"/>
		<path fill="#82B3BF" d="M800.948,471.152l-1.538-7.291h-12.089l-1.539,7.291h-16.457v-14.273l3.568-0.707l8.521-28.332h23.871
			l8.582,28.332l3.537,0.707v14.273H800.948z M789.197,454.141h8.337l-4.184-17.011L789.197,454.141z"/>
		<path fill="#82B3BF" d="M857.155,427.84c2.788,0.595,5.301,1.436,7.536,2.522s4.138,2.477,5.706,4.168
			c1.569,1.692,2.773,3.723,3.615,6.091c0.84,2.369,1.261,5.133,1.261,8.291c0,2.768-0.323,5.244-0.969,7.429
			c-0.646,2.184-1.569,4.102-2.769,5.752c-1.2,1.651-2.672,3.051-4.414,4.199c-1.744,1.148-3.707,2.082-5.892,2.8
			c-2.184,0.718-4.583,1.24-7.198,1.568c-2.614,0.328-5.398,0.492-8.352,0.492h-22.21v-12.273l3.691-0.708v-18.55l-3.691-0.707
			V427.84H857.155z M848.51,458.171c1.374,0,2.532-0.103,3.477-0.308c0.942-0.205,1.717-0.492,2.322-0.861
			c0.604-0.369,1.076-0.83,1.415-1.385c0.338-0.553,0.584-1.168,0.738-1.846c0.153-0.676,0.24-1.425,0.261-2.245
			s0.031-1.692,0.031-2.614c0-0.924-0.011-1.795-0.031-2.615s-0.107-1.573-0.261-2.261c-0.154-0.688-0.4-1.303-0.738-1.846
			c-0.339-0.543-0.811-1.005-1.415-1.385c-0.605-0.379-1.38-0.671-2.322-0.876c-0.944-0.205-2.103-0.309-3.477-0.309h-2.83v18.55
			H848.51z"/>
		<path fill="#82B3BF" d="M912.54,439.283c-1.067,0-2.011,0.144-2.83,0.431c-0.821,0.287-1.508,0.646-2.062,1.077
			c-0.554,0.43-0.975,0.896-1.261,1.399c-0.288,0.503-0.432,0.969-0.432,1.399h-5.137v-15.75h41.959v15.75h-5.137
			c0-0.431-0.145-0.896-0.432-1.399s-0.707-0.97-1.261-1.399c-0.554-0.432-1.241-0.79-2.062-1.077s-1.764-0.431-2.83-0.431v18.888
			l3.691,0.708v12.273h-25.9v-12.273l3.691-0.708V439.283z"/>
		<path fill="#82B3BF" d="M996.648,471.152h-18.396c-0.574-1.066-1.169-2.199-1.784-3.399c-0.615-1.199-1.21-2.455-1.784-3.769
			c-0.574-1.312-1.112-2.665-1.615-4.061c-0.503-1.394-0.928-2.83-1.276-4.307h-1.016v15.535h-22.209v-12.273l3.691-0.708v-17.503
			l-3.691-0.708v-12.12h25.193c3.343,0,6.229,0.144,8.659,0.431c2.431,0.287,4.491,0.708,6.184,1.261
			c1.691,0.555,3.061,1.227,4.106,2.016s1.861,1.682,2.445,2.676c0.585,0.995,0.979,2.087,1.185,3.276s0.308,2.451,0.308,3.784
			c0,1.354-0.128,2.584-0.385,3.691s-0.713,2.122-1.369,3.045s-1.553,1.769-2.691,2.538c-1.138,0.769-2.589,1.491-4.353,2.169
			c0.369,0.738,0.918,1.614,1.646,2.63c0.728,1.015,1.523,2.051,2.385,3.106c0.861,1.057,1.717,2.076,2.568,3.061
			c0.851,0.984,1.584,1.826,2.199,2.523V471.152z M970.777,447.281c1.128,0,2.148-0.057,3.062-0.169
			c0.912-0.112,1.691-0.358,2.338-0.738c0.646-0.38,1.143-0.938,1.491-1.677s0.523-1.732,0.523-2.984
			c0-1.23-0.175-2.215-0.523-2.953s-0.846-1.307-1.491-1.707c-0.646-0.399-1.426-0.661-2.338-0.784
			c-0.913-0.123-1.934-0.185-3.062-0.185V447.281z"/>
		<path fill="#82B3BF" d="M1025.601,446.881l8.521-1.814v8.768l-8.521-1.846v6.798c1.23,0,2.42-0.087,3.568-0.262
			c1.148-0.174,2.215-0.415,3.199-0.723s1.887-0.666,2.707-1.077c0.82-0.409,1.527-0.851,2.122-1.322h4.215v15.75h-38.022v-12.273
			l3.691-0.708v-17.442l-3.691-0.707V427.84h38.022v15.75h-4.215c-0.595-0.451-1.302-0.882-2.122-1.292s-1.723-0.769-2.707-1.077
			c-0.984-0.307-2.051-0.553-3.199-0.738c-1.148-0.184-2.338-0.276-3.568-0.276V446.881z"/>
		<path fill="#82B3BF" d="M1070.088,446.881l8.521-1.814v8.768l-8.521-1.846v6.798c1.23,0,2.42-0.087,3.568-0.262
			c1.148-0.174,2.215-0.415,3.199-0.723s1.887-0.666,2.707-1.077c0.82-0.409,1.527-0.851,2.122-1.322h4.215v15.75h-38.021v-12.273
			l3.691-0.708v-17.442l-3.691-0.707V427.84h38.021v15.75h-4.215c-0.595-0.451-1.302-0.882-2.122-1.292s-1.723-0.769-2.707-1.077
			c-0.984-0.307-2.051-0.553-3.199-0.738c-1.148-0.184-2.338-0.276-3.568-0.276V446.881z"/>
		<path fill="#82B3BF" d="M456.251,511.912c0,3.26,0.83,5.634,2.492,7.121c1.66,1.487,4.019,2.23,7.074,2.23
			c1.805,0,3.923-0.226,6.353-0.678c2.431-0.45,5.173-1.138,8.229-2.061v13.381c-6.152,1.867-12.069,2.8-17.75,2.8
			c-3.527,0-6.809-0.415-9.844-1.246c-3.035-0.83-5.671-2.199-7.906-4.106s-3.994-4.312-5.275-7.214
			c-1.281-2.901-1.922-6.311-1.922-10.228c0-3.877,0.589-7.214,1.769-10.014c1.179-2.799,2.85-5.106,5.014-6.921
			c2.164-1.815,4.763-3.153,7.798-4.015s6.419-1.292,10.152-1.292c2.275,0,4.332,0.113,6.167,0.339s3.486,0.513,4.953,0.861
			c1.466,0.349,2.758,0.733,3.876,1.153c1.117,0.42,2.107,0.825,2.969,1.215v13.382h-8.706c-0.984-1.354-2.071-2.354-3.261-3
			c-1.189-0.646-2.43-0.969-3.723-0.969c-1.066,0-2.106,0.205-3.122,0.615c-1.015,0.41-1.918,1.011-2.707,1.8
			s-1.426,1.759-1.907,2.907S456.251,510.435,456.251,511.912z"/>
		<path fill="#82B3BF" d="M512.12,534.706c-3.61,0-6.988-0.385-10.137-1.153c-3.148-0.77-5.886-2.092-8.213-3.969
			c-2.328-1.876-4.164-4.271-5.507-7.183s-2.015-6.408-2.015-10.489c0-4,0.672-7.409,2.015-10.229s3.185-5.117,5.522-6.891
			s5.075-3.071,8.213-3.892s6.511-1.23,10.121-1.23c3.588,0,6.956,0.41,10.104,1.23s5.896,2.118,8.244,3.892
			s4.199,4.071,5.553,6.891s2.03,6.229,2.03,10.229c0,2.707-0.308,5.163-0.923,7.367s-1.481,4.163-2.6,5.875
			c-1.118,1.713-2.461,3.189-4.029,4.43c-1.569,1.241-3.317,2.267-5.245,3.076c-1.928,0.811-3.999,1.354-6.214,1.631
			C516.826,534.567,514.518,534.706,512.12,534.706z M512.12,502.775c-1.211,0-2.23,0.154-3.062,0.461
			c-0.83,0.309-1.518,0.708-2.061,1.2c-0.544,0.492-0.97,1.057-1.276,1.692c-0.309,0.636-0.528,1.287-0.662,1.953
			s-0.215,1.322-0.246,1.969c-0.03,0.646-0.046,1.215-0.046,1.707c0,0.472,0.01,1.03,0.03,1.677c0.021,0.646,0.093,1.322,0.216,2.03
			c0.123,0.707,0.328,1.41,0.615,2.107s0.702,1.322,1.246,1.876c0.543,0.554,1.24,1,2.092,1.338
			c0.851,0.339,1.901,0.508,3.153,0.508c1.23,0,2.271-0.164,3.122-0.492c0.851-0.328,1.548-0.764,2.092-1.308
			c0.543-0.543,0.969-1.153,1.276-1.83s0.527-1.358,0.661-2.046c0.134-0.687,0.216-1.358,0.246-2.015
			c0.031-0.656,0.046-1.22,0.046-1.691c0-0.492-0.015-1.062-0.046-1.708c-0.03-0.646-0.112-1.308-0.246-1.983
			c-0.134-0.678-0.354-1.339-0.661-1.984c-0.308-0.646-0.733-1.226-1.276-1.738c-0.544-0.513-1.241-0.928-2.092-1.246
			C514.39,502.934,513.35,502.775,512.12,502.775z"/>
		<path fill="#82B3BF" d="M591.706,503.668c-0.021,0.615-0.03,1.215-0.03,1.799c0,0.585,0,1.144,0,1.677v4.769
			c0,4.102-0.564,7.613-1.692,10.535c-1.128,2.923-2.656,5.317-4.583,7.184c-1.929,1.866-4.189,3.179-6.783,3.938
			c-2.595,0.758-5.348,1.138-8.26,1.138c-3.363,0-6.506-0.38-9.429-1.138c-2.922-0.759-5.465-2.077-7.629-3.953
			c-2.164-1.877-3.865-4.271-5.106-7.184c-1.241-2.911-1.861-6.418-1.861-10.52v-8.244l-3.691-0.708v-12.12h24.025v12.12
			l-3.691,0.708v3.66c0,0.492,0,0.989,0,1.492s0.005,0.969,0.016,1.399c0.01,0.431,0.016,0.805,0.016,1.123s0,0.528,0,0.63
			c0,0.473,0.01,1.021,0.03,1.646s0.103,1.271,0.246,1.938c0.144,0.667,0.364,1.323,0.661,1.969
			c0.297,0.646,0.718,1.226,1.262,1.738c0.543,0.513,1.23,0.928,2.061,1.246c0.831,0.318,1.861,0.477,3.092,0.477
			s2.271-0.158,3.122-0.477s1.549-0.738,2.092-1.262c0.543-0.522,0.97-1.112,1.276-1.769c0.309-0.656,0.528-1.317,0.662-1.984
			c0.133-0.666,0.215-1.312,0.246-1.938c0.03-0.626,0.046-1.174,0.046-1.646c0-0.144,0-0.374,0-0.692s-0.005-0.688-0.016-1.107
			s-0.015-0.872-0.015-1.354s0-0.959,0-1.431v-3.66l-3.691-0.708v-12.12h21.348v12.12L591.706,503.668z"/>
		<path fill="#82B3BF" d="M623.981,522.34c0.861,0,1.682-0.118,2.461-0.354s1.502-0.543,2.169-0.923
			c0.666-0.38,1.271-0.8,1.814-1.262c0.543-0.461,1.021-0.928,1.431-1.399h5.138v15.75h-35.191v-12.273l3.691-0.708v-17.503
			l-3.691-0.708v-12.12h25.9v12.12l-3.722,0.708V522.34z"/>
		<path fill="#82B3BF" d="M676.313,490.84c2.788,0.595,5.301,1.436,7.536,2.522s4.138,2.477,5.706,4.168
			c1.569,1.692,2.773,3.723,3.615,6.091c0.84,2.369,1.261,5.133,1.261,8.291c0,2.768-0.323,5.244-0.969,7.429
			c-0.646,2.184-1.569,4.102-2.769,5.752c-1.2,1.651-2.672,3.051-4.414,4.199c-1.744,1.148-3.707,2.082-5.892,2.8
			c-2.184,0.718-4.583,1.24-7.198,1.568c-2.614,0.328-5.398,0.492-8.352,0.492h-22.21v-12.273l3.691-0.708v-18.55l-3.691-0.707
			V490.84H676.313z M667.669,521.171c1.374,0,2.532-0.103,3.477-0.308c0.942-0.205,1.717-0.492,2.322-0.861
			c0.604-0.369,1.076-0.83,1.415-1.385c0.338-0.553,0.584-1.168,0.738-1.846c0.153-0.676,0.24-1.425,0.261-2.245
			s0.031-1.692,0.031-2.614c0-0.924-0.011-1.795-0.031-2.615s-0.107-1.573-0.261-2.261c-0.154-0.688-0.4-1.303-0.738-1.846
			c-0.339-0.543-0.811-1.005-1.415-1.385c-0.605-0.379-1.38-0.671-2.322-0.876c-0.944-0.205-2.103-0.309-3.477-0.309h-2.83v18.55
			H667.669z"/>
		<path fill="#82B3BF" d="M758.983,490.84c3.035,0.718,5.307,1.877,6.813,3.477c1.508,1.6,2.261,3.773,2.261,6.521
			c0,1.846-0.205,3.404-0.615,4.676s-0.928,2.317-1.553,3.137c-0.626,0.821-1.303,1.451-2.03,1.893
			c-0.729,0.441-1.405,0.764-2.03,0.969c-0.626,0.205-1.359,0.338-2.199,0.4c0.738,0.041,1.537,0.128,2.398,0.261
			c0.861,0.134,1.713,0.339,2.554,0.615c0.841,0.277,1.65,0.636,2.431,1.077c0.778,0.441,1.461,1,2.045,1.676
			c0.585,0.678,1.057,1.477,1.415,2.4c0.358,0.922,0.538,1.999,0.538,3.229c0,1.846-0.235,3.563-0.707,5.152
			c-0.472,1.59-1.308,2.964-2.507,4.122c-1.2,1.159-2.815,2.066-4.845,2.723c-2.031,0.656-4.615,0.984-7.752,0.984h-33.562v-12.273
			l3.691-0.708v-18.55l-3.691-0.707V490.84H758.983z M752.493,504.313c0-1.046-0.17-1.851-0.508-2.415
			c-0.339-0.563-0.79-0.979-1.354-1.246c-0.564-0.266-1.2-0.42-1.907-0.461c-0.708-0.041-1.431-0.062-2.169-0.062h-2.707v8.736
			h2.707c0.738,0,1.461-0.025,2.169-0.077c0.707-0.051,1.343-0.215,1.907-0.492c0.563-0.276,1.015-0.723,1.354-1.338
			C752.323,506.344,752.493,505.462,752.493,504.313z M752.493,519.049c0-1.047-0.17-1.846-0.508-2.4
			c-0.339-0.553-0.79-0.963-1.354-1.23c-0.564-0.266-1.2-0.42-1.907-0.461c-0.708-0.041-1.431-0.062-2.169-0.062h-2.707v8.736h2.707
			c0.738,0,1.461-0.025,2.169-0.077c0.707-0.051,1.343-0.22,1.907-0.508c0.563-0.286,1.015-0.738,1.354-1.354
			C752.323,521.078,752.493,520.197,752.493,519.049z"/>
		<path fill="#82B3BF" d="M799.073,509.881l8.521-1.814v8.768l-8.521-1.846v6.798c1.23,0,2.42-0.087,3.568-0.262
			c1.148-0.174,2.215-0.415,3.199-0.723s1.887-0.666,2.707-1.077c0.82-0.409,1.527-0.851,2.122-1.322h4.215v15.75h-38.021v-12.273
			l3.691-0.708v-17.442l-3.691-0.707V490.84h38.021v15.75h-4.215c-0.595-0.451-1.302-0.882-2.122-1.292s-1.723-0.769-2.707-1.077
			c-0.984-0.307-2.051-0.553-3.199-0.738c-1.148-0.184-2.338-0.276-3.568-0.276V509.881z"/>
		<path fill="#82B3BF" d="M889.955,503.668c-0.021,0.615-0.03,1.215-0.03,1.799c0,0.585,0,1.144,0,1.677v4.769
			c0,4.102-0.564,7.613-1.692,10.535c-1.128,2.923-2.656,5.317-4.583,7.184c-1.929,1.866-4.189,3.179-6.783,3.938
			c-2.595,0.758-5.348,1.138-8.26,1.138c-3.363,0-6.506-0.38-9.429-1.138c-2.922-0.759-5.465-2.077-7.629-3.953
			c-2.164-1.877-3.865-4.271-5.106-7.184c-1.241-2.911-1.861-6.418-1.861-10.52v-8.244l-3.691-0.708v-12.12h24.025v12.12
			l-3.691,0.708v3.66c0,0.492,0,0.989,0,1.492s0.005,0.969,0.016,1.399c0.01,0.431,0.016,0.805,0.016,1.123s0,0.528,0,0.63
			c0,0.473,0.01,1.021,0.03,1.646s0.103,1.271,0.246,1.938c0.144,0.667,0.364,1.323,0.661,1.969
			c0.297,0.646,0.718,1.226,1.262,1.738c0.543,0.513,1.23,0.928,2.061,1.246c0.831,0.318,1.861,0.477,3.092,0.477
			s2.271-0.158,3.122-0.477s1.549-0.738,2.092-1.262c0.543-0.522,0.97-1.112,1.276-1.769c0.309-0.656,0.528-1.317,0.662-1.984
			c0.133-0.666,0.215-1.312,0.246-1.938c0.03-0.626,0.046-1.174,0.046-1.646c0-0.144,0-0.374,0-0.692s-0.005-0.688-0.016-1.107
			s-0.015-0.872-0.015-1.354s0-0.959,0-1.431v-3.66l-3.691-0.708v-12.12h21.348v12.12L889.955,503.668z"/>
		<path fill="#82B3BF" d="M937.735,520.525c0,1.906-0.272,3.594-0.815,5.06c-0.543,1.467-1.281,2.738-2.215,3.814
			c-0.934,1.077-2.041,1.975-3.322,2.692s-2.66,1.297-4.137,1.737c-1.477,0.441-3.021,0.697-4.63,0.77
			c-1.61,0.071-3.215,0.107-4.814,0.107c-2.215,0-4.214-0.052-5.999-0.153c-1.783-0.104-3.379-0.329-4.783-0.678
			c-1.404-0.348-2.646-0.732-3.722-1.153c-1.077-0.42-2.025-0.835-2.846-1.245v-10.675h8.706c0.861,1.354,1.846,2.349,2.953,2.983
			c1.107,0.637,2.245,0.954,3.414,0.954c0.349,0,0.738-0.03,1.169-0.093c0.431-0.061,0.831-0.256,1.2-0.584s0.681-0.835,0.938-1.522
			s0.385-1.656,0.385-2.907c-1.661-0.144-3.307-0.354-4.938-0.631c-1.63-0.276-3.188-0.65-4.676-1.123
			c-1.487-0.471-2.866-1.071-4.137-1.799c-1.272-0.728-2.374-1.61-3.308-2.646s-1.666-2.256-2.199-3.661
			c-0.533-1.404-0.8-3.02-0.8-4.845c0-2.092,0.267-3.922,0.8-5.491c0.533-1.568,1.261-2.917,2.185-4.045
			c0.922-1.128,2.015-2.061,3.275-2.799c1.262-0.738,2.62-1.323,4.076-1.754s2.974-0.733,4.553-0.907s3.158-0.262,4.737-0.262
			c2.235,0,4.24,0.113,6.014,0.339s3.363,0.513,4.769,0.861c1.404,0.349,2.646,0.733,3.722,1.153
			c1.077,0.42,2.035,0.825,2.876,1.215v10.767h-9.32c-0.779-1.477-1.672-2.553-2.676-3.23c-1.006-0.676-2.031-1.015-3.076-1.015
			c-0.35,0-0.749,0.057-1.2,0.169c-0.451,0.113-0.872,0.364-1.261,0.754c-0.391,0.39-0.719,0.964-0.984,1.723
			c-0.268,0.759-0.4,1.784-0.4,3.076c3.384,0.123,6.353,0.482,8.905,1.076c2.554,0.596,4.691,1.482,6.414,2.661
			c1.723,1.18,3.015,2.697,3.876,4.553C937.304,515.629,937.735,517.879,937.735,520.525z"/>
		<path fill="#82B3BF" d="M966.472,509.881l8.521-1.814v8.768l-8.521-1.846v6.798c1.23,0,2.42-0.087,3.568-0.262
			c1.148-0.174,2.215-0.415,3.199-0.723s1.887-0.666,2.707-1.077c0.82-0.409,1.527-0.851,2.122-1.322h4.215v15.75h-38.021v-12.273
			l3.691-0.708v-17.442l-3.691-0.707V490.84h38.021v15.75h-4.215c-0.595-0.451-1.302-0.882-2.122-1.292s-1.723-0.769-2.707-1.077
			c-0.984-0.307-2.051-0.553-3.199-0.738c-1.148-0.184-2.338-0.276-3.568-0.276V509.881z"/>
		<path fill="#82B3BF" d="M1022.373,490.84c2.788,0.595,5.301,1.436,7.536,2.522s4.138,2.477,5.706,4.168
			c1.569,1.692,2.773,3.723,3.615,6.091c0.84,2.369,1.261,5.133,1.261,8.291c0,2.768-0.323,5.244-0.969,7.429
			c-0.646,2.184-1.569,4.102-2.769,5.752c-1.2,1.651-2.672,3.051-4.414,4.199c-1.744,1.148-3.707,2.082-5.892,2.8
			c-2.184,0.718-4.583,1.24-7.198,1.568c-2.614,0.328-5.398,0.492-8.352,0.492h-22.21v-12.273l3.691-0.708v-18.55l-3.691-0.707
			V490.84H1022.373z M1013.728,521.171c1.374,0,2.532-0.103,3.477-0.308c0.942-0.205,1.717-0.492,2.322-0.861
			c0.604-0.369,1.076-0.83,1.415-1.385c0.338-0.553,0.584-1.168,0.738-1.846c0.153-0.676,0.24-1.425,0.261-2.245
			s0.031-1.692,0.031-2.614c0-0.924-0.011-1.795-0.031-2.615s-0.107-1.573-0.261-2.261c-0.154-0.688-0.4-1.303-0.738-1.846
			c-0.339-0.543-0.811-1.005-1.415-1.385c-0.605-0.379-1.38-0.671-2.322-0.876c-0.944-0.205-2.103-0.309-3.477-0.309h-2.83v18.55
			H1013.728z"/>
		<path fill="#82B3BF" d="M469.047,597.152l-1.538-7.291H455.42l-1.539,7.291h-16.457v-14.273l3.568-0.707l8.521-28.332h23.871
			l8.582,28.332l3.537,0.707v14.273H469.047z M457.296,580.141h8.337l-4.184-17.011L457.296,580.141z"/>
		<path fill="#82B3BF" d="M529.04,583.525c0,1.906-0.272,3.594-0.815,5.06c-0.543,1.467-1.281,2.738-2.215,3.814
			c-0.934,1.077-2.041,1.975-3.322,2.692s-2.66,1.297-4.137,1.737c-1.477,0.441-3.021,0.697-4.63,0.77
			c-1.61,0.071-3.215,0.107-4.814,0.107c-2.215,0-4.214-0.052-5.999-0.153c-1.783-0.104-3.379-0.329-4.783-0.678
			c-1.404-0.348-2.646-0.732-3.722-1.153c-1.077-0.42-2.025-0.835-2.846-1.245v-10.675h8.706c0.861,1.354,1.846,2.349,2.953,2.983
			c1.107,0.637,2.245,0.954,3.414,0.954c0.349,0,0.738-0.03,1.169-0.093c0.431-0.061,0.831-0.256,1.2-0.584s0.681-0.835,0.938-1.522
			s0.385-1.656,0.385-2.907c-1.661-0.144-3.307-0.354-4.938-0.631c-1.63-0.276-3.188-0.65-4.676-1.123
			c-1.487-0.471-2.866-1.071-4.137-1.799c-1.272-0.728-2.374-1.61-3.308-2.646s-1.666-2.256-2.199-3.661
			c-0.533-1.404-0.8-3.02-0.8-4.845c0-2.092,0.267-3.922,0.8-5.491c0.533-1.568,1.261-2.917,2.185-4.045
			c0.922-1.128,2.015-2.061,3.275-2.799c1.262-0.738,2.62-1.323,4.076-1.754s2.974-0.733,4.553-0.907s3.158-0.262,4.737-0.262
			c2.235,0,4.24,0.113,6.014,0.339s3.363,0.513,4.769,0.861c1.404,0.349,2.646,0.733,3.722,1.153
			c1.077,0.42,2.035,0.825,2.876,1.215v10.767h-9.32c-0.779-1.477-1.672-2.553-2.676-3.23c-1.006-0.676-2.031-1.015-3.076-1.015
			c-0.35,0-0.749,0.057-1.2,0.169c-0.451,0.113-0.872,0.364-1.261,0.754c-0.391,0.39-0.719,0.964-0.984,1.723
			c-0.268,0.759-0.4,1.784-0.4,3.076c3.384,0.123,6.353,0.482,8.905,1.076c2.554,0.596,4.691,1.482,6.414,2.661
			c1.723,1.18,3.015,2.697,3.876,4.553C528.609,578.629,529.04,580.879,529.04,583.525z"/>
		<path fill="#82B3BF" d="M586.637,597.152l-1.538-7.291H573.01l-1.539,7.291h-16.457v-14.273l3.568-0.707l8.521-28.332h23.871
			l8.582,28.332l3.537,0.707v14.273H586.637z M574.886,580.141h8.337l-4.184-17.011L574.886,580.141z"/>
		<path fill="#82B3BF" d="M663.647,553.84c2.788,0.595,5.301,1.436,7.536,2.522s4.138,2.477,5.706,4.168
			c1.569,1.692,2.773,3.723,3.615,6.091c0.84,2.369,1.261,5.133,1.261,8.291c0,2.768-0.323,5.244-0.969,7.429
			c-0.646,2.184-1.569,4.102-2.769,5.752c-1.2,1.651-2.672,3.051-4.414,4.199c-1.744,1.148-3.707,2.082-5.892,2.8
			c-2.184,0.718-4.583,1.24-7.198,1.568c-2.614,0.328-5.398,0.492-8.352,0.492h-22.21v-12.273l3.691-0.708v-18.55l-3.691-0.707
			V553.84H663.647z M655.003,584.171c1.374,0,2.532-0.103,3.477-0.308c0.942-0.205,1.717-0.492,2.322-0.861
			c0.604-0.369,1.076-0.83,1.415-1.385c0.338-0.553,0.584-1.168,0.738-1.846c0.153-0.676,0.24-1.425,0.261-2.245
			s0.031-1.692,0.031-2.614c0-0.924-0.011-1.795-0.031-2.615s-0.107-1.573-0.261-2.261c-0.154-0.688-0.4-1.303-0.738-1.846
			c-0.339-0.543-0.811-1.005-1.415-1.385c-0.605-0.379-1.38-0.671-2.322-0.876c-0.944-0.205-2.103-0.309-3.477-0.309h-2.83v18.55
			H655.003z"/>
		<path fill="#82B3BF" d="M709.919,572.881l8.521-1.814v8.768l-8.521-1.846v6.798c1.23,0,2.42-0.087,3.568-0.262
			c1.148-0.174,2.215-0.415,3.199-0.723s1.887-0.666,2.707-1.077c0.82-0.409,1.527-0.851,2.122-1.322h4.215v15.75H687.71v-12.273
			l3.691-0.708v-17.442l-3.691-0.707V553.84h38.021v15.75h-4.215c-0.595-0.451-1.302-0.882-2.122-1.292s-1.723-0.769-2.707-1.077
			c-0.984-0.307-2.051-0.553-3.199-0.738c-1.148-0.184-2.338-0.276-3.568-0.276V572.881z"/>
		<path fill="#82B3BF" d="M762.466,597.152l-1.538-7.291h-12.089l-1.539,7.291h-16.457v-14.273l3.568-0.707l8.521-28.332h23.871
			l8.582,28.332l3.537,0.707v14.273H762.466z M750.715,580.141h8.337l-4.184-17.011L750.715,580.141z"/>
		<path fill="#82B3BF" d="M818.673,553.84c2.788,0.595,5.301,1.436,7.536,2.522s4.138,2.477,5.706,4.168
			c1.569,1.692,2.773,3.723,3.615,6.091c0.84,2.369,1.261,5.133,1.261,8.291c0,2.768-0.323,5.244-0.969,7.429
			c-0.646,2.184-1.569,4.102-2.769,5.752c-1.2,1.651-2.672,3.051-4.414,4.199c-1.744,1.148-3.707,2.082-5.892,2.8
			c-2.184,0.718-4.583,1.24-7.198,1.568c-2.614,0.328-5.398,0.492-8.352,0.492h-22.21v-12.273l3.691-0.708v-18.55l-3.691-0.707
			V553.84H818.673z M810.029,584.171c1.374,0,2.532-0.103,3.477-0.308c0.942-0.205,1.717-0.492,2.322-0.861
			c0.604-0.369,1.076-0.83,1.415-1.385c0.338-0.553,0.584-1.168,0.738-1.846c0.153-0.676,0.24-1.425,0.261-2.245
			s0.031-1.692,0.031-2.614c0-0.924-0.011-1.795-0.031-2.615s-0.107-1.573-0.261-2.261c-0.154-0.688-0.4-1.303-0.738-1.846
			c-0.339-0.543-0.811-1.005-1.415-1.385c-0.605-0.379-1.38-0.671-2.322-0.876c-0.944-0.205-2.103-0.309-3.477-0.309h-2.83v18.55
			H810.029z"/>
		<path fill="#82B3BF" d="M864.976,585.34c0.861,0,1.682-0.118,2.461-0.354s1.502-0.543,2.169-0.923
			c0.666-0.38,1.271-0.8,1.814-1.262c0.543-0.461,1.021-0.928,1.431-1.399h5.138v15.75h-35.191v-12.273l3.691-0.708v-17.503
			l-3.691-0.708v-12.12h25.9v12.12l-3.722,0.708V585.34z"/>
		<path fill="#82B3BF" d="M891.499,597.152v-12.213l3.691-0.922l-12.705-17.381l-4.676-0.677v-12.12h24.701v12.12l-2.891,0.677
			l5.875,8.891l5.845-8.891l-2.892-0.677v-12.12h24.671v12.12l-4.646,0.677l-12.704,17.381l3.722,0.922v12.213H891.499z"/>
		<path fill="#82B3BF" d="M976.413,574.912c0,3.26,0.83,5.634,2.492,7.121c1.66,1.487,4.019,2.23,7.074,2.23
			c1.805,0,3.923-0.226,6.353-0.678c2.431-0.45,5.173-1.138,8.229-2.061v13.381c-6.152,1.867-12.069,2.8-17.75,2.8
			c-3.527,0-6.809-0.415-9.844-1.246c-3.035-0.83-5.671-2.199-7.906-4.106s-3.994-4.312-5.275-7.214
			c-1.281-2.901-1.922-6.311-1.922-10.228c0-3.877,0.589-7.214,1.769-10.014c1.179-2.799,2.85-5.106,5.014-6.921
			c2.164-1.815,4.763-3.153,7.798-4.015s6.419-1.292,10.152-1.292c2.275,0,4.332,0.113,6.167,0.339s3.486,0.513,4.953,0.861
			c1.466,0.349,2.758,0.733,3.876,1.153c1.117,0.42,2.107,0.825,2.969,1.215v13.382h-8.706c-0.984-1.354-2.071-2.354-3.261-3
			c-1.189-0.646-2.43-0.969-3.723-0.969c-1.066,0-2.106,0.205-3.122,0.615c-1.015,0.41-1.918,1.011-2.707,1.8
			s-1.426,1.759-1.907,2.907S976.413,573.435,976.413,574.912z"/>
		<path fill="#82B3BF" d="M1030.005,585.34c0.861,0,1.682-0.118,2.461-0.354s1.502-0.543,2.169-0.923
			c0.666-0.38,1.271-0.8,1.814-1.262c0.543-0.461,1.021-0.928,1.431-1.399h5.138v15.75h-35.191v-12.273l3.691-0.708v-17.503
			l-3.691-0.708v-12.12h25.9v12.12l-3.722,0.708V585.34z"/>
		<path fill="#82B3BF" d="M1094.765,566.668c-0.021,0.615-0.03,1.215-0.03,1.799c0,0.585,0,1.144,0,1.677v4.769
			c0,4.102-0.564,7.613-1.692,10.535c-1.128,2.923-2.656,5.317-4.583,7.184c-1.929,1.866-4.189,3.179-6.783,3.938
			c-2.595,0.758-5.348,1.138-8.26,1.138c-3.363,0-6.506-0.38-9.429-1.138c-2.922-0.759-5.465-2.077-7.629-3.953
			c-2.164-1.877-3.865-4.271-5.106-7.184c-1.241-2.911-1.861-6.418-1.861-10.52v-8.244l-3.691-0.708v-12.12h24.025v12.12
			l-3.691,0.708v3.66c0,0.492,0,0.989,0,1.492s0.005,0.969,0.016,1.399c0.01,0.431,0.016,0.805,0.016,1.123s0,0.528,0,0.63
			c0,0.473,0.01,1.021,0.03,1.646s0.103,1.271,0.246,1.938c0.144,0.667,0.364,1.323,0.661,1.969
			c0.297,0.646,0.718,1.226,1.262,1.738c0.543,0.513,1.23,0.928,2.061,1.246c0.831,0.318,1.861,0.477,3.092,0.477
			s2.271-0.158,3.122-0.477s1.549-0.738,2.092-1.262c0.543-0.522,0.97-1.112,1.276-1.769c0.309-0.656,0.528-1.317,0.662-1.984
			c0.133-0.666,0.215-1.312,0.246-1.938c0.03-0.626,0.046-1.174,0.046-1.646c0-0.144,0-0.374,0-0.692s-0.005-0.688-0.016-1.107
			s-0.015-0.872-0.015-1.354s0-0.959,0-1.431v-3.66l-3.691-0.708v-12.12h21.348v12.12L1094.765,566.668z"/>
		<path fill="#82B3BF" d="M1142.113,553.84c3.035,0.718,5.307,1.877,6.813,3.477c1.508,1.6,2.261,3.773,2.261,6.521
			c0,1.846-0.205,3.404-0.615,4.676s-0.928,2.317-1.553,3.137c-0.626,0.821-1.303,1.451-2.03,1.893
			c-0.729,0.441-1.405,0.764-2.03,0.969c-0.626,0.205-1.359,0.338-2.199,0.4c0.738,0.041,1.537,0.128,2.398,0.261
			c0.861,0.134,1.713,0.339,2.554,0.615c0.841,0.277,1.65,0.636,2.431,1.077c0.778,0.441,1.461,1,2.045,1.676
			c0.585,0.678,1.057,1.477,1.415,2.4c0.358,0.922,0.538,1.999,0.538,3.229c0,1.846-0.235,3.563-0.707,5.152
			c-0.472,1.59-1.308,2.964-2.507,4.122c-1.2,1.159-2.815,2.066-4.845,2.723c-2.031,0.656-4.615,0.984-7.752,0.984h-33.562v-12.273
			l3.691-0.708v-18.55l-3.691-0.707V553.84H1142.113z M1135.623,567.313c0-1.046-0.17-1.851-0.508-2.415
			c-0.339-0.563-0.79-0.979-1.354-1.246c-0.564-0.266-1.2-0.42-1.907-0.461c-0.708-0.041-1.431-0.062-2.169-0.062h-2.707v8.736
			h2.707c0.738,0,1.461-0.025,2.169-0.077c0.707-0.051,1.343-0.215,1.907-0.492c0.563-0.276,1.015-0.723,1.354-1.338
			C1135.453,569.344,1135.623,568.462,1135.623,567.313z M1135.623,582.049c0-1.047-0.17-1.846-0.508-2.4
			c-0.339-0.553-0.79-0.963-1.354-1.23c-0.564-0.266-1.2-0.42-1.907-0.461c-0.708-0.041-1.431-0.062-2.169-0.062h-2.707v8.736h2.707
			c0.738,0,1.461-0.025,2.169-0.077c0.707-0.051,1.343-0.22,1.907-0.508c0.563-0.286,1.015-0.738,1.354-1.354
			C1135.453,584.078,1135.623,583.197,1135.623,582.049z"/>
		<path fill="#82B3BF" d="M1160.208,581.402h19.688v15.75h-19.688V581.402z"/>
	</g>
</g>
<g id="fonts" display="none">
	<polygon display="inline" fill="#1D252B" points="646.946,618.774 426.475,655.857 664.2,776.034 664.2,652.446 	"/>
	<polygon display="inline" fill="#1D252B" points="1088.566,193.683 1143.586,149.149 927.787,40.732 914.073,204.454 	"/>
	<linearGradient id="SVGID_4_" gradientUnits="userSpaceOnUse" x1="622.0936" y1="749.7307" x2="548.7392" y2="818.3079">
		<stop  offset="0" style="stop-color:#2A3B44"/>
		<stop  offset="0.3493" style="stop-color:#30424C"/>
		<stop  offset="0.7191" style="stop-color:#394E5B"/>
		<stop  offset="0.7604" style="stop-color:#394E5B"/>
		<stop  offset="1" style="stop-color:#394E5B"/>
	</linearGradient>
	<polygon display="inline" fill="url(#SVGID_4_)" points="664.2,776.034 511.229,804.039 573.021,729.94 	"/>
	<linearGradient id="SVGID_6_" gradientUnits="userSpaceOnUse" x1="370.4804" y1="246.9418" x2="1229.7303" y2="569.3782">
		<stop  offset="0" style="stop-color:#3F5C63"/>
		<stop  offset="0.5773" style="stop-color:#3E5A61"/>
		<stop  offset="0.8507" style="stop-color:#3A5459"/>
		<stop  offset="1" style="stop-color:#364D51"/>
	</linearGradient>
	<polygon display="inline" fill="url(#SVGID_6_)" points="360.432,228.856 1143.586,149.149 1209.204,644.625 426.475,655.857 	"/>
	<rect x="435.825" y="301.776" display="inline" fill="none" width="784.017" height="312.446"/>
	<text transform="matrix(1 0 0 1 435.8248 345.152)" display="inline"><tspan x="0" y="0" fill="#82B3BF" font-family="'HoltwoodOneSC'" font-size="63" letter-spacing="1">Hmm… </tspan><tspan x="0" y="63" fill="#82B3BF" font-family="'HoltwoodOneSC'" font-size="63" letter-spacing="1">A branch from </tspan><tspan x="0" y="126" fill="#82B3BF" font-family="'HoltwoodOneSC'" font-size="63" letter-spacing="1">that dead tree </tspan><tspan x="0" y="189" fill="#82B3BF" font-family="'HoltwoodOneSC'" font-size="63" letter-spacing="1">could be used </tspan><tspan x="0" y="252" fill="#82B3BF" font-family="'HoltwoodOneSC'" font-size="63" letter-spacing="1">as a deadly club.</tspan></text>
</g>
</svg>
