<?xml version="1.0" encoding="utf-8"?>
<!-- Generator: Adobe Illustrator 17.0.0, SVG Export Plug-In . SVG Version: 6.00 Build 0)  -->
<!DOCTYPE svg PUBLIC "-//W3C//DTD SVG 1.1//EN" "http://www.w3.org/Graphics/SVG/1.1/DTD/svg11.dtd">
<svg version="1.1" xmlns="http://www.w3.org/2000/svg" xmlns:xlink="http://www.w3.org/1999/xlink" x="0px" y="0px" width="1600px"
	 height="900px" viewBox="0 0 1600 900" enable-background="new 0 0 1600 900" xml:space="preserve">
<g id="Layer_3" display="none">
</g>
<g id="outlune">
	<polygon fill="#A85C22" points="646.946,618.774 426.475,655.857 664.2,776.034 664.2,652.446 	"/>
	<polygon fill="#A85C22" points="1088.566,193.683 1143.586,149.149 927.787,40.732 914.073,204.454 	"/>
	<linearGradient id="SVGID_1_" gradientUnits="userSpaceOnUse" x1="622.0936" y1="749.7307" x2="548.7391" y2="818.3079">
		<stop  offset="0" style="stop-color:#B77430"/>
		<stop  offset="0.358" style="stop-color:#BF7A31"/>
		<stop  offset="0.567" style="stop-color:#C78032"/>
		<stop  offset="1" style="stop-color:#D19853"/>
	</linearGradient>
	<polygon fill="url(#SVGID_1_)" points="664.2,776.034 511.229,804.039 573.021,729.94 	"/>
	<linearGradient id="SVGID_3_" gradientUnits="userSpaceOnUse" x1="360.432" y1="402.503" x2="1209.2041" y2="402.503">
		<stop  offset="0" style="stop-color:#B77430"/>
		<stop  offset="0.358" style="stop-color:#BF7A31"/>
		<stop  offset="0.567" style="stop-color:#C78032"/>
		<stop  offset="1" style="stop-color:#D19853"/>
	</linearGradient>
	<polygon fill="url(#SVGID_3_)" points="360.432,228.856 1143.586,149.149 1209.204,644.625 426.475,655.857 	"/>
	<g>
		<g>
			<path fill="#FBE4A8" d="M462.051,338.757v9.204l4.062,0.762v13.806h-20.312v-13.774l4.062-0.793v-19.614l-4.062-0.793v-13.774
				h24.375l16.25,24.978V328.41l-4.062-0.857v-13.774h20.312v13.774l-4.062,0.793v19.614l4.062,0.793v13.774h-24.407
				L462.051,338.757z"/>
			<path fill="#FBE4A8" d="M510.617,317.841h26.725v12.505l-3.809,0.73v18.059l3.809,0.73v12.664h-26.725v-12.664l3.809-0.73
				v-18.059l-3.809-0.73V317.841z"/>
			<path fill="#FBE4A8" d="M562.674,339.582c0,3.364,0.857,5.813,2.57,7.347c1.715,1.535,4.147,2.301,7.301,2.301
				c1.861,0,4.046-0.232,6.554-0.698c2.507-0.465,5.337-1.174,8.489-2.126v13.806c-6.348,1.926-12.452,2.888-18.312,2.888
				c-3.64,0-7.025-0.429-10.156-1.285c-3.132-0.857-5.851-2.27-8.156-4.237c-2.307-1.968-4.121-4.448-5.443-7.442
				c-1.323-2.994-1.984-6.512-1.984-10.553c0-3.999,0.608-7.443,1.825-10.331c1.217-2.889,2.941-5.269,5.174-7.142
				c2.231-1.872,4.914-3.253,8.046-4.142c3.131-0.889,6.622-1.333,10.473-1.333c2.35,0,4.47,0.117,6.364,0.349
				c1.894,0.233,3.597,0.529,5.109,0.889c1.513,0.36,2.846,0.757,3.999,1.19c1.153,0.434,2.174,0.852,3.062,1.254v13.806h-8.981
				c-1.016-1.396-2.138-2.428-3.364-3.094c-1.228-0.667-2.508-1-3.84-1c-1.101,0-2.175,0.212-3.222,0.635
				c-1.048,0.423-1.979,1.042-2.793,1.856c-0.815,0.815-1.471,1.815-1.968,3C562.922,336.705,562.674,338.059,562.674,339.582z"/>
			<path fill="#FBE4A8" d="M617.969,337.487l8.792-1.873v9.045l-8.792-1.904v7.014c1.27,0,2.496-0.09,3.682-0.27
				c1.185-0.18,2.285-0.429,3.301-0.746s1.946-0.688,2.793-1.111c0.846-0.423,1.576-0.878,2.19-1.365h4.348v16.25h-39.229v-12.664
				l3.809-0.73V331.14l-3.809-0.73v-12.568h39.229v16.25h-4.348c-0.614-0.465-1.345-0.91-2.19-1.333
				c-0.847-0.423-1.777-0.793-2.793-1.111s-2.116-0.571-3.301-0.762c-1.186-0.19-2.412-0.286-3.682-0.286V337.487z"/>
			<path fill="#FBE4A8" d="M640.828,326.442v-12.664h24.406v12.664l-4.062,19.836h-16.25L640.828,326.442z M642.89,350.341h20.312
				v12.188H642.89V350.341z"/>
			<path fill="#FBE4A8" d="M709.586,362.561l-12.98-34.246l-4.824-0.762v-13.774h30.818v13.774l-3.492,0.762l5.491,18.059
				l5.491-18.059l-3.492-0.762v-13.774h30.818v13.774l-3.491,0.762l5.491,18.059l5.49-18.059l-3.491-0.762v-13.774h23.359v13.774
				l-4.792,0.762l-12.981,34.246h-22.598l-6.126-18.662l-6.094,18.662H709.586z"/>
			<path fill="#FBE4A8" d="M812.869,337.487l8.792-1.873v9.045l-8.792-1.904v7.014c1.27,0,2.496-0.09,3.682-0.27
				c1.185-0.18,2.285-0.429,3.301-0.746s1.946-0.688,2.793-1.111c0.846-0.423,1.576-0.878,2.19-1.365h4.348v16.25h-39.229v-12.664
				l3.809-0.73V331.14l-3.809-0.73v-12.568h39.229v16.25h-4.348c-0.614-0.465-1.345-0.91-2.19-1.333
				c-0.847-0.423-1.777-0.793-2.793-1.111s-2.116-0.571-3.301-0.762c-1.186-0.19-2.412-0.286-3.682-0.286V337.487z"/>
			<path fill="#FBE4A8" d="M906.635,331.076c-0.021,0.635-0.032,1.253-0.032,1.857c0,0.603,0,1.18,0,1.729v4.919
				c0,4.232-0.582,7.855-1.745,10.871c-1.164,3.015-2.74,5.485-4.729,7.411c-1.988,1.926-4.321,3.28-6.998,4.062
				s-5.518,1.174-8.521,1.174c-3.471,0-6.713-0.392-9.728-1.174c-3.016-0.783-5.64-2.142-7.871-4.079
				c-2.232-1.936-3.989-4.406-5.269-7.411c-1.28-3.004-1.92-6.623-1.92-10.854v-8.506l-3.809-0.73v-12.505H880.8v12.505l-3.809,0.73
				v3.777c0,0.508,0,1.021,0,1.539c0,0.519,0.005,1,0.016,1.444s0.016,0.831,0.016,1.158c0,0.329,0,0.545,0,0.651
				c0,0.487,0.011,1.053,0.032,1.698c0.021,0.646,0.105,1.312,0.254,2c0.147,0.688,0.375,1.364,0.683,2.031
				c0.307,0.666,0.74,1.264,1.301,1.793c0.561,0.529,1.27,0.958,2.127,1.285c0.856,0.329,1.92,0.492,3.189,0.492
				s2.343-0.164,3.222-0.492c0.878-0.328,1.597-0.762,2.158-1.301c0.561-0.54,0.999-1.148,1.317-1.825
				c0.316-0.677,0.544-1.359,0.682-2.047s0.223-1.354,0.254-2c0.032-0.645,0.048-1.211,0.048-1.698c0-0.148,0-0.386,0-0.714
				c0-0.328-0.006-0.708-0.016-1.143c-0.011-0.433-0.017-0.899-0.017-1.396c0-0.497,0-0.989,0-1.476v-3.777l-3.809-0.73v-12.505
				h22.027v12.505L906.635,331.076z"/>
			<path fill="#FBE4A8" d="M955.931,348.469c0,1.968-0.28,3.708-0.841,5.221c-0.562,1.513-1.323,2.824-2.285,3.936
				c-0.963,1.11-2.105,2.037-3.428,2.777c-1.323,0.741-2.746,1.338-4.27,1.793c-1.523,0.455-3.115,0.719-4.776,0.793
				s-3.316,0.111-4.967,0.111c-2.285,0-4.349-0.053-6.188-0.159c-1.842-0.106-3.486-0.339-4.936-0.698
				c-1.45-0.359-2.729-0.756-3.841-1.19c-1.11-0.434-2.09-0.862-2.936-1.286v-11.013h8.981c0.889,1.396,1.904,2.423,3.047,3.079
				c1.143,0.656,2.317,0.984,3.523,0.984c0.359,0,0.762-0.032,1.206-0.095s0.856-0.264,1.237-0.603
				c0.381-0.338,0.704-0.862,0.969-1.571c0.264-0.708,0.396-1.708,0.396-2.999c-1.714-0.148-3.412-0.365-5.094-0.65
				c-1.683-0.286-3.291-0.672-4.824-1.159c-1.534-0.486-2.957-1.105-4.27-1.857c-1.312-0.75-2.449-1.661-3.411-2.729
				c-0.963-1.068-1.72-2.327-2.27-3.776c-0.551-1.449-0.825-3.116-0.825-4.999c0-2.158,0.274-4.047,0.825-5.665
				c0.55-1.619,1.302-3.01,2.253-4.174c0.953-1.164,2.079-2.126,3.381-2.888c1.301-0.762,2.702-1.365,4.205-1.809
				c1.502-0.444,3.067-0.756,4.697-0.937c1.629-0.179,3.258-0.27,4.888-0.27c2.306,0,4.374,0.117,6.205,0.349
				c1.83,0.233,3.47,0.529,4.919,0.889c1.449,0.36,2.729,0.757,3.841,1.19c1.11,0.434,2.1,0.852,2.968,1.254v11.108h-9.617
				c-0.805-1.523-1.725-2.634-2.762-3.333c-1.036-0.698-2.094-1.047-3.174-1.047c-0.359,0-0.772,0.059-1.237,0.175
				c-0.466,0.116-0.899,0.375-1.302,0.777c-0.401,0.402-0.74,0.995-1.016,1.777c-0.274,0.783-0.412,1.841-0.412,3.174
				c3.491,0.127,6.554,0.498,9.188,1.111c2.634,0.614,4.84,1.529,6.617,2.746s3.11,2.782,3.999,4.697
				S955.931,345.739,955.931,348.469z"/>
			<path fill="#FBE4A8" d="M985.581,337.487l8.792-1.873v9.045l-8.792-1.904v7.014c1.27,0,2.496-0.09,3.682-0.27
				c1.185-0.18,2.285-0.429,3.301-0.746s1.946-0.688,2.793-1.111c0.846-0.423,1.576-0.878,2.19-1.365h4.348v16.25h-39.229v-12.664
				l3.809-0.73V331.14l-3.809-0.73v-12.568h39.229v16.25h-4.348c-0.614-0.465-1.345-0.91-2.19-1.333
				c-0.847-0.423-1.777-0.793-2.793-1.111s-2.116-0.571-3.301-0.762c-1.186-0.19-2.412-0.286-3.682-0.286V337.487z"/>
			<path fill="#FBE4A8" d="M455.925,394.648c-1.1,0-2.073,0.148-2.92,0.444c-0.846,0.296-1.555,0.667-2.126,1.111
				s-1.005,0.926-1.302,1.444c-0.296,0.519-0.443,1-0.443,1.444h-5.301v-16.25h43.291v16.25h-5.301c0-0.444-0.147-0.925-0.443-1.444
				c-0.297-0.518-0.73-1-1.302-1.444s-1.28-0.814-2.126-1.111c-0.847-0.296-1.82-0.444-2.92-0.444v19.487l3.809,0.73v12.664h-26.725
				v-12.664l3.809-0.73V394.648z"/>
			<path fill="#FBE4A8" d="M493.066,382.841h26.724v12.568l-3.809,0.73v5.237h15.267v-5.237l-3.809-0.73v-12.727h26.723v12.727
				l-3.809,0.73v17.996l3.809,0.73v12.664h-26.723v-12.664l3.809-0.73v-5.3h-15.267v5.3l3.809,0.73v12.664h-26.724v-12.664
				l3.809-0.73V396.14l-3.809-0.73V382.841z"/>
			<path fill="#FBE4A8" d="M584.796,402.487l8.792-1.873v9.045l-8.792-1.904v7.014c1.27,0,2.496-0.09,3.682-0.27
				c1.185-0.18,2.285-0.429,3.301-0.746s1.946-0.688,2.793-1.111c0.846-0.423,1.576-0.878,2.19-1.365h4.348v16.25h-39.229v-12.664
				l3.809-0.73V396.14l-3.809-0.73v-12.568h39.229v16.25h-4.348c-0.614-0.465-1.345-0.91-2.19-1.333
				c-0.847-0.423-1.777-0.793-2.793-1.111s-2.116-0.571-3.301-0.762c-1.186-0.19-2.412-0.286-3.682-0.286V402.487z"/>
			<path fill="#FBE4A8" d="M652.158,405.661v21.868h-22.884v-12.664l3.809-0.73v-18.059l-3.809-0.73v-12.505h22.884l9.616,17.075
				l9.521-17.075h22.884v12.505l-3.809,0.73v18.059l3.809,0.73v12.664h-22.884v-21.868l-9.521,16.123L652.158,405.661z"/>
			<path fill="#FBE4A8" d="M733.161,427.529l-1.587-7.522H719.1l-1.586,7.522h-16.98v-14.727l3.682-0.73l8.791-29.231h24.629
				l8.855,29.231l3.65,0.73v14.727H733.161z M721.037,409.978h8.601l-4.316-17.551L721.037,409.978z"/>
			<path fill="#FBE4A8" d="M764.081,394.648c-1.1,0-2.073,0.148-2.92,0.444c-0.846,0.296-1.555,0.667-2.126,1.111
				s-1.005,0.926-1.302,1.444c-0.296,0.519-0.443,1-0.443,1.444h-5.301v-16.25h43.291v16.25h-5.301c0-0.444-0.147-0.925-0.443-1.444
				c-0.297-0.518-0.73-1-1.302-1.444s-1.28-0.814-2.126-1.111c-0.847-0.296-1.82-0.444-2.92-0.444v19.487l3.809,0.73v12.664h-26.725
				v-12.664l3.809-0.73V394.648z"/>
			<path fill="#FBE4A8" d="M819.249,404.582c0,3.364,0.857,5.813,2.57,7.347c1.715,1.535,4.147,2.301,7.301,2.301
				c1.861,0,4.046-0.232,6.554-0.698c2.507-0.465,5.337-1.174,8.489-2.126v13.807c-6.348,1.925-12.452,2.888-18.312,2.888
				c-3.64,0-7.025-0.429-10.156-1.285c-3.132-0.857-5.851-2.27-8.156-4.237c-2.307-1.968-4.121-4.448-5.443-7.442
				c-1.323-2.994-1.984-6.512-1.984-10.553c0-3.999,0.608-7.443,1.825-10.331c1.217-2.889,2.941-5.269,5.174-7.142
				c2.231-1.872,4.914-3.253,8.046-4.142c3.131-0.889,6.622-1.333,10.473-1.333c2.35,0,4.47,0.117,6.364,0.349
				c1.894,0.233,3.597,0.529,5.109,0.889c1.513,0.36,2.846,0.757,3.999,1.19c1.153,0.434,2.174,0.852,3.062,1.254v13.806h-8.981
				c-1.016-1.396-2.138-2.428-3.364-3.094c-1.228-0.667-2.508-1-3.84-1c-1.101,0-2.175,0.212-3.222,0.635
				c-1.048,0.423-1.979,1.042-2.793,1.856c-0.815,0.815-1.471,1.815-1.968,3C819.497,401.705,819.249,403.059,819.249,404.582z"/>
			<path fill="#FBE4A8" d="M851.628,382.841h26.724v12.568l-3.809,0.73v5.237h15.267v-5.237l-3.809-0.73v-12.727h26.723v12.727
				l-3.809,0.73v17.996l3.809,0.73v12.664h-26.723v-12.664l3.809-0.73v-5.3h-15.267v5.3l3.809,0.73v12.664h-26.724v-12.664
				l3.809-0.73V396.14l-3.809-0.73V382.841z"/>
			<path fill="#FBE4A8" d="M943.357,402.487l8.792-1.873v9.045l-8.792-1.904v7.014c1.27,0,2.496-0.09,3.682-0.27
				c1.185-0.18,2.285-0.429,3.301-0.746s1.946-0.688,2.793-1.111c0.846-0.423,1.576-0.878,2.19-1.365h4.348v16.25h-39.229v-12.664
				l3.809-0.73V396.14l-3.809-0.73v-12.568h39.229v16.25h-4.348c-0.614-0.465-1.345-0.91-2.19-1.333
				c-0.847-0.423-1.777-0.793-2.793-1.111s-2.116-0.571-3.301-0.762c-1.186-0.19-2.412-0.286-3.682-0.286V402.487z"/>
			<path fill="#FBE4A8" d="M1005.253,413.469c0,1.968-0.28,3.708-0.841,5.221c-0.562,1.513-1.323,2.824-2.285,3.936
				c-0.963,1.11-2.105,2.036-3.428,2.776c-1.323,0.741-2.746,1.339-4.27,1.794c-1.523,0.454-3.115,0.719-4.776,0.793
				s-3.316,0.111-4.967,0.111c-2.285,0-4.349-0.053-6.188-0.159c-1.842-0.105-3.486-0.338-4.936-0.697
				c-1.45-0.36-2.729-0.757-3.841-1.19c-1.11-0.434-2.09-0.862-2.936-1.286v-11.013h8.981c0.889,1.396,1.904,2.423,3.047,3.079
				c1.143,0.656,2.317,0.984,3.523,0.984c0.359,0,0.762-0.032,1.206-0.095s0.856-0.264,1.237-0.603
				c0.381-0.338,0.704-0.862,0.969-1.571c0.264-0.708,0.396-1.708,0.396-2.999c-1.714-0.148-3.412-0.365-5.094-0.65
				c-1.683-0.286-3.291-0.672-4.824-1.159c-1.534-0.486-2.957-1.105-4.27-1.857c-1.312-0.75-2.449-1.661-3.411-2.729
				c-0.963-1.068-1.72-2.327-2.27-3.776c-0.551-1.449-0.825-3.116-0.825-4.999c0-2.158,0.274-4.047,0.825-5.665
				c0.55-1.619,1.302-3.01,2.253-4.174c0.953-1.164,2.079-2.126,3.381-2.888c1.301-0.762,2.702-1.365,4.205-1.809
				c1.502-0.444,3.067-0.756,4.697-0.937c1.629-0.179,3.258-0.27,4.888-0.27c2.306,0,4.374,0.117,6.205,0.349
				c1.83,0.233,3.47,0.529,4.919,0.889c1.449,0.36,2.729,0.757,3.841,1.19c1.11,0.434,2.1,0.852,2.968,1.254v11.108h-9.617
				c-0.805-1.523-1.725-2.634-2.762-3.333c-1.036-0.698-2.094-1.047-3.174-1.047c-0.359,0-0.772,0.059-1.237,0.175
				c-0.466,0.116-0.899,0.375-1.302,0.777c-0.401,0.402-0.74,0.995-1.016,1.777c-0.274,0.783-0.412,1.841-0.412,3.174
				c3.491,0.127,6.554,0.498,9.188,1.111c2.634,0.614,4.84,1.529,6.617,2.746s3.11,2.782,3.999,4.697
				S1005.253,410.739,1005.253,413.469z"/>
			<path fill="#FBE4A8" d="M1043.764,394.648c-1.1,0-2.073,0.148-2.92,0.444c-0.846,0.296-1.555,0.667-2.126,1.111
				s-1.005,0.926-1.302,1.444c-0.296,0.519-0.443,1-0.443,1.444h-5.301v-16.25h43.291v16.25h-5.301c0-0.444-0.147-0.925-0.443-1.444
				c-0.297-0.518-0.73-1-1.302-1.444s-1.28-0.814-2.126-1.111c-0.847-0.296-1.82-0.444-2.92-0.444v19.487l3.809,0.73v12.664h-26.725
				v-12.664l3.809-0.73V394.648z"/>
			<path fill="#FBE4A8" d="M1106.454,428.1c-3.724,0-7.21-0.396-10.457-1.19c-3.248-0.793-6.073-2.158-8.475-4.094
				c-2.401-1.937-4.295-4.406-5.681-7.411c-1.387-3.004-2.079-6.612-2.079-10.823c0-4.126,0.692-7.644,2.079-10.553
				c1.386-2.909,3.284-5.279,5.696-7.109c2.412-1.83,5.237-3.168,8.475-4.015c3.237-0.846,6.718-1.27,10.441-1.27
				c3.703,0,7.179,0.423,10.427,1.27c3.247,0.847,6.083,2.185,8.506,4.015c2.422,1.831,4.332,4.201,5.729,7.109
				c1.396,2.91,2.095,6.427,2.095,10.553c0,2.793-0.317,5.327-0.952,7.601c-0.635,2.275-1.529,4.296-2.682,6.062
				c-1.153,1.767-2.539,3.29-4.158,4.57c-1.618,1.28-3.423,2.338-5.411,3.174c-1.989,0.836-4.126,1.396-6.411,1.682
				C1111.31,427.958,1108.93,428.1,1106.454,428.1z M1106.454,395.156c-1.248,0-2.301,0.159-3.157,0.476
				c-0.857,0.317-1.566,0.73-2.127,1.238s-0.999,1.09-1.317,1.746c-0.316,0.656-0.545,1.328-0.682,2.015
				c-0.138,0.688-0.223,1.365-0.254,2.031c-0.032,0.667-0.048,1.254-0.048,1.762c0,0.487,0.011,1.063,0.032,1.729
				c0.021,0.667,0.095,1.365,0.222,2.095c0.127,0.73,0.338,1.455,0.635,2.174c0.296,0.72,0.725,1.365,1.285,1.936
				s1.28,1.031,2.158,1.381c0.878,0.349,1.963,0.523,3.253,0.523c1.27,0,2.344-0.169,3.222-0.508
				c0.878-0.338,1.598-0.788,2.158-1.349s1-1.19,1.317-1.889s0.545-1.401,0.683-2.11c0.137-0.709,0.222-1.402,0.254-2.079
				c0.031-0.677,0.048-1.259,0.048-1.746c0-0.508-0.017-1.095-0.048-1.761c-0.032-0.667-0.117-1.349-0.254-2.047
				c-0.138-0.698-0.365-1.38-0.683-2.047c-0.317-0.666-0.757-1.264-1.317-1.793c-0.561-0.529-1.28-0.957-2.158-1.285
				S1107.723,395.156,1106.454,395.156z"/>
			<path fill="#FBE4A8" d="M468.526,480.341c0.889,0,1.734-0.121,2.539-0.365c0.804-0.243,1.55-0.561,2.237-0.952
				c0.688-0.391,1.312-0.825,1.873-1.301c0.561-0.477,1.052-0.957,1.476-1.444h5.3v16.25h-36.309v-12.664l3.809-0.729v-18.06
				l-3.809-0.729v-12.505h26.725v12.505l-3.841,0.729V480.341z"/>
			<path fill="#FBE4A8" d="M487.86,447.841h26.725v12.505l-3.809,0.729v18.06l3.809,0.729v12.664H487.86v-12.664l3.809-0.729v-18.06
				l-3.809-0.729V447.841z"/>
			<path fill="#FBE4A8" d="M520.779,469.582c0-3.978,0.604-7.41,1.81-10.299c1.206-2.888,2.92-5.269,5.142-7.141
				c2.222-1.873,4.903-3.259,8.046-4.158c3.142-0.898,6.649-1.349,10.521-1.349c2.35,0,4.47,0.116,6.364,0.349
				c1.894,0.233,3.597,0.529,5.109,0.889c1.513,0.36,2.846,0.757,3.999,1.19c1.153,0.435,2.174,0.853,3.062,1.254v13.806h-8.981
				c-0.487-0.697-0.968-1.306-1.444-1.824c-0.476-0.519-0.989-0.941-1.539-1.27c-0.551-0.328-1.164-0.576-1.841-0.746
				c-0.678-0.169-1.471-0.254-2.38-0.254c-1.101,0-2.175,0.164-3.222,0.492c-1.048,0.328-1.979,0.867-2.793,1.618
				c-0.815,0.752-1.471,1.735-1.968,2.952c-0.498,1.217-0.746,2.713-0.746,4.49c0,2.074,0.201,3.772,0.604,5.095
				c0.401,1.322,0.983,2.37,1.745,3.142c0.762,0.772,1.698,1.307,2.809,1.604c1.111,0.296,2.386,0.443,3.825,0.443
				c0.762,0,1.549-0.052,2.364-0.158c0.814-0.105,1.698-0.307,2.649-0.604v-3.617h-6.379v-7.809h18.566v21.074
				c-1.565,0.656-3.227,1.27-4.982,1.842c-1.757,0.57-3.518,1.068-5.284,1.491c-1.768,0.424-3.497,0.698-5.189,0.825
				c-1.693,0.127-3.259,0.19-4.697,0.19c-3.534,0-6.835-0.424-9.902-1.27c-3.068-0.846-5.734-2.253-7.998-4.222
				c-2.265-1.967-4.042-4.448-5.332-7.442C521.424,477.173,520.779,473.644,520.779,469.582z"/>
			<path fill="#FBE4A8" d="M572.361,447.841h26.724v12.568l-3.809,0.73v5.236h15.267v-5.236l-3.809-0.73v-12.727h26.723v12.727
				l-3.809,0.73v17.995l3.809,0.729v12.664h-26.723v-12.664l3.809-0.729v-5.3h-15.267v5.3l3.809,0.729v12.664h-26.724v-12.664
				l3.809-0.729V461.14l-3.809-0.73V447.841z"/>
			<path fill="#FBE4A8" d="M651.49,459.648c-1.1,0-2.073,0.148-2.92,0.444c-0.846,0.297-1.555,0.667-2.126,1.11
				c-0.571,0.445-1.005,0.927-1.302,1.444c-0.296,0.519-0.443,1-0.443,1.444h-5.301v-16.25h43.291v16.25h-5.301
				c0-0.444-0.147-0.926-0.443-1.444c-0.297-0.518-0.73-0.999-1.302-1.444c-0.571-0.443-1.28-0.813-2.126-1.11
				c-0.847-0.296-1.82-0.444-2.92-0.444v19.487l3.809,0.729v12.664h-26.725v-12.664l3.809-0.729V459.648z"/>
			<path fill="#FBE4A8" d="M741.322,492.529l-1.587-7.521h-12.474l-1.586,7.521h-16.98v-14.727l3.682-0.73l8.791-29.23h24.629
				l8.855,29.23l3.65,0.73v14.727H741.322z M729.198,474.978h8.601l-4.316-17.552L729.198,474.978z"/>
			<path fill="#FBE4A8" d="M824.552,447.841c3.131,0.741,5.475,1.936,7.03,3.586c1.555,1.65,2.333,3.894,2.333,6.729
				c0,1.904-0.212,3.513-0.635,4.824c-0.424,1.312-0.958,2.392-1.604,3.238c-0.646,0.846-1.344,1.497-2.095,1.951
				c-0.751,0.455-1.449,0.789-2.095,1c-0.646,0.212-1.401,0.35-2.27,0.412c0.762,0.043,1.588,0.133,2.477,0.271
				s1.766,0.349,2.634,0.635c0.867,0.285,1.703,0.656,2.507,1.11c0.805,0.455,1.508,1.031,2.111,1.73
				c0.603,0.697,1.089,1.523,1.46,2.475c0.37,0.953,0.556,2.063,0.556,3.333c0,1.904-0.244,3.677-0.73,5.316
				c-0.487,1.64-1.349,3.058-2.587,4.253c-1.237,1.195-2.903,2.132-4.999,2.809c-2.094,0.678-4.76,1.016-7.998,1.016h-34.626
				v-12.664l3.809-0.729v-19.138l-3.809-0.73v-11.426H824.552z M817.855,461.743c0-1.079-0.174-1.909-0.523-2.491
				c-0.349-0.582-0.814-1.011-1.396-1.285c-0.582-0.275-1.237-0.434-1.968-0.477c-0.729-0.042-1.476-0.063-2.237-0.063h-2.793v9.014
				h2.793c0.762,0,1.508-0.026,2.237-0.079c0.73-0.053,1.386-0.223,1.968-0.508c0.582-0.286,1.048-0.746,1.396-1.381
				C817.681,463.837,817.855,462.928,817.855,461.743z M817.855,476.945c0-1.078-0.174-1.904-0.523-2.475
				c-0.349-0.572-0.814-0.995-1.396-1.27c-0.582-0.275-1.237-0.434-1.968-0.477c-0.729-0.042-1.476-0.063-2.237-0.063h-2.793v9.014
				h2.793c0.762,0,1.508-0.026,2.237-0.079c0.73-0.053,1.386-0.228,1.968-0.523c0.582-0.297,1.048-0.762,1.396-1.396
				C817.681,479.041,817.855,478.13,817.855,476.945z"/>
			<path fill="#FBE4A8" d="M892.637,492.529h-18.979c-0.593-1.1-1.206-2.27-1.841-3.507c-0.635-1.238-1.249-2.534-1.841-3.888
				c-0.593-1.354-1.148-2.751-1.666-4.189c-0.519-1.439-0.958-2.92-1.317-4.443h-1.047v16.027H843.03v-12.664l3.809-0.729v-18.06
				l-3.809-0.729v-12.505h25.994c3.448,0,6.427,0.148,8.935,0.444c2.507,0.297,4.634,0.729,6.379,1.302
				c1.746,0.57,3.158,1.264,4.237,2.078c1.079,0.815,1.92,1.735,2.523,2.762c0.603,1.026,1.01,2.153,1.222,3.38
				c0.211,1.228,0.317,2.528,0.317,3.903c0,1.396-0.133,2.666-0.396,3.809c-0.265,1.143-0.735,2.19-1.412,3.143
				c-0.678,0.952-1.604,1.825-2.777,2.618c-1.175,0.794-2.672,1.54-4.491,2.237c0.381,0.762,0.946,1.667,1.698,2.714
				c0.751,1.048,1.57,2.116,2.459,3.206s1.772,2.143,2.65,3.158s1.635,1.883,2.27,2.602V492.529z M865.946,467.9
				c1.163,0,2.216-0.058,3.157-0.175c0.941-0.116,1.746-0.37,2.412-0.762c0.667-0.391,1.18-0.968,1.54-1.729
				c0.359-0.762,0.539-1.788,0.539-3.078c0-1.27-0.18-2.285-0.539-3.047c-0.36-0.762-0.873-1.35-1.54-1.762
				c-0.666-0.413-1.471-0.683-2.412-0.81s-1.994-0.19-3.157-0.19V467.9z"/>
			<path fill="#FBE4A8" d="M930.825,492.529l-1.587-7.521h-12.474l-1.586,7.521h-16.98v-14.727l3.682-0.73l8.791-29.23h24.629
				l8.855,29.23l3.65,0.73v14.727H930.825z M918.701,474.978h8.601l-4.316-17.552L918.701,474.978z"/>
			<path fill="#FBE4A8" d="M969.424,469.074v10.062l3.841,0.698v12.695h-19.107v-12.664l3.809-0.729v-18.06l-3.809-0.729v-12.505
				h22.916l15.266,24.09V461.14l-3.809-0.794v-12.505h19.074v12.505l-3.809,0.729v18.06l3.809,0.729v12.664h-22.914L969.424,469.074
				z"/>
			<path fill="#FBE4A8" d="M1032.939,469.582c0,3.365,0.857,5.814,2.57,7.348c1.715,1.534,4.147,2.301,7.301,2.301
				c1.861,0,4.046-0.232,6.554-0.697c2.507-0.466,5.337-1.175,8.489-2.127v13.807c-6.348,1.925-12.452,2.888-18.312,2.888
				c-3.64,0-7.025-0.429-10.156-1.285c-3.132-0.857-5.851-2.27-8.156-4.237c-2.307-1.968-4.121-4.448-5.443-7.442
				c-1.323-2.994-1.984-6.512-1.984-10.554c0-3.998,0.608-7.442,1.825-10.33c1.217-2.889,2.941-5.269,5.174-7.142
				c2.231-1.872,4.914-3.253,8.046-4.142c3.131-0.889,6.622-1.333,10.473-1.333c2.35,0,4.47,0.116,6.364,0.349
				c1.894,0.233,3.597,0.529,5.109,0.889c1.513,0.36,2.846,0.757,3.999,1.19c1.153,0.435,2.174,0.853,3.062,1.254v13.806h-8.981
				c-1.016-1.396-2.138-2.428-3.364-3.094c-1.228-0.667-2.508-1-3.84-1c-1.101,0-2.175,0.212-3.222,0.635
				c-1.048,0.424-1.979,1.042-2.793,1.856c-0.815,0.815-1.471,1.814-1.968,2.999
				C1033.187,466.705,1032.939,468.058,1032.939,469.582z"/>
			<path fill="#FBE4A8" d="M1065.319,447.841h26.724v12.568l-3.809,0.73v5.236h15.267v-5.236l-3.809-0.73v-12.727h26.723v12.727
				l-3.809,0.73v17.995l3.809,0.729v12.664h-26.723v-12.664l3.809-0.729v-5.3h-15.267v5.3l3.809,0.729v12.664h-26.724v-12.664
				l3.809-0.729V461.14l-3.809-0.73V447.841z"/>
			<path fill="#FBE4A8" d="M471.16,558.1c-3.724,0-7.21-0.396-10.457-1.19c-3.248-0.793-6.073-2.158-8.475-4.094
				c-2.401-1.937-4.295-4.406-5.681-7.411c-1.387-3.004-2.079-6.612-2.079-10.823c0-4.125,0.692-7.643,2.079-10.553
				c1.386-2.909,3.284-5.278,5.696-7.109c2.412-1.83,5.237-3.168,8.475-4.015c3.237-0.846,6.718-1.27,10.441-1.27
				c3.703,0,7.179,0.424,10.427,1.27c3.247,0.847,6.083,2.185,8.506,4.015c2.422,1.831,4.332,4.2,5.729,7.109
				c1.396,2.91,2.095,6.428,2.095,10.553c0,2.793-0.317,5.327-0.952,7.602c-0.635,2.275-1.529,4.296-2.682,6.062
				c-1.153,1.767-2.539,3.29-4.158,4.57c-1.618,1.28-3.423,2.338-5.411,3.174c-1.989,0.836-4.126,1.396-6.411,1.682
				C476.016,557.958,473.636,558.1,471.16,558.1z M471.16,525.156c-1.248,0-2.301,0.158-3.157,0.477
				c-0.857,0.316-1.566,0.729-2.127,1.237s-0.999,1.09-1.317,1.745c-0.316,0.656-0.545,1.328-0.682,2.016
				c-0.138,0.688-0.223,1.365-0.254,2.031c-0.032,0.667-0.048,1.254-0.048,1.762c0,0.487,0.011,1.063,0.032,1.729
				c0.021,0.667,0.095,1.365,0.222,2.095c0.127,0.73,0.338,1.455,0.635,2.174c0.296,0.72,0.725,1.365,1.285,1.937
				s1.28,1.031,2.158,1.381c0.878,0.349,1.963,0.523,3.253,0.523c1.27,0,2.344-0.169,3.222-0.508
				c0.878-0.338,1.598-0.788,2.158-1.349s1-1.19,1.317-1.889s0.545-1.401,0.683-2.11c0.137-0.709,0.222-1.401,0.254-2.079
				c0.031-0.677,0.048-1.259,0.048-1.746c0-0.508-0.017-1.095-0.048-1.761c-0.032-0.667-0.117-1.349-0.254-2.048
				c-0.138-0.697-0.365-1.38-0.683-2.047c-0.317-0.666-0.757-1.264-1.317-1.793c-0.561-0.528-1.28-0.957-2.158-1.285
				S472.429,525.156,471.16,525.156z"/>
			<path fill="#FBE4A8" d="M519.313,534.074v10.062l3.841,0.698v12.695h-19.107v-12.664l3.809-0.729v-18.06l-3.809-0.729v-12.505
				h22.916l15.266,24.09V526.14l-3.809-0.794v-12.505h19.074v12.505l-3.809,0.729v18.06l3.809,0.729v12.664H534.58L519.313,534.074z
				"/>
			<path fill="#FBE4A8" d="M609.622,533.439l8.125-1.872v9.681l-8.125-1.904v4.792l3.809,0.825v12.568h-26.724v-12.664l3.809-0.729
				V526.14l-3.809-0.73v-12.568h36.912v16.25h-5.301c-0.91-0.952-2.105-1.771-3.586-2.46c-1.481-0.688-3.186-1.031-5.11-1.031
				V533.439z"/>
			<path fill="#FBE4A8" d="M629.623,512.841h26.725v12.505l-3.809,0.729v18.06l3.809,0.729v12.664h-26.725v-12.664l3.809-0.729
				v-18.06l-3.809-0.729V512.841z"/>
			<path fill="#FBE4A8" d="M713.736,557.529h-18.979c-0.593-1.1-1.206-2.27-1.841-3.507c-0.635-1.238-1.249-2.534-1.841-3.888
				c-0.593-1.354-1.148-2.751-1.666-4.189c-0.519-1.439-0.958-2.92-1.317-4.443h-1.047v16.027h-22.916v-12.664l3.809-0.729v-18.06
				l-3.809-0.729v-12.505h25.994c3.448,0,6.427,0.148,8.935,0.444c2.507,0.297,4.634,0.729,6.379,1.302
				c1.746,0.57,3.158,1.264,4.237,2.078c1.079,0.815,1.92,1.735,2.523,2.762c0.603,1.026,1.01,2.153,1.222,3.38
				c0.211,1.228,0.317,2.528,0.317,3.903c0,1.396-0.133,2.666-0.396,3.809c-0.265,1.143-0.735,2.19-1.412,3.143
				c-0.678,0.952-1.604,1.825-2.777,2.618c-1.175,0.794-2.672,1.54-4.491,2.237c0.381,0.762,0.946,1.667,1.698,2.714
				c0.751,1.048,1.57,2.116,2.459,3.206s1.772,2.143,2.65,3.158s1.635,1.883,2.27,2.602V557.529z M687.044,532.9
				c1.163,0,2.216-0.058,3.157-0.175c0.941-0.116,1.746-0.37,2.412-0.762c0.667-0.391,1.18-0.968,1.54-1.729
				c0.359-0.762,0.539-1.788,0.539-3.078c0-1.27-0.18-2.285-0.539-3.047c-0.36-0.762-0.873-1.35-1.54-1.762
				c-0.666-0.413-1.471-0.683-2.412-0.81s-1.994-0.19-3.157-0.19V532.9z"/>
			<path fill="#FBE4A8" d="M743.608,532.488l8.792-1.873v9.045l-8.792-1.904v7.015c1.27,0,2.496-0.09,3.682-0.27
				c1.185-0.18,2.285-0.429,3.301-0.746s1.946-0.688,2.793-1.11c0.846-0.424,1.576-0.878,2.19-1.365h4.348v16.25h-39.229v-12.664
				l3.809-0.729V526.14l-3.809-0.73v-12.568h39.229v16.25h-4.348c-0.614-0.465-1.345-0.909-2.19-1.333
				c-0.847-0.423-1.777-0.794-2.793-1.11c-1.016-0.318-2.116-0.572-3.301-0.762c-1.186-0.191-2.412-0.286-3.682-0.286V532.488z"/>
			<path fill="#FBE4A8" d="M766.466,521.443v-12.664h24.406v12.664l-4.062,19.836h-16.25L766.466,521.443z M768.529,545.341h20.312
				v12.188h-20.312V545.341z"/>
		</g>
	</g>
</g>
<g id="fonts" display="none">
	<polygon display="inline" fill="#A85C22" points="646.946,618.774 426.475,655.857 664.2,776.034 664.2,652.446 	"/>
	<polygon display="inline" fill="#A85C22" points="1088.566,193.683 1143.586,149.149 927.787,40.732 914.073,204.454 	"/>
	<linearGradient id="SVGID_4_" gradientUnits="userSpaceOnUse" x1="622.0936" y1="749.7307" x2="548.7391" y2="818.3079">
		<stop  offset="0" style="stop-color:#B77430"/>
		<stop  offset="0.358" style="stop-color:#BF7A31"/>
		<stop  offset="0.567" style="stop-color:#C78032"/>
		<stop  offset="1" style="stop-color:#D19853"/>
	</linearGradient>
	<polygon display="inline" fill="url(#SVGID_4_)" points="664.2,776.034 511.229,804.039 573.021,729.94 	"/>
	<linearGradient id="SVGID_6_" gradientUnits="userSpaceOnUse" x1="360.432" y1="402.503" x2="1209.2041" y2="402.503">
		<stop  offset="0" style="stop-color:#B77430"/>
		<stop  offset="0.358" style="stop-color:#BF7A31"/>
		<stop  offset="0.567" style="stop-color:#C78032"/>
		<stop  offset="1" style="stop-color:#D19853"/>
	</linearGradient>
	<polygon display="inline" fill="url(#SVGID_6_)" points="360.432,228.856 1143.586,149.149 1209.204,644.625 426.475,655.857 	"/>
	<g display="inline">
		<rect x="442.564" y="317.777" fill="none" width="700.065" height="312.446"/>
		<text transform="matrix(1 0 0 1 442.564 362.5289)"><tspan x="0" y="0" fill="#FBE4A8" font-family="'HoltwoodOneSC'" font-size="65" letter-spacing="1">Nice! We use </tspan><tspan x="0" y="65" fill="#FBE4A8" font-family="'HoltwoodOneSC'" font-size="65" letter-spacing="1">the matches to </tspan><tspan x="0" y="130" fill="#FBE4A8" font-family="'HoltwoodOneSC'" font-size="65" letter-spacing="1">light a branch </tspan><tspan x="0" y="195" fill="#FBE4A8" font-family="'HoltwoodOneSC'" font-size="65" letter-spacing="1">on fire!</tspan></text>
	</g>
</g>
</svg>
