<?xml version="1.0" encoding="utf-8"?>
<!-- Generator: Adobe Illustrator 17.0.0, SVG Export Plug-In . SVG Version: 6.00 Build 0)  -->
<!DOCTYPE svg PUBLIC "-//W3C//DTD SVG 1.1//EN" "http://www.w3.org/Graphics/SVG/1.1/DTD/svg11.dtd">
<svg version="1.1" xmlns="http://www.w3.org/2000/svg" xmlns:xlink="http://www.w3.org/1999/xlink" x="0px" y="0px" width="1600px"
	 height="900px" viewBox="0 0 1600 900" enable-background="new 0 0 1600 900" xml:space="preserve">
<g id="Layer_3" display="none">
</g>
<g id="outlune">
	<polygon fill="#A85C22" points="646.946,618.774 426.475,655.857 664.2,776.034 664.2,652.446 	"/>
	<polygon fill="#A85C22" points="1088.566,193.683 1143.586,149.149 927.787,40.732 914.073,204.454 	"/>
	<linearGradient id="SVGID_1_" gradientUnits="userSpaceOnUse" x1="622.0936" y1="749.7307" x2="548.7391" y2="818.3079">
		<stop  offset="0" style="stop-color:#B77430"/>
		<stop  offset="0.358" style="stop-color:#BF7A31"/>
		<stop  offset="0.567" style="stop-color:#C78032"/>
		<stop  offset="1" style="stop-color:#D19853"/>
	</linearGradient>
	<polygon fill="url(#SVGID_1_)" points="664.2,776.034 511.229,804.039 573.021,729.94 	"/>
	<linearGradient id="SVGID_3_" gradientUnits="userSpaceOnUse" x1="360.432" y1="402.503" x2="1209.2041" y2="402.503">
		<stop  offset="0" style="stop-color:#B77430"/>
		<stop  offset="0.358" style="stop-color:#BF7A31"/>
		<stop  offset="0.567" style="stop-color:#C78032"/>
		<stop  offset="1" style="stop-color:#D19853"/>
	</linearGradient>
	<polygon fill="url(#SVGID_3_)" points="360.432,228.856 1143.586,149.149 1209.204,644.625 426.475,655.857 	"/>
	<g>
		<g>
			<path fill="#FBE4A8" d="M449.702,277.902h27.562v13.351l-3.938,0.769v19.011l3.938,0.769v13.351h-27.562v-13.351l3.938-0.769
				v-19.011l-3.938-0.769V277.902z"/>
			<path fill="#FBE4A8" d="M539.354,281.839c2.788,0.595,5.301,1.436,7.536,2.522c2.235,1.087,4.138,2.477,5.706,4.168
				c1.569,1.692,2.773,3.723,3.615,6.091c0.84,2.369,1.261,5.133,1.261,8.291c0,2.769-0.323,5.245-0.969,7.429
				c-0.646,2.184-1.569,4.102-2.769,5.752c-1.2,1.651-2.672,3.051-4.414,4.199c-1.744,1.149-3.707,2.082-5.892,2.799
				c-2.184,0.718-4.583,1.241-7.198,1.569c-2.614,0.328-5.398,0.492-8.352,0.492h-22.21v-12.274l3.691-0.708v-18.549l-3.691-0.708
				v-11.074H539.354z M530.71,312.171c1.374,0,2.532-0.103,3.477-0.308c0.942-0.205,1.717-0.492,2.322-0.861
				c0.604-0.369,1.076-0.831,1.415-1.384c0.338-0.554,0.584-1.169,0.738-1.846c0.153-0.677,0.24-1.425,0.261-2.246
				c0.021-0.82,0.031-1.692,0.031-2.615s-0.011-1.794-0.031-2.615c-0.021-0.82-0.107-1.574-0.261-2.261
				c-0.154-0.687-0.4-1.302-0.738-1.846c-0.339-0.543-0.811-1.005-1.415-1.385c-0.605-0.379-1.38-0.671-2.322-0.876
				c-0.944-0.205-2.103-0.308-3.477-0.308h-2.83v18.549H530.71z"/>
			<path fill="#FBE4A8" d="M588.702,325.706c-3.61,0-6.988-0.385-10.137-1.153c-3.148-0.77-5.886-2.092-8.213-3.969
				c-2.328-1.876-4.164-4.271-5.507-7.183c-1.343-2.912-2.015-6.409-2.015-10.49c0-3.999,0.672-7.408,2.015-10.228
				s3.185-5.117,5.522-6.891s5.075-3.071,8.213-3.892c3.138-0.82,6.511-1.23,10.121-1.23c3.588,0,6.956,0.411,10.104,1.23
				c3.148,0.82,5.896,2.118,8.244,3.892s4.199,4.071,5.553,6.891s2.03,6.229,2.03,10.228c0,2.707-0.308,5.163-0.923,7.368
				s-1.481,4.163-2.6,5.875c-1.118,1.713-2.461,3.189-4.029,4.43c-1.569,1.241-3.317,2.267-5.245,3.076
				c-1.928,0.811-3.999,1.354-6.214,1.631C593.408,325.567,591.1,325.706,588.702,325.706z M588.702,293.775
				c-1.211,0-2.23,0.154-3.062,0.461c-0.83,0.308-1.518,0.708-2.061,1.2c-0.544,0.492-0.97,1.057-1.276,1.692
				c-0.309,0.636-0.528,1.287-0.662,1.954s-0.215,1.322-0.246,1.969c-0.03,0.646-0.046,1.215-0.046,1.707
				c0,0.472,0.01,1.03,0.03,1.677c0.021,0.646,0.093,1.322,0.216,2.03c0.123,0.707,0.328,1.41,0.615,2.107
				c0.287,0.697,0.702,1.323,1.246,1.876c0.543,0.554,1.24,1,2.092,1.338c0.851,0.339,1.901,0.508,3.153,0.508
				c1.23,0,2.271-0.164,3.122-0.492c0.851-0.328,1.548-0.764,2.092-1.308c0.543-0.543,0.969-1.153,1.276-1.83
				s0.527-1.358,0.661-2.046c0.134-0.687,0.216-1.358,0.246-2.015c0.031-0.656,0.046-1.22,0.046-1.692
				c0-0.492-0.015-1.061-0.046-1.708c-0.03-0.646-0.112-1.307-0.246-1.984s-0.354-1.338-0.661-1.984
				c-0.308-0.646-0.733-1.226-1.276-1.738c-0.544-0.512-1.241-0.928-2.092-1.246C590.972,293.934,589.932,293.775,588.702,293.775z"
				/>
			<path fill="#FBE4A8" d="M635.373,302.419v9.751l3.722,0.677v12.305h-18.518v-12.274l3.691-0.708v-17.503l-3.691-0.708v-12.12
				h22.209l14.797,23.348v-10.459l-3.691-0.769v-12.12h18.488v12.12l-3.691,0.708v17.503l3.691,0.708v12.274h-22.211
				L635.373,302.419z"/>
			<path fill="#FBE4A8" d="M679.061,277.902h19.688v15.719c0,2.604-0.452,4.794-1.354,6.568c-0.903,1.774-2.092,3.209-3.568,4.307
				s-3.159,1.881-5.045,2.353c-1.888,0.472-3.814,0.708-5.783,0.708v-9.967c0.389-0.02,0.81-0.092,1.261-0.215
				s0.871-0.328,1.261-0.615c0.39-0.287,0.718-0.682,0.984-1.184s0.4-1.143,0.4-1.923h-7.844V277.902z"/>
			<path fill="#FBE4A8" d="M715.582,293.283c-1.067,0-2.011,0.144-2.83,0.431c-0.821,0.288-1.508,0.646-2.062,1.077
				s-0.975,0.897-1.261,1.4c-0.288,0.502-0.432,0.969-0.432,1.399h-5.137v-15.75h41.959v15.75h-5.137
				c0-0.431-0.145-0.897-0.432-1.399s-0.707-0.969-1.261-1.4s-1.241-0.789-2.062-1.077c-0.82-0.287-1.764-0.431-2.83-0.431v18.888
				l3.691,0.708v12.274h-25.9v-12.274l3.691-0.708V293.283z"/>
			<path fill="#FBE4A8" d="M782.377,293.283c-1.067,0-2.011,0.144-2.83,0.431c-0.821,0.288-1.508,0.646-2.062,1.077
				s-0.975,0.897-1.261,1.4c-0.288,0.502-0.432,0.969-0.432,1.399h-5.137v-15.75h41.959v15.75h-5.137
				c0-0.431-0.145-0.897-0.432-1.399s-0.707-0.969-1.261-1.4s-1.241-0.789-2.062-1.077c-0.82-0.287-1.764-0.431-2.83-0.431v18.888
				l3.691,0.708v12.274h-25.9v-12.274l3.691-0.708V293.283z"/>
			<path fill="#FBE4A8" d="M818.374,281.839h25.901v12.182l-3.691,0.708v5.076h14.796v-5.076l-3.691-0.708v-12.335h25.902v12.335
				l-3.691,0.708v17.442l3.691,0.708v12.274h-25.902v-12.274l3.691-0.708v-5.137h-14.796v5.137l3.691,0.708v12.274h-25.901v-12.274
				l3.691-0.708v-17.442l-3.691-0.708V281.839z"/>
			<path fill="#FBE4A8" d="M885.103,281.839h25.9v12.12l-3.691,0.708v17.503l3.691,0.708v12.274h-25.9v-12.274l3.691-0.708v-17.503
				l-3.691-0.708V281.839z"/>
			<path fill="#FBE4A8" d="M933.343,302.419v9.751l3.722,0.677v12.305h-18.518v-12.274l3.691-0.708v-17.503l-3.691-0.708v-12.12
				h22.209l14.797,23.348v-10.459l-3.691-0.769v-12.12h18.488v12.12l-3.691,0.708v17.503l3.691,0.708v12.274h-22.211
				L933.343,302.419z"/>
			<path fill="#FBE4A8" d="M1029.049,325.152h-20.764l-8.184-18.149v18.149h-22.209v-12.274l3.691-0.708v-17.503l-3.691-0.708
				v-12.12h22.209v17.288l8.184-17.288h19.934v7.813c-1.211,1.026-2.334,2.103-3.369,3.23c-1.035,1.128-2.005,2.266-2.906,3.415
				c-0.903,1.149-1.733,2.276-2.492,3.384s-1.445,2.164-2.061,3.168c0.799,1.272,1.65,2.599,2.553,3.984
				c0.902,1.384,1.841,2.773,2.814,4.168c0.974,1.395,1.989,2.764,3.046,4.106c1.056,1.344,2.138,2.6,3.245,3.769V325.152z"/>
			<path fill="#FBE4A8" d="M449.517,344.839h25.901v12.182l-3.691,0.708v5.076h14.796v-5.076l-3.691-0.708v-12.335h25.902v12.335
				l-3.691,0.708v17.442l3.691,0.708v12.274h-25.902v-12.274l3.691-0.708v-5.137h-14.796v5.137l3.691,0.708v12.274h-25.901v-12.274
				l3.691-0.708v-17.442l-3.691-0.708V344.839z"/>
			<path fill="#FBE4A8" d="M516.246,344.839h25.9v12.12l-3.691,0.708v17.503l3.691,0.708v12.274h-25.9v-12.274l3.691-0.708v-17.503
				l-3.691-0.708V344.839z"/>
			<path fill="#FBE4A8" d="M559.657,356.283c-1.067,0-2.011,0.144-2.83,0.431c-0.821,0.288-1.508,0.646-2.062,1.077
				s-0.975,0.897-1.261,1.4c-0.288,0.502-0.432,0.969-0.432,1.399h-5.137v-15.75h41.959v15.75h-5.137
				c0-0.431-0.145-0.897-0.432-1.399s-0.707-0.969-1.261-1.4s-1.241-0.789-2.062-1.077c-0.82-0.287-1.764-0.431-2.83-0.431v18.888
				l3.691,0.708v12.274h-25.9v-12.274l3.691-0.708V356.283z"/>
			<path fill="#FBE4A8" d="M605.651,356.283c-1.067,0-2.011,0.144-2.83,0.431c-0.821,0.288-1.508,0.646-2.062,1.077
				s-0.975,0.897-1.261,1.4c-0.288,0.502-0.432,0.969-0.432,1.399h-5.137v-15.75h41.959v15.75h-5.137
				c0-0.431-0.145-0.897-0.432-1.399s-0.707-0.969-1.261-1.4s-1.241-0.789-2.062-1.077c-0.82-0.287-1.764-0.431-2.83-0.431v18.888
				l3.691,0.708v12.274h-25.9v-12.274l3.691-0.708V356.283z"/>
			<path fill="#FBE4A8" d="M641.679,344.839h25.9v12.12l-3.691,0.708v17.503l3.691,0.708v12.274h-25.9v-12.274l3.691-0.708v-17.503
				l-3.691-0.708V344.839z"/>
			<path fill="#FBE4A8" d="M689.919,365.419v9.751l3.722,0.677v12.305h-18.518v-12.274l3.691-0.708v-17.503l-3.691-0.708v-12.12
				h22.209l14.797,23.348v-10.459l-3.691-0.769v-12.12h18.488v12.12l-3.691,0.708v17.503l3.691,0.708v12.274h-22.211
				L689.919,365.419z"/>
			<path fill="#FBE4A8" d="M732.931,365.911c0-3.855,0.584-7.183,1.753-9.982c1.169-2.8,2.83-5.106,4.983-6.922
				c2.153-1.814,4.753-3.158,7.798-4.029c3.046-0.872,6.444-1.308,10.198-1.308c2.275,0,4.332,0.113,6.167,0.338
				c1.835,0.226,3.486,0.513,4.953,0.861c1.466,0.349,2.758,0.733,3.876,1.154c1.117,0.42,2.107,0.826,2.969,1.215v13.381h-8.706
				c-0.472-0.677-0.938-1.266-1.399-1.769c-0.462-0.502-0.959-0.912-1.492-1.23c-0.533-0.317-1.128-0.558-1.784-0.723
				c-0.656-0.164-1.426-0.246-2.308-0.246c-1.066,0-2.106,0.159-3.122,0.477c-1.015,0.318-1.918,0.841-2.707,1.569
				s-1.426,1.682-1.907,2.86c-0.481,1.18-0.723,2.63-0.723,4.353c0,2.01,0.194,3.656,0.584,4.937
				c0.39,1.282,0.954,2.297,1.692,3.046s1.646,1.266,2.723,1.553c1.076,0.288,2.312,0.431,3.706,0.431
				c0.738,0,1.503-0.051,2.292-0.154c0.789-0.103,1.646-0.297,2.569-0.584v-3.507h-6.184v-7.567h17.996v20.426
				c-1.519,0.636-3.128,1.23-4.83,1.784c-1.702,0.555-3.41,1.036-5.122,1.446s-3.389,0.677-5.029,0.8s-3.158,0.185-4.553,0.185
				c-3.425,0-6.624-0.41-9.598-1.23s-5.558-2.184-7.752-4.091s-3.917-4.312-5.168-7.213S732.931,369.849,732.931,365.911z"/>
			<path fill="#FBE4A8" d="M813.724,356.283c-1.067,0-2.011,0.144-2.83,0.431c-0.821,0.288-1.508,0.646-2.062,1.077
				s-0.975,0.897-1.261,1.4c-0.288,0.502-0.432,0.969-0.432,1.399h-5.137v-15.75h41.959v15.75h-5.137
				c0-0.431-0.145-0.897-0.432-1.399s-0.707-0.969-1.261-1.4s-1.241-0.789-2.062-1.077c-0.82-0.287-1.764-0.431-2.83-0.431v18.888
				l3.691,0.708v12.274h-25.9v-12.274l3.691-0.708V356.283z"/>
			<path fill="#FBE4A8" d="M849.721,344.839h25.901v12.182l-3.691,0.708v5.076h14.796v-5.076l-3.691-0.708v-12.335h25.902v12.335
				l-3.691,0.708v17.442l3.691,0.708v12.274h-25.902v-12.274l3.691-0.708v-5.137h-14.796v5.137l3.691,0.708v12.274h-25.901v-12.274
				l3.691-0.708v-17.442l-3.691-0.708V344.839z"/>
			<path fill="#FBE4A8" d="M938.629,363.881l8.521-1.815v8.767l-8.521-1.846v6.798c1.23,0,2.42-0.087,3.568-0.262
				c1.148-0.174,2.215-0.415,3.199-0.723s1.887-0.666,2.707-1.077c0.82-0.41,1.527-0.851,2.122-1.323h4.215v15.75h-38.021v-12.274
				l3.691-0.708v-17.442l-3.691-0.708v-12.182h38.021v15.75h-4.215c-0.595-0.451-1.302-0.881-2.122-1.292
				c-0.82-0.41-1.723-0.769-2.707-1.077s-2.051-0.554-3.199-0.738s-2.338-0.277-3.568-0.277V363.881z"/>
			<path fill="#FBE4A8" d="M463.298,451.183l-11.812-30.547l-4.398-0.677v-12.12h28.085v12.12l-3.199,0.677l5.015,16.119
				l5.014-16.119l-3.199-0.677v-12.12h28.086v12.12l-3.169,0.677l4.983,16.119l5.014-16.119l-3.199-0.677v-12.274h21.287v12.274
				l-4.367,0.677l-11.812,30.547h-20.58l-5.599-16.643l-5.537,16.643H463.298z"/>
			<path fill="#FBE4A8" d="M561.189,451.706c-3.61,0-6.988-0.385-10.137-1.153c-3.148-0.77-5.886-2.092-8.213-3.969
				c-2.328-1.876-4.164-4.271-5.507-7.183s-2.015-6.408-2.015-10.489c0-4,0.672-7.409,2.015-10.229s3.185-5.117,5.522-6.891
				s5.075-3.071,8.213-3.892s6.511-1.23,10.121-1.23c3.588,0,6.956,0.41,10.104,1.23s5.896,2.118,8.244,3.892
				s4.199,4.071,5.553,6.891s2.03,6.229,2.03,10.229c0,2.707-0.308,5.163-0.923,7.367s-1.481,4.163-2.6,5.875
				c-1.118,1.713-2.461,3.189-4.029,4.43c-1.569,1.241-3.317,2.267-5.245,3.076c-1.928,0.811-3.999,1.354-6.214,1.631
				C565.895,451.567,563.587,451.706,561.189,451.706z M561.189,419.775c-1.211,0-2.23,0.154-3.062,0.461
				c-0.83,0.309-1.518,0.708-2.061,1.2c-0.544,0.492-0.97,1.057-1.276,1.692c-0.309,0.636-0.528,1.287-0.662,1.953
				s-0.215,1.322-0.246,1.969c-0.03,0.646-0.046,1.215-0.046,1.707c0,0.472,0.01,1.03,0.03,1.677
				c0.021,0.646,0.093,1.322,0.216,2.03c0.123,0.707,0.328,1.41,0.615,2.107s0.702,1.322,1.246,1.876
				c0.543,0.554,1.24,1,2.092,1.338c0.851,0.339,1.901,0.508,3.153,0.508c1.23,0,2.271-0.164,3.122-0.492
				c0.851-0.328,1.548-0.764,2.092-1.308c0.543-0.543,0.969-1.153,1.276-1.83s0.527-1.358,0.661-2.046
				c0.134-0.687,0.216-1.358,0.246-2.015c0.031-0.656,0.046-1.22,0.046-1.691c0-0.492-0.015-1.062-0.046-1.708
				c-0.03-0.646-0.112-1.308-0.246-1.983c-0.134-0.678-0.354-1.339-0.661-1.984c-0.308-0.646-0.733-1.226-1.276-1.738
				c-0.544-0.513-1.241-0.928-2.092-1.246C563.46,419.934,562.419,419.775,561.189,419.775z"/>
			<path fill="#FBE4A8" d="M615.244,439.339c0.861,0,1.682-0.118,2.461-0.354s1.502-0.543,2.169-0.923
				c0.666-0.38,1.271-0.8,1.814-1.262c0.543-0.461,1.021-0.928,1.431-1.399h5.138v15.75h-35.191v-12.273l3.691-0.708v-17.503
				l-3.691-0.708v-12.12h25.9v12.12l-3.722,0.708V439.339z"/>
			<path fill="#FBE4A8" d="M656.162,427.804l7.875-1.815v9.382l-7.875-1.846v4.646l3.691,0.8v12.182h-25.901v-12.273l3.691-0.708
				v-17.442l-3.691-0.707v-12.182h35.775v15.75h-5.137c-0.882-0.923-2.041-1.718-3.477-2.384s-3.086-1-4.952-1V427.804z"/>
			<path fill="#FBE4A8" d="M718.529,439.339c0.861,0,1.682-0.118,2.461-0.354s1.502-0.543,2.169-0.923
				c0.666-0.38,1.271-0.8,1.814-1.262c0.543-0.461,1.021-0.928,1.431-1.399h5.138v15.75H696.35v-12.273l3.691-0.708v-17.503
				l-3.691-0.708v-12.12h25.9v12.12l-3.722,0.708V439.339z"/>
			<path fill="#FBE4A8" d="M737.269,407.839h25.9v12.12l-3.691,0.708v17.503l3.691,0.708v12.273h-25.9v-12.273l3.691-0.708v-17.503
				l-3.691-0.708V407.839z"/>
			<path fill="#FBE4A8" d="M821.87,451.152h-20.764l-8.184-18.149v18.149h-22.209v-12.273l3.691-0.708v-17.503l-3.691-0.708v-12.12
				h22.209v17.288l8.184-17.288h19.934v7.813c-1.211,1.025-2.334,2.103-3.369,3.229c-1.035,1.129-2.005,2.267-2.906,3.415
				c-0.903,1.148-1.733,2.276-2.492,3.384s-1.445,2.164-2.061,3.168c0.799,1.272,1.65,2.6,2.553,3.984
				c0.902,1.384,1.841,2.773,2.814,4.168s1.989,2.764,3.046,4.106c1.056,1.344,2.138,2.6,3.245,3.769V451.152z"/>
			<path fill="#FBE4A8" d="M848.853,426.88l8.521-1.814v8.768l-8.521-1.846v6.798c1.23,0,2.42-0.087,3.568-0.262
				c1.148-0.174,2.215-0.415,3.199-0.723s1.887-0.666,2.707-1.077c0.82-0.409,1.527-0.851,2.122-1.322h4.215v15.75h-38.021v-12.273
				l3.691-0.708v-17.442l-3.691-0.707v-12.182h38.021v15.75h-4.215c-0.595-0.451-1.302-0.882-2.122-1.292s-1.723-0.769-2.707-1.077
				c-0.984-0.307-2.051-0.553-3.199-0.738c-1.148-0.184-2.338-0.276-3.568-0.276V426.88z"/>
			<path fill="#FBE4A8" d="M905.713,451.183l-11.812-30.547l-4.398-0.677v-12.12h28.085v12.12l-3.199,0.677l5.015,16.119
				l5.014-16.119l-3.199-0.677v-12.12h28.086v12.12l-3.169,0.677l4.983,16.119l5.014-16.119l-3.199-0.677v-12.274h21.287v12.274
				l-4.367,0.677l-11.812,30.547h-20.58l-5.599-16.643l-5.537,16.643H905.713z"/>
			<path fill="#FBE4A8" d="M1001.481,426.88l8.521-1.814v8.768l-8.521-1.846v6.798c1.23,0,2.42-0.087,3.568-0.262
				c1.148-0.174,2.215-0.415,3.199-0.723s1.887-0.666,2.707-1.077c0.82-0.409,1.527-0.851,2.122-1.322h4.215v15.75h-38.021v-12.273
				l3.691-0.708v-17.442l-3.691-0.707v-12.182h38.021v15.75h-4.215c-0.595-0.451-1.302-0.882-2.122-1.292s-1.723-0.769-2.707-1.077
				c-0.984-0.307-2.051-0.553-3.199-0.738c-1.148-0.184-2.338-0.276-3.568-0.276V426.88z"/>
			<path fill="#FBE4A8" d="M483.14,470.839c2.788,0.595,5.301,1.436,7.536,2.522s4.138,2.477,5.706,4.168
				c1.569,1.692,2.773,3.723,3.615,6.091c0.84,2.369,1.261,5.133,1.261,8.291c0,2.768-0.323,5.244-0.969,7.429
				c-0.646,2.184-1.569,4.102-2.769,5.752c-1.2,1.651-2.672,3.051-4.414,4.199c-1.744,1.148-3.707,2.082-5.892,2.8
				c-2.184,0.718-4.583,1.24-7.198,1.568c-2.614,0.328-5.398,0.492-8.352,0.492h-22.21v-12.273l3.691-0.708v-18.55l-3.691-0.707
				v-11.074H483.14z M474.496,501.171c1.374,0,2.532-0.103,3.477-0.308c0.942-0.205,1.717-0.492,2.322-0.861
				c0.604-0.369,1.076-0.83,1.415-1.385c0.338-0.553,0.584-1.168,0.738-1.846c0.153-0.676,0.24-1.425,0.261-2.245
				s0.031-1.692,0.031-2.614c0-0.924-0.011-1.795-0.031-2.615s-0.107-1.573-0.261-2.261c-0.154-0.688-0.4-1.303-0.738-1.846
				c-0.339-0.543-0.811-1.005-1.415-1.385c-0.605-0.379-1.38-0.671-2.322-0.876c-0.944-0.205-2.103-0.309-3.477-0.309h-2.83v18.55
				H474.496z"/>
			<path fill="#FBE4A8" d="M507.263,470.839h25.9v12.12l-3.691,0.708v17.503l3.691,0.708v12.273h-25.9v-12.273l3.691-0.708v-17.503
				l-3.691-0.708V470.839z"/>
			<path fill="#FBE4A8" d="M574.299,470.839c2.788,0.595,5.301,1.436,7.536,2.522s4.138,2.477,5.706,4.168
				c1.569,1.692,2.773,3.723,3.615,6.091c0.84,2.369,1.261,5.133,1.261,8.291c0,2.768-0.323,5.244-0.969,7.429
				c-0.646,2.184-1.569,4.102-2.769,5.752c-1.2,1.651-2.672,3.051-4.414,4.199c-1.744,1.148-3.707,2.082-5.892,2.8
				c-2.184,0.718-4.583,1.24-7.198,1.568c-2.614,0.328-5.398,0.492-8.352,0.492h-22.21v-12.273l3.691-0.708v-18.55l-3.691-0.707
				v-11.074H574.299z M565.655,501.171c1.374,0,2.532-0.103,3.477-0.308c0.942-0.205,1.717-0.492,2.322-0.861
				c0.604-0.369,1.076-0.83,1.415-1.385c0.338-0.553,0.584-1.168,0.738-1.846c0.153-0.676,0.24-1.425,0.261-2.245
				s0.031-1.692,0.031-2.614c0-0.924-0.011-1.795-0.031-2.615s-0.107-1.573-0.261-2.261c-0.154-0.688-0.4-1.303-0.738-1.846
				c-0.339-0.543-0.811-1.005-1.415-1.385c-0.605-0.379-1.38-0.671-2.322-0.876c-0.944-0.205-2.103-0.309-3.477-0.309h-2.83v18.55
				H565.655z"/>
			<path fill="#FBE4A8" d="M629.683,482.283c-1.067,0-2.011,0.144-2.83,0.431c-0.821,0.287-1.508,0.646-2.062,1.077
				c-0.554,0.43-0.975,0.896-1.261,1.399c-0.288,0.503-0.432,0.969-0.432,1.399h-5.137v-15.75h41.959v15.75h-5.137
				c0-0.431-0.145-0.896-0.432-1.399s-0.707-0.97-1.261-1.399c-0.554-0.432-1.241-0.79-2.062-1.077s-1.764-0.431-2.83-0.431v18.888
				l3.691,0.708v12.273h-25.9v-12.273l3.691-0.708V482.283z"/>
			<path fill="#FBE4A8" d="M665.68,470.839h25.901v12.182l-3.691,0.707v5.076h14.796v-5.076l-3.691-0.707v-12.336h25.902v12.336
				l-3.691,0.707v17.442l3.691,0.708v12.273h-25.902v-12.273l3.691-0.708v-5.138H687.89v5.138l3.691,0.708v12.273H665.68v-12.273
				l3.691-0.708v-17.442l-3.691-0.707V470.839z"/>
			<path fill="#FBE4A8" d="M754.588,489.88l8.521-1.814v8.768l-8.521-1.846v6.798c1.23,0,2.42-0.087,3.568-0.262
				c1.148-0.174,2.215-0.415,3.199-0.723s1.887-0.666,2.707-1.077c0.82-0.409,1.527-0.851,2.122-1.322h4.215v15.75h-38.021v-12.273
				l3.691-0.708v-17.442l-3.691-0.707v-12.182H770.4v15.75h-4.215c-0.595-0.451-1.302-0.882-2.122-1.292s-1.723-0.769-2.707-1.077
				c-0.984-0.307-2.051-0.553-3.199-0.738c-1.148-0.184-2.338-0.276-3.568-0.276V489.88z"/>
			<path fill="#FBE4A8" d="M835.38,500.525c0,1.906-0.272,3.594-0.815,5.06c-0.543,1.467-1.281,2.738-2.215,3.814
				c-0.934,1.077-2.041,1.975-3.322,2.692c-1.281,0.718-2.66,1.297-4.137,1.737c-1.477,0.441-3.021,0.697-4.63,0.77
				c-1.61,0.071-3.215,0.107-4.814,0.107c-2.215,0-4.214-0.052-5.999-0.153c-1.783-0.104-3.379-0.329-4.783-0.678
				c-1.404-0.348-2.646-0.732-3.722-1.153c-1.077-0.42-2.025-0.835-2.846-1.245v-10.675h8.706c0.861,1.354,1.846,2.349,2.953,2.983
				c1.107,0.637,2.245,0.954,3.414,0.954c0.349,0,0.738-0.03,1.169-0.093c0.431-0.061,0.831-0.256,1.2-0.584
				s0.681-0.835,0.938-1.522s0.385-1.656,0.385-2.907c-1.661-0.144-3.307-0.354-4.938-0.631c-1.63-0.276-3.188-0.65-4.676-1.123
				c-1.487-0.471-2.866-1.071-4.137-1.799c-1.272-0.728-2.374-1.61-3.308-2.646s-1.666-2.256-2.199-3.661
				c-0.533-1.404-0.8-3.02-0.8-4.845c0-2.092,0.267-3.922,0.8-5.491c0.533-1.568,1.261-2.917,2.185-4.045
				c0.922-1.128,2.015-2.061,3.275-2.799c1.262-0.738,2.62-1.323,4.076-1.754s2.974-0.733,4.553-0.907s3.158-0.262,4.737-0.262
				c2.235,0,4.24,0.113,6.014,0.339s3.363,0.513,4.769,0.861c1.404,0.349,2.646,0.733,3.722,1.153
				c1.077,0.42,2.035,0.825,2.876,1.215v10.767h-9.32c-0.779-1.477-1.672-2.553-2.676-3.23c-1.006-0.676-2.031-1.015-3.076-1.015
				c-0.35,0-0.749,0.057-1.2,0.169c-0.451,0.113-0.872,0.364-1.261,0.754c-0.391,0.39-0.719,0.964-0.984,1.723
				c-0.268,0.759-0.4,1.784-0.4,3.076c3.384,0.123,6.353,0.482,8.905,1.076c2.554,0.596,4.691,1.482,6.414,2.661
				c1.723,1.18,3.015,2.697,3.876,4.553C834.95,495.629,835.38,497.879,835.38,500.525z"/>
			<path fill="#FBE4A8" d="M856.735,491.42v9.751l3.722,0.677v12.305h-18.518v-12.273l3.691-0.708v-17.503l-3.691-0.708v-12.12
				h22.209l14.797,23.348v-10.459l-3.691-0.769v-12.12h18.488v12.12l-3.691,0.708v17.503l3.691,0.708v12.273h-22.211L856.735,491.42
				z"/>
			<path fill="#FBE4A8" d="M931.523,514.152l-1.538-7.291h-12.089l-1.539,7.291H899.9v-14.273l3.568-0.707l8.521-28.332h23.871
				l8.582,28.332l3.537,0.707v14.273H931.523z M919.772,497.14h8.337l-4.184-17.011L919.772,497.14z"/>
			<path fill="#FBE4A8" d="M1005.296,514.152h-20.764l-8.184-18.149v18.149H954.14v-12.273l3.691-0.708v-17.503l-3.691-0.708v-12.12
				h22.209v17.288l8.184-17.288h19.934v7.813c-1.211,1.025-2.334,2.103-3.369,3.229c-1.035,1.129-2.005,2.267-2.906,3.415
				c-0.903,1.148-1.733,2.276-2.492,3.384s-1.445,2.164-2.061,3.168c0.799,1.272,1.65,2.6,2.553,3.984
				c0.902,1.384,1.841,2.773,2.814,4.168s1.989,2.764,3.046,4.106c1.056,1.344,2.138,2.6,3.245,3.769V514.152z"/>
			<path fill="#FBE4A8" d="M1032.281,489.88l8.521-1.814v8.768l-8.521-1.846v6.798c1.23,0,2.42-0.087,3.568-0.262
				c1.148-0.174,2.215-0.415,3.199-0.723s1.887-0.666,2.707-1.077c0.82-0.409,1.527-0.851,2.122-1.322h4.215v15.75h-38.022v-12.273
				l3.691-0.708v-17.442l-3.691-0.707v-12.182h38.022v15.75h-4.215c-0.595-0.451-1.302-0.882-2.122-1.292s-1.723-0.769-2.707-1.077
				c-0.984-0.307-2.051-0.553-3.199-0.738c-1.148-0.184-2.338-0.276-3.568-0.276V489.88z"/>
			<path fill="#FBE4A8" d="M1075.39,470.839h25.9v12.12l-3.691,0.708v17.503l3.691,0.708v12.273h-25.9v-12.273l3.691-0.708v-17.503
				l-3.691-0.708V470.839z"/>
			<path fill="#FBE4A8" d="M1146.517,500.525c0,1.906-0.272,3.594-0.815,5.06c-0.543,1.467-1.281,2.738-2.215,3.814
				c-0.934,1.077-2.041,1.975-3.322,2.692c-1.281,0.718-2.66,1.297-4.137,1.737c-1.477,0.441-3.021,0.697-4.63,0.77
				c-1.61,0.071-3.215,0.107-4.814,0.107c-2.215,0-4.214-0.052-5.999-0.153c-1.783-0.104-3.379-0.329-4.783-0.678
				c-1.404-0.348-2.646-0.732-3.722-1.153c-1.077-0.42-2.025-0.835-2.846-1.245v-10.675h8.706c0.861,1.354,1.846,2.349,2.953,2.983
				c1.107,0.637,2.245,0.954,3.414,0.954c0.349,0,0.738-0.03,1.169-0.093c0.431-0.061,0.831-0.256,1.2-0.584
				s0.681-0.835,0.938-1.522s0.385-1.656,0.385-2.907c-1.661-0.144-3.307-0.354-4.938-0.631c-1.63-0.276-3.188-0.65-4.676-1.123
				c-1.487-0.471-2.866-1.071-4.137-1.799c-1.272-0.728-2.374-1.61-3.308-2.646s-1.666-2.256-2.199-3.661
				c-0.533-1.404-0.8-3.02-0.8-4.845c0-2.092,0.267-3.922,0.8-5.491c0.533-1.568,1.261-2.917,2.185-4.045
				c0.922-1.128,2.015-2.061,3.275-2.799c1.262-0.738,2.62-1.323,4.076-1.754s2.974-0.733,4.553-0.907s3.158-0.262,4.737-0.262
				c2.235,0,4.24,0.113,6.014,0.339s3.363,0.513,4.769,0.861c1.404,0.349,2.646,0.733,3.722,1.153
				c1.077,0.42,2.035,0.825,2.876,1.215v10.767h-9.32c-0.779-1.477-1.672-2.553-2.676-3.23c-1.006-0.676-2.031-1.015-3.076-1.015
				c-0.35,0-0.749,0.057-1.2,0.169c-0.451,0.113-0.872,0.364-1.261,0.754c-0.391,0.39-0.719,0.964-0.984,1.723
				c-0.268,0.759-0.4,1.784-0.4,3.076c3.384,0.123,6.353,0.482,8.905,1.076c2.554,0.596,4.691,1.482,6.414,2.661
				c1.723,1.18,3.015,2.697,3.876,4.553C1146.087,495.629,1146.517,497.879,1146.517,500.525z"/>
			<path fill="#FBE4A8" d="M479.787,577.152l-1.538-7.291H466.16l-1.539,7.291h-16.457v-14.273l3.568-0.707l8.521-28.332h23.871
				l8.582,28.332l3.537,0.707v14.273H479.787z M468.036,560.14h8.337l-4.184-17.011L468.036,560.14z"/>
			<path fill="#FBE4A8" d="M522.098,554.912c0-3.855,0.584-7.184,1.753-9.982c1.169-2.8,2.83-5.106,4.983-6.922
				c2.153-1.814,4.753-3.157,7.798-4.029c3.046-0.872,6.444-1.308,10.198-1.308c2.275,0,4.332,0.113,6.167,0.339
				s3.486,0.513,4.953,0.861c1.466,0.349,2.758,0.733,3.876,1.153c1.117,0.42,2.107,0.825,2.969,1.215v13.382h-8.706
				c-0.472-0.678-0.938-1.267-1.399-1.77c-0.462-0.502-0.959-0.912-1.492-1.23c-0.533-0.317-1.128-0.559-1.784-0.723
				s-1.426-0.246-2.308-0.246c-1.066,0-2.106,0.159-3.122,0.477c-1.015,0.318-1.918,0.842-2.707,1.569s-1.426,1.682-1.907,2.86
				c-0.481,1.18-0.723,2.631-0.723,4.354c0,2.01,0.194,3.655,0.584,4.937c0.39,1.282,0.954,2.297,1.692,3.046
				s1.646,1.267,2.723,1.553c1.076,0.288,2.312,0.432,3.706,0.432c0.738,0,1.503-0.052,2.292-0.154s1.646-0.297,2.569-0.584v-3.508
				h-6.184v-7.566h17.996v20.426c-1.519,0.636-3.128,1.23-4.83,1.783c-1.702,0.555-3.41,1.036-5.122,1.446s-3.389,0.677-5.029,0.8
				s-3.158,0.185-4.553,0.185c-3.425,0-6.624-0.41-9.598-1.23s-5.558-2.185-7.752-4.091c-2.194-1.908-3.917-4.312-5.168-7.214
				S522.098,558.849,522.098,554.912z"/>
			<path fill="#FBE4A8" d="M596.854,577.706c-3.61,0-6.988-0.385-10.137-1.153c-3.148-0.77-5.886-2.092-8.213-3.969
				c-2.328-1.876-4.164-4.271-5.507-7.183s-2.015-6.408-2.015-10.489c0-4,0.672-7.409,2.015-10.229s3.185-5.117,5.522-6.891
				s5.075-3.071,8.213-3.892s6.511-1.23,10.121-1.23c3.588,0,6.956,0.41,10.104,1.23s5.896,2.118,8.244,3.892
				s4.199,4.071,5.553,6.891s2.03,6.229,2.03,10.229c0,2.707-0.308,5.163-0.923,7.367s-1.481,4.163-2.6,5.875
				c-1.118,1.713-2.461,3.189-4.029,4.43c-1.569,1.241-3.317,2.267-5.245,3.076c-1.928,0.811-3.999,1.354-6.214,1.631
				C601.56,577.567,599.253,577.706,596.854,577.706z M596.854,545.775c-1.211,0-2.23,0.154-3.062,0.461
				c-0.83,0.309-1.518,0.708-2.061,1.2c-0.544,0.492-0.97,1.057-1.276,1.692c-0.309,0.636-0.528,1.287-0.662,1.953
				s-0.215,1.322-0.246,1.969c-0.03,0.646-0.046,1.215-0.046,1.707c0,0.472,0.01,1.03,0.03,1.677
				c0.021,0.646,0.093,1.322,0.216,2.03c0.123,0.707,0.328,1.41,0.615,2.107s0.702,1.322,1.246,1.876
				c0.543,0.554,1.24,1,2.092,1.338c0.851,0.339,1.901,0.508,3.153,0.508c1.23,0,2.271-0.164,3.122-0.492
				c0.851-0.328,1.548-0.764,2.092-1.308c0.543-0.543,0.969-1.153,1.276-1.83s0.527-1.358,0.661-2.046
				c0.134-0.687,0.216-1.358,0.246-2.015c0.031-0.656,0.046-1.22,0.046-1.691c0-0.492-0.015-1.062-0.046-1.708
				c-0.03-0.646-0.112-1.308-0.246-1.983c-0.134-0.678-0.354-1.339-0.661-1.984c-0.308-0.646-0.733-1.226-1.276-1.738
				c-0.544-0.513-1.241-0.928-2.092-1.246C599.125,545.934,598.085,545.775,596.854,545.775z"/>
			<path fill="#FBE4A8" d="M653.892,577.706c-3.61,0-6.988-0.385-10.137-1.153c-3.148-0.77-5.886-2.092-8.213-3.969
				c-2.328-1.876-4.164-4.271-5.507-7.183s-2.015-6.408-2.015-10.489c0-4,0.672-7.409,2.015-10.229s3.185-5.117,5.522-6.891
				s5.075-3.071,8.213-3.892s6.511-1.23,10.121-1.23c3.588,0,6.956,0.41,10.104,1.23s5.896,2.118,8.244,3.892
				s4.199,4.071,5.553,6.891s2.03,6.229,2.03,10.229c0,2.707-0.308,5.163-0.923,7.367s-1.481,4.163-2.6,5.875
				c-1.118,1.713-2.461,3.189-4.029,4.43c-1.569,1.241-3.317,2.267-5.245,3.076c-1.928,0.811-3.999,1.354-6.214,1.631
				C658.598,577.567,656.291,577.706,653.892,577.706z M653.892,545.775c-1.211,0-2.23,0.154-3.062,0.461
				c-0.83,0.309-1.518,0.708-2.061,1.2c-0.544,0.492-0.97,1.057-1.276,1.692c-0.309,0.636-0.528,1.287-0.662,1.953
				s-0.215,1.322-0.246,1.969c-0.03,0.646-0.046,1.215-0.046,1.707c0,0.472,0.01,1.03,0.03,1.677
				c0.021,0.646,0.093,1.322,0.216,2.03c0.123,0.707,0.328,1.41,0.615,2.107s0.702,1.322,1.246,1.876
				c0.543,0.554,1.24,1,2.092,1.338c0.851,0.339,1.901,0.508,3.153,0.508c1.23,0,2.271-0.164,3.122-0.492
				c0.851-0.328,1.548-0.764,2.092-1.308c0.543-0.543,0.969-1.153,1.276-1.83s0.527-1.358,0.661-2.046
				c0.134-0.687,0.216-1.358,0.246-2.015c0.031-0.656,0.046-1.22,0.046-1.691c0-0.492-0.015-1.062-0.046-1.708
				c-0.03-0.646-0.112-1.308-0.246-1.983c-0.134-0.678-0.354-1.339-0.661-1.984c-0.308-0.646-0.733-1.226-1.276-1.738
				c-0.544-0.513-1.241-0.928-2.092-1.246C656.163,545.934,655.123,545.775,653.892,545.775z"/>
			<path fill="#FBE4A8" d="M719.266,533.839c2.788,0.595,5.301,1.436,7.536,2.522s4.138,2.477,5.706,4.168
				c1.569,1.692,2.773,3.723,3.615,6.091c0.84,2.369,1.261,5.133,1.261,8.291c0,2.768-0.323,5.244-0.969,7.429
				c-0.646,2.184-1.569,4.102-2.769,5.752c-1.2,1.651-2.672,3.051-4.414,4.199c-1.744,1.148-3.707,2.082-5.892,2.8
				c-2.184,0.718-4.583,1.24-7.198,1.568c-2.614,0.328-5.398,0.492-8.352,0.492h-22.21v-12.273l3.691-0.708v-18.55l-3.691-0.707
				v-11.074H719.266z M710.622,564.171c1.374,0,2.532-0.103,3.477-0.308c0.942-0.205,1.717-0.492,2.322-0.861
				c0.604-0.369,1.076-0.83,1.415-1.385c0.338-0.553,0.584-1.168,0.738-1.846c0.153-0.676,0.24-1.425,0.261-2.245
				s0.031-1.692,0.031-2.614c0-0.924-0.011-1.795-0.031-2.615s-0.107-1.573-0.261-2.261c-0.154-0.688-0.4-1.303-0.738-1.846
				c-0.339-0.543-0.811-1.005-1.415-1.385c-0.605-0.379-1.38-0.671-2.322-0.876c-0.944-0.205-2.103-0.309-3.477-0.309h-2.83v18.55
				H710.622z"/>
			<path fill="#FBE4A8" d="M764.684,533.839h25.9v12.12l-3.691,0.708v17.503l3.691,0.708v12.273h-25.9v-12.273l3.691-0.708v-17.503
				l-3.691-0.708V533.839z"/>
			<path fill="#FBE4A8" d="M831.719,533.839c2.788,0.595,5.301,1.436,7.536,2.522s4.138,2.477,5.706,4.168
				c1.569,1.692,2.773,3.723,3.615,6.091c0.84,2.369,1.261,5.133,1.261,8.291c0,2.768-0.323,5.244-0.969,7.429
				c-0.646,2.184-1.569,4.102-2.769,5.752c-1.2,1.651-2.672,3.051-4.414,4.199c-1.744,1.148-3.707,2.082-5.892,2.8
				c-2.184,0.718-4.583,1.24-7.198,1.568c-2.614,0.328-5.398,0.492-8.352,0.492h-22.21v-12.273l3.691-0.708v-18.55l-3.691-0.707
				v-11.074H831.719z M823.075,564.171c1.374,0,2.532-0.103,3.477-0.308c0.942-0.205,1.717-0.492,2.322-0.861
				c0.604-0.369,1.076-0.83,1.415-1.385c0.338-0.553,0.584-1.168,0.738-1.846c0.153-0.676,0.24-1.425,0.261-2.245
				s0.031-1.692,0.031-2.614c0-0.924-0.011-1.795-0.031-2.615s-0.107-1.573-0.261-2.261c-0.154-0.688-0.4-1.303-0.738-1.846
				c-0.339-0.543-0.811-1.005-1.415-1.385c-0.605-0.379-1.38-0.671-2.322-0.876c-0.944-0.205-2.103-0.309-3.477-0.309h-2.83v18.55
				H823.075z"/>
			<path fill="#FBE4A8" d="M877.992,552.88l8.521-1.814v8.768l-8.521-1.846v6.798c1.23,0,2.42-0.087,3.568-0.262
				c1.148-0.174,2.215-0.415,3.199-0.723s1.887-0.666,2.707-1.077c0.82-0.409,1.527-0.851,2.122-1.322h4.215v15.75h-38.021v-12.273
				l3.691-0.708v-17.442l-3.691-0.707v-12.182h38.021v15.75h-4.215c-0.595-0.451-1.302-0.882-2.122-1.292s-1.723-0.769-2.707-1.077
				c-0.984-0.307-2.051-0.553-3.199-0.738c-1.148-0.184-2.338-0.276-3.568-0.276V552.88z"/>
			<path fill="#FBE4A8" d="M930.539,577.152l-1.538-7.291h-12.089l-1.539,7.291h-16.457v-14.273l3.568-0.707l8.521-28.332h23.871
				l8.582,28.332l3.537,0.707v14.273H930.539z M918.788,560.14h8.337l-4.184-17.011L918.788,560.14z"/>
			<path fill="#FBE4A8" d="M953.37,561.402h19.688v15.75H953.37V561.402z M980.655,561.402h19.688v15.75h-19.688V561.402z
				 M1007.941,561.402h19.688v15.75h-19.688V561.402z"/>
		</g>
	</g>
</g>
<g id="fonts" display="none">
	<polygon display="inline" fill="#A85C22" points="646.946,618.774 426.475,655.857 664.2,776.034 664.2,652.446 	"/>
	<polygon display="inline" fill="#A85C22" points="1088.566,193.683 1143.586,149.149 927.787,40.732 914.073,204.454 	"/>
	<linearGradient id="SVGID_4_" gradientUnits="userSpaceOnUse" x1="622.0936" y1="749.7307" x2="548.7391" y2="818.3079">
		<stop  offset="0" style="stop-color:#B77430"/>
		<stop  offset="0.358" style="stop-color:#BF7A31"/>
		<stop  offset="0.567" style="stop-color:#C78032"/>
		<stop  offset="1" style="stop-color:#D19853"/>
	</linearGradient>
	<polygon display="inline" fill="url(#SVGID_4_)" points="664.2,776.034 511.229,804.039 573.021,729.94 	"/>
	<linearGradient id="SVGID_6_" gradientUnits="userSpaceOnUse" x1="360.432" y1="402.503" x2="1209.2041" y2="402.503">
		<stop  offset="0" style="stop-color:#B77430"/>
		<stop  offset="0.358" style="stop-color:#BF7A31"/>
		<stop  offset="0.567" style="stop-color:#C78032"/>
		<stop  offset="1" style="stop-color:#D19853"/>
	</linearGradient>
	<polygon display="inline" fill="url(#SVGID_6_)" points="360.432,228.856 1143.586,149.149 1209.204,644.625 426.475,655.857 	"/>
	<g display="inline">
		<rect x="446.564" y="281.777" fill="none" width="732.065" height="312.446"/>
		<text transform="matrix(1 0 0 1 446.564 325.1519)"><tspan x="0" y="0" fill="#FBE4A8" font-family="'HoltwoodOneSC'" font-size="63" letter-spacing="1">I don’t think </tspan><tspan x="0" y="63" fill="#FBE4A8" font-family="'HoltwoodOneSC'" font-size="63" letter-spacing="1">hitting the </tspan><tspan x="0" y="126" fill="#FBE4A8" font-family="'HoltwoodOneSC'" font-size="63" letter-spacing="1">wolf like we </tspan><tspan x="0" y="189" fill="#FBE4A8" font-family="'HoltwoodOneSC'" font-size="63" letter-spacing="1">did the snake is </tspan><tspan x="0" y="252" fill="#FBE4A8" font-family="'HoltwoodOneSC'" font-size="63" letter-spacing="1">a good idea…</tspan></text>
	</g>
</g>
</svg>
