<?xml version="1.0" encoding="utf-8"?>
<!-- Generator: Adobe Illustrator 17.0.0, SVG Export Plug-In . SVG Version: 6.00 Build 0)  -->
<!DOCTYPE svg PUBLIC "-//W3C//DTD SVG 1.1//EN" "http://www.w3.org/Graphics/SVG/1.1/DTD/svg11.dtd">
<svg version="1.1" xmlns="http://www.w3.org/2000/svg" xmlns:xlink="http://www.w3.org/1999/xlink" x="0px" y="0px" width="1600px"
	 height="900px" viewBox="0 0 1600 900" enable-background="new 0 0 1600 900" xml:space="preserve">
<g id="Layer_3" display="none">
</g>
<g id="outlune">
	<polygon fill="#A85C22" points="617.174,258.632 617.174,139.1 430.476,279.949 541.456,297.1 	"/>
	<linearGradient id="SVGID_1_" gradientUnits="userSpaceOnUse" x1="543.0356" y1="332.9499" x2="1264.3302" y2="452.1464">
		<stop  offset="0" style="stop-color:#B77430"/>
		<stop  offset="0.358" style="stop-color:#BF7A31"/>
		<stop  offset="0.567" style="stop-color:#C78032"/>
		<stop  offset="1" style="stop-color:#D19853"/>
	</linearGradient>
	<polygon fill="url(#SVGID_1_)" points="430.476,279.949 1143.586,198.527 1117.876,581.101 501.911,559.819 	"/>
	<g>
		<path fill="#FBE4A8" d="M548.077,394.843l-12.98-34.245l-4.824-0.762V346.06h30.818v13.775l-3.492,0.762l5.491,18.059
			l5.491-18.059l-3.492-0.762V346.06h30.818v13.775l-3.491,0.762l5.491,18.059l5.49-18.059l-3.491-0.762V346.06h23.359v13.775
			l-4.792,0.762l-12.981,34.245h-22.598l-6.126-18.662l-6.094,18.662H548.077z"/>
		<path fill="#FBE4A8" d="M628.445,350.123h26.724v12.568l-3.809,0.73v5.236h15.267v-5.236l-3.809-0.73v-12.727h26.723v12.727
			l-3.809,0.73v17.996l3.809,0.729v12.663h-26.723v-12.663l3.809-0.729v-5.301H651.36v5.301l3.809,0.729v12.663h-26.724v-12.663
			l3.809-0.729v-17.996l-3.809-0.73V350.123z"/>
		<path fill="#FBE4A8" d="M728.491,394.81l-1.587-7.521h-12.474l-1.586,7.521h-16.98v-14.727l3.682-0.729l8.791-29.231h24.629
			l8.855,29.231l3.65,0.729v14.727H728.491z M716.367,377.26h8.601l-4.316-17.551L716.367,377.26z"/>
		<path fill="#FBE4A8" d="M759.411,361.93c-1.1,0-2.073,0.148-2.92,0.445c-0.846,0.296-1.555,0.666-2.126,1.11
			s-1.005,0.926-1.302,1.444c-0.296,0.519-0.443,1-0.443,1.443h-5.301v-16.25h43.291v16.25h-5.301c0-0.443-0.147-0.925-0.443-1.443
			c-0.297-0.519-0.73-1-1.302-1.444s-1.28-0.814-2.126-1.11c-0.847-0.297-1.82-0.445-2.92-0.445v19.488l3.809,0.729v12.663h-26.725
			v-12.663l3.809-0.729V361.93z"/>
		<path fill="#FBE4A8" d="M852.702,350.123c2.878,0.614,5.47,1.482,7.776,2.604c2.306,1.121,4.269,2.555,5.888,4.301
			c1.618,1.744,2.861,3.84,3.729,6.283c0.868,2.443,1.302,5.295,1.302,8.554c0,2.856-0.333,5.411-1,7.665
			c-0.666,2.254-1.618,4.232-2.856,5.936c-1.237,1.703-2.756,3.146-4.555,4.332c-1.798,1.185-3.824,2.147-6.077,2.888
			c-2.254,0.741-4.729,1.28-7.427,1.618c-2.698,0.34-5.57,0.508-8.617,0.508h-22.915v-12.663l3.809-0.729v-19.139l-3.809-0.73
			v-11.426H852.702z M843.784,381.418c1.417,0,2.613-0.105,3.586-0.318c0.974-0.211,1.772-0.508,2.396-0.889s1.111-0.856,1.46-1.428
			c0.35-0.571,0.604-1.206,0.762-1.904c0.159-0.698,0.249-1.471,0.271-2.316c0.021-0.847,0.031-1.746,0.031-2.698
			s-0.011-1.851-0.031-2.698c-0.021-0.846-0.111-1.623-0.271-2.332c-0.158-0.709-0.412-1.344-0.762-1.904
			c-0.349-0.561-0.836-1.037-1.46-1.428c-0.624-0.393-1.423-0.693-2.396-0.905c-0.973-0.212-2.169-0.317-3.586-0.317h-2.92v19.139
			H843.784z"/>
		<path fill="#FBE4A8" d="M903.616,395.383c-3.724,0-7.21-0.396-10.457-1.191c-3.248-0.793-6.073-2.158-8.475-4.094
			s-4.295-4.406-5.681-7.41c-1.387-3.005-2.079-6.612-2.079-10.823c0-4.126,0.692-7.644,2.079-10.554
			c1.386-2.908,3.284-5.278,5.696-7.109c2.412-1.829,5.237-3.168,8.475-4.014c3.237-0.847,6.718-1.27,10.441-1.27
			c3.703,0,7.179,0.423,10.427,1.27c3.247,0.846,6.083,2.185,8.506,4.014c2.422,1.831,4.332,4.201,5.729,7.109
			c1.396,2.91,2.095,6.428,2.095,10.554c0,2.793-0.317,5.327-0.952,7.601c-0.635,2.275-1.529,4.297-2.682,6.062
			c-1.153,1.768-2.539,3.291-4.158,4.57c-1.618,1.281-3.423,2.338-5.411,3.174c-1.989,0.836-4.126,1.396-6.411,1.682
			C908.473,395.24,906.093,395.383,903.616,395.383z M903.616,362.437c-1.248,0-2.301,0.159-3.157,0.477
			c-0.857,0.317-1.566,0.73-2.127,1.238s-0.999,1.09-1.317,1.745c-0.316,0.656-0.545,1.328-0.682,2.015
			c-0.138,0.688-0.223,1.365-0.254,2.031c-0.032,0.668-0.048,1.254-0.048,1.762c0,0.487,0.011,1.064,0.032,1.73
			c0.021,0.666,0.095,1.365,0.222,2.094c0.127,0.73,0.338,1.455,0.635,2.175c0.296,0.72,0.725,1.364,1.285,1.937
			c0.561,0.57,1.28,1.031,2.158,1.381c0.878,0.348,1.963,0.523,3.253,0.523c1.27,0,2.344-0.17,3.222-0.508
			c0.878-0.339,1.598-0.789,2.158-1.35s1-1.189,1.317-1.889c0.317-0.697,0.545-1.4,0.683-2.109c0.137-0.709,0.222-1.402,0.254-2.08
			c0.031-0.676,0.048-1.258,0.048-1.745c0-0.508-0.017-1.095-0.048-1.761c-0.032-0.668-0.117-1.35-0.254-2.048
			c-0.138-0.698-0.365-1.38-0.683-2.048c-0.317-0.666-0.757-1.264-1.317-1.793c-0.561-0.528-1.28-0.957-2.158-1.285
			S904.886,362.437,903.616,362.437z"/>
		<path fill="#FBE4A8" d="M547.03,459.842l-12.188-31.516l-4.539-0.697v-12.506h28.978v12.506l-3.301,0.697l5.173,16.631
			l5.174-16.631l-3.301-0.697v-12.506h28.977v12.506l-3.269,0.697l5.142,16.631l5.174-16.631l-3.301-0.697v-12.664h21.963v12.664
			l-4.508,0.697l-12.188,31.516h-21.232l-5.776-17.17l-5.713,17.17H547.03z"/>
		<path fill="#FBE4A8" d="M645.838,434.769l8.792-1.873v9.046l-8.792-1.904v7.015c1.27,0,2.496-0.09,3.682-0.27
			c1.185-0.18,2.285-0.43,3.301-0.746c1.016-0.318,1.946-0.688,2.793-1.111c0.846-0.423,1.576-0.878,2.19-1.365h4.348v16.25h-39.229
			v-12.663l3.809-0.729v-17.996l-3.809-0.73v-12.568h39.229v16.25h-4.348c-0.614-0.465-1.345-0.909-2.19-1.332
			c-0.847-0.424-1.777-0.794-2.793-1.111s-2.116-0.571-3.301-0.762c-1.186-0.19-2.412-0.285-3.682-0.285V434.769z"/>
		<path fill="#FBE4A8" d="M724.974,415.123c2.878,0.614,5.47,1.482,7.776,2.604c2.306,1.121,4.269,2.555,5.888,4.301
			c1.618,1.744,2.861,3.84,3.729,6.283c0.868,2.443,1.302,5.295,1.302,8.554c0,2.856-0.333,5.411-1,7.665
			c-0.666,2.254-1.618,4.232-2.856,5.936c-1.237,1.703-2.756,3.146-4.555,4.332c-1.798,1.186-3.824,2.146-6.077,2.887
			c-2.254,0.742-4.729,1.281-7.427,1.619c-2.698,0.34-5.57,0.508-8.617,0.508h-22.915v-12.663l3.809-0.729v-19.139l-3.809-0.73
			v-11.426H724.974z M716.056,446.418c1.417,0,2.613-0.105,3.586-0.318c0.974-0.211,1.772-0.508,2.396-0.889s1.111-0.856,1.46-1.428
			c0.35-0.571,0.604-1.206,0.762-1.904c0.159-0.698,0.249-1.471,0.271-2.316c0.021-0.847,0.031-1.746,0.031-2.698
			s-0.011-1.851-0.031-2.698c-0.021-0.846-0.111-1.623-0.271-2.332c-0.158-0.709-0.412-1.344-0.762-1.904
			c-0.349-0.561-0.836-1.037-1.46-1.428c-0.624-0.393-1.423-0.693-2.396-0.905c-0.973-0.212-2.169-0.317-3.586-0.317h-2.92v19.139
			H716.056z"/>
		<path fill="#FBE4A8" d="M775.888,460.383c-3.724,0-7.21-0.396-10.457-1.191c-3.248-0.793-6.073-2.158-8.475-4.094
			s-4.295-4.406-5.681-7.41c-1.387-3.005-2.079-6.612-2.079-10.823c0-4.126,0.692-7.644,2.079-10.554
			c1.386-2.908,3.284-5.278,5.696-7.109c2.412-1.829,5.237-3.168,8.475-4.014c3.237-0.847,6.718-1.27,10.441-1.27
			c3.703,0,7.179,0.423,10.427,1.27c3.247,0.846,6.083,2.185,8.506,4.014c2.422,1.831,4.332,4.201,5.729,7.109
			c1.396,2.91,2.095,6.428,2.095,10.554c0,2.793-0.317,5.327-0.952,7.601c-0.635,2.275-1.529,4.297-2.682,6.062
			c-1.153,1.768-2.539,3.291-4.158,4.57c-1.618,1.281-3.423,2.338-5.411,3.174c-1.989,0.836-4.126,1.396-6.411,1.682
			C780.744,460.24,778.364,460.383,775.888,460.383z M775.888,427.437c-1.248,0-2.301,0.159-3.157,0.477
			c-0.857,0.317-1.566,0.73-2.127,1.238s-0.999,1.09-1.317,1.745c-0.316,0.656-0.545,1.328-0.682,2.015
			c-0.138,0.688-0.223,1.365-0.254,2.031c-0.032,0.668-0.048,1.254-0.048,1.762c0,0.487,0.011,1.064,0.032,1.73
			c0.021,0.666,0.095,1.365,0.222,2.094c0.127,0.73,0.338,1.455,0.635,2.175c0.296,0.72,0.725,1.364,1.285,1.937
			c0.561,0.57,1.28,1.031,2.158,1.381c0.878,0.348,1.963,0.523,3.253,0.523c1.27,0,2.344-0.17,3.222-0.508
			c0.878-0.339,1.598-0.789,2.158-1.35s1-1.189,1.317-1.889c0.317-0.697,0.545-1.4,0.683-2.109c0.137-0.709,0.222-1.402,0.254-2.08
			c0.031-0.676,0.048-1.258,0.048-1.745c0-0.508-0.017-1.095-0.048-1.761c-0.032-0.668-0.117-1.35-0.254-2.048
			c-0.138-0.698-0.365-1.38-0.683-2.048c-0.317-0.666-0.757-1.264-1.317-1.793c-0.561-0.528-1.28-0.957-2.158-1.285
			S777.157,427.437,775.888,427.437z"/>
		<path fill="#FBE4A8" d="M845.947,436.356v10.062l3.841,0.697v12.695h-19.107v-12.663l3.809-0.729v-18.06l-3.809-0.729v-12.506
			h22.916l15.266,24.09v-10.791l-3.809-0.793v-12.506h19.074v12.506l-3.809,0.729v18.06l3.809,0.729v12.663h-22.914L845.947,436.356
			z"/>
		<path fill="#FBE4A8" d="M916.983,460.383c-3.724,0-7.21-0.396-10.457-1.191c-3.248-0.793-6.073-2.158-8.475-4.094
			s-4.295-4.406-5.681-7.41c-1.387-3.005-2.079-6.612-2.079-10.823c0-4.126,0.692-7.644,2.079-10.554
			c1.386-2.908,3.284-5.278,5.696-7.109c2.412-1.829,5.237-3.168,8.475-4.014c3.237-0.847,6.718-1.27,10.441-1.27
			c3.703,0,7.179,0.423,10.427,1.27c3.247,0.846,6.083,2.185,8.506,4.014c2.422,1.831,4.332,4.201,5.729,7.109
			c1.396,2.91,2.095,6.428,2.095,10.554c0,2.793-0.317,5.327-0.952,7.601c-0.635,2.275-1.529,4.297-2.682,6.062
			c-1.153,1.768-2.539,3.291-4.158,4.57c-1.618,1.281-3.423,2.338-5.411,3.174c-1.989,0.836-4.126,1.396-6.411,1.682
			C921.84,460.24,919.46,460.383,916.983,460.383z M916.983,427.437c-1.248,0-2.301,0.159-3.157,0.477
			c-0.857,0.317-1.566,0.73-2.127,1.238s-0.999,1.09-1.317,1.745c-0.316,0.656-0.545,1.328-0.682,2.015
			c-0.138,0.688-0.223,1.365-0.254,2.031c-0.032,0.668-0.048,1.254-0.048,1.762c0,0.487,0.011,1.064,0.032,1.73
			c0.021,0.666,0.095,1.365,0.222,2.094c0.127,0.73,0.338,1.455,0.635,2.175c0.296,0.72,0.725,1.364,1.285,1.937
			c0.561,0.57,1.28,1.031,2.158,1.381c0.878,0.348,1.963,0.523,3.253,0.523c1.27,0,2.344-0.17,3.222-0.508
			c0.878-0.339,1.598-0.789,2.158-1.35s1-1.189,1.317-1.889c0.317-0.697,0.545-1.4,0.683-2.109c0.137-0.709,0.222-1.402,0.254-2.08
			c0.031-0.676,0.048-1.258,0.048-1.745c0-0.508-0.017-1.095-0.048-1.761c-0.032-0.668-0.117-1.35-0.254-2.048
			c-0.138-0.698-0.365-1.38-0.683-2.048c-0.317-0.666-0.757-1.264-1.317-1.793c-0.561-0.528-1.28-0.957-2.158-1.285
			S918.253,427.437,916.983,427.437z"/>
		<path fill="#FBE4A8" d="M964.058,459.842l-12.188-31.516l-4.539-0.697v-12.506h28.978v12.506l-3.301,0.697l5.173,16.631
			l5.174-16.631l-3.301-0.697v-12.506h28.977v12.506l-3.269,0.697l5.142,16.631l5.174-16.631l-3.301-0.697v-12.664h21.963v12.664
			l-4.508,0.697l-12.188,31.516h-21.232l-5.776-17.17l-5.713,17.17H964.058z"/>
		<path fill="#FBE4A8" d="M1059.311,425.311c0-0.655-0.111-1.232-0.333-1.729c-0.223-0.497-0.519-0.915-0.889-1.254
			c-0.371-0.338-0.805-0.598-1.302-0.777s-1.011-0.27-1.539-0.27c-1.206,0-2.401,0.28-3.587,0.84
			c-1.185,0.562-2.232,1.445-3.142,2.65h-9.554v-10.98c0.72-0.359,1.492-0.709,2.317-1.048s1.714-0.655,2.666-0.952
			c1.65-0.508,3.612-0.969,5.888-1.381c2.274-0.412,4.914-0.619,7.918-0.619c3.322,0,6.332,0.303,9.03,0.904
			c2.697,0.604,4.999,1.54,6.903,2.81s3.374,2.884,4.411,4.841c1.036,1.957,1.556,4.279,1.556,6.966c0,2.327-0.376,4.312-1.127,5.95
			c-0.752,1.641-1.777,3.021-3.079,4.143c-1.301,1.121-2.819,2.031-4.554,2.729c-1.735,0.698-3.598,1.27-5.586,1.714v3.713h-20.218
			c-0.021,0.021-0.053,0.032-0.095,0.032v-10.95c0.338-0.147,0.925-0.332,1.761-0.555s1.782-0.481,2.841-0.777
			c1.058-0.297,2.163-0.641,3.316-1.031c1.153-0.393,2.2-0.831,3.143-1.318c0.941-0.486,1.719-1.031,2.332-1.635
			C1059.004,426.725,1059.311,426.053,1059.311,425.311z M1044.997,447.655h20.312v12.187h-20.312V447.655z"/>
	</g>
	<polygon fill="#A85C22" points="1117.876,581.101 753.208,568.502 737.699,760.9 920.999,674.699 	"/>
	<linearGradient id="SVGID_3_" gradientUnits="userSpaceOnUse" x1="715.0637" y1="657.2203" x2="1040.3967" y2="737.3007">
		<stop  offset="0" style="stop-color:#B77430"/>
		<stop  offset="0.358" style="stop-color:#BF7A31"/>
		<stop  offset="0.567" style="stop-color:#C78032"/>
		<stop  offset="1" style="stop-color:#D19853"/>
	</linearGradient>
	<polygon fill="url(#SVGID_3_)" points="753.208,568.502 1063.841,718.227 737.699,760.9 	"/>
</g>
<g id="fonts" display="none">
	<polygon display="inline" fill="#A85C22" points="1117.876,581.101 753.208,568.502 737.699,760.9 920.999,674.699 	"/>
	<polygon display="inline" fill="#A85C22" points="617.174,258.632 617.174,139.1 430.476,279.949 541.456,297.1 	"/>
	<linearGradient id="SVGID_4_" gradientUnits="userSpaceOnUse" x1="715.0637" y1="657.2203" x2="1040.3967" y2="737.3007">
		<stop  offset="0" style="stop-color:#B77430"/>
		<stop  offset="0.358" style="stop-color:#BF7A31"/>
		<stop  offset="0.567" style="stop-color:#C78032"/>
		<stop  offset="1" style="stop-color:#D19853"/>
	</linearGradient>
	<polygon display="inline" fill="url(#SVGID_4_)" points="753.208,568.502 1063.841,718.227 737.699,760.9 	"/>
	<linearGradient id="SVGID_6_" gradientUnits="userSpaceOnUse" x1="543.0356" y1="332.9499" x2="1264.3302" y2="452.1464">
		<stop  offset="0" style="stop-color:#B77430"/>
		<stop  offset="0.358" style="stop-color:#BF7A31"/>
		<stop  offset="0.567" style="stop-color:#C78032"/>
		<stop  offset="1" style="stop-color:#D19853"/>
	</linearGradient>
	<polygon display="inline" fill="url(#SVGID_6_)" points="430.476,279.949 1143.586,198.527 1117.876,581.101 501.911,559.819 	"/>
	<rect x="529.765" y="350.058" display="inline" fill="none" width="574.892" height="222.541"/>
	<text transform="matrix(1 0 0 1 529.7647 394.8105)" display="inline"><tspan x="0" y="0" fill="#FBE4A8" font-family="'HoltwoodOneSC'" font-size="65" letter-spacing="1">What do </tspan><tspan x="0" y="65" fill="#FBE4A8" font-family="'HoltwoodOneSC'" font-size="65" letter-spacing="1">we do now?</tspan></text>
</g>
</svg>
